<?xml version="1.0" encoding="utf-8"?>
<!-- Generator: Adobe Illustrator 15.1.0, SVG Export Plug-In . SVG Version: 6.00 Build 0)  -->
<!DOCTYPE svg PUBLIC "-//W3C//DTD SVG 1.1//EN" "http://www.w3.org/Graphics/SVG/1.1/DTD/svg11.dtd">
<svg version="1.1" id="Layer_1" xmlns="http://www.w3.org/2000/svg" xmlns:xlink="http://www.w3.org/1999/xlink" x="0px" y="0px"
	 width="435.03px" height="352.308px" viewBox="88.485 217.5 435.03 352.308" enable-background="new 88.485 217.5 435.03 352.308"
	 xml:space="preserve">
<path fill="#A4A9AD" d="M350.975,267.359c-116.525,0-209.271,63.822-209.271,63.822s114.363-9.265,114.363,14.411
	c0,20.793-90.585,54.555-90.585,54.555s71.438,1.956,71.438,19.147c0,29.13-148.436,68.35-148.436,68.35
	s51.983,23.883,133.201,23.883c145.553,0,299.855-82.557,299.855-146.79C521.541,305.549,434.764,267.359,350.975,267.359z"/>
<path fill="#111111" d="M350.975,272.507c-84.099,0-156.361,34.278-188.479,52.188c0,0,98.717-7,98.717,20.897
	c0,17.396-42.41,38.292-72.056,50.748c24.293,2.366,53.012,8.234,53.012,22.955c0,27.175-90.996,56.203-136.803,69.071
	c20.69,6.896,61.969,17.909,116.319,17.909c146.273,0,294.707-82.349,294.707-141.538
	C516.393,307.813,430.545,272.507,350.975,272.507z"/>
<path fill="#F95602" d="M194.51,487.232l-17.191,4.529c13.137,1.259,26.331,1.843,39.528,1.75
	c173.45,0,288.534-105.51,288.534-122.289c-0.008-1.151-0.182-2.295-0.518-3.396C443.41,440.911,321.328,491.35,194.51,487.232z"/>
<path fill="#FFFFFF" d="M353.137,286.814c-64.851,0-135.363,25.117-135.363,25.117s72.571-3.603,72.571,26.763
	c0,28.308-51.263,49.102-51.263,49.102s31.087,7.206,31.087,25.218c0,40.868-100.879,66.292-100.879,66.292
	c211.742,10.294,332.693-102.937,332.693-123.833C501.982,335.916,443.104,286.814,353.137,286.814z"/>
<path fill="#B5985A" d="M353.137,291.035c-40.66,0-83.895,10.088-109.938,17.396c0,0,51.366,2.058,51.366,30.263
	c0,22.854-28.72,40.455-44.263,48.381c10.19,4.117,24.087,12.25,24.087,25.939c0,30.47-48.483,52.087-79.364,62.792
	c192.08,0,302.84-102.113,302.84-120.333C497.865,338.901,440.939,291.035,353.137,291.035z"/>
<path fill="#FFFFFF" d="M317.621,321.607c0,0,56.721,12.764,82.146,29.75L289.11,379.973l104.892-3.397
	c-23.365,17.088-108.6,57.954-108.6,57.954s104.792-15.544,170.979-76.071C397.502,305.549,317.621,321.607,317.621,321.607z"/>
<path fill="#111111" d="M341.916,323.667c0,0,43.852,11.219,67.836,29.44l-83.174,21.513l80.805-2.676
	c-22.645,19.043-89.143,51.058-89.143,51.058c34.998-9.265,90.275-28.514,131.553-64.439
	C413.047,327.784,368.576,323.048,341.916,323.667z"/>
</svg>
