<?xml version="1.0" encoding="utf-8"?>
<!-- Generator: Adobe Illustrator 15.1.0, SVG Export Plug-In . SVG Version: 6.00 Build 0)  -->
<!DOCTYPE svg PUBLIC "-//W3C//DTD SVG 1.1//EN" "http://www.w3.org/Graphics/SVG/1.1/DTD/svg11.dtd">
<svg version="1.1" id="Layer_1" xmlns="http://www.w3.org/2000/svg" xmlns:xlink="http://www.w3.org/1999/xlink" x="0px" y="0px"
	 width="435.03px" height="352.308px" viewBox="88.485 217.5 435.03 352.308" enable-background="new 88.485 217.5 435.03 352.308"
	 xml:space="preserve">
<path fill="#002654" d="M523.515,222.167H164.042c23.817,37.128,31.748,49.342,11.475,48.782l-29.835-48.782H88.485l129.897,212.16
	c-1.785-0.076-3.519-0.178-5.228-0.178c-53.295,0-95.013,29.835-95.013,67.829c0,37.995,41.718,67.83,94.987,67.83
	c53.167,0,94.911-29.758,94.911-67.83c0-9.588-2.703-18.869-7.981-27.591l-29.07-47.531c0,0,23.46,4.717,41.004-3.392l-8.466-10.966
	c0,0,35.7,3.315,68.595-6.502l-11.117-11.832c0,0,50.082-1.275,84.762-45.772h-3.442c0,0,25.856-12.495,36.72-40.035h-3.314
	c0,0,16.523-12.342,22.185-37.74h-4.922c0,0,26.393-18.538,30.473-48.45H523.515z"/>
<g>
	<path fill="#FFFFFF" d="M514.59,228.465H175.695c27.795,42.075,19.584,48.833-3.621,48.833l-29.912-48.833H99.705l130.458,213.18
		c-5.636-0.782-11.318-1.191-17.009-1.224c-49.776,0-88.74,27.03-88.74,61.583c0,34.526,38.938,61.557,88.74,61.557
		c49.725,0,88.638-27.03,88.638-61.531c-0.04-8.609-2.486-17.036-7.063-24.327l-36.975-60.358c0,0,25.704,8.466,43.732,2.805
		l-11.398-14.637c0,0,42.432,3.519,70.813-2.219l-13.515-14.331c0,0,63.24-0.586,86.776-39.627h-10.838
		c0,0,29.835-4.182,44.88-36.363h-11.016c0,0,25.679-11.806,32.589-38.683H477.87c0.051,0,26.673-17.671,36.72-45.849V228.465z
		 M285.855,555.503h2.805v8.567h1.02v-8.542h3.06v-1.021h-6.885V555.503z M298.197,562.26l-2.474-7.777h-1.658v9.588h1.02v-8.16
		l2.601,8.16h1.02l2.55-8.16v8.16h1.02v-9.562h-1.632L298.197,562.26z"/>
</g>
<path fill="#FCB514" d="M507.501,232.8H183.6c19.125,29.223,22.822,50.745-14.025,48.705L139.74,232.8h-32.181l131.503,214.812
	c-8.502-1.859-17.18-2.8-25.882-2.806c-46.487,0-84.303,25.653-84.303,57.197c0,31.492,37.816,57.119,84.303,57.119
	c46.461,0,84.277-25.627,84.277-57.119c0-7.65-2.167-15.045-6.375-22.032l-42.967-69.946c0,0,27.03,9.435,45.645,7.445
	c0,0-8.466-10.455-12.24-16.982c0,0,30.753,3.697,70.89,0.178l-15.096-15.937l3.952,0.051c65.102,0,84.66-33.354,84.66-33.354
	h-17.697c0,0,43.962-11.22,53.346-36.337h-16.319c0,0,34.781-17.008,38.198-36.337h-19.839c0-0.051,34.681-19.635,43.86-45.9
	L507.501,232.8z"/>
<path fill="#002F87" d="M191.888,237.492c25.5,41.692,0,51.102-25.067,48.552l-29.733-48.552h-21.241L249.135,455.16
	c-11.603-3.811-23.742-5.73-35.955-5.687c-44.013,0-79.688,23.511-79.688,52.53c0,28.993,35.649,52.529,79.662,52.529
	c43.911,0,79.56-23.536,79.56-52.529c0-6.937-2.04-13.516-5.712-19.636l-49.394-80.631c0,0,31.875,11.093,46.665,11.093
	c0,0-6.732-8.594-10.787-17.799c0,0,38.25,4.08,68.851,1.733l-16.678-17.646c0,0,4.998,0.969,15.657,0.969
	c53.882,0,74.562-24.021,74.562-24.021H255.739l-2.371-3.825h132.854c0,0,54.188-10.379,67.27-32.563H233.427l-2.295-3.825h202.47
	c0,0,37.74-18.156,43.096-32.513H211.191l-2.295-3.825h244.035c0,0,35.599-18.513,47.176-42.024H191.888z"/>
</svg>
