<svg xmlns="http://www.w3.org/2000/svg" viewBox="0 0 24 16"><path fill="#FFF" d="M15.063 2.266H3.743v.358c0 .994.476 1.872 1.196 2.388H3.74v.358c0 .994.477 1.872 1.197 2.388H3.74v.358c0 .994.477 1.87 1.197 2.387H3.74v.358c0 1.585 1.208 2.874 2.69 2.874h2.564l1.89-3.197a5.194 5.194 0 0 0 4.177 2.118 5.2 5.2 0 0 0 5.194-5.194 5.2 5.2 0 0 0-5.194-5.194z"/><path fill="#FFF" d="M11.045 11.588a.375.375 0 1 0 0 .75.375.375 0 0 0 0-.75zm0 .67a.295.295 0 1 1 0-.59.295.295 0 0 1 0 .59z"/><path fill="#FFF" d="M11.2 11.876a.128.128 0 0 0-.128-.127h-.18v.427h.08v-.174h.057l.08.174h.09l-.086-.18a.127.127 0 0 0 .085-.12zm-.128.047h-.1v-.094h.1c.025 0 .047.02.047.046 0 .025-.022.047-.048.047z"/><path d="M15.063 2.624H4.203c0 1.388 1.046 2.515 2.334 2.515h4.092a.116.116 0 0 1 0 .23H4.203c0 1.39 1.045 2.515 2.333 2.515h2.467c.064 0 .116.052.116.115s-.052.116-.116.116h-4.8c0 1.388 1.045 2.514 2.333 2.514h.843a.115.115 0 0 1 0 .23H4.204c0 1.39 1.045 2.516 2.333 2.516h2.256l4.216-7.128a2.387 2.387 0 1 1-.33 1.263l-1.597 2.696a4.838 4.838 0 1 0 3.98-7.583z"/><circle fill="#F74902" cx="15.063" cy="7.46" r="1.373"/></svg>