<svg xmlns="http://www.w3.org/2000/svg" viewBox="0 0 24 16"><g fill="#FFF"><path d="M20.076 7.28c0-1.638-1.02-3.253-2.826-4.245l-.692.55c1.235.777 1.962 1.938 1.962 3.257 0 3.076-3.802 5.862-8.032 5.862-.434 0-.86-.03-1.27-.093l-1.43 1.058a9.24 9.24 0 0 0 2.96.467c5.022 0 9.328-3.39 9.328-6.855"/><path d="M13.688 8.425l-2.584.505 5.73-4.71-2.668.358L19.352.465l-6.036 1.59a9.603 9.603 0 0 0-.24-.004c-4.947 0-9.152 3.363-9.152 6.91 0 1.74.938 3.126 2.39 4.023l-2.23 2.552 9.604-7.11zm-9.075.012c0-3.182 3.98-5.863 8.032-5.863h.084L8.81 6.957l2.252-.356-4.438 4.293 1.8-.325-1.258 1.438c-1.526-.725-2.555-1.972-2.555-3.57M17.7 12.076h.1v.3h.036v-.3h.104v-.036h-.24zM18.133 12.313l-.087-.273h-.058v.336h.036v-.286l.09.286h.036l.09-.286v.286h.036v-.336h-.057z"/></g></svg>