<?xml version="1.0" encoding="utf-8"?>
<!-- Generator: Adobe Illustrator 15.1.0, SVG Export Plug-In . SVG Version: 6.00 Build 0)  -->
<!DOCTYPE svg PUBLIC "-//W3C//DTD SVG 1.1//EN" "http://www.w3.org/Graphics/SVG/1.1/DTD/svg11.dtd">
<svg version="1.1" id="Layer_1" xmlns="http://www.w3.org/2000/svg" xmlns:xlink="http://www.w3.org/1999/xlink" x="0px" y="0px"
	 width="435.031px" height="352.309px" viewBox="0 0 435.031 352.309" enable-background="new 0 0 435.031 352.309"
	 xml:space="preserve">
<path fill="#FFFFFF" d="M368.139,162.434c0,0,4.396-19.465-16.812-35.371c0.209,16.883-7.116,23.861-7.116,23.861l-2.163-1.048
	l-4.743-12.765l20.581-43.045c1.047,3.767,2.232,8.302,2.232,8.302l5.929-11.721c3.435-7.167,4.994-15.088,4.535-23.023
	l5.023-10.534l-2.932-42.625c-2.092-8.302-8.51-14.372-16.812-17.023c-7.952-2.511-15.836-1.186-21.766,3.628l-90.276,69.834
	c-45.969,1.675-81.758,22.046-103.943,58.811L36.136,213.242c5.512,12.208,31.394,44.718,71.508,37.185l20.79-3.768
	c0,0,17.023,92.997,97.875,107.784c0,0-27.343-44.438-20.715-81.134c0,0,18.621,53.717,54.551,46.183
	c-28.952-35.44-13.116-70.741-13.116-70.741s14.65,23.86,47.719,20.93c0,0-22.534-23.858-14.931-55.95l54.417,2.022l28.463-11.93
	l19.327-35.041L368.139,162.434z"/>
<path fill="#111111" d="M355.513,137.737c-0.907,10.046-9.977,19.465-9.977,19.465l-7.535-3.698l-6.209-16.604l26.859-56.09
	c1.252,2.395,2.233,4.922,2.932,7.534c3.326-6.743,4.682-14.288,3.904-21.767l5.023-10.464l-2.791-40.812
	c-1.395-5.512-6.695-10.954-13.395-13.046c-5.854-2.071-12.36-0.991-17.229,2.861l-91.462,70.671
	c-46.458,1.326-80.782,21.627-101.852,57.277L42.485,214.567c0,0,18.767,35.509,61.881,31.255l27.836-4.953
	c3,12.904,19.673,87.553,84.27,105.623c-10.948-21.069-25.109-58.464-11.227-89.16c18.481,59.3,45.62,57.696,45.62,57.696
	c-26.231-37.255-4.883-76.742-4.883-76.742c10.675,18.208,26.093,26.372,38.649,26.372c0,0-18.419-24.349-8.72-56.16l57.415,2.093
	l25.813-10.814l15.766-28.76l-12.348-5.652C366.396,147.854,355.513,137.737,355.513,137.737z"/>
<path fill="#8C2633" d="M357.398,166.899h0.067c0.489-2.093,2.861-12.836-0.417-20.232c-1.805,5.933-5.325,11.201-10.117,15.139
	l-12.697-6.139l0.071,0.07l25.95,16.812l-15.835,3.714h-0.071l-14.162-5.249h0.071l-0.14-0.069
	c0.836-4.257,2.162-13.675-0.837-20.512c-1.977,6.309-5.644,11.956-10.605,16.324l-13.742-5.091l-11.511-30.068l41.788-67.533
	c2.925,3.01,5.309,6.503,7.045,10.325c2.093-6.627,0.071-15.139-1.255-19.604l5.093-8.231l11.86-8.582l2.233,11.163l-19.813,54.975
	l15.695-33.907c0.698,0.56,2.164,1.675,5.372,8.372c1.675-5.301-0.837-17.092-0.837-17.092l4.605-8.791l-2.165-34.184
	c-1.811,2.931-3.695,9.209-4.534,11.651c-3.837-26.301-14.021-6.768-16.533-22.464l-8.441,6.558
	c-1.256,6.601-1.91,13.302-1.954,20.022c0,0-5.929-6.209-7.812-12.139c-1.322,7.251-2.022,14.604-2.093,21.975
	c0,0-6.627-6.976-8.65-13.604c-1.455,7.919-2.224,15.949-2.303,24c0,0-7.117-7.535-9.419-14.721
	c-1.547,8.685-2.388,17.481-2.51,26.301c0,0-8.304-8.79-10.536-16.883l-42,32.44c-2.79,3.35-15.974,16.674-20.718,36.766
	c0,0-0.07-14.163,1.047-18.557c-3.698,2.65-17.506,13.534-25.11,21.417c0,0,0.907-14.302,6.767-22.395
	c-12.417,9-31.323,28.184-31.323,28.184c15.697-26.999,28.185-35.09,34.458-40.323c-31.598,10.046-59.016,32.161-71.015,69.625
	c0.154-4.584,0.621-9.152,1.395-13.673L52.112,213.59c0,0,13.814,25.395,52.672,24.416l50.719-8.021c0,0-5.023-13.533-4.535-23.092
	c6.139,21.349,16.813,29.23,16.813,29.23l-28.464,3.769c5.163,18.696,16.465,71.367,68.021,96.065
	c-10.294-19.5-14.521-41.633-12.139-63.556c3.279-21.905,14.438-35.301,14.438-35.301c1.812,25.813,14.09,45.277,22.043,55.393
	c2.025,2.881,4.366,5.524,6.978,7.884c0,0-10.396-18.767-2.791-52.394c0.698-1.951,6.418-18.068,12.349-23.999
	c4.661,12.986,14.089,23.711,26.369,30.001c-13.323-27.627-1.743-54.069-1.743-54.069s60.137,2.233,60.556,2.233l22.604-9.488
	l11.65-21.088L357.398,166.899z"/>
<path fill="#111111" d="M134.714,159.225c-3.768,3.208-13.884,11.373-25.186,20.459c-14.93,11.931-29.859,23.837-44.789,35.719
	c6.418,11.582,21.627,14.791,30.487,15.627c2.247,0.248,4.506,0.366,6.768,0.351l43.184-7.674
	C145.178,223.707,82.809,209.543,134.714,159.225z M275.841,118.203l63.347-71.857l-66.556,68.229c0,0-16.604,2.791-40.604,21.697
	c12.001,23.093-45.341,95.108-69.619,75.992c4.954,14.649,23.022,8.651,23.022,8.651c-2.372,5.65-25.952,46.043,5.023,94.042
	c-50.509-81.694,67.597-161.872,74.084-164.454c-1.535-11.092-18.069-14.232-18.069-14.232
	C254.285,126.157,278.283,117.645,275.841,118.203L275.841,118.203z"/>
<polygon fill="#8C2633" points="319.933,133.621 329.282,147.017 323.978,133.761 329.282,120.156 "/>
<path fill="#E2D6B5" d="M230.355,93.157c0.906-2.86-4.813-2.301-4.813-2.301c3.146-1.997,6.518-3.612,10.046-4.814
	c1.464-1.744,2.65-3.209,3.278-3.837c-2.859,0.208-10.185,1.814-24.626,12.069C219.548,93.273,224.958,92.898,230.355,93.157z
	 M64.74,215.403c6.418,11.582,21.627,14.791,30.487,15.627c-2.581-2.511-11.163-11.44-8.511-18.068
	c5.008,3.653,10.869,5.958,17.022,6.696c0,0-8.092-22.533,5.791-39.974C94.599,191.615,79.669,203.521,64.74,215.403z
	 M357.398,166.899h0.067c0.489-2.093,2.861-12.836-0.417-20.232c-1.805,5.933-5.325,11.201-10.117,15.139l-12.697-6.139l0.071,0.07
	l25.95,16.812l-15.835,3.714h-0.071l-14.162-5.249h0.071l-0.14-0.069c0.836-4.257,2.162-13.675-0.837-20.512
	c-1.977,6.309-5.644,11.956-10.605,16.324l-13.742-5.091l-11.511-30.068l41.788-67.533c2.925,3.01,5.309,6.503,7.045,10.325
	c2.093-6.627,0.071-15.139-1.255-19.604l5.093-8.231l11.86-8.582l2.233,11.163l-19.813,54.975l15.695-33.907
	c0.698,0.56,2.164,1.675,5.372,8.372c1.675-5.301-0.837-17.092-0.837-17.092l4.605-8.791l-6.838-16.952l-19.255,10.604
	l-63.276,71.857c2.441-0.558-21.557,7.954-29.44,18c0,0,16.534,3.209,18.069,14.301c-6.418,2.512-124.595,82.692-74.085,164.454
	c4.896,7.56,10.552,14.596,16.884,20.999c-10.309-19.493-14.515-41.639-12.069-63.556c1.988-18.332,8.248-35.942,18.272-51.416
	c0,0-0.488,45.488,18.139,71.508c2.026,2.881,4.366,5.524,6.976,7.884c0,0-10.394-18.767-2.79-52.394
	c3.418-14.472,8.843-28.397,16.115-41.369c-5.23,24.836,17.163,42.486,22.605,47.439c-13.326-27.626-1.744-54.138-1.744-54.138
	s60.138,2.233,60.624,2.304l20.929-20.582l1.605,11.093l11.65-21.157L357.398,166.899z"/>
<polygon fill="#111111" points="303.677,107.459 284.352,130.901 301.166,161.876 289.794,130.901 "/>
</svg>
