<?xml version="1.0" encoding="utf-8"?>
<!-- Generator: Adobe Illustrator 15.1.0, SVG Export Plug-In . SVG Version: 6.00 Build 0)  -->
<!DOCTYPE svg PUBLIC "-//W3C//DTD SVG 1.1//EN" "http://www.w3.org/Graphics/SVG/1.1/DTD/svg11.dtd">
<svg version="1.1" id="Layer_1" xmlns="http://www.w3.org/2000/svg" xmlns:xlink="http://www.w3.org/1999/xlink" x="0px" y="0px"
	 width="435.031px" height="352.309px" viewBox="0 0 435.031 352.309" enable-background="new 0 0 435.031 352.309"
	 xml:space="preserve">
<g id="reg">
	<path fill="#FFFFFF" d="M356.211,318.835c4.95,0.017,8.976-3.98,8.994-8.929c0.018-4.949-3.979-8.976-8.928-8.994l0,0
		c-4.943-0.018-8.965,3.975-8.982,8.917c-0.019,4.944,3.975,8.965,8.916,8.983V318.835z M356.211,302.847
		c3.869-0.023,7.024,3.093,7.048,6.961c0.024,3.867-3.092,7.022-6.96,7.047l0,0c-3.874,0.018-7.029-3.109-7.047-6.981
		c-0.019-3.874,3.108-7.029,6.982-7.048l0,0L356.211,302.847z"/>
	<path fill="#FFFFFF" d="M354.472,310.83h1.371l1.957,4.133h2.132l-2.045-4.351c1.563-0.621,2.327-2.391,1.705-3.953
		c-0.443-1.119-1.504-1.87-2.705-1.919h-4.35v10.223h1.957v-4.133H354.472z M354.472,306.698h2.393c0.601,0,1.087,0.486,1.087,1.087
		c0.024,0.6-0.441,1.106-1.043,1.131c-0.015,0-0.028,0.001-0.044,0.001h-2.393v-2.263V306.698z"/>
</g>
<path fill="#FFCA06" d="M222.515,350.154c96.097,0,174-77.902,174-174s-77.903-174-174-174c-96.098,0-174,77.902-174,174
	S126.417,350.154,222.515,350.154z"/>
<path d="M222.515,343.673c92.494,0.023,167.495-74.938,167.519-167.432c0-0.028,0-0.057,0-0.086
	c0-92.518-75.001-167.519-167.519-167.519c-92.518,0-167.519,75-167.519,167.519C54.997,268.672,129.997,343.673,222.515,343.673
	L222.515,343.673z"/>
<path fill="#FFCA06" d="M329.852,82.194c-4.151-4.737-8.62-9.184-13.377-13.311L287.46,97.854l13.571,13.159l28.82-28.797V82.194z
	 M231.976,33.865c-3.148-0.24-6.303-0.371-9.461-0.392c-3.156,0.014-6.312,0.138-9.461,0.37v45.85h18.922V33.865z M142.476,82.781
	l-13.921-13.92c-4.785,4.133-9.2,8.613-13.354,13.355l27.275,27.296V82.781z M128.599,283.469l13.92-13.92v-26.753l-27.274,27.318
	C119.377,274.834,123.835,279.314,128.599,283.469L128.599,283.469z M154.524,166.715H80.227c-0.218,3.11-0.37,6.264-0.37,9.439
	c0,3.175,0.174,6.308,0.392,9.462h74.298v-18.923L154.524,166.715z M292.767,176.154l9.701,9.462h62.357
	c0.218-3.133,0.37-6.309,0.37-9.462s-0.152-6.308-0.349-9.439H302.49L292.767,176.154z M287.46,254.454l28.993,29.015
	c4.741-4.133,9.2-8.613,13.332-13.354l-28.796-28.797l-13.573,13.158L287.46,254.454z M213.054,318.443
	c3.153,0.218,6.308,0.369,9.461,0.369c3.176,0,6.307-0.174,9.461-0.392v-45.805h-18.922v45.805V318.443z"/>
<path fill="#FFCA06" d="M161.833,227.483l-12.028,11.68v26.101h116.058l29.362-28.536v-47.958l-12.962-12.615l12.962-12.615v-47.98
	l-29.362-28.58H149.805v26.165l12.05,11.702v102.66L161.833,227.483z"/>
<path fill="#FFFFFF" d="M205.289,272.637h-54.853l-15.834,15.834c19.967,15.659,44.196,26.1,70.688,29.297v-45.109V272.637z
	 M268.843,272.637h-29.08v45.109c25.798-3.117,50.247-13.251,70.688-29.298l-28.559-28.558L268.843,272.637L268.843,272.637z
	 M154.524,219.785v-26.404H80.922c3.109,25.8,13.243,50.251,29.297,70.688L154.524,219.785z M154.524,132.545L110.219,88.24
	c-16.045,20.44-26.178,44.889-29.297,70.688h73.602V132.545z M281.892,92.417l28.537-28.558
	c-20.441-16.041-44.891-26.167-70.688-29.275v45.153h29.057l13.052,12.702L281.892,92.417z M302.555,193.402v38.41l32.255,32.233
	c16.052-20.439,26.191-44.887,29.319-70.688h-61.553L302.555,193.402z M205.289,79.693V34.561
	c-25.801,3.108-50.253,13.242-70.688,29.297l15.877,15.877h54.81V79.693z M302.555,158.928h61.553
	c-3.115-25.799-13.249-50.249-29.298-70.688l-32.255,32.277V158.928z"/>
<path d="M155.851,241.731v17.551h107.576l25.795-25.099v-42.848l-15.595-15.182l15.551-15.16v-42.848l-25.772-25.078H155.851v17.509
	l12.05,11.701v107.749l-12.072,11.703H155.851z"/>
<path fill="#FFCA06" d="M261.556,222.7v-22.513l-11.811-11.527h-56.115v45.502h56.115L261.556,222.7L261.556,222.7z M261.556,152.12
	v-22.511l-11.811-11.484h-56.115v45.457h56.115L261.556,152.12z"/>
<path d="M255.532,132.219l-8.266-8.048h-47.567v33.386h47.633l8.221-8.004v-17.334H255.532z M255.532,202.755l-8.266-8.004h-47.567
	v33.364h47.633l8.221-8.005v-17.399L255.532,202.755z"/>
<path fill="#FFFFFF" d="M248.179,146.487v-11.223l-3.871-3.763h-37.301v18.749h37.301L248.179,146.487z M248.179,217.045v-11.224
	l-3.871-3.763h-37.301v18.77h37.301L248.179,217.045z"/>
</svg>
