<?xml version="1.0" encoding="utf-8"?>
<!-- Generator: Adobe Illustrator 15.1.0, SVG Export Plug-In . SVG Version: 6.00 Build 0)  -->
<!DOCTYPE svg PUBLIC "-//W3C//DTD SVG 1.1//EN" "http://www.w3.org/Graphics/SVG/1.1/DTD/svg11.dtd">
<svg version="1.1" id="Layer_1" xmlns="http://www.w3.org/2000/svg" xmlns:xlink="http://www.w3.org/1999/xlink" x="0px" y="0px"
	 width="435.031px" height="352.309px" viewBox="0 0 435.031 352.309" enable-background="new 0 0 435.031 352.309"
	 xml:space="preserve">
<path d="M409.515,175.654c0-96.193-78.307-174.5-174.5-174.5s-174.5,78.307-174.5,174.5s78.307,174.5,174.5,174.5
	S409.515,271.847,409.515,175.654z"/>
<path d="M235.015,3.335C140,3.335,62.696,80.639,62.696,175.654c0,95.016,77.304,172.319,172.319,172.319
	c95.016,0,172.319-77.304,172.319-172.319C407.334,80.639,330.031,3.335,235.015,3.335z"/>
<path fill="#A7A9AC" d="M235.015,19.956c-85.854,0-155.698,69.843-155.698,155.698s69.843,155.697,155.698,155.697
	s155.697-69.843,155.697-155.697S320.87,19.956,235.015,19.956z"/>
<g id="reg">
	<path fill="#FFFFFF" d="M365.759,304.959c-4.518,0-8.18,3.662-8.18,8.18s3.662,8.18,8.18,8.18s8.18-3.662,8.18-8.18
		S370.277,304.959,365.759,304.959z M365.759,319.573c-3.554,0-6.435-2.882-6.435-6.435c0-3.554,2.881-6.435,6.435-6.435
		c3.555,0,6.435,2.881,6.435,6.435C372.194,316.691,369.314,319.573,365.759,319.573z"/>
	<path fill="#FFFFFF" d="M369.096,311.24c0-1.529-1.239-2.77-2.77-2.77l0,0H362.4v9.313h1.746v-3.796h1.265l1.744,3.796h1.964
		l-1.854-3.926C368.364,313.456,369.094,312.411,369.096,311.24z M366.327,312.244h-2.181v-2.028h2.181
		c0.567,0,1.025,0.436,1.025,1.003c0,0.546-0.437,1.004-1.025,1.004V312.244z"/>
</g>
<path fill="#1F246A" d="M235.015,221.722c37.917-28.764,73.979-59.895,107.972-93.205h-0.741c-13.175,0-16.207-15.051-20.286-15.051
	c-1.657,0.131-7.853,2.094-11.604,3.708c2.466,0.872,4.8,0,7.7,1.876c3.773-0.35,6.609,1.483,6.609,6.151
	c0,4.646-1.025,10.819-9.88,10.819c-12.107,0-12.435-11.866-20.657-11.866c-2.508,0-11.212,3.795-18.541,3.795
	c-9.291,0-15.226-6.762-23.121-6.762c-3.054,0-3.817,2.661-3.817,4.035c0,3.534,4.362,4.755,4.362,8.594
	c0.007,1.463-0.8,2.808-2.093,3.49c1.09,0.807,2.049,1.832,2.049,3.49c0,0.654-0.218,1.222-0.436,1.745
	c1.68-1.309,3.185-2.312,4.907-2.312c5.519,0,7.983,9.379,7.983,12.979c0,5.824-5.496,6.369-10.338,6.369
	c-4.516,0-14.441,4.188-18.541,4.188c-4.08,0-10.165-3.49-10.842-7.853c-1.613,2.116-4.732,3.556-8.615,3.556
	c-4.275,0-12.477-4.733-17.232-4.733c-3.708,0.349-10.383-0.153-10.383-8.9c0-0.524,0.087-0.981,0.218-1.417
	c-5.453,2.835-12.913,0.436-12.913,0.436c-9.205,4.581-10.514-0.502-10.47-2.443c-1.963,1.461-4.362,4.297-7.634,4.297
	c-5.322,0-6.653-5.301-9.772-8.224c-1.243-1.308-4.537-2.551-6.261-4.471c-2.944-2.945-5.736-7.853-15.705-15.836
	c-2.77-2.181-5.125-10.099-5.125-17.231c0-13.24,2.006-26.677,26.022-32.785c24.539-6.195,19.893-37.561,65.655-37.561
	c12.914,0,23.558,2.443,34.246,6.326c-2.924-1.483-4.231-3.097-3.643-5.235c0.545-1.963,2.182-5.737,39.742,4.581
	c22.685,6.26,40.528,12.214,38.892,18.213c-1.964,7.111-15.443-0.742-43.036-8.289c-11.037-3.054-19.959-5.082-26.132-7.023
	c19.152,7.744,39.917,19.413,75.473,29.6c12.433,3.207,20.438,3.49,20.438,9.99c0.004,1.192-0.505,2.328-1.396,3.119
	c7.11-0.479,9.662,8.812-5.672,8.812c-8.659,0-14.941-3.381-14.941-8.005c-0.022-1.98,1.075-3.804,2.835-4.712
	c-3.826-1.107-7.748-1.859-11.713-2.246c0.546,1.919,1.2,4.362,1.2,7.416c0,5.933-1.353,8.681-1.854,12.062
	c2.618-0.48,5.235-1.745,7.285-1.745c8.791,0,3.797,12.869,14.658,14.222c4.146,0.785,4.035,3.795,4.035,3.795
	c4.079-0.786,6.894-0.48,6.894,7.722c0,0.524,0,1.025-0.045,1.527c10.034-10.187,15.531-16.207,15.706-16.425
	c0.903-1.02,2.216-1.581,3.576-1.527c-25.913-47.965-76.735-80.641-135.019-80.641S125.909,54.813,99.93,102.801
	c1.351-0.035,2.65,0.522,3.555,1.527C104.053,104.982,154.527,160.69,235.015,221.722L235.015,221.722z M247.317,169.372
	c45.807-16.948,63.366-26.044,65.722-19.675c2.312,6.282-22.118,19.347-59.832,33.286c-22.576,8.354-26.611,3.795-27.767,0.611
	c-1.462-4.015-0.175-6.064,21.899-14.222H247.317z M374.027,110.588c-0.15,5.841-2.484,11.414-6.544,15.617
	c-0.61,0.655-49.995,55.186-117.439,106.707c3.49,2.573,7.788,5.671,11.932,8.616c0.087-0.545,0.288-1.065,0.589-1.527
	c1.527-2.399,5.716-3.337,9.598-0.915c5.89,3.751,6.108,9.379,4.973,15.835c1.745,0.162,3.288,1.196,4.102,2.748
	c0,0,2.007-0.218,3.795,2.618c0,0,2.116-0.174,3.816,2.66c0,0,1.964-0.283,3.796,2.619c0,0,2.095-0.153,3.818,2.66
	c0,0,2.071-0.218,3.795,2.617c0,0,2.051-0.218,3.817,2.661c0,0,2.05-0.218,3.795,2.618c0,0,1.963-0.218,3.817,2.661
	c0.065,0,0.152-0.044,0.219,0c2.617,0.437,4.361,2.748,4.732,5.933c3.447-3.141,6.871-4.951,11.299-2.181
	c4.02,2.687,5.552,7.858,3.644,12.302c54.803-44.374,72.266-120.411,42.315-184.25H374.027z M301.762,290.518
	c0,0-2.139,0.219-3.84-2.617c0,0-2.007,0.218-3.817-2.661c0,0-2.094,0.176-3.838-2.618c0,0-2.095,0.175-3.817-2.659
	c0,0-2.073,0.217-3.84-2.619c0,0-2.072,0.219-3.816-2.617c0,0-2.008,0.219-3.84-2.617c-0.087-0.043-0.175,0-0.261,0l-0.546-0.131
	c-0.284,7.416,2.007,14.833,11.888,21.093c9.029,5.671,15.269,4.515,20.241,1.221c-0.318-0.345-0.596-0.726-0.828-1.134
	c0,0-1.963,0.218-3.774-2.661L301.762,290.518z"/>
<path fill="#1F246A" d="M218.982,133.73c-5.061,0-7.088,3.992-7.153,4.799c0,0.916,0.764,2.029,0.872,3.271
	c0,0,2.008-2.028,4.297-2.028c4.428,0,8.289,7.198,9.512,11.124c0.436-1.832,0.871-4.275,0.871-7.482
	C227.38,137.417,223.019,133.73,218.982,133.73L218.982,133.73z M141.985,282.536c4.427-2.793,7.852-0.982,11.298,2.181
	c0.371-3.206,2.094-5.54,4.711-5.977c0.066,0,0.153,0.044,0.218,0c1.832-2.835,3.839-2.617,3.839-2.617
	c1.745-2.836,3.817-2.618,3.817-2.618c1.789-2.879,3.839-2.661,3.839-2.661c1.745-2.835,3.817-2.617,3.817-2.617
	c1.745-2.836,3.839-2.66,3.839-2.66c1.811-2.902,3.817-2.619,3.817-2.619c1.745-2.834,3.839-2.66,3.839-2.66
	c1.811-2.836,3.795-2.618,3.795-2.618c0.721-1.387,2.026-2.379,3.555-2.704c0.175-0.044,0.371-0.044,0.545-0.065
	c-1.134-6.456-0.938-12.085,5.017-15.835c3.839-2.4,8.027-1.527,9.554,0.871c0.299,0.48,0.499,1.014,0.588,1.57
	c4.145-2.966,8.442-6.063,11.954-8.637c-67.444-51.522-116.828-106.009-117.417-106.664c-4.06-4.203-6.395-9.776-6.544-15.617
	c-29.942,63.835-12.458,139.863,42.36,184.206c-1.901-4.432-0.38-9.589,3.621-12.28L141.985,282.536z M191.172,274.682
	c-1.745,2.837-3.795,2.618-3.795,2.618c-1.745,2.835-3.817,2.616-3.817,2.616c-1.702,2.88-3.796,2.662-3.796,2.662
	c-1.745,2.837-3.817,2.617-3.817,2.617c-1.745,2.923-3.795,2.661-3.795,2.661c-1.701,2.836-3.817,2.618-3.817,2.618
	c-1.745,2.879-3.774,2.661-3.774,2.661c-0.234,0.393-0.513,0.759-0.829,1.091c4.974,3.315,11.19,4.492,20.242-1.2
	c9.881-6.216,12.149-13.633,11.888-21.071l-0.545,0.132c-0.087,0-0.174-0.044-0.262,0c-1.833,2.879-3.817,2.617-3.817,2.617
	L191.172,274.682z"/>
<path fill="#1F246A" d="M278.313,302.756c-18.104-11.408-18.104-27.353-16.011-39.698c-8.507-5.671-19.696-13.394-27.266-18.912
	c-7.568,5.496-18.758,13.241-27.266,18.934c2.05,12.324,2.029,28.269-16.031,39.698c-22.141,13.959-35.642,0.437-40.092-3.229
	c-1.321,0.976-2.853,1.625-4.472,1.897c24.91,17.451,55.186,27.702,87.86,27.702c32.676,0,62.951-10.251,87.86-27.702
	c-1.614-0.282-3.145-0.932-4.471-1.897c-4.45,3.644-17.931,17.166-40.092,3.207H278.313z M190.016,125.486
	c-2.836,0-3.708,2.727-3.708,3.621c0,6.457,4.908,3.861,7.852,7.809c1.025-2.705-1.658-3.839-1.658-6.806
	c0-0.873,0.371-1.526,0.371-2.138c0-1.57-1.375-2.486-2.836-2.486H190.016z"/>
<path fill="#1F246A" d="M252.465,119.596c8.42,0,14.286,6.762,23.121,6.762c7.46,0,15.53-3.817,18.541-3.817
	c9.379,0,9.27,11.866,20.657,11.866c5.845,0,8.244-2.682,8.244-9.161c0-4.362-2.617-4.493-4.974-4.493
	c-0.873,0-2.072-1.396-4.799-1.396c-3.054,0-5.671-1.31-6.368-2.138c2.29-1.745,13.043-5.388,14.984-5.388
	c6.107,0,7.46,15.051,20.395,15.051c3.446,0,6.98-0.916,6.98-7.634c0-5.235-0.981-6.806-3.556-6.413
	c-1.963,0.436-3.709,0.654-3.709,0.654c0.982-1.919,0.611-3.577-2.289-4.144c-12.129-1.898-7.352-14.222-14.396-14.222
	c-2.465,0-9.074,3.359-9.074,0.982c0-2.509,1.963-6.457,1.963-12.935c0-4.297-1.68-9.162-1.68-9.162
	c6.173,0,14.964,2.312,18.934,3.992c-2.53,0.436-6.216,1.353-6.216,4.711c0,3.534,5.845,6.325,13.305,6.325
	c12.128,0,10.819-5.453,6.37-5.453c-4.581,0-6.282-0.436-6.938-0.763c2.116-0.785,5.89-0.872,5.89-4.035
	c0-5.323-7.046-5.061-19.195-8.398c-54.312-14.92-77.87-38.084-115.082-38.084c-45.239,0-39.415,30.93-65.285,37.518
	c-22.903,5.758-24.801,18.017-24.801,31.126c0,7.067,2.356,14.244,4.494,15.923c5.344,4.581,9.03,7.59,15.857,15.988
	c1.244,1.396,4.799,2.945,6.282,4.428c3.098,3.097,4.363,7.744,8.616,7.744c3.774,0,6.457-5.323,11.561-6.719
	c-1.222,1.179-2.333,2.553-2.333,4.188c0,3.751,4.275,2.792,8.725,0.698c9.946,2.618,13.48-0.218,16.142-3.49
	c0.545-0.61,0.436-1.527-0.131-2.137c-3.229-2.988-8.027-1.309-8.027-8.507c0-1.418,1.265-5.279,5.366-5.279
	c2.334,0,5.388,1.897,4.297,5.497c-0.698,2.269,1.68,3.882,1.68,5.627c0,6.457-4.864,6.871-4.864,10.95
	c0,7.373,5.409,7.547,8.572,7.264c5.061,0,13.676,4.711,17.363,4.711c4.623,0,8.137-2.181,8.137-5.017
	c0-2.247-4.516-11.451-8.29-11.451c-2.05,0-3.62,2.573-4.798,2.573c-0.873,0-1.309-0.305-1.396-0.436
	c1.091-1.789-0.611-2.901-0.611-5.018c0-1.482,2.75-6.456,8.791-6.456c4.842,0,10.034,4.363,10.034,11.342
	c0,6.173-1.79,10.317-1.79,11.779c0,3.708,5.824,6.98,9.338,6.98c3.838,0,13.436-4.145,18.539-4.145
	c5.453,0,8.682-0.872,8.682-4.733c0-3.447-2.398-11.343-6.325-11.343c-3.49,0-8.573,7.81-15.05,7.81
	c0.438-1.049,1.091-1.992,1.919-2.771c4.144-2.051,6.979-3.774,6.979-6.108c0-2.072-2.77-2.792-4.297-4.078
	c2.836-0.284,4.297-0.938,4.297-2.967c0-2.923-4.362-4.188-4.362-8.615c0.043-2.836,1.919-5.672,5.519-5.672L252.465,119.596z
	 M327.151,283.931c-4.624-2.923-8.18,0.437-12.28,4.711l0.152-0.61c0.654-3.926-0.72-7.241-3.271-7.678
	c-0.283-0.065-0.589,0.044-0.872,0.087c-1.353-3.49-3.817-2.617-3.817-2.617c-1.265-3.49-3.818-2.618-3.818-2.618
	c-1.352-3.49-3.816-2.66-3.816-2.66c-1.243-3.489-3.817-2.618-3.817-2.618c-1.396-3.555-3.816-2.661-3.816-2.661
	c-1.31-3.49-3.817-2.617-3.817-2.617c-1.243-3.489-3.818-2.661-3.818-2.661c-1.352-3.577-3.838-2.617-3.838-2.617
	c-0.567-1.527-1.57-2.552-2.879-2.771c-0.857-0.131-1.732,0.072-2.443,0.567c1.396-7.067,1.963-13.088-3.708-16.687
	c-2.945-1.854-6.195-1.31-7.265,0.393c-1.309,2.072,1.223,3.86,2.182,5.125c3.84,4.843-16.271,36.863,12.979,55.339
	c22.313,14.07,34.463-0.326,39.132-3.883c2.246,1.789,6.979,4.799,10.644-1.003c2.9-4.516,2.137-9.969-1.832-12.478L327.151,283.931
	z M309.2,294.184c-5.541,4.579-12.717,7.35-23.95,0.261c-11.845-7.481-13.394-16.665-12.433-25.478
	c0.566,0.807,1.308,1.31,2.246,1.484c0.305,0.064,0.61-0.044,0.915-0.089c1.31,3.49,3.797,2.619,3.797,2.619
	c1.309,3.49,3.839,2.617,3.839,2.617c1.352,3.489,3.816,2.66,3.816,2.66c1.266,3.49,3.839,2.618,3.839,2.618
	c1.396,3.556,3.817,2.661,3.817,2.661c1.309,3.49,3.839,2.617,3.839,2.617c1.244,3.49,3.817,2.661,3.817,2.661
	c1.374,3.556,3.862,2.617,3.862,2.617c0.544,1.44,1.481,2.444,2.703,2.727L309.2,294.184z M190.823,301.359
	c29.228-18.453,9.161-50.495,12.957-55.338c1.003-1.266,3.534-3.054,2.225-5.126c-1.047-1.658-4.318-2.225-7.285-0.35
	c-5.671,3.578-5.104,9.598-3.708,16.688c-0.715-0.49-1.586-0.692-2.443-0.567c-1.309,0.218-2.291,1.243-2.879,2.748
	c0,0-2.487-0.938-3.839,2.618c0,0-2.574-0.808-3.817,2.661c0,0-2.508-0.829-3.795,2.617c0,0-2.399-0.873-3.817,2.661
	c0,0-2.552-0.829-3.795,2.618c0,0-2.465-0.807-3.817,2.66c0,0-2.53-0.829-3.795,2.618c0,0-2.465-0.873-3.795,2.616
	c-0.306,0-0.611-0.108-0.917-0.064c-2.508,0.437-3.926,3.708-3.228,7.677c0,0.219,0.087,0.438,0.108,0.611
	c-4.101-4.253-7.634-7.634-12.28-4.712c-3.97,2.487-4.733,7.963-1.854,12.521c3.642,5.847,8.376,2.836,10.645,1.025
	c4.755,3.49,16.861,17.887,39.175,3.839L190.823,301.359z M197.214,268.968c0.96,8.812-0.567,18.018-12.434,25.478
	c-11.19,7.089-18.388,4.318-23.95-0.284c1.2-0.282,2.137-1.308,2.683-2.727c0,0,2.486,0.938,3.839-2.617
	c0,0,2.551,0.785,3.795-2.661c0,0,2.53,0.829,3.817-2.617c0,0,2.399,0.872,3.795-2.661c0,0,2.574,0.829,3.818-2.618
	c0,0,2.443,0.808,3.795-2.66c0,0,2.574,0.829,3.817-2.617c0,0,2.443,0.871,3.773-2.619c0.306,0,0.611,0.11,0.917,0.067
	c0.913-0.156,1.72-0.686,2.225-1.463H197.214z"/>
<path fill="#1F246A" d="M222.735,232.955c-5.955,4.363-12.914,9.38-19.152,13.743l2.792,15.225
	c9.052-5.955,20.002-13.523,28.618-19.849c8.615,6.325,19.564,13.894,28.618,19.849l2.835-15.225
	c-6.238-4.363-13.196-9.38-19.151-13.743c68.207-51.848,118.354-107.186,118.943-107.84c4.717-4.879,6.894-11.676,5.89-18.388
	c-0.218-2.137-2.529-3.228-4.362-1.308c-0.588,0.654-51.586,56.93-132.772,118.376c-81.187-61.446-132.162-117.723-132.729-118.376
	c-1.854-1.92-4.144-0.829-4.362,1.308c-0.087,0.349-1.963,10.208,5.889,18.388C104.38,125.769,154.527,181.107,222.735,232.955z"/>
<path fill="#1F246A" d="M252.638,181.434c28.838-10.688,60.684-26.175,58.852-31.191c-1.526-4.079-24.146,6.107-63.584,20.656
	c-18.387,6.806-22.03,8.944-20.874,12.106c0.807,2.247,4.319,6.326,25.63-1.57H252.638z M321.174,54.071
	c1.155-4.144-17.449-10.579-37.734-16.141c-27.703-7.635-37.78-6.98-37.737-5.672c0.088,3.926,10.689,5.781,34.508,12.346
	c25.957,7.133,39.698,14.178,41.008,9.466H321.174z"/>
<g>
	<path fill="#FEC020" d="M235.015,5.517c-93.964,0-170.137,76.173-170.137,170.137c0,93.965,76.173,170.138,170.137,170.138
		c93.965,0,170.138-76.173,170.138-170.138l0,0C405.153,81.69,328.98,5.517,235.015,5.517z M235.015,333.533
		c-87.188,2.291-159.726-66.531-162.018-153.719C70.706,92.626,139.528,20.089,226.716,17.797c2.766-0.073,5.533-0.073,8.299,0
		c87.188,2.292,156.011,74.829,153.719,162.017C386.527,263.78,318.981,331.326,235.015,333.533L235.015,333.533z"/>
	<path fill="#FEC020" d="M275.325,268.837c0.61,0.109,1.242-0.174,1.81-0.741c0.502,4.298,2.968,3.709,3.84,2.618
		c0.502,4.317,2.944,3.707,3.818,2.66c0.521,4.298,2.965,3.709,3.838,2.617c0.479,4.298,2.943,3.709,3.817,2.662
		c0.501,4.274,2.966,3.664,3.84,2.616c0.501,4.319,2.944,3.709,3.816,2.662c0.502,4.297,2.966,3.708,3.839,2.617
		c0.479,4.297,2.945,3.708,3.817,2.661c0.173,1.832,0.915,3.185,2.007,3.381c1.527,0.284,3.206-1.854,3.708-4.799
		c0.501-2.944-0.327-5.453-1.876-5.737c-0.61-0.107-1.244,0.176-1.811,0.721c-0.503-4.297-2.945-3.708-3.818-2.617
		c-0.479-4.297-2.944-3.708-3.816-2.661c-0.48-4.275-2.944-3.665-3.817-2.618c-0.479-4.318-2.944-3.708-3.817-2.66
		c-0.479-4.275-2.945-3.665-3.816-2.618c-0.503-4.318-2.945-3.708-3.818-2.66c-0.479-4.298-2.944-3.709-3.816-2.619
		c-0.48-4.318-2.944-3.707-3.817-2.66c-0.152-1.832-0.872-3.185-1.963-3.381c-1.57-0.262-3.229,1.897-3.708,4.799
		c-0.523,2.922,0.328,5.496,1.854,5.78L275.325,268.837z M160.373,292.569c1.091-0.219,1.833-1.527,2.007-3.381
		c0.873,1.046,3.337,1.657,3.817-2.617c0.873,1.025,3.316,1.636,3.817-2.661c0.873,1.047,3.338,1.636,3.817-2.619
		c0.873,1.026,3.337,1.637,3.817-2.659c0.873,1.09,3.337,1.679,3.817-2.618c0.873,1.025,3.337,1.658,3.817-2.617
		c0.873,1.024,3.316,1.635,3.818-2.661c0.873,1.048,3.337,1.658,3.817-2.618c0.567,0.524,1.221,0.808,1.81,0.72
		c1.527-0.218,2.4-2.836,1.876-5.736c-0.524-2.923-2.182-5.061-3.708-4.799c-1.091,0.219-1.854,1.527-2.007,3.382
		c-0.872-1.048-3.337-1.659-3.817,2.616c-0.873-1.025-3.337-1.636-3.817,2.662c-0.873-1.048-3.337-1.658-3.818,2.616
		c-0.872-1.024-3.337-1.635-3.817,2.662c-0.873-1.025-3.337-1.658-3.817,2.617c-0.872-1.025-3.337-1.636-3.817,2.662
		c-0.873-1.025-3.337-1.636-3.817,2.616c-0.872-1.025-3.337-1.636-3.817,2.661c-0.567-0.566-1.199-0.871-1.81-0.72
		c-1.527,0.262-2.399,2.836-1.876,5.759c0.437,2.923,2.116,5.061,3.665,4.799L160.373,292.569z"/>
	<path fill="#FEC020" d="M326.28,285.327c-9.599-6.063-16.077,26.83-41.925,10.514c-28.51-17.973-0.545-45.501-13.959-53.964
		c-2.292-1.438-4.517-0.872-5.019-0.132c-0.435,0.786,1.004,1.746,2.182,3.229c4.952,6.281-16.185,36.862,12.521,54.968
		c24.562,15.487,36.515-5.584,38.543-4.319c1.637,1.047,5.67,5.235,8.986-0.064c2.967-4.713,0.981-8.769-1.308-10.253
		L326.28,285.327z M202.515,244.974c1.134-1.462,2.617-2.443,2.116-3.229c-0.479-0.74-2.705-1.307-5.017,0.132
		c-13.371,8.463,14.615,35.991-13.916,53.964c-25.87,16.316-32.348-16.577-41.945-10.514c-2.312,1.463-4.319,5.519-1.309,10.253
		c3.315,5.278,7.307,1.09,8.943,0.043c2.05-1.265,14.003,19.807,38.564,4.319c28.684-18.105,7.548-48.687,12.521-54.968H202.515z"/>
</g>
<g>
	<path fill="#FFFFFF" d="M370.514,106.945c-0.262-1.679-1.527-0.393-1.527-0.393s-51.128,56.843-133.972,119.315
		c-82.822-62.472-133.973-119.315-133.973-119.315s-1.265-1.309-1.527,0.436c0,0-1.854,9.379,5.497,17.014
		c0,0,50.758,56.363,120.47,108.974c-6.544,4.8-13.218,9.643-20.067,14.463l2.181,11.734c9.379-6.193,18.542-12.586,27.418-19.086
		c8.9,6.5,18.061,12.914,27.439,19.086l2.182-11.713c-6.871-4.799-13.567-9.642-20.067-14.439
		c69.67-52.612,120.449-108.976,120.449-108.976c7.351-7.634,5.496-17.014,5.496-17.014V106.945z"/>
	<path fill="#FFFFFF" d="M129.006,115.67c10.471,8.289,13.59,13.654,16.011,16.054c2.05,2.029,4.057,2.225,6.282,4.45
		c3.272,3.271,4.319,7.264,7.416,7.264c3.272,0,6.805-7.045,13.742-7.045c4.69,0-2.836,3.119-2.836,6.172
		c0,2.618,5.715-0.96,6.98-0.96c2.072,0,10.165,3.6,14.92-2.835c-2.181-2.138-8.507-1.266-8.507-9.685
		c0-2.312,1.963-6.936,7.023-6.936c4.079,0,7.155,3.577,5.89,7.634c-0.437,1.309,1.745,2.836,1.745,5.148
		c0,7.067-4.864,7.853-4.864,10.95c0,6.238,4.406,5.758,6.827,5.606c5.671,0,14.483,4.732,17.45,4.732
		c3.643,0,6.543-1.57,6.543-3.38c0-1.811-4.275-9.816-6.631-9.816c-1.352,0-2.792,2.574-4.842,2.574
		c-2.269,0-3.578-1.418-2.77-2.835c0.436-0.807-0.873-2.116-0.873-4.231c0-2.618,3.577-8.158,10.469-8.158
		c5.737,0,11.715,4.973,11.715,12.979c0,6.675-1.811,10.513-1.811,11.823c0,2.464,4.668,5.343,7.635,5.343
		c2.966,0,14.178-4.188,17.798-4.188c3.621,0,7.766,0.261,7.766-3.054c0-3.316-2.29-9.685-4.711-9.685
		c-2.422,0-7.962,7.852-15.051,7.852c-0.873,0-1.789-0.218-1.789-1.375c0-1.2,1.897-3.926,2.88-4.493
		c0.98-0.567,6.193-2.792,6.193-4.689c0-1.091-4.799-2.4-4.799-4.493c0-2.182,4.799-0.437,4.799-2.531
		c0-1.875-4.361-3.599-4.361-8.616c0-3.62,2.486-7.351,7.133-7.351c9.008,0,14.656,6.762,23.121,6.762
		c7.198,0,15.051-3.817,18.54-3.817c10.514,0,10.252,11.866,20.656,11.866c4.864,0,6.544-1.833,6.544-7.525
		c0-3.098-1.483-2.836-3.271-2.836s-2.094-1.352-4.799-1.352c-3.927,0-8.289-2.05-8.289-4.057c0-2.094,14.745-6.806,16.883-6.806
		c7.569,0,8.289,15.051,20.395,15.051c3.055,0,5.346-0.655,5.346-5.999c0-5.344-0.874-4.864-1.834-4.733
		c-0.96,0.131-5.889,1.527-5.889-0.043c0-1.527,2.334-3.054-0.436-3.533c-12.87-2.138-9.162-14.179-14.179-14.179
		c-2.399,0-10.688,4.515-10.688-0.654c0-2.879,1.964-6.762,1.964-12.957c0-6.806-3.862-10.841-0.109-10.841
		c8.18,0,22.51,4.188,22.51,6.195c0,1.439-8.07,0.61-8.07,4.21c0,2.137,4.625,4.711,11.67,4.711c7.046,0,9.88-2.181,6.368-2.181
		s-8.942-0.108-8.942-2.53c0-2.443,6.261-1.353,6.261-3.927c0-3.751-6.369-3.49-18.018-6.762
		c-58.021-16.534-78.176-38.041-114.604-38.041c-44.824,0-37.647,30.538-64.87,37.452c-21.529,5.497-23.514,16.49-23.514,29.6
		c0,7.351,2.486,13.567,3.86,14.658L129.006,115.67z M149.62,127.012c-2.4,0-1.789-1.679-1.789-1.679
		c3.119-4.21,1.527-14.244,5.388-14.244c2.181,0-0.938,2.225-0.938,4.799c0,2.944,4.297,2.094,4.297,5.497
		c0,2.181-3.49,5.627-6.98,5.627H149.62z M158.89,141.256c0,0-1.789-1.309-1.789-2.226c0-2.115,3.621-2.727,3.621-2.072
		c0,1.811-1.832,4.319-1.832,4.319V141.256z M161.812,102.473c0,1.483-3.054,5.017-4.952,5.017c-1.461,0-3.795-5.671-3.795-6.151
		c0-0.48,0.655-1.44,2.836-1.44c2.115,0,5.889,1.09,5.889,2.574H161.812z M144.362,79.941c8.594,0,13.087,5.082,13.087,10.623
		c0,5.541-4.689,9.597-9.859,9.597c-3.272,0-4.276-2.792-4.276-4.188c0-1.92,2.836-3.6,2.836-5.89c0-2.792-3.424-4.733-6.871-4.733
		c-5.803,0-9.729,5.017-9.729,2.552c0-2.944,5.889-7.961,14.832-7.961H144.362z M248.474,172.469
		c-14.746,5.453-20.723,7.722-19.915,9.99c0.436,1.243,3.489,4.843,23.515-2.552c19.936-7.417,59.221-25.39,57.847-29.055
		c-0.656-1.81-28.423,9.379-61.446,21.595V172.469z M280.646,43.034c24.322,6.675,38.347,12.87,38.957,10.601
		c0.611-2.269-18.714-9.227-36.578-14.135c-17.821-4.908-36.361-7.329-35.772-6.762c1.875,1.789,9.073,3.599,33.415,10.252
		L280.646,43.034z"/>
</g>
<path fill="#1F246A" d="M152.389,120.404c-0.589,0-1.134,0.981-1.134,1.308c0,0.393,0.916,1.658,1.613,1.658
	c0.393,0,0.873-0.175,0.873-0.523c0-1.44-0.043-2.465-1.353-2.465V120.404z"/>
</svg>
