<?xml version="1.0" encoding="utf-8"?>
<!-- Generator: Adobe Illustrator 15.1.0, SVG Export Plug-In . SVG Version: 6.00 Build 0)  -->
<!DOCTYPE svg PUBLIC "-//W3C//DTD SVG 1.1//EN" "http://www.w3.org/Graphics/SVG/1.1/DTD/svg11.dtd">
<svg version="1.1" id="Layer_1" xmlns="http://www.w3.org/2000/svg" xmlns:xlink="http://www.w3.org/1999/xlink" x="0px" y="0px"
	 width="435.031px" height="352.309px" viewBox="0 0 435.031 352.309" enable-background="new 0 0 435.031 352.309"
	 xml:space="preserve">
<g id="reg">
	<path fill="#FFFFFF" d="M194.317,326.635c-5.624,0-10.183,4.56-10.183,10.184s4.559,10.183,10.183,10.183l0,0
		c5.624,0,10.183-4.559,10.183-10.183S199.941,326.635,194.317,326.635z M194.317,345.291c-4.552,0.042-8.277-3.613-8.32-8.165
		c-0.001-0.122,0-0.245,0.004-0.368c0.247-4.571,4.154-8.078,8.726-7.831c4.228,0.228,7.604,3.604,7.833,7.831
		c0.187,4.523-3.329,8.34-7.851,8.526C194.58,345.29,194.448,345.292,194.317,345.291z"/>
	<path fill="#FFFFFF" d="M198.994,334.3c0-2.361-1.374-3.374-4.146-3.374h-4.483v11.762h1.784v-5.109h2.049l3.085,5.109h2
		l-3.326-5.182c1.687-0.192,3.037-1.133,3.037-3.229V334.3z M192.148,336.084v-3.615h2.411c1.253,0,2.579,0.241,2.579,1.687
		c0,1.809-1.374,1.929-2.893,1.929h-2.121H192.148z"/>
</g>
<path fill="#FFFFFF" d="M408.661,43.857C386.245,14.356,350.694-1.865,308.514-1.865c-32.658,0-59.171,13.184-80.502,23.765
	c-13.015,6.459-24.198,12.051-32.369,12.051c-5.134,0-13.184-9.882-17.257-16.824l-1.542-2.7l-2.651,1.543
	c-8.369,4.654-13.711,13.329-14.1,22.897c-11.979-4.893-26.898-5.061-28.875-5.061c-18.27,0.121-34.226,11.497-34.9,12.003
	c-6.065,4.411-11.003,10.191-14.414,16.872c-11.81,3.928-23.62,15.016-24.198,15.546c-2.82,2.844-4.001,3.856-4.001,3.856
	c-6.869,5.158-16.269,5.592-16.341,5.592l-3.302,0.096l0.361,3.302c0.892,8.798,5.543,17.402,5.905,17.957
	c5.182,7.833,12.895,11.81,18.197,13.738c-3.133,2.29-7.954,5.158-14.027,6.99c-8.773,2.723-21.282,4.724-21.403,4.748l-2.94,0.41
	l0.361,2.965c0.434,3.519,1.928,6.17,2.121,6.507c12.389,20.246,38.901,21.307,44.107,21.307h0.723
	c2.29,0.241,5.543,0.121,8.243-0.145c-2.093,5.136-3.88,10.397-5.351,15.748c-1.494,6.267-4.411,8.677-4.579,8.821
	c-3.76,3.037-14.221,9.256-14.293,9.327l-2.965,1.761l2.097,2.747c4.049,5.303,12.292,8.194,16.39,9.4
	c0.41,6.267,1.784,13.257,2.796,17.788c-2.259-0.324-4.539-0.486-6.821-0.483c-10.22,0-15.715,3.303-15.956,3.447l-3.615,2.218
	l3.181,2.748c4.411,3.855,7.81,9.158,7.833,9.206l0.241,0.29c5.062,6.146,6.219,18.8,6.219,18.896
	c1.446,19.379,7.954,31.141,10.677,35.311c4.218,6.362,12.292,12.364,12.461,12.485c5.929,5.013,16.342,7.423,16.631,7.471
	c0.819,0.241,1.639,0.435,2.507,0.579c-2.507,1.133-4.821,2.049-6.122,2.555l-3.061,1.206l1.374,2.964
	c3.712,8.099,13.618,12.726,15.088,13.376c8.822,4.941,22.945,5.592,23.548,5.617h0.145c16.534-0.145,29.766-12.943,30.224-13.401
	c13.738-12.485,21.162-15.57,33.262-14.631c7.327,0.555,13.979,3.375,21.596,6.652c11.907,5.11,26.681,11.449,50.254,11.449
	c76.718,0,141.191-73.753,151.122-139.891l0.578-3.495H312.853l-0.651,2.267c-0.071,0.312-10.363,35.188-33.863,35.188
	c-18.559,0-30.128-15.016-30.128-39.286c0-31.969,27.477-91.068,66.691-91.068c4.579,0,7.857,1.495,10.051,4.531
	c4.651,6.508,4.098,20.729-1.446,37.118l-1.373,4.097l103.64-0.048l0.579-2.266c10.315-36.684,3.856-73.947-17.644-102.267
	L408.661,43.857z M107.332,214.415c-7.713-2.241-11.232-7.785-11.232-7.785c4.194-1.205,6.267-7.231,9.28-7.954
	c4.869-1.133,2.893,3.664,15.859,10.123c4.748,2.241,5.399,2.41,9.062,3.133C121.335,216.367,115.937,216.922,107.332,214.415z"/>
<path d="M423.411,145.328C443.706,72.538,395.935,1.195,308.443,1.195c-52.713,0-90.385,35.816-112.8,35.816
	c-9.255,0-19.957-18.39-19.957-18.39c-15.594,8.991-12.244,25.308-12.244,25.308c-12.22-7.183-32.297-7.062-32.297-7.062
	c-17.474,0.145-33.068,11.401-33.068,11.401c-10.316,7.544-14.028,16.872-14.028,16.872C72.407,68.562,59.802,80.42,59.802,80.42
	c-3.085,3.133-4.338,4.098-4.338,4.098c-7.761,5.856-18.077,6.194-18.077,6.194c0.843,8.292,5.398,16.559,5.398,16.559
	c7.785,11.811,22.078,14.052,22.078,14.052s-7.279,7.665-19.523,11.425c-9.111,2.771-21.885,4.772-21.885,4.772
	c0.362,3.013,1.688,5.303,1.688,5.303c12.846,20.969,42.348,19.764,42.348,19.764c5.062,0.603,13.569-0.819,13.569-0.819
	c-3.615,5.061-7.785,20.303-7.785,20.303c-1.808,7.544-5.64,10.412-5.64,10.412c-3.953,3.254-14.63,9.642-14.63,9.642
	c4.651,6.098,16.872,8.869,16.872,8.869c0.241,9.954,3.929,23.981,3.929,23.981c-16.63-3.494-25.26,1.784-25.26,1.784
	c4.821,4.241,8.437,9.882,8.437,9.882c5.736,6.918,6.941,20.583,6.941,20.583c1.206,16.317,6.267,27.815,10.171,33.815
	c3.977,6.026,11.907,11.884,11.907,11.884c5.351,4.579,15.426,6.82,15.426,6.82c6.99,1.928,13.593,0.482,13.593,0.482
	c-4.482,3.735-16.968,8.532-16.968,8.532c3.495,7.567,13.69,11.882,13.69,11.882c8.267,4.676,22.294,5.303,22.294,5.303
	c15.474-0.12,28.2-12.604,28.2-12.604c13.618-12.365,22.078-16.463,35.576-15.426c19.764,1.518,33.623,18.076,71.584,18.076
	c76.646,0,138.516-73.367,148.133-137.239H315.095c0,0-10.558,37.455-36.709,37.455c-19.956,0-33.261-16.148-33.261-42.42
	c0-34.282,28.634-94.153,69.824-94.153c19.282,0,19.161,23.379,11.569,45.723h96.939L423.411,145.328z M107.332,214.367
	c-7.713-2.242-11.232-7.785-11.232-7.785c4.194-1.206,6.267-7.231,9.28-7.954c4.869-1.134,2.893,3.664,15.859,10.123
	c4.748,2.241,5.399,2.41,9.062,3.133C121.335,216.319,115.937,216.873,107.332,214.367z"/>
<path fill="#FDB725" d="M420.061,141.062C437.8,64.85,385.546,5.124,308.66,5.124c-49.049,0-88.359,35.238-112.077,36.274
	c-9.93,0.482-21.837-16.293-21.837-16.293c-13.425,10.075-3.615,28.562-3.615,28.562c-19.884-14.63-42.228-12.365-42.228-12.365
	C95.57,44.555,87.447,68.538,87.447,68.538C67.997,75.72,61.272,86.036,61.272,86.036c-11.979,8.677-18.944,7.809-18.944,7.809
	c4.579,25.067,30.706,23.862,30.706,23.862c-10.316,19.908-43.866,23.042-43.866,23.042c11.955,19.21,40.492,17.499,40.492,17.499
	c9.786,1.037,23.042-4.242,29.598-7.23c-4.338,2.337-6.411,4.146-6.411,4.146c-12.605,8.846-12.34,25.027-18.8,36.548
	c-2.531,5.158-9.762,7.641-13.787,10.799c4.339,2.169,9.28,4,13.979,4.819c-0.12,8.026,3.76,27.478,6.363,35.263
	c-9.352-6.99-23.861-3.856-23.861-3.856c16.076,20.005,8.508,32.418,16.583,51.001c2.724,9.255,11.087,17.161,19.571,22.776
	c21.885,9.882,37.021-3.134,37.021-3.134c-2.507,12.148-25.308,21.259-25.308,21.259c5.35,5.833,18.438,10.268,26.271,10.75
	c30.923,2.023,32.538-31.623,66.812-28.128c19.885,2.049,38.081,18.751,71.295,18.751c83.009,0,136.974-84.021,143.481-129.236
	h-94.071c0,0-11.569,37.72-39.527,37.72c-28.972,0-38.132-24.825-38.132-47.24c0-34.042,28.249-98.347,74.381-98.347
	c21.74,0,25.066,23.862,17.402,46.156H420.061z M107.332,214.39c-7.713-2.242-11.232-7.785-11.232-7.785
	c4.194-1.205,6.267-7.23,9.28-7.953c4.869-1.134,2.893,3.663,15.859,10.123c4.748,2.241,5.399,2.41,9.062,3.133
	C121.335,216.343,115.937,216.897,107.332,214.39z"/>
<path fill="#CC2E27" d="M91.111,105.414c10.316-1.976,17.161-12.533,27.838-13.979c6.025-1.542,12.002,0.964,17.185,1.808
	c-0.169-0.554-0.844-0.723-0.844-1.205c-11.015-12.847-28.513-20.487-45.698-14.172c-14.341,2.651-22.006,19.186-36.684,20.849
	c-0.145,0.482,0.675,0.843,0.675,1.35c8.991,10.364,25.983,9.641,37.528,5.302V105.414z M152.958,278.021v-0.651
	c-18.004-6.651-31.165,13.016-48.832,2.82c-15.667-5.157-15.835-26.682-31.695-31.815c1.35,3.977,3.182,7.641,3.856,11.811
	c0.844,17.354,5.544,36.202,21.21,44.686c6.508,3.495,15.812,3.495,22.488,0.313c12.774-6.676,18.993-22.006,32.972-27.188V278.021z
	"/>
<path fill="#CC2E27" d="M308.804,14.283c-45.795-0.241-83.467,36.395-113.282,36.395c-7.52,0-13.931-4.579-18.366-10.291
	c1.325,16.341,16.51,30.007,31.02,35.527c-7.351,0.481-13.69-2.338-20.173-3.856c-19.523-5.351-33.382-24.03-55.725-22.174
	c-15.667-0.53-29.526,9.014-37.19,22.005c3.856-3.519,8.339-5.664,13.185-6.652c11.521-2.025,21.499,3.133,29.019,10.99
	c9.328,14.823,19.667,29.164,35.021,39.528c-11.039,0-20.729-4.17-30.37-7.521c-19.86-5.64-43.384-3.133-58.375,11.04
	c-7.665,12.533-20.487,22.656-34.708,25.668v0.482l4.194,1.856c16.342,6.99,34.371,0.169,48.012-8.339
	c9.497-3.013,20.849-1.35,27.525,6.194c4.676,8.002,13.353,16.004,21.018,21.861c-2,0.82-4.001-0.867-6.339-0.867
	c-13.16-6.508-33.021-15.305-46.349-3.133c-12.534,9.521-6.17,27.872-19.523,36.885c9.352,0.819,14.703-6.025,20.005-12.678
	c13.353-9.882,21.861,7.857,32.539,12.003c11.328,5.544,26.344,3.688,34.515,15.378c-8.677,1.688-17.522,3.182-25.019,7.64
	c-11.521,7.231-28.344,8.363-40.854,2.362c-6.507-3.519-10.99-8.34-15.305-14.365c0,0.169,0,0.482-0.193,0.627
	c0.844,24.681,10.002,51.579,35.527,60.256c17.354,7.954,36.033-5.062,53.073,3.326c-9.014,2-17.354,6.821-22.656,14.654
	c-8.87,11.521-8.677,27.356-19.692,37.19c-2,1.831-5.013,2.844-6.99,4.338c2.169,0.964,4.339,1.519,6.821,1.832
	c12.172,2.024,22.512-5.784,29.333-14.991c9.882-9.521,24.826-15.305,36.708-14.511c24.031,1.615,41.939,19.042,73.681,19.186
	c63.197,0.242,119.018-59.966,130.876-109.328h-74.62c0,0-13.569,37.745-46.422,37.745c-40.975,0-48.133-38.275-48.133-57.268
	c0-44.599,34.949-108.398,84.406-108.398c23.428,0,37.215,23.934,29.599,46.71h67.366c12.364-54.953-28.2-116.896-103.158-117.258
	V14.283z"/>
<path d="M90.797,206.436c4.748,6.026,8.532,10.605,16.101,12.196c13.304,3.784,22.752-0.386,32.9-6.749
	c-4.339-2.121-6.845-2.482-11.039-4.579c-14.703-4.628-17.113-15.57-24.826-13.184c-4.869,3.085-8.122,9.496-13.738,11.327
	l0.603,1.013V206.436z M121.215,208.775c4.724,2.241,5.375,2.41,9.038,3.133c-8.917,4.435-14.341,4.989-22.945,2.482
	c-7.713-2.242-11.232-7.785-11.232-7.785c4.194-1.205,6.267-7.23,9.279-7.953c4.869-1.134,2.893,3.663,15.836,10.123H121.215z"/>
<path fill="#FFFFFF" d="M96.1,206.605c0,0,3.519,5.543,11.232,7.785c8.605,2.507,13.979,1.929,22.97-2.482
	c-3.181-0.508-6.248-1.567-9.062-3.133c-12.967-6.46-10.991-11.257-15.859-10.123C102.342,199.375,100.318,205.4,96.1,206.605z
	 M106.078,201.665c0.192-0.034,0.385-0.059,0.579-0.073c0.241,0.169,0.723,0.724,1.156,1.206c1.808,1.928,4.821,5.157,12.124,8.773
	c0.482,0.24,0.892,0.434,1.278,0.577c-4.194,1.061-7.641,0.844-13.016-0.723c-2.722-0.79-5.229-2.191-7.327-4.098
	c1.112-0.996,2.122-2.103,3.013-3.301c0.723-0.868,1.735-2.17,2.169-2.362H106.078z"/>
</svg>
