<svg id="Layer_1" xmlns="http://www.w3.org/2000/svg" viewBox="0 0 24 16"><style>.gold{fill:#f3bc52}.bg{fill:#ce1126}.fg{fill:#111}</style><g id="reg" fill="#FFF"><path d="M10.702 14.352a.422.422 0 0 0 0 .845.422.422 0 0 0 0-.845zm0 .774a.342.342 0 0 1-.345-.354.344.344 0 0 1 .687 0 .34.34 0 0 1-.342.354z"/><path d="M10.896 14.67c0-.098-.057-.14-.172-.14h-.186v.488h.074v-.212h.085l.128.212h.083l-.138-.215c.07-.008.126-.047.126-.134zm-.284.074v-.15h.1c.052 0 .107.01.107.07 0 .075-.057.08-.12.08h-.088z"/></g><path fill="#FFF" d="M19.595 2.62C18.665 1.396 17.19.723 15.44.723c-1.355 0-2.455.547-3.34.986-.54.268-1.004.5-1.343.5-.213 0-.547-.41-.716-.698l-.064-.112-.11.064a1.14 1.14 0 0 0-.585.95c-.497-.203-1.116-.21-1.198-.21-.758.005-1.42.477-1.448.498a1.977 1.977 0 0 0-.598.7c-.49.163-.98.623-1.004.645-.117.118-.166.16-.166.16-.285.214-.675.232-.678.232l-.137.004.015.137c.037.365.23.722.245.745.215.325.535.49.755.57-.13.095-.33.214-.582.29-.364.113-.883.196-.888.197l-.122.017.015.123c.018.146.08.256.088.27.514.84 1.614.884 1.83.884h.03c.095.01.23.005.342-.006a5.827 5.827 0 0 0-.222.653c-.062.26-.183.36-.19.366-.156.126-.59.384-.593.387l-.123.073.087.114c.168.22.51.34.68.39.017.26.074.55.116.738a1.973 1.973 0 0 0-.283-.02c-.424 0-.652.137-.662.143l-.15.092.132.114c.183.16.324.38.325.382l.01.012c.21.255.258.78.258.784.06.804.33 1.292.443 1.465.175.264.51.513.517.518.246.208.678.308.69.31.034.01.068.018.104.024-.104.047-.2.085-.254.106l-.127.05.057.123c.154.336.565.528.626.555.366.205.952.232.977.233h.006c.686-.006 1.235-.537 1.254-.556.57-.518.878-.646 1.38-.607.304.023.58.14.896.276.494.212 1.107.475 2.085.475 3.183 0 5.858-3.06 6.27-5.804l.024-.145h-4.494l-.027.094c-.003.013-.43 1.46-1.405 1.46-.77 0-1.25-.623-1.25-1.63 0-1.326 1.14-3.778 2.767-3.778.19 0 .326.062.417.188.193.27.17.86-.06 1.54l-.057.17 4.3-.002.024-.094c.428-1.522.16-3.068-.732-4.243zM7.093 9.696c-.32-.093-.466-.323-.466-.323.174-.05.26-.3.385-.33.202-.047.12.152.658.42.197.093.224.1.376.13-.372.184-.596.207-.953.103z"/><path class="fg" d="M20.207 6.83c.842-3.02-1.14-5.98-4.77-5.98-2.187 0-3.75 1.486-4.68 1.486-.384 0-.828-.763-.828-.763-.647.373-.508 1.05-.508 1.05-.507-.298-1.34-.293-1.34-.293-.725.006-1.372.473-1.372.473-.428.313-.582.7-.582.7-.483.142-1.006.634-1.006.634-.128.13-.18.17-.18.17-.322.243-.75.257-.75.257.035.344.224.687.224.687.323.49.916.583.916.583s-.302.318-.81.474c-.378.115-.908.198-.908.198.015.125.07.22.07.22.533.87 1.757.82 1.757.82.21.025.563-.034.563-.034-.15.21-.323.842-.323.842-.075.313-.234.432-.234.432-.164.135-.607.4-.607.4.193.253.7.368.7.368.01.413.163.995.163.995-.69-.145-1.048.074-1.048.074.2.176.35.41.35.41.238.287.288.854.288.854.05.677.26 1.154.422 1.403.165.25.494.493.494.493.222.19.64.283.64.283.29.08.564.02.564.02-.186.155-.704.354-.704.354.145.314.568.493.568.493.343.194.925.22.925.22.642-.005 1.17-.523 1.17-.523.565-.513.916-.683 1.476-.64.82.063 1.395.75 2.97.75 3.18 0 5.747-3.044 6.146-5.694h-4.25S15.275 10.6 14.19 10.6c-.828 0-1.38-.67-1.38-1.76 0-1.422 1.188-3.906 2.897-3.906.8 0 .795.97.48 1.897h4.022zM7.093 9.694c-.32-.093-.466-.323-.466-.323.174-.05.26-.3.385-.33.202-.047.12.152.658.42.197.093.224.1.376.13-.372.184-.596.207-.953.103z"/><path class="gold" d="M20.068 6.653c.736-3.162-1.432-5.64-4.622-5.64-2.035 0-3.666 1.462-4.65 1.505-.412.02-.906-.676-.906-.676-.557.418-.15 1.185-.15 1.185-.825-.607-1.752-.513-1.752-.513-1.383.135-1.72 1.13-1.72 1.13-.807.298-1.086.726-1.086.726-.497.36-.786.324-.786.324.19 1.04 1.274.99 1.274.99-.428.826-1.82.956-1.82.956.496.797 1.68.726 1.68.726.406.043.956-.176 1.228-.3-.18.097-.266.172-.266.172-.523.367-.512 1.038-.78 1.516-.105.214-.405.317-.572.448.18.09.385.166.58.2-.005.333.156 1.14.264 1.463-.388-.29-.99-.16-.99-.16.667.83.353 1.345.688 2.116.113.384.46.712.812.945.908.41 1.536-.13 1.536-.13-.104.504-1.05.882-1.05.882.222.242.765.426 1.09.446 1.283.084 1.35-1.312 2.772-1.167.825.085 1.58.778 2.958.778 3.444 0 5.683-3.486 5.953-5.362H15.85s-.48 1.565-1.64 1.565c-1.202 0-1.582-1.03-1.582-1.96 0-1.412 1.172-4.08 3.086-4.08.902 0 1.04.99.722 1.915h3.632zM7.093 9.695c-.32-.093-.466-.323-.466-.323.174-.05.26-.3.385-.33.202-.047.12.152.658.42.197.093.224.1.376.13-.372.184-.596.207-.953.103z"/><path class="bg" d="M6.42 5.174c.428-.082.712-.52 1.155-.58.25-.064.498.04.713.075-.007-.023-.035-.03-.035-.05-.457-.533-1.183-.85-1.896-.588-.595.11-.913.796-1.522.865-.006.02.028.035.028.056.373.43 1.078.4 1.557.22zM8.986 12.335v-.027c-.747-.276-1.293.54-2.026.117-.65-.214-.657-1.107-1.315-1.32.056.165.132.317.16.49.035.72.23 1.502.88 1.854.27.145.656.145.933.013.53-.277.788-.913 1.368-1.128z"/><path class="bg" d="M15.452 1.393c-1.9-.01-3.463 1.51-4.7 1.51-.312 0-.578-.19-.762-.427.055.678.685 1.245 1.287 1.474-.305.02-.568-.097-.837-.16-.81-.222-1.385-.997-2.312-.92-.65-.022-1.225.374-1.543.913.16-.146.346-.235.547-.276.478-.084.892.13 1.204.456.387.615.816 1.21 1.453 1.64-.458 0-.86-.173-1.26-.312-.824-.234-1.8-.13-2.422.458-.318.52-.85.94-1.44 1.065v.02l.174.077c.678.29 1.426.007 1.992-.346.394-.125.865-.056 1.142.257.194.332.554.664.872.907-.083.034-.166-.036-.263-.036-.546-.27-1.37-.635-1.923-.13-.52.395-.256 1.156-.81 1.53.388.034.61-.25.83-.526.554-.41.907.326 1.35.498.47.23 1.093.153 1.432.638-.36.07-.727.132-1.038.317-.478.3-1.176.347-1.695.098-.27-.146-.456-.346-.635-.596 0 .007 0 .02-.008.026.035 1.024.415 2.14 1.474 2.5.72.33 1.495-.21 2.202.138-.374.083-.72.283-.94.608-.368.478-.36 1.135-.817 1.543-.083.076-.208.118-.29.18.09.04.18.063.283.076.505.084.934-.24 1.217-.622.41-.395 1.03-.635 1.523-.602.997.067 1.74.79 3.057.796 2.622.01 4.938-2.488 5.43-4.536H16.13s-.563 1.566-1.926 1.566c-1.7 0-1.997-1.588-1.997-2.376 0-1.85 1.45-4.497 3.502-4.497.972 0 1.544.993 1.228 1.938h2.795c.513-2.28-1.17-4.85-4.28-4.865z"/><path class="fg" d="M6.407 9.365c.197.25.354.44.668.506.552.157.944-.016 1.365-.28-.18-.088-.284-.103-.458-.19-.61-.192-.71-.646-1.03-.547-.202.128-.337.394-.57.47l.025.042zm1.262.097c.196.093.223.1.375.13-.37.184-.595.207-.952.103-.32-.093-.466-.323-.466-.323.174-.05.26-.3.385-.33.202-.047.12.152.657.42z"/><path fill="#FFF" d="M6.627 9.372s.146.23.466.323c.357.104.58.08.953-.103a1.145 1.145 0 0 1-.376-.13c-.538-.268-.456-.467-.658-.42-.126.03-.21.28-.385.33zm.414-.205a.232.232 0 0 1 .024-.003c.01.007.03.03.048.05.075.08.2.214.503.364.02.01.037.018.053.024-.174.044-.317.035-.54-.03a.772.772 0 0 1-.304-.17.924.924 0 0 0 .125-.137c.03-.036.072-.09.09-.098z"/></svg>