<?xml version="1.0" encoding="utf-8"?>
<!-- Generator: Adobe Illustrator 15.1.0, SVG Export Plug-In . SVG Version: 6.00 Build 0)  -->
<!DOCTYPE svg PUBLIC "-//W3C//DTD SVG 1.1//EN" "http://www.w3.org/Graphics/SVG/1.1/DTD/svg11.dtd">
<svg version="1.1" id="Layer_1" xmlns="http://www.w3.org/2000/svg" xmlns:xlink="http://www.w3.org/1999/xlink" x="0px" y="0px"
	 width="435.031px" height="352.309px" viewBox="0 0 435.031 352.309" enable-background="new 0 0 435.031 352.309"
	 xml:space="preserve">
<g id="reg">
	<path fill="#FFFFFF" d="M378.16,204.563c-4.971,0.421-8.658,4.794-8.238,9.766c0.371,4.386,3.852,7.866,8.238,8.238
		c4.973-0.421,8.66-4.793,8.24-9.766C386.029,208.414,382.549,204.935,378.16,204.563z M378.16,220.63
		c-3.883,0.012-7.043-3.128-7.055-7.012c0-0.015,0-0.028,0-0.043c0-3.896,3.158-7.055,7.055-7.055s7.057,3.158,7.057,7.055
		C385.217,217.473,382.057,220.63,378.16,220.63L378.16,220.63z"/>
	<path fill="#FFFFFF" d="M381.816,211.468c0.002-1.67-1.34-3.03-3.01-3.056h-4.367v10.281h1.936v-4.149h1.377l1.979,4.149h2.152
		l-2.045-4.344c1.217-0.437,2.025-1.592,2.023-2.882H381.816z M378.807,212.585h-2.408v-2.235h2.408
		c0.602,0,1.117,0.493,1.117,1.118C379.924,212.113,379.408,212.585,378.807,212.585z"/>
</g>
<path fill="#A7A9AC" d="M431.613,83.981c-5.916-41.298-42.01-54.14-63.713-58.162l18.562-12.196c0,0-97.006-21.079-222.408,18.563
	C49.452,68.344-8.366,125.129,1.228,192.065c5.915,41.3,42.008,54.162,63.711,58.162l-18.563,12.197
	c0,0,97.008,21.078,222.409-18.542C383.387,207.66,441.184,150.918,431.613,83.96V83.981z"/>
<path fill="#FFFFFF" d="M425.848,85.766c-7.83-54.57-75.283-55.494-75.283-55.494l19.488-12.798c0,0-92.061-14.949-205.138,20.757
	C65.068,69.763-2.858,121.687,6.971,190.238c7.829,54.634,75.283,55.495,75.283,55.495l-19.487,12.841
	c0,0,92.061,14.948,205.138-20.757c99.846-31.555,167.773-83.457,157.943-152.072V85.766z"/>
<path fill="#E63A26" d="M415.373,89.1c-9.98-69.69-117.957-54.914-173.797-37.297c-29.899,9.464-49.409,19.036-49.409,19.036
	C293.391,34.617,364.33,60.471,364.33,60.471c-33.598-2.366-65.174,8.518-65.174,8.518s33.943,6.818,38.438,38.286
	c5.959,41.556-29.424,89.135-138.479,123.572c-59.452,18.777-109.482,21.724-109.482,21.724s70.55,10.39,177.067-23.23
	C365.256,198.217,423.826,147.993,415.373,89.1z"/>
<path fill="#E63A26" d="M216.541,178.473c30.241-9.529,55.965-23.747,69.776-37.363c7.635-7.528,11.656-14.841,10.754-21.08
	c-0.342-2.338-1.393-4.515-3.012-6.237c-10.541-11.4-45.986-11.293-86.577,1.505c-46.977,14.885-83.026,41.083-80.531,58.463
	c2.517,17.486,42.632,19.572,89.611,4.732L216.541,178.473z"/>
<path d="M212.472,159.501c19.62-6.173,34.739-16.67,33.772-23.403c-0.969-6.732-17.639-7.141-37.256-0.968
	c-19.617,6.237-34.738,16.67-33.77,23.402C176.165,165.266,192.856,165.696,212.472,159.501z"/>
<path d="M68.509,215.618c33.598,2.366,65.173-8.517,65.173-8.517s-33.92-6.818-38.437-38.288
	c-5.958-41.556,29.425-89.135,138.479-123.593c59.473-18.778,109.482-21.725,109.482-21.725s-70.551-10.411-177.066,23.23
	C67.563,77.851,9.014,128.075,17.446,186.947c9.98,69.691,117.979,54.936,173.796,37.298c29.855-9.421,49.408-19.015,49.408-19.015
	C139.448,241.474,68.509,215.618,68.509,215.618L68.509,215.618z"/>
<path d="M201.137,89.208c-37.427,11.83-57,26.779-63.797,42.481l-13.594,31.51c0,0,16.52-29.618,83.35-50.697
	c50.377-15.917,81.157-11.895,86.942,1.291c1.613,1.828,2.688,3.872,3.012,6.28c0.902,6.238-3.119,13.551-10.754,21.079
	c-12.627,17.702-36.717,36.782-57.861,49.688c16.885-5.314,92.705-41.299,87.199-79.672c-5.119-35.62-49.428-42.502-114.518-21.94
	L201.137,89.208z"/>
</svg>
