<?xml version="1.0" encoding="utf-8"?>
<!-- Generator: Adobe Illustrator 15.1.0, SVG Export Plug-In . SVG Version: 6.00 Build 0)  -->
<!DOCTYPE svg PUBLIC "-//W3C//DTD SVG 1.1//EN" "http://www.w3.org/Graphics/SVG/1.1/DTD/svg11.dtd">
<svg version="1.1" id="Layer_1" xmlns="http://www.w3.org/2000/svg" xmlns:xlink="http://www.w3.org/1999/xlink" x="0px" y="0px"
	 width="435.031px" height="352.309px" viewBox="0 0 435.031 352.309" enable-background="new 0 0 435.031 352.309"
	 xml:space="preserve">
<g>
	<path fill="#FFFFFF" d="M389.402,237.606c-4.282,0.013-7.741,3.494-7.729,7.775s3.493,7.742,7.775,7.729
		c4.274-0.247,7.538-3.913,7.292-8.188c-0.229-3.947-3.39-7.091-7.339-7.295V237.606z M389.402,251.505c-3.368,0-6.1-2.731-6.1-6.1
		c0-0.017,0-0.032,0-0.047c0-3.369,2.731-6.1,6.1-6.1s6.1,2.73,6.1,6.1C395.513,248.739,392.783,251.491,389.402,251.505
		L389.402,251.505L389.402,251.505z"/>
	<path fill="#FFFFFF" d="M392.569,243.611c0-1.413-1.146-2.56-2.562-2.56l0,0h-3.725v8.846h1.629v-3.632h1.165l1.698,3.632h1.816
		l-1.746-3.771c1.032-0.405,1.726-1.383,1.77-2.49L392.569,243.611z M390.007,244.613h-2.165v-1.956h2.142
		c0.466,0,0.884,0.466,0.884,0.932c0,0.559-0.395,1.024-0.931,1.024H390.007z"/>
</g>
<path d="M432.842,227.828c0-14.667,14.341-69.026-90.094-151.274l17.554-3.911l-9.079-29.798l-17.391,11.594V36.396h-34.222
	C277.332,20.356,266.578-0.2,231.47-0.2c-14.667,0-30.078,2.91-33.43,2.91c-2.561,0-10.406-1.629-23.699-1.629
	c-38.412,0-41.904,28.635-37.132,38.645c-50.471,34.641-75.45,59.551-75.45,68.56c0,3.492,2.048,7.985,2.048,14.503
	c0,14.201-30.683,45.49-30.683,62.066c0,15.411,19.694,16.482,19.694,16.482c1.118,4.539-6.518,19.694,0.327,27.424
	c-9.499,10.312,1.583,15.458,1.583,23.652c0,5.54-3.864,7.263-3.864,17.507c0,11.687,5.47,25.724,34.291,25.724
	c11.407,0,21.464-1.792,29.472-1.792c2.235,24.211,12.571,33.687,14.248,39.738c1.397,4.889,4.563,15.365,10.941,15.365
	c8.381,0,54.476-15.085,89.512-36.317c17.529,6.473,39.854,4.354,47.956,4.354c8.848,0,12.502,5.4,17.74,5.4
	c3.119,0,26.889-26.633,25.445-84.832c14.898,25.234,23.745,41.67,24.606,51.052c19.369-6.937,35.619-52.682,28.635-81.828
	c0,0,24.351,39.575,61.319,33.756c-1.331-4.145-2.076-8.454-2.212-12.804L432.842,227.828z"/>
<path fill="#D18A00" d="M200.508,263.982c8.963-13.735,3.864-37.364-13.153-30.823c-9.825-16.063-20.952-37.782-20.952-64.626
	c0-28.634,5.82-36.084,5.82-61.389c0-43.068-19.904-51.565-32.685-60.226c-30.427,20.579-70.794,48.795-70.794,63.834
	c0,4.423,1.955,8.613,1.955,12.943c0,15.551-30.264,45.745-30.264,60.366c0,5.494,4.377,10.081,11.408,10.081
	c7.03,0,24.909-2.561,31.661-3.329c6.751-0.698,7.45-3.958,7.45-5.728c0-4.424-6.891-10.476-12.106-10.476
	c-4.423,0-4.795,2.561-4.795,3.212c0,2.864,4.121,3.679,4.121,3.679c5.238-0.697,5.261,3.888,0.279,3.888
	c-4.097,0-8.684-3.026-8.684-8.241c0-5.262,4.19-6.566,7.31-6.566c13.083,0,20.603,11.827,18.438,19.371
	c16.226,8.055,15.76,19.856,13.083,19.856c-5.587,0-1.723-14.898-22.814-14.898c-5.937,0-18.321,1.746-21.254,2.096
	c-2.863,0.302-3.725,0.698-4.097,3.166c-0.35,2.327-3.399,11.081-3.399,16.436c0,7.914,5.285,8.451,8.683,8.451
	c8.894,0,23.979-2.166,23.979-5.704c0-2.328-3.841-1.63-5.238-1.63c-2.677,0-3.888-1.629-3.888-2.561
	c0-2.397,3.841-3.493,8.381-3.493c7.589,0,8.381,4.937,8.009,7.218c-0.861,5.122,7.333,3.865,7.333,14.667
	c0,1.257-0.093,4.354-2.677,4.354c-2.607,0-2.63-3.26-2.63-5.052c0-1.77-2.957-4.656-5.494-4.656
	c-2.654,0-12.385,5.028-33.337,3.119c-8.265,10.383,1.49,11.127,1.49,21.65c0,11.64-3.584,10.942-3.584,18.065
	c0,14.2,15.598,17.925,31.195,17.925c32.196,0,68.56-7.449,81.364-30.496c-4.377,20.347-20.789,27.633-48.702,33.989
	c3.189,22.582,7.869,27.819,11.268,33.918c3.399,6.146,4.144,14.668,10.149,14.668c7.217,0,49.586-15.25,78.105-32.453
	l-20.812-44.745L200.508,263.982z"/>
<path d="M237.873,261.003c-0.698,0-1.443,1.024-1.443,3.725c0,3.119,3.492,9.543,7.799,13.735c0.14-2.166,0.117-3.958,0.117-4.936
	c0-3.585-2.026-12.572-6.473-12.572V261.003z M160.233,219.284c-6.168-6.751-15.458-26.307,3.027-43.021
	C149.129,172.467,129.737,210.251,160.233,219.284z M138.165,88.916c0.861,1,2.328,1.164,3.352,0.326
	c0.745-0.652,1.257-2.212,0.28-3.353c-4.616-5.347-9.679-10.292-15.132-14.782l3.818-2.864c3.678,3.073,17.925,15.295,26.888,26.446
	c0.862,1.024,2.328,1.164,3.353,0.349c0.982-0.806,1.157-2.242,0.396-3.259c-8.776-10.941-21.976-22.349-26.702-26.446
	c1.56-1.117,2.91-2.165,3.608-2.654c9.615,6.984,15.062,13.689,15.132,13.735c0.783,1.02,2.244,1.211,3.265,0.428
	c0.013-0.01,0.027-0.021,0.041-0.032c1.034-0.804,1.221-2.293,0.419-3.329c-5.151-5.949-11.042-11.214-17.53-15.667
	c-0.843-0.6-1.981-0.572-2.794,0.07l-15.085,11.291c-1.396,1.024-1.117,2.863-0.046,3.771c9.429,7.333,16.692,15.924,16.762,16.017
	L138.165,88.916z M133.648,108.703c-14.364,0-19.09-15.411-37.131-15.411c-9.685,0-14.667,3.794-14.667,6.984
	c0,3.259,3.725,6.053,3.725,6.053c1.862,3.958-10.709,8.288-4.121,10.941l8.147,3.166c-2.654,4.609-0.931,13.153-0.465,15.295
	c-16.599,0.116-14.992,5.284-0.583,5.494c0.07,2.375-1.629,8.73,0.931,8.73c2.748,0,6.239-3.167,7.566-9.219
	c12.105-1.49,25.748-5.657,25.748-5.657c2.445-0.652,4.889-2.864,0.233-5.634l-22.279-13.107c0,0-1.909-1.117-0.652-4.027
	l1.699-3.958c0.465-1.164,1.7-1.327,2.282-1.327c6.332,0,15.83,9.474,28.402,9.474c5.47,0,11.546-3.189,11.546-6.285
	c0-3.026-7.449-1.49-10.336-1.49L133.648,108.703z"/>
<g>
	<path fill="#FFFFFF" d="M99.24,124.184c-0.825,3.715-0.857,7.563-0.093,11.292c14.271-0.862,20.114-3.493,20.114-3.493
		L99.24,124.184z M77.241,242.797c-1.56,0.769,4.796,13.968,3.655,19.882c0.931,2.677,4.888,12.501,11.593,9.079
		c6.658-3.375,1.024-12.292-0.582-14.666C86.413,254.531,78.8,241.959,77.241,242.797z M136.069,149.141
		c-5.518,1.466-10.569,6.938-20.556,9.615c-3.725,0.931-10.196,0-12.105,0c1.49,2.095,5.471,5.633,5.471,5.633
		s-1.467,3.632-1.77,6.123c1.629-0.978,6.472-3.911,10.173-4.889c10.01-2.608,17.087-0.303,22.582-1.746
		c2.607-0.699,7.356-2.026,5.447-9.358c-1.862-7.287-6.704-6.1-9.266-5.355L136.069,149.141z"/>
</g>
<g>
	<path fill="#CF0A2C" d="M194.688,235.277c-6.099-1.77-13.339,4.656-16.156,14.271c-2.794,9.638-0.116,18.856,5.959,20.719
		c6.1,1.746,13.317-4.609,16.134-14.295c2.793-9.637,0.116-18.926-5.937-20.718V235.277z M84.341,239.514
		c-2.979-4.145-4.586-0.42-7.752,1.28c-3.166,1.584-7.216,0.699-5.494,5.541c1.816,5.237-1.979,15.876-0.326,19.09
		c1.35,2.561,4.237,3.585,6.588,2.421c1.936-1.072,3.248-2.997,3.539-5.191c1.164-5.891-2.282-14.061-0.699-14.899
		c1.513-0.814,6.192,6.751,11.64,9.312c2.025,0.931,4.144,1.163,6.285,0.139c2.328-1.234,3.212-4.236,1.909-6.82
		c-1.676-3.213-12.501-6.355-15.691-10.85V239.514z M127.479,168.882c-1.63,0.465-4.121,1.862-8.218,2.933
		c-4.074,1.071-9.196,1.094-10.011-2.049c-0.082-0.273-0.082-0.564,0-0.838c0.279-2.56,3.957-5.913,3.957-5.913
		s-4.888-1.094-6.378-3.166c-0.172-0.224-0.306-0.476-0.396-0.745c-0.861-3.12,3.655-5.634,7.729-6.705
		c4.051-1.094,6.938-1.094,8.613-1.49c3.259-0.885,6.053-3.073,5.354-5.681c-1.304-4.888-7.612-3.678-11.104-2.793
		c-17.46,4.656-21.324,11.803-20.021,16.762c1.281,4.982,6.938,6.285,6.938,6.285s-4.283,3.888-2.979,8.847
		c1.28,4.935,8.193,9.266,25.654,4.657c3.492-0.931,9.615-2.98,8.381-7.824c-0.745-2.677-4.26-3.166-7.542-2.328L127.479,168.882z
		 M306.292,72.386c-50.937,38.132-78.337,94.982-86.672,114.446c0,0-1.07,2.28,0.233,4.771l16.109,31.429
		c0.698,1.303,2.095,1.513,3.213,0.511l26.538-23.978c1.816-1.63,2.422-4.307,2.422-4.307C280.242,126,296.539,92.128,306.735,76.81
		c-0.352-1.13-0.523-2.309-0.513-3.492c0.094-0.326,0.094-0.652,0.094-0.978L306.292,72.386z"/>
</g>
<g>
	<path fill="#00833E" d="M348.569,52.087l-13.689,9.079l3.19,10.407l15.364-3.399L348.569,52.087z M311.018,83.887
		c-1.006-0.869-1.87-1.89-2.561-3.027c-16.296,26.144-37.132,91.607-37.132,147.643c0,57.339,17.554,87.766,23.861,87.766
		c4.89,0,22.047-30.66,22.047-70.235c0-10.824-9.079-54.149-9.079-135.491C308.202,93.083,309.505,88.427,311.018,83.887
		L311.018,83.887z M223.648,188.531l14.434,31.241l26.307-24.396c0,0,12.711-73.986,35.315-114.772
		c-59.643,57.874-76.032,107.904-76.032,107.904L223.648,188.531z M320.284,62.795c-5.876-0.003-10.642,4.757-10.645,10.632
		c-0.004,5.876,4.756,10.642,10.632,10.646c0.004,0,0.008,0,0.013,0c5.875,0,10.639-4.763,10.639-10.639
		C330.922,67.559,326.159,62.795,320.284,62.795z"/>
</g>
<g>
	<path fill="#FFD100" d="M278.729,82.211c3.539,0,3.097-4.749-0.232-4.749c-50.983,0-80.2,6.472-84.693,7.543
		c-2.84-24.979-17.228-32.965-17.228-49.121c0-6.286,4.19-7.543,7.566-7.543c11.919,0,20.858,13.968,37.387,13.968
		c15.365,0,18.671-10.896,27.471-10.896c13.106,0,7.332,34.967,30.613,34.967c7.356,0,12.176-2.934,12.176-2.934
		c3.212-1.746,0.232-5.494-2.469-4.097c0,0-4.655,2.398-9.266,2.398c-19.694,0-11.104-35.06-31.543-35.06
		c-9.778,0-13.037,10.802-27.192,10.802c-15.83,0-22.069-14.131-37.713-14.131c-8.916,0-12.105,5.959-12.105,11.943
		c0,17.925,17.693,31.521,17.693,56.058c0,25.003-8.544,46.956-8.544,81.644c0,40.438,38.412,52.38,38.412,90.047
		c0,21.324,8.195,34.454,17.32,34.454c5.005,0,9.686-2.956,11.92-10.778c1.116,0.494,2.318,0.771,3.538,0.814
		c2.562,0,12.105-2.793,12.105-14.014c0-32.128-55.173-48.749-55.173-99.104c0-24.212,3.864-62.95,9.777-62.95
		c3.143,0,7.03,13.549,14.434,13.549c9.241,0,6.053-26.772,10.127-26.772c3.258,0,8.194,12.524,14.037,12.524
		c4.726,0,6.286-9.708,8.311-17.32c0.77-3.562-4.235-4.54-4.959-0.931c-1.279,5.633-3.957,13.13-3.957,13.13
		c-3.025-3.026-7.869-12.176-13.735-12.176c-9.357,0-7.984,26.726-10.103,26.726c-3.912,0-6.379-13.875-14.899-13.875
		c-11.012,0-14.248,38.226-14.248,68.304c0,52.917,55.29,70.655,55.29,98.381c0,6.984-5.12,9.358-7.146,9.358
		c-0.848-0.035-1.687-0.192-2.49-0.465c0.301-1.933,0.465-4.074,0.465-6.426c0-16.296-9.009-19.415-12.665-19.415
		c-3.631,0-5.703,3.188-5.703,8.45c0,7.055,6.285,14.899,12.339,19.369c-0.931,4.376-2.84,8.427-6.938,8.427
		c-7.916,0-12.455-18.391-12.455-29.425c0-39.81-38.412-51.286-38.412-91.026c0-33.849,8.567-55.546,8.567-78.035
		c0-1.397,0-2.724-0.093-4.074c5.284-1.165,38.179-8.498,84.507-7.45L278.729,82.211z"/>
	<path fill="#FFD100" d="M304.407,94.828c0,0-29.053,61.157-29.053,132.417c0,47.188,14.666,83.25,18.693,83.25
		c3.189,0,18.089-22.466,18.089-69.375C312.136,222.264,301.892,150.328,304.407,94.828L304.407,94.828z"/>
</g>
<g>
	<path fill="#00833E" d="M290.555,184.596l-10.476,8.102c-1.257,10.15-2.096,20.649-2.213,31.429l11.547-7.869
		c0.071-9.219,0.373-19.788,1.118-31.661H290.555z M298.33,136.733c-2.048,17.297-3.375,32.825-4.235,46.607l11.732,8.66
		c-1.583-17.227-3.259-36.55-3.958-55.035C301.776,134.335,298.843,131.844,298.33,136.733L298.33,136.733z M292.814,218.05
		l16.296,11.223c-0.606-9.01-1.793-20.721-3.027-33.756l-12.176-9.08C293.209,198.402,292.906,208.948,292.814,218.05z
		 M294.792,136.849c0.396-3.189-2.258-2.677-2.793-0.815c-4.423,14.899-8.776,33.058-11.5,53.01l10.243-7.916
		c0.86-13.154,2.095-27.982,4.027-44.302L294.792,136.849z M280.405,261.513c0.814,5.447,1.771,10.478,2.863,15.087
		c1.677,1.814,6.355,5.121,10.312-6.752c6.752,11.175,10.942,9.708,12.27,8.753c0.931-4.097,1.723-8.613,2.375-13.596
		l-16.135-10.708L280.405,261.513L280.405,261.513z M293.814,252.202l14.783,9.871c1.148-9.733,1.405-19.552,0.768-29.333
		l-16.528-11.406C292.781,231.632,293.108,241.928,293.814,252.202z M289.368,219.517l-11.501,7.868
		c0,11.268,0.816,21.791,2.143,31.241l10.36-6.447c-0.771-10.862-1.104-21.751-1.002-32.64V219.517z"/>
</g>
<g>
	<path fill="#CF0A2C" d="M243.25,154.938c-7.054,11.64-12.803,23.979-15.294,29.659c-1.024,2.444-1.444,3.817-1.444,3.817
		l12.409,26.773l22.885-21.278c0.278-1.164,2.327-12.571,5.865-27.937c5.122-21.813,13.735-53.73,23.188-73.099
		c-17.674,19.233-33.599,40.003-47.585,62.064H243.25z"/>
	<circle fill="#CF0A2C" cx="320.284" cy="73.411" r="6.798"/>
</g>
<path fill="#FFFFFF" d="M274.189,117.666c-0.582-0.303-1.396-0.07-1.629,0.535c-4.726,9.359-8.847,18.251-12.408,26.54
	l-14.526,6.425c-0.791,1.232-1.567,2.474-2.328,3.725l15.364-6.797c-3.958,9.404-7.217,17.925-9.94,25.376l-19.323,7.845
	c-0.477,1.081-0.943,2.168-1.396,3.26l19.625-7.985c-6.006,17.111-8.473,27.632-8.544,27.795c-0.139,0.629,0.232,1.396,0.932,1.444
	c0.662,0.146,1.316-0.271,1.467-0.931c0-0.164,2.397-10.245,8.147-26.773l10.43,17.46l1.77-1.676l0.046-0.047L250.7,175.098
	c2.444-6.798,5.354-14.55,8.939-23.048l8.056,13.852c0.278-1.165,0.465-2.328,0.814-3.492l-7.613-13.223
	c3.912-9.219,8.451-19.276,13.876-29.891C275.05,118.737,274.772,118.039,274.189,117.666L274.189,117.666z"/>
<g>
	<path fill="#FF671B" d="M328.012,42.076h-22.419l14.317,15.505h8.079L328.012,42.076z M411.122,153.727
		c-24.443-39.25-67.046-72.238-76.824-79.547c-0.162,2.258-2.327,5.982-3.421,7.822c-1.327,1.443-2.864,3.12-3.633,3.562
		c1.678,6.751,4.284,16.459,7.729,27.703c5.121,12.478,10.872,27.866,15.737,43.906c5.541,13.27,11.989,26.47,19.276,38.18
		c30.264,48.608,60.435,41.904,60.435,41.904c-5.191-8.241,10.011-36.316-19.322-83.53H411.122z"/>
</g>
<path fill="#FFFFFF" d="M402.113,156.52c-19.322-31.032-60.365-67.931-69.678-76.125c-0.568,1.021-1.273,1.961-2.095,2.794
	c5.867,16.691,28.728,79.268,49.819,113.142c20.533,33.057,40.623,31.428,40.623,31.428s6.752-30.219-18.693-71.238H402.113z"/>
<g>
	<path fill="#FF671B" d="M333.437,84.655c3.259,9.126,9.73,26.702,17.739,46.141l2.143-11.78l-10.478-16.762
		c-0.362-0.577-0.188-1.338,0.389-1.701c0.025-0.016,0.051-0.031,0.078-0.045c0.604-0.349,1.35-0.186,1.629,0.419l10.08,16.064
		l15.505,3.841c-11.828-12.587-24.202-24.65-37.085-36.154V84.655z"/>
	<path fill="#FF671B" d="M356.788,119.994l18.508,29.752l24.023,7.124c-6.75-10.709-16.063-22.069-25.771-32.708l-16.761-4.121
		V119.994z M352.876,135.056c4.492,10.779,9.451,22.023,14.55,32.592l6.007-16.226l-18.159-29.263l-2.397,12.874V135.056z
		 M418.688,225.245c0.535-4.657,1.397-17.182-3.725-34.455l-15.923-2.887l9.358,15.085c0.418,0.535,0.186,1.327-0.42,1.677
		c-0.535,0.372-1.396,0.185-1.723-0.419l-9.451-15.272l-6.006,17.926C403.277,221.799,414.358,224.638,418.688,225.245
		L418.688,225.245z M377.25,152.912l20.021,32.127l16.854,3.097c-3.166-9.849-7.487-19.29-12.874-28.123l-23.978-7.101H377.25z
		 M388.936,204.665l6.192-18.392l-20.021-32.197l-6.123,16.646c4.377,8.894,8.848,17.228,13.224,24.281
		c2.281,3.633,4.517,6.868,6.751,9.686L388.936,204.665z"/>
</g>
<g>
	<path fill="#D18A00" d="M97.145,105.444l-9.033,2.422c-1.909,0.465-2.002,1.583-0.187,2.468l6.868,3.305
		c0.7,0.324,1.531,0.02,1.854-0.681c0.002-0.006,0.005-0.012,0.008-0.017l2.329-5.355c0.698-1.63-0.163-2.561-1.863-2.142H97.145z"
		/>
	
		<ellipse transform="matrix(-0.9602 -0.2794 0.2794 -0.9602 301.0518 548.4774)" fill="#D18A00" cx="189.613" cy="252.784" rx="6.402" ry="11.548"/>
</g>
<path fill="#FFD100" d="M350.71,157.173c-4.559-14.873-9.811-29.524-15.737-43.906c-3.445-11.268-6.053-20.952-7.729-27.703
	c-4.196,2.338-9.289,2.409-13.549,0.186c-4.33,100.384,5.634,117.751,7.45,146.432c25.329,39.926,26.236,51.564,26.236,51.564
	s29.566-20.719,22.768-82.294c-5.315-8.241-10.136-16.793-14.434-25.608"/>
<path fill="#001970" d="M359.044,192.722c-0.886-5.67-2.004-11.301-3.353-16.878c-1.482-6.257-3.151-12.468-5.005-18.625
	c-4.842-16.063-10.615-31.428-15.714-43.929c-5.053-12.246-9.405-21.65-11.5-26.213c-1.992,0.438-4.055,0.455-6.054,0.046
	c-0.977,10.802-4.423,56.989,2.166,98.568c9.404,59.643,32.057,81.247,32.057,81.247s15.667-22.535,7.45-74.263L359.044,192.722z"/>
<g>
	<path fill="#FFD100" d="M330.014,154.751l-7.821-49.447c-0.373-2.235-3.329-1.956-3.445,1.281
		c-0.653,15.016-0.932,36.177,0.884,57.781l10.36-9.638L330.014,154.751z M338.256,206.899l-3.865-24.443l-10.849,10.802
		c1.723,9.079,3.772,17.181,5.96,24.444l8.777-10.803H338.256z M319.934,167.648c0.514,5.914,1.304,11.827,2.212,17.646
		c0.279,1.631,0.465,3.261,0.769,4.843l11.012-10.824l-3.376-21.419l-10.616,9.778V167.648z M324.777,104.908l7.915,50.123
		l17.46,9.823c-6.05-20.917-13.462-41.415-22.186-61.366c-0.698-1.932-3.633-1.513-3.189,1.397V104.908z M345.03,235.161
		l-6.099-24.979l-8.544,10.477c3.072,9.545,6.379,17.46,9.544,23.745l5.076-9.219L345.03,235.161z M333.204,158.336
		c1.165,7.078,2.282,14.131,3.26,20.627l19.555,11.174c-1.291-7.309-2.906-14.555-4.842-21.721l-17.973-10.104V158.336z
		 M336.975,182.223l3.865,24.21l17.925,9.708c-0.282-7.617-1.014-15.213-2.188-22.745L336.975,182.223z M356.484,245.683
		l-9.685-8.31l-5.448,9.869c2.802,5.338,6.091,10.401,9.825,15.133c1.444-3.073,3.632-8.566,5.308-16.715V245.683z M358.812,219.144
		l-17.297-9.312l6.053,24.816l9.452,8.147c1.163-6.472,1.908-14.341,1.769-23.652H358.812z"/>
</g>
</svg>
