<?xml version="1.0" encoding="utf-8"?>
<!-- Generator: Adobe Illustrator 15.1.0, SVG Export Plug-In . SVG Version: 6.00 Build 0)  -->
<!DOCTYPE svg PUBLIC "-//W3C//DTD SVG 1.1//EN" "http://www.w3.org/Graphics/SVG/1.1/DTD/svg11.dtd">
<svg version="1.1" id="Layer_1" xmlns="http://www.w3.org/2000/svg" xmlns:xlink="http://www.w3.org/1999/xlink" x="0px" y="0px"
	 width="435.031px" height="352.309px" viewBox="0 0 435.031 352.309" enable-background="new 0 0 435.031 352.309"
	 xml:space="preserve">
<g>
	<path fill="#FFFFFF" d="M407.765,195.269c0,5.198,4.218,9.441,9.491,9.441c5.241,0,9.49-4.25,9.49-9.491
		c0-5.242-4.249-9.491-9.49-9.491C412,185.742,407.751,190.013,407.765,195.269c-0.001,0.007-0.001,0.016,0,0.024V195.269z
		 M424.687,195.269c0.235,4.109-2.905,7.634-7.016,7.87c-4.111,0.236-7.635-2.905-7.871-7.016c-0.017-0.285-0.017-0.57,0-0.854
		c0.236-4.111,3.76-7.253,7.871-7.017C421.453,188.47,424.47,191.488,424.687,195.269z"/>
	<path fill="#FFFFFF" d="M413.333,200.688h2.035v-4.414h1.472l2.035,4.414h2.257l-2.134-4.61c1.308-0.441,2.173-1.687,2.134-3.065
		c0-1.761-1.428-3.188-3.188-3.188h-4.61V200.688z M415.392,191.86h2.551c0.664,0,1.201,0.538,1.201,1.202
		c0,0.663-0.537,1.201-1.201,1.201h-2.551v-2.354V191.86z"/>
</g>
<path fill="#FFFFFF" d="M398.397,198.971c13.732-19.963,20.846-39.907,20.846-59.355c0-51.208-52.435-85.665-130.422-85.665
	l-6.328,0.123c-7.847-12.924-22.562-20.11-34.947-22.808L223.957-6.035l-50.079,81.79C83.235,109.5,20.035,172.529,20.035,229.431
	c0,21.238,9.147,40.073,26.241,54.812L8.508,345.972c0,0,66.266-10.595,166.522-16.383l6.131-16.187
	c30.53-3.38,60.476-10.776,89.069-21.998c0.246,1.962,0.688,4.022,1.717,6.033l5.493,10.913
	c8.216,16.432,24.524,36.002,55.377,36.002c78.724,0,102.194-66.461,102.194-66.461c0.98-52.36-36.591-78.97-36.591-78.97
	L398.397,198.971z"/>
<path fill="#2A6190" d="M392.438,199.88c14.223-19.473,22.415-39.981,22.415-60.239c0-46.18-46.033-81.25-126.057-81.25
	c-2.87,0-5.788,0.074-8.707,0.172c-7.405-14.519-24.156-21.336-35.315-23.348L224.005,2.352l-47.16,77.007
	c-84.242,30.975-152.42,91.6-152.42,150.096c0,20.993,9.564,39.729,27.541,53.881l-34.825,56.897c0,0,71.955-10.424,154.75-14.862
	l6.082-16.064c32.961-3.188,66.065-11.771,96.574-24.278c-0.537,3.574-0.062,7.228,1.373,10.546l5.444,10.938
	c8.707,17.314,24.402,33.525,51.429,33.525c75.462,0,97.755-62.832,97.755-62.832c0-35.12-16.137-60.576-38.185-77.253
	L392.438,199.88z"/>
<g>
	<path fill="#ADAFAA" d="M235.333,255.624c-38.328,0-64.005,19.203-98.879,19.203c-48.559,0-63.519-34.286-63.519-58.025
		c0-73.09,86.204-117.185,86.204-117.185l1.717-2.771c-0.294,0.098-0.981,0.491-2.134,1.03
		c-14.297,7.039-91.672,48.412-91.672,118.901c-0.098,12.737,3.571,25.221,10.545,35.879l-49.049,80.023
		c0,0,60.453-8.632,139.226-12.997l18.247-48.314c15.99-4.708,31.587-9.466,51.694-9.466c42.673,0,70.042,22.881,70.042,22.881
		s-15.597-29.184-72.445-29.184L235.333,255.624z"/>
	<path fill="#ADAFAA" d="M238.275,35.706l-14.219-22.391l-101.68,166.209c0,1.962,0.172,5.591,0.932,9.711
		c2.158,11.772,9.221,28.449,32.201,28.449c45.984,0,112.417-42.482,162.987-42.482c2.733-0.006,5.466,0.1,8.19,0.318L238.275,35.73
		V35.706z"/>
</g>
<g>
	<path fill="#75263D" d="M224.203,24.375L123.284,189.186c2.158,11.821,9.221,28.498,32.201,28.498
		c45.984,0,112.417-42.507,162.987-42.507c0.367,0,0.735,0,1.104,0.049L224.177,24.4 M81.347,257.709l-41.373,67.589
		c0,0,51.501-6.866,123.702-11.208l15.376-40.71c-13.733,3.924-28.203,7.309-46.523,7.309c-20.527,0-39.092-8.462-51.208-22.979
		H81.347z"/>
</g>
<path d="M417.305,285.716c-0.735-11.845-9.811-28.547-9.811-28.547c-4.782,7.357-12.679,15.94-15.008,18.394l-0.049,21.975
	l-1.424,0.146l-2.992,0.295l-7.602-11.724c-54.936,38.553-96.137,14.838-96.137,14.838l12.336,19.007
	c22.072,28.202,94.076,18.05,124.781-34.237l-4.071-0.146H417.305z"/>
<g>
	<path fill="#FFFFFF" d="M190.113,277.378l-4.905,12.924c28.988-0.981,58.365-6.867,85.587-16.357
		C240.875,260.063,194.773,275.71,190.113,277.378L190.113,277.378z M158.721,97.9C94.05,123.013,43.946,168.04,43.946,213.27
		c0,19.57,8.707,34.75,22.563,46.351l7.7-12.605c-4.8-9.342-7.258-19.711-7.161-30.214C67.049,146.287,144.399,104.914,158.721,97.9
		z M383.804,193.994c7.726-12.753,12.018-26.002,12.018-39.246c0-50.472-58.246-72.103-112.127-76.395
		c-0.368,4.169-1.324,8.682-2.992,13.612l53.366,84.368C350.745,178.543,368.304,184.355,383.804,193.994z M259.857,69.893
		c7.585,1.455,13.938,6.61,16.922,13.734c4.414-16.751-1.079-41.25-38.504-47.873c-4.8-0.831-9.646-1.347-14.514-1.545l-2.895,13.93
		l-9.761,2.992l-6.008,21.827l-7.848,6.376l-11.526,18.762c25.358-17.903,49.291-28.89,66.776-28.939
		C255.149,69.206,257.577,69.403,259.857,69.893L259.857,69.893z"/>
	<path fill="#FFFFFF" d="M318.496,179.818c-55.426,0-116.243,43.163-164.017,43.163c-14.224,0-18.467-5.248-18.467-5.248
		l-2.06,3.188c0,0-58.565-28.105,21.41-115.125c0,0-68.84,35.904-74.31,108.552l4.169-3.483c0,0-2.207,48.902,53.17,48.902
		c44.512,0,60.33-16.529,101.625-16.529c88.117,0,102.268,50.226,102.268,50.226s-57.779,16.996-61.605-14.861
		c0,0-8.828,37.352,65.235,18.59c0,0,4.659-7.357,4.097-16.873c0,0,6.817,6.866,7.97,12.065c0,0,5.641-6.376-3.384-23.642
		c0,0,7.676,7.015,12.703,17.241l3.09-2.575c0,0,0.246-7.479-14.641-27.541l-10.104,6.377c0,0-23.544-44.513-111.097-38.823
		c0,0,72.937-25.897,115.34,26.806l9.147-6.254c0,0,25.456,24.721,32.005,53.66l1.422-0.122l0.074-21.926l0.122-26.241l7.357,8.657
		c0,0,3.556-6.524-0.687-20.061c0,0,17.167,16.75,22.219,47.994l1.374-17.413c-0.099-15.032-24.966-88.729-104.353-88.729
		L318.496,179.818z"/>
</g>
<g>
	<path fill="#ADAFAA" d="M224.791,143.221l-20.698,55.187c0,0-28.89,10.889-47.946,13.979
		c38.185,2.942,104.544-40.325,147.879-40.325c-19.571-6.131-66.462,12.39-66.462,12.39l-12.748-41.207L224.791,143.221z
		 M198.451,85.098c46.764-26.144,65.918-19.129,73.08-12.851c-22.268-23.348-69.155,6.866-69.155,6.866l-3.924,5.96V85.098z
		 M353.272,314.728l3.384-5.592c-45.714,15.132-64.646-0.491-64.646-0.491c15.45,17.364,48.804,9.811,61.312,6.083H353.272z"/>
	<path fill="#ADAFAA" d="M298.9,317.941c13.195,16.111,53.293,14.469,84.659-4.342l2.354-6.204
		C366.293,320.884,322.468,333.39,298.9,317.941z"/>
</g>
<g>
	<path fill="#2A6190" d="M224.277,161.222l-12.705,33.703l20.597-8.462c-2.449-7.847-5.244-16.682-7.893-25.266V161.222z
		 M268.686,64.865c-15.818-15.058-53.166-2.747-53.166-2.747l-1.03,3.998c37.617-14.053,54.195-1.227,54.195-1.227V64.865z"/>
	<path fill="#2A6190" d="M344.81,187.249c0,0,26.241,8.143,38.014,31.294l-5.102,8.927l-0.612,9.173l-8.266-8.879l-4.341,2.697
		c0,0-22.587-31.808-78.43-31.808c-58.119,0-84.802,34.408-134.636,34.408c-63.372,0-45.322-63.598-41.079-76.522
		c0,0-12.336,23.059-12.336,44.149c0,11.38,1.962,40.123,50.03,40.123c44.145,0,88.211-37.204,139.688-37.204
		c35.88,0,66.536,25.505,74.507,35.561l5.763-3.017l11.821,12.458l2.551-18.835l7.111-10.986
		c-0.049,0.049-10.349-25.015-44.684-31.515V187.249z M399.893,257.954l-7.357-8.634l-0.074,26.242
		c2.354-2.502,10.251-11.085,15.058-18.394c0,0,9.075,16.677,9.811,28.522l4.096,0.171c-5.027-31.243-22.22-47.994-22.22-47.994
		c4.292,13.562,0.736,20.062,0.736,20.062L399.893,257.954z"/>
</g>
</svg>
