<?xml version="1.0" encoding="utf-8"?>
<!-- Generator: Adobe Illustrator 15.1.0, SVG Export Plug-In . SVG Version: 6.00 Build 0)  -->
<!DOCTYPE svg PUBLIC "-//W3C//DTD SVG 1.1//EN" "http://www.w3.org/Graphics/SVG/1.1/DTD/svg11.dtd">
<svg version="1.1" id="Layer_1" xmlns="http://www.w3.org/2000/svg" xmlns:xlink="http://www.w3.org/1999/xlink" x="0px" y="0px"
	 width="435.031px" height="352.309px" viewBox="0 0 435.031 352.309" enable-background="new 0 0 435.031 352.309"
	 xml:space="preserve">
<g id="reg">
	<path fill="#FFFFFF" d="M329.559,265.259c-4.04,0-7.314,3.274-7.314,7.314s3.274,7.314,7.314,7.314c4.047,0,7.326-3.28,7.326-7.326
		c0-4.047-3.279-7.327-7.326-7.327V265.259z M329.559,278.346c-3.175,0-5.75-2.575-5.75-5.75l0,0
		c-0.012-3.188,2.562-5.783,5.75-5.796c3.188-0.013,5.782,2.562,5.797,5.75c0.013,3.188-2.562,5.783-5.749,5.796
		C329.59,278.346,329.574,278.346,329.559,278.346z"/>
	<path fill="#FFFFFF" d="M332.621,270.867c0-1.354-1.169-2.454-2.479-2.454h-3.552v8.367h1.59v-3.412h1.1l1.588,3.412h1.776
		l-1.684-3.506c0.993-0.38,1.658-1.321,1.684-2.385L332.621,270.867z M330.049,271.802h-1.938v-1.87h1.963
		c0.498,0.024,0.889,0.438,0.888,0.936c0,0.468-0.351,0.936-0.888,0.936L330.049,271.802L330.049,271.802z"/>
</g>
<path fill="#A7A9AC" d="M339.257,252.053l78.83-181.45c0,0-57.025,33.817-122.229,59.643l112.017-83.271l-70.509,12.106
	c-10.144-6.076-45.223-24.212-101.85-24.212l-9.207,0.232L214.415,0l-18.09,37.463C93.073,50.714,12.701,111.712,12.701,177.549
	c0,29.446,12.621,68.078,70.72,88.995l-29.307,72.45l77.521-61.162c16.664,2.267,35.127,3.412,55.062,3.412
	c23.301,0,46.224-1.776,68.241-5.143l84.835,74.482l-28.934-87.312c0,0,17.062-5.562,28.372-11.219H339.257L339.257,252.053z"/>
<path fill="#272466" d="M403.527,87.009c0,0-66.489,38.703-140.553,64.27l-2.57-7.175l126.998-88.107L246.242,92.15l78.993-31.854
	c0,0-33.421-18.65-89.697-18.65c-4.675,0-9.345,0.116-14.065,0.327l-8.18-24.001l-43.937,91.076l-67.075,19.094l62.307-25.544
	l20.426-41.6l4.254-8.694l3.692-7.572C99.243,58.193,19.548,114.05,19.548,177.549c0,35.593,19.585,68.241,73.221,84.998
	l-27.717,60.438l64.573-52.351c16.71,2.432,35.664,3.739,57.071,3.739c26.807,0,50.43-2.29,70.414-5.517l71.607,63.616
	l-26.783-73.665c20.802-6.124,32.02-11.731,32.02-11.731l69.552-160.091L403.527,87.009z"/>
<path fill="#E11B22" d="M302.05,59.689c0,0-26.571-12.924-78.382-11.218l2.339,7.012C231.775,54.781,262.975,51.836,302.05,59.689z
	 M226.029,229.666c-30.312-5.729-48.447-11.594-48.447-11.594s14.022-5.375,34.659-14.888c22.603-10.312,44.69-21.724,66.183-34.19
	c19.234-11.219,38.517-23.933,55.154-37.627c0,0-96.988,52.935-177.521,52.935c-54.126,0-79.133-25.123-79.133-41.95
	c0-50.152,88.294-76.119,108.09-81.331l4.254-8.692c-84.883,16.687-116.433,49.989-116.433,49.989s-28.373,17.178-39.123,49.032
	c-2.501,7.408-4.043,15.658-4.043,24.632c0,38.375,25.124,88.507,154.014,88.507c91.422,0,140.081-24.237,140.081-24.237
	C290.955,239.303,258.275,235.763,226.029,229.666L226.029,229.666z"/>
<path fill="#A7A9AC" d="M134.206,172.196l5.539-12.059l-32.416-8.928C107.329,151.209,98.098,167.662,134.206,172.196z"/>
<g>
	<path fill="#A7A9AC" d="M332.292,82.219l-103.298,25.007l-18.156-56.838l-28.816,68.804l-78.363,19.562l54.828,13.415
		l-10.517,21.034l2.921,0.093l4.066,0.046c3.739,0,7.619-0.14,11.521-0.373c9.582-0.562,19.468-1.824,29.564-3.623
		c7.712-1.355,15.472-3.039,23.276-5.001c10.279-2.524,20.703-5.54,30.986-8.811l-5.937-15.822l87.921-57.446v-0.047H332.292z
		 M291.582,265.259c-2.452,0.787-4.757,1.972-6.825,3.505c-1.948,1.655-3.364,3.852-4.065,6.312
		c-0.354,1.152-0.649,2.322-0.889,3.506l23.954,18.93l-12.151-32.251L291.582,265.259L291.582,265.259z M105.973,266.615
		c-0.736-0.274-1.506-0.447-2.29-0.515c-0.669-0.141-1.35-0.22-2.033-0.233l-13.041,26.034l24.469-18.229
		C111.512,270.867,109.713,267.923,105.973,266.615z"/>
</g>
<g>
	<path fill="#FFFFFF" d="M139.745,212.557c31.947,0,58.66-5.726,72.519-9.349c22.602-10.32,44.691-21.739,66.183-34.214
		c-20.1,7.642-83.665,30.289-128.676,30.289c-68.29,0-89.65-39.567-89.65-61.887c0-19.958,12.761-35.056,12.761-35.056
		s-23.558,16.453-23.558,43.844c0,45.105,44.965,66.373,90.445,66.373L139.745,212.557L139.745,212.557z"/>
	<path fill="#FFFFFF" d="M166.013,233.638c-126.903,0-132.583-67.636-132.279-82.266c-2.524,7.385-4.066,15.658-4.066,24.608
		c0,0,1.309,74.788,146.348,74.788c47.208,0,89.739-9.934,103.201-13.416c-17.824-1.807-35.562-4.379-53.164-7.712
		c-10.05,1.635-30.102,3.975-60.017,3.975L166.013,233.638z M325.75,179.394c-4.137-8.647-16.174-10.167-26.877-3.365
		c-10.75,6.823-16.125,19.305-12.061,27.951c4.138,8.693,16.127,10.189,26.878,3.391
		C324.441,200.521,329.816,188.064,325.75,179.394L325.75,179.394z"/>
	<path fill="#FFFFFF" d="M218.318,211.692l-0.094-3.038l-2.666,3.319l-4.207,0.562l2.642,1.401l-2.642,3.39l4.44-2.337l3.085,2.195
		l-0.584-3.646l4.159-2.337L218.318,211.692z M250.518,196.408l-0.069-3.133l-2.804,3.507l-4.395,0.537l2.71,1.474l-2.71,3.504
		l4.675-2.406l3.154,2.29l-0.515-3.739l4.276-2.454L250.518,196.408z M273.936,198.932l-0.117-2.852l-2.477,3.108l-3.974,0.536
		l2.455,1.355l-2.479,3.154l4.161-2.196l2.921,2.057l-0.468-3.389l3.903-2.29L273.936,198.932z M241.568,216.507v-2.804
		l-2.524,3.038l-3.974,0.42l2.408,1.448l-2.523,3.085l4.253-2.104l2.806,2.151l-0.397-3.438l3.973-2.104L241.568,216.507z
		 M264.798,219.732v-2.852l-2.664,3.085l-3.927,0.468l2.432,1.355l-2.524,3.178l4.276-2.149l2.805,2.196l-0.375-3.505l3.975-2.104
		L264.798,219.732z M283.962,176.263l-0.142-3.623l-3.178,3.972l-5.047,0.656l3.131,1.729l-3.131,4.02l5.373-2.805l3.67,2.664
		l-0.654-4.37l4.908-2.851L283.962,176.263z M315.536,157.519l-2.874,5.258l6.006-4.02l5.376,2.804l-1.963-5.188l5.539-3.974
		l-6.217,1.216l-1.1-4.348l-3.039,5.212l-6.169,1.309L315.536,157.519z M365.854,131.577l-7.479,0.841l-0.585-5.517l-4.3,6.077
		l-7.479,1.004l4.908,2.571l-4.137,6.24l7.665-4.277l5.913,4.042l-1.52-6.637L365.854,131.577z M326.45,222.49v-4.371l-4.02,4.769
		l-6.077,0.63l3.74,2.151l-3.928,4.859l6.545-3.271l4.44,3.271l-0.655-5.233l6.077-3.342L326.45,222.49z M338.135,193.698
		l-0.093-4.021l-3.599,4.439l-5.609,0.771l3.505,1.87l-3.505,4.438l5.936-3.036l4.16,2.921l-0.7-4.838l5.445-3.179L338.135,193.698z
		 M348.185,165.348l-0.14-4.347l-3.88,4.791l-6.077,0.794l3.74,2.034l-3.74,4.907l6.451-3.342l4.439,3.201l-0.747-5.258l5.981-3.459
		L348.185,165.348z M294.082,219.311l-2.968,3.601l-4.581,0.466l2.805,1.637l-2.921,3.623l4.86-2.478l3.343,2.478l-0.47-3.973
		l4.488-2.432l-4.533,0.326L294.082,219.311z M210.838,60.063l-14.794,67.145l28.979-18.813L210.838,60.063z M315.49,90.959
		l-119.421,36.271c0,0,43.865,9.582,45.197,9.746c1.354,0.233,74.226-45.994,74.226-45.994L315.49,90.959L315.49,90.959z"/>
	<path fill="#FFFFFF" d="M219.369,164.344l-23.3-37.16v42.162c7.666-1.402,15.424-3.039,23.277-5.001L219.369,164.344
		L219.369,164.344z M150.893,173.271l4.066,0.046c3.739,0,7.619-0.14,11.521-0.373l29.564-45.761l-34.682,25.591l-10.447,20.496
		L150.893,173.271L150.893,173.271z"/>
	<path fill="#FFFFFF" d="M183.518,120.36l-64.41,17.364l76.937-10.517L183.518,120.36z M280.689,275.074l15.894,12.572
		l-11.778-18.884c-1.933,1.671-3.346,3.86-4.066,6.312H280.689z M93.751,285.592l12.199-18.978
		c-0.736-0.274-1.507-0.447-2.291-0.515l-9.932,19.468L93.751,285.592z"/>
</g>
<path fill="#E11B22" d="M300.462,178.506c-8.764,5.516-13.321,15.845-10.235,23.044c3.037,7.197,12.619,8.577,21.337,3.038
	c8.765-5.516,13.32-15.821,10.282-23.021c-3.154-7.243-12.689-8.6-21.384-3.085V178.506z"/>
</svg>
