<?xml version="1.0" encoding="utf-8"?>
<!-- Generator: Adobe Illustrator 15.1.0, SVG Export Plug-In . SVG Version: 6.00 Build 0)  -->
<!DOCTYPE svg PUBLIC "-//W3C//DTD SVG 1.1//EN" "http://www.w3.org/Graphics/SVG/1.1/DTD/svg11.dtd">
<svg version="1.1" id="Layer_1" xmlns="http://www.w3.org/2000/svg" xmlns:xlink="http://www.w3.org/1999/xlink" x="0px" y="0px"
	 width="435.031px" height="352.309px" viewBox="0 0 435.031 352.309" enable-background="new 0 0 435.031 352.309"
	 xml:space="preserve">
<g>
	<path fill="#FFFFFF" d="M303.645,320.842c0-4.318-3.501-7.82-7.82-7.82c-4.318,0-7.819,3.502-7.819,7.82
		c0.396,4.319,4.217,7.499,8.536,7.104C300.312,327.599,303.299,324.612,303.645,320.842z M289.685,320.842
		c-0.203-3.391,2.383-6.305,5.773-6.506c3.392-0.202,6.304,2.383,6.507,5.773c0.015,0.244,0.015,0.489,0,0.732
		c-0.203,3.392-3.115,5.977-6.507,5.774C292.35,326.43,289.87,323.95,289.685,320.842z"/>
	<path fill="#FFFFFF" d="M299.042,325.291l-1.745-3.772c1.386-0.491,2.111-2.012,1.62-3.396c-0.374-1.058-1.371-1.768-2.493-1.773
		h-3.796v8.942h1.681v-3.62h1.199l1.702,3.62H299.042L299.042,325.291z M296.424,319.99h-2.115v-1.962h2.094
		c0.545,0,0.982,0.435,0.982,1.002c0,0.502-0.438,0.938-0.982,0.938L296.424,319.99z"/>
</g>
<path fill="#006847" d="M74.169,271.719H39.356l47.421-79.396l-76.388-61.512h113.163l12.128-20.351h35.882L238.143,0.154
	l11.188,110.873c18.758,1.897,34.071,8.66,44.671,19.762H435.13l-134.104,71.762c-1.521,3.291-3.194,6.508-5.016,9.643
	c-8.879,15.269-19.632,27.177-32.785,36.295l9.423,93.532l-87.76-70.694c-4.188,0.219-8.506,0.371-12.869,0.437L27.403,349.154
	L74.169,271.719z"/>
<path fill="#111111" d="M87.125,264.369H52.27l44.062-73.726l-65.176-52.569h96.585l12.128-20.286h35.838l57.353-95.059
	l9.598,95.146c21.158,0.916,37.736,7.853,48.097,20.221h115.17l-110.59,59.242c-1.706,3.85-3.629,7.601-5.758,11.233
	c-9.053,15.64-20.286,27.571-34.115,36.341l8.137,80.487l-76.331-61.512c-5.708,0.337-11.426,0.503-17.145,0.502L47.471,330.09
	L87.125,264.369L87.125,264.369z"/>
<path fill="#FFFFFF" d="M347.597,152.733h-64.501c-6.87-12.695-22.597-20.286-45.151-20.286h-8.506l-6.544-64.565l-38.943,64.565
	h-35.773l-12.149,20.286H72.642l42.752,34.463l-37.299,62.515h61.206L108,258.218l-20.438,33.81l78.917-42.272h3.271
	c7.962,0,15.313-0.327,22.184-0.873l53.558,43.189l-4.712-44.999c-14.483,1.526-28.494,0.305-34.973,0.131
	c37.678-6.021,57.485-22.467,71.161-45.959c9.336-15.989,11.932-30.319,8.833-41.663c5.346,6.543,8.115,13.219,9.162,21.595
	l52.568-28.466L347.597,152.733z"/>
<path fill="#8F8F8C" d="M240.802,246.984l4.69,44.977l-23.379-44.169c6.229,0.107,12.466-0.162,18.667-0.808 M222.895,67.86
	l-15.255,64.564h21.799L222.895,67.86z M126.061,169.375l-53.44-16.643l42.752,34.463L126.061,169.375z M158.78,163.857h53.004
	c15.299,0,24.417,2.836,26.707,10.688l22.14-10.841c-6.021-14.047-23.273-15.596-34.071-15.596h-63.526l-0.131-0.043l-50.648,84.938
	l34.246-16.752l25.564-41.706l-13.305-10.688H158.78z M283.096,152.733l-22.466,10.994c1.483,3.795,3.533,12.913-2.027,26.48
	c-6.327,15.443-25.303,42.752-76.986,42.752h-69.363l-34.18,16.752h61.228l-7.853,2.138l-43.886,40.135l78.917-42.316h3.271
	c7.962,0,15.313-0.326,22.184-0.828l13.895-1.701c37.678-6.021,57.484-22.468,71.16-45.96c9.336-15.967,11.932-30.319,8.833-41.661
	c0,0-1.09-3.622-2.727-6.806 M290.732,166.888c2.29,4.363,3.643,8.987,4.231,14.266l52.568-28.487l-56.778,14.221H290.732z"/>
<path fill="#111111" d="M211.806,163.857h-53.004l13.262,10.688l-25.521,41.661h35.118c11.713,0,25.237-0.436,36.492-7.022
	c14.165-8.333,22.606-23.034,20.644-33.33C237.138,166.998,227.955,163.857,211.806,163.857z"/>
</svg>
