<?xml version="1.0" encoding="utf-8"?>
<!-- Generator: Adobe Illustrator 15.1.0, SVG Export Plug-In . SVG Version: 6.00 Build 0)  -->
<!DOCTYPE svg PUBLIC "-//W3C//DTD SVG 1.1//EN" "http://www.w3.org/Graphics/SVG/1.1/DTD/svg11.dtd">
<svg version="1.1" id="Layer_1" xmlns="http://www.w3.org/2000/svg" xmlns:xlink="http://www.w3.org/1999/xlink" x="0px" y="0px"
	 width="435.031px" height="352.309px" viewBox="0 0 435.031 352.309" enable-background="new 0 0 435.031 352.309"
	 xml:space="preserve">
<g>
	<path fill="#FFFFFF" d="M226.466,255.275c-4.452,0-8.062,3.608-8.062,8.061s3.609,8.062,8.062,8.062
		c4.451,0,8.061-3.609,8.061-8.062l0,0C234.527,258.884,230.917,255.275,226.466,255.275z M226.466,269.664
		c-3.489,0.197-6.479-2.472-6.676-5.961c-0.196-3.489,2.473-6.478,5.962-6.675c0.237-0.014,0.476-0.014,0.714,0
		c3.494,0,6.327,2.834,6.327,6.328c0,3.495-2.833,6.327-6.327,6.327l0,0V269.664z"/>
	<path fill="#FFFFFF" d="M229.811,261.462c-0.011-1.517-1.244-2.741-2.761-2.741h-3.89v9.21h1.733v-3.728h1.249l1.754,3.748h1.914
		l-1.813-3.89c1.008-0.403,1.813-1.41,1.813-2.62V261.462z M227.071,262.469h-2.157v-2.016h2.157c0.544,0,1.007,0.443,1.007,1.008
		C228.078,262.025,227.615,262.469,227.071,262.469z"/>
</g>
<path fill="#CE1126" d="M396.8,97.194c18.058-15.438,35.57-40.306,35.57-68.843c0-4.131-5.039-5.301-7.053-2.5
	c-18.623,25.393-36.176,35.067-46.756,38.734c17.613-13.341,34.905-35.147,39.339-59.854c0.431-2.139-0.954-4.221-3.093-4.652
	c-1.318-0.266-2.683,0.158-3.618,1.125c-21.564,21.564-51.331,44.619-131.198,44.619c-19.346,0-41.394-0.564-55.662-0.564
	c-64.853,0-88.674,40.104-94.075,51.25c-5.339-0.775-10.727-1.18-16.122-1.209C52.595,95.387,2.741,145.269,2.685,206.806
	c0,61.467,49.98,111.447,111.447,111.447c44.898,0.174,85.467-26.756,102.74-68.198c1.21,0.101,2.52,0.322,3.628,0.322
	c14.107,0,17.09-4.131,17.09-7.619c0-1.873-1.854-4.11-2.761-5.44c20.697-0.1,26.803-1.088,35.752-4.171
	c1.396-0.451,2.335-1.759,2.317-3.226c0-3.062-6.308-8.121-10.842-12.091c28.979-0.465,50.321-5.644,50.321-12.415
	c0-1.31-0.141-2.982-7.859-9.069c16.385-4.433,45.103-15.457,45.103-22.651c0-2.762-2.418-4.474-5.24-6.449
	c25.494-9.593,46.878-26.481,46.878-32.547c0-4.897-7.176-5.3-10.763-5.583c12.696-8.122,30.351-21.967,30.351-27.952
	c0-6.147-9.673-3.708-14.107-3.97H396.8z"/>
<path fill="#FFFFFF" d="M389.343,98.745c20.295-15.175,39.581-41.434,39.581-70.415c0-0.604-0.604-0.705-0.847-0.443
	c-31.378,42.825-59.896,42.402-59.896,42.402c-1.249,0-1.531-1.753-0.523-2.418c20.234-11.931,41.918-36.477,46.816-63.765
	c0.08-0.362-0.464-0.806-0.847-0.403C390.593,26.718,358.953,49.33,280.012,49.33c-25.312,0-38.493-0.564-55.662-0.564
	c-68.441,0-89.48,45.506-92,51.531C73.539,90.286,17.746,129.847,7.735,188.66c-10.01,58.812,29.551,114.604,88.363,124.615
	c50.379,8.575,99.874-19.325,118.618-66.867c2.056,0.402,3.99,0.604,5.805,0.604c11.004,0,13.663-2.479,13.663-4.19
	c0-1.17-7.054-8.868-3.547-8.868c24.386,0,29.867-0.888,38.835-3.971c-4.292-6.711-19.851-15.437-11.85-15.437
	c38.694,0,51.391-7.457,51.391-9.07c0-1.813-12.354-10.681-12.354-10.681c17.815-2.963,49.576-17.211,49.576-21.02
	c0-2.176-9.068-5.885-7.577-8.001c28.255-9.391,49.254-27.649,49.254-30.975c0-2.661-16.565-2.358-16.565-2.358v-1.854
	c14.35-7.457,36.154-25.454,36.154-29.423c0-2.52-20.476,1.713-18.138-2.419H389.343z"/>
<path fill="#CE1126" d="M140.694,186.412c-3.54-4.573-8.187-8.166-13.502-10.44l-0.867,0.867l1.814,12.333
	c0.544,0.443,1.088,0.908,1.612,1.411l9.029,0.061L140.694,186.412L140.694,186.412z M101.557,177l9.976,7.456
	c0.723-0.081,1.45-0.122,2.177-0.12l8.868-8.767l-0.162-1.209c-6.92-1.749-14.217-1.255-20.839,1.411v1.21L101.557,177z
	 M123.201,179.902l-4.877,4.836c2.076,0.363,4.031,1.049,5.845,1.956L123.201,179.902z M126.829,225.407
	c-1.706,1.169-3.564,2.098-5.522,2.762l5.481,4.092l0.061-6.854H126.829z M82.189,256.262l15.921-15.659
	c-6.213-2.945-11.492-7.549-15.257-13.301l-13.361,17.896c3.688,4.23,7.96,7.979,12.697,11.043V256.262z M132.733,194.131
	c0.866,1.249,1.612,2.619,2.217,4.07c0.504-0.947,1.25-2.317,2.096-4.031L132.733,194.131L132.733,194.131z M102.806,242.478
	l-1.169-0.403l-16.324,16.082c6.415,3.623,13.458,5.995,20.758,6.993L102.806,242.478z M132.612,220.673l-0.806,0.119
	c-0.438,0.566-0.908,1.104-1.41,1.613l-0.122,12.495l1.008,0.705c3.023-1.773,5.723-4.03,8.021-6.65
	c-3.305-3.023-5.704-5.885-6.65-8.263L132.612,220.673z M101.436,188.224c1.713-1.168,3.587-2.096,5.562-2.76l-5.481-4.092
	l-0.061,6.852H101.436z M80.94,224.016c-0.201-0.402-0.403-0.725-0.544-1.107l-22.935-0.202c2.015,7.255,5.361,13.905,9.774,19.689
	l13.704-18.339V224.016z M126.748,236.633l-9.996-7.456c-0.709,0.094-1.422,0.147-2.137,0.161l-8.867,8.746l0.161,1.209
	c6.919,1.772,14.223,1.277,20.839-1.41V236.633L126.748,236.633z M105.104,233.771l4.876-4.837
	c-2.046-0.373-4.027-1.039-5.885-1.975l1.008,6.791V233.771z M130.254,240.623l-0.201,22.915c7.194-2.016,13.845-5.381,19.669-9.774
	l-18.4-13.705l-1.088,0.545L130.254,240.623z M95.551,219.523c-1.17-1.719-2.099-3.591-2.761-5.562l-4.071,5.481l6.853,0.061
	L95.551,219.523z M98.574,223.091l-12.495-0.122l-0.685,0.969c3.628,6.086,9.129,10.942,15.72,13.743l0.886-0.866l-1.813-12.293
	c-0.555-0.45-1.093-0.92-1.612-1.411V223.091z M97.909,191.248l0.101-12.494l-0.967-0.727c-6.086,3.629-10.943,9.171-13.704,15.76
	l0.806,0.867l12.354-1.814c0.463-0.543,0.927-1.107,1.41-1.611V191.248z M87.228,197.758l4.796,4.897
	c0.403-2.097,1.068-4.031,1.975-5.885l-6.751,1.007L87.228,197.758z M81.686,198.564c-0.645,2.66-1.008,5.441-1.008,8.263
	c0,4.433,0.867,8.705,2.459,12.575h1.209l7.457-9.976c-0.078-0.71-0.125-1.423-0.141-2.137l-8.766-8.907l-1.209,0.201V198.564z
	 M106.514,243.444l3.225,22.108c5.621,0.422,11.273,0.042,16.788-1.129l0.202-22.329
	C120.242,244.391,113.249,244.858,106.514,243.444L106.514,243.444z M146.861,162.429c0-1.552-0.04-3.063-0.101-4.635l-0.666-0.403
	l-15.921,15.639c4.636,2.216,8.807,5.401,12.172,9.271c2.479-6.49,4.515-13.705,4.515-19.892V162.429z M97.002,173.614
	c0.343-0.205,0.701-0.386,1.068-0.544l0.202-22.975c-7.215,2.015-13.865,5.381-19.689,9.794l18.399,13.704L97.002,173.614z
	 M121.791,170.188l-3.225-22.067c-5.628-0.422-11.287-0.042-16.808,1.128l-0.121,22.29c6.482-2.278,13.462-2.751,20.193-1.371
	L121.791,170.188z M160.484,243.142c-6.432-3.295-12.527-7.21-18.198-11.688c-2.217,2.56-4.797,4.796-7.658,6.65l17.936,13.361
	C155.465,248.953,158.119,246.165,160.484,243.142z M143.012,155.476c-6.44-3.616-13.502-5.988-20.819-6.993l3.305,22.672
	c0.404,0.121,0.807,0.242,1.169,0.403l16.324-16.082H143.012z M55.285,206.827c0,4.231,0.403,8.362,1.27,12.354l22.33,0.201
	c-2.302-6.485-2.769-13.479-1.35-20.214l-22.088,3.225C55.341,203.869,55.288,205.347,55.285,206.827L55.285,206.827z
	 M55.829,198.785l22.692-3.305l0.403-1.169l-16.123-16.364C59.176,184.387,56.81,191.459,55.829,198.785L55.829,198.785z
	 M64.696,174.864l15.659,15.921c2.943-6.248,7.598-11.487,13.301-15.256L75.76,162.167c-4.279,3.685-8.011,7.959-11.084,12.697
	H64.696z"/>
<circle fill="#CE1126" cx="114.152" cy="206.826" r="12.153"/>
<path fill="#CE1126" d="M114.132,133.973c-40.236,0.003-72.852,32.624-72.848,72.859c0.003,40.236,32.623,72.853,72.859,72.849
	c23.649-0.003,45.827-11.483,59.48-30.795c-2.843-1.002-5.634-2.146-8.363-3.426c-21.353,28.229-61.546,33.802-89.774,12.449
	c-28.228-21.353-33.802-61.546-12.449-89.773c19.59-25.898,55.455-33.051,83.48-16.649c-0.102-3.293-0.035-6.589,0.202-9.875
	c-10.105-5.05-21.25-7.672-32.547-7.658L114.132,133.973z"/>
<path fill="#CE1126" d="M195.108,251.708c-4.696,1.148-10.782,0.443-17.292-1.451c-24.016,35.14-71.97,44.158-107.11,20.143
	c-22.187-15.162-34.873-40.787-33.479-67.624c-2.378,3.628-1.693,9.593-5.926,9.593c-3.345,0-1.491-4.574-3.95-4.574
	c-1.511,0-1.733,2.116-3.627,2.116c-0.242,0-0.403-0.081-0.564-0.081c-0.403,0-0.604,0.927-1.371,0.927
	c-1.007,0-1.652-1.209-2.458-1.209c-0.887,0-1.169,1.713-2.318,1.713c-1.209,0-2.337-2.015-2.821-2.922
	c0.719,55.235,46.079,99.43,101.313,98.71c40.252-0.523,76.267-25.127,91.391-62.434c-7.571-2.408-14.919-5.463-21.967-9.13
	c0.665,6.651,10.197,16.324,10.197,16.324L195.108,251.708z M24.048,168.555c2.297,1.895,0.443,5.24,2.095,7.558
	c16.982-48.607,70.153-74.246,118.761-57.264c2.229,0.779,4.428,1.642,6.592,2.588c0.846-2.016,1.813-4.091,2.922-6.248
	c-50.562-22.247-109.585,0.707-131.832,51.268c-0.43,0.975-0.842,1.957-1.24,2.944c0.806,0.564,1.713-1.673,2.66-0.867
	L24.048,168.555z M236.3,65.754h55.019c70.335,0,101.129-25.151,113.261-47.42c0.665-1.35-0.202-1.612-1.512-0.403
	c-15.316,13.704-38.15,37.687-131.398,37.687h-39.38c-61.869,0-85.207,27.912-91.293,46.554c3.104,0.766,6.167,1.693,9.129,2.761
	C161.129,85.101,182.108,65.754,236.3,65.754z"/>
<path fill="#CE1126" d="M235.01,79.942c-55.078,0-86.819,37.828-83.171,73.962c2.72,26.945-12.334,48.812-12.334,48.812
	s20.979-9.533,20.979-47.884c0-36.336,36.175-62.797,66.646-62.797c29.465,0,63.685,0.202,80.612,0.202
	c89.884,0,111.649-41.556,114.753-49.657c0.563-1.209-0.201-0.968-0.524-0.403c-18.742,25.312-45.042,39.782-116.344,39.782
	c-45.808,0-60.318-2.015-70.576-2.015H235.01z"/>
<path fill="#CE1126" d="M255.546,111.441c-14.873,0-16.364,4.132-16.364,4.132c-0.482,0.604-0.242,1.935-1.27,2.337
	c-3.426,1.331-7.154-1.491-10.077,2.298c-1.772,2.277-6.045-0.524-8.827,1.088c-0.604,0.362,0,1.955,0.484,2.156
	c1.29,0.564,3.426,0.403,4.232,1.068c0.886,0.705,0.807,1.693,1.611,2.278c0.969,0.745,2.822,1.068,3.629,2.216
	c0.604,0.847,0.846,2.58,1.773,2.621c22.329,1.29,45.244,1.29,66.444-6.913c2.378-3.789-20.798-13.261-41.637-13.261V111.441z
	 M167.8,160.656c0.282,2.157-0.262,5.482,0.202,5.522c15.635,1.624,31.417-1.023,45.667-7.659c3.99-1.713-15.618-11.93-31.963-11.93
	c-5.3,0-8.868,2.257-8.868,2.257c-0.967,0.524-1.692,2.68-2.76,4.232c-0.807,1.209,0.725,3.023,0.101,3.829
	c-1.169,1.411-2.62,2.277-2.418,3.749H167.8z M189.062,122.828c-0.766,0.121-1.331,1.33-1.895,2.136
	c-1.411,2.016-5.844,1.572-5.844,3.829c0.061,4.132-4.534,4.877-5.24,7.86c-0.604,2.318-1.854,4.071-2.015,6.57
	c16.465,0.081,33.454-0.967,48.045-9.371c3.829-1.713-20.113-12.857-33.051-10.983V122.828z M241.5,108.701
	c-1.169-4.776-6.973-5.684-10.922-7.98c-1.572-0.927-3.426-0.504-5.241,0.282c-3.909,1.693-8.967-1.209-13.019,1.733
	c-1.148,0.847-1.752,2.419-3.225,2.781c-1.894,0.484-3.748,0.564-5.642,0.806c-0.686,0.101-2.017,0.564-1.895,1.35
	c0.403,3.366-2.761,4.071-5.24,4.938c-2.418,0.847-1.572,4.031-1.653,6.409c16.082,0.202,32.769-2.096,46.855-10.318H241.5z
	 M159.678,188.023c4.091,2.137,24.063-0.725,34.462-7.195c-10.681-9.067-27.811-12.374-27.811-12.374
	c-2.358,6.45-4.837,12.899-6.651,19.549V188.023z"/>
<path fill="#CE1126" d="M156.655,191.792c-1.975,1.048-4.232,3.991-2.418,5.181c3.164,2.155,8.424,6.973,32.648,6.973
	c23.639,0,32.647-7.297,37.081-11.83c0-2.943-20.757-8.908-23.578-7.255c-0.807,0.403-0.927,1.249-1.048,1.612
	c-0.948,0.402-3.83,0.443-4.514,0.947c-1.613,1.209-1.291,3.104-1.733,3.224c-3.688,0.907-8.263-1.41-11.729,0.202
	c-0.947,0.402-0.867,3.022-2.096,3.104c-2.499,0.201-5.28-1.33-7.699-0.564c-0.403,0.161-1.713,0.342-2.579,0.887
	c-1.351-0.686-2.016-0.848-3.769-1.27c-1.27-0.303-2.52,0.564-4.071,0.303c-1.471-0.242-3.104-2.218-4.514-1.513H156.655z
	 M252.383,174.722c4.393-2.257,9.674-2.458,12.837-6.792c-19.549-10.237-42.423-9.169-45.203-7.558
	c-0.706,0.404-1.491,1.814-2.378,2.379c-1.33,0.887-2.62,0.443-3.487,1.35c-0.524,0.524,0.06,1.935-0.323,2.459
	c-0.483,0.685-1.572,0.805-2.217,1.209c-0.725,0.362-2.156-0.263-3.225,0.201c-1.068,0.463-1.148,1.471-1.854,1.813
	c-2.621,1.33-6.449-0.201-8.263-0.201c-0.907,0.06-0.665,1.511-0.403,1.813c1.209,1.148,4.595,1.491,4.434,3.225
	c0,0.363-0.806,1.531-1.33,1.612c1.813,3.829,18.48,8.907,40.447,1.612c3.628-1.089,7.457-1.291,10.964-3.104V174.722z
	 M277.413,146.549c1.814-1.209,4.092-1.25,5.159-2.942c2.358-3.084-20.515-8.162-29.826-8.162c-9.19,0-26.239,2.338-29.142,3.365
	c-1.209,0.504-1.27,2.963-2.7,3.144c-2.741,0.343-5.442,0.666-8.183,0.907c-0.906,0.061-0.685,1.512-0.403,1.754
	c1.543,1.097,2.638,2.714,3.084,4.554c0.081,0.202,1.935,0.041,2.337,0.403c1.813,1.532,3.083,3.729,5.321,4.272
	c10.843,2.621,21.302,3.325,32.386,0.746c1.21-0.302,2.075-1.27,3.124-1.411c3.89-0.483,7.94-0.706,10.963-3.587
	c2.137-2.076,5.522-1.411,7.9-3.023L277.413,146.549z M303.692,99.692c0.646-0.403,0.122-2.458-0.402-2.519
	c-2.499-0.403-5.199-1.371-7.859,1.008c-0.928,0.847-2.62-0.927-3.87-0.161c-1.008,0.604-2.016,2.217-2.962,2.66
	c-2.579,1.149-5.078-1.532-7.921-1.209c-0.847,0.081-0.604,1.955-1.47,2.137c-2.42,0.604-4.556-2.097-5.926-1.209
	c-2.116,1.411-3.89,3.124-6.449,1.975c-2.459-1.128-5.684-3.426-7.376-1.975c-2.922,2.54-6.449-1.149-9.028-0.161
	c-2.156,0.846-8.001,2.217-4.031,4.554c12.395,7.497,38.23,6.006,57.316-5.099H303.692z M181,240.219
	c-0.646-1.168-2.318-0.523-3.487-1.208c-0.846-0.504-1.25-2.258-2.056-2.943c-0.645-0.504-2.156,0.666-2.942,0.202
	c-1.128-0.646-1.975-2.075-2.822-3.022c-1.007-1.089-1.874-2.218-2.821-3.306c-0.844-1.031-1.851-1.916-2.982-2.619
	c-0.604-0.363-1.813,0.402-2.56,0.241c-1.31-0.362-2.096-2.62-3.144-3.587c-0.604-0.544-1.612-0.605-2.136-1.149
	c-0.544-0.523-0.666-1.512-1.25-2.155c-0.746-0.868-1.895-1.17-2.741-1.854c-1.148-0.928-1.975-3.266-2.861-4.575
	c-0.887-1.31-2.157-1.41-3.023-2.559c-1.008-1.411-1.612-3.831-2.922-5.24c-1.27-1.473-4.514,0.846-5.481,2.821
	c-1.613,3.184-1.511,7.255,0.947,10.016c12.132,13.543,27.852,24.789,45.868,27.751c-1.37-1.915-2.761-5.3-3.587-6.771V240.219z
	 M220.864,235.706c-1.855-0.504-3.426-1.511-5.14-2.217c-1.008-0.403-2.016,1.21-3.124,0.524c-2.257-1.351-4.232-3.285-6.006-4.716
	c-1.411-1.149-4.292-4.03-5.522-3.427c-0.464,0.202-1.169,2.882-2.338,2.016c-2.821-2.116-4.635-4.394-7.255-6.69
	c-1.209-1.068-2.358,2.418-3.89,1.672c-3.507-1.733-4.917-5.521-7.658-8.262c-3.124-3.104-6.147-6.753-10.479-7.921
	c-0.726-0.201-0.322,0.867-1.008,1.411c-3.305,2.579-6.973-1.854-10.178-3.326c-2.962-1.35-5.562-3.526-8.867-3.769
	c-0.726-0.061-0.686,1.008-0.443,1.331C167.9,224.702,194.16,241.531,223,240.865c0.665,0,2.056,0.061,0.928-1.331
	C222.979,238.446,221.993,236.029,220.864,235.706L220.864,235.706z M247.646,219.382c-0.846-0.121-2.135,1.008-2.882,0.887
	c-2.217-0.402-4.029-2.418-6.73-3.828c-1.129-0.605-1.692,2.015-2.579,1.974c-4.515-0.261-11.004-5.037-15.015-7.455
	c-0.706-0.404-5.038,0.442-5.724,0.604c-2.56,0.504-5.844-4.03-7.859-4.978c-1.552-0.685-3.709-1.452-5.16-0.363
	c-2.015,1.471-4.353,0.686-6.509,0.646c-0.807,0-1.573,1.773-2.62,2.097c-2.943,0.946-6.248-1.11-9.13,0.342
	c-0.081,0.04-0.464,0.646-0.444,0.866c0.202,1.814,2.217,2.116,3.567,2.942c20.818,13.181,52.943,17.453,70.839,13.462
	c0.402-0.12-0.202-1.651-1.412-2.579c-1.249-0.968-3.083-1.31-3.869-1.874c-1.813-1.209-2.781-2.419-4.434-2.7L247.646,219.382z
	 M289.525,200.176c-2.217,0.665-3.89-0.947-5.724-0.262c-0.443,0.201-0.726,0.867-1.089,0.867c-3.426,0.06-5.742-3.627-9.27-3.366
	c-0.866,0.081-0.847,1.612-1.571,1.774c-2.157,0.504-4.092-2.097-6.047-1.17c-1.147,0.6-2.492,0.688-3.708,0.242
	c-1.733-0.504-3.022-2.056-4.675-2.297c-1.452-0.242-2.942,1.209-4.596,0.745c-4.131-1.209-7.335-5.119-11.789-4.192
	c-2.218,0.464-4.091-1.007-5.603-0.121c-1.674,1.008-2.137,2.178-3.83,3.185c-1.128,0.686-3.789,0.605-4.978,1.31
	c-0.927,0.524-1.149,1.936-2.176,2.359c-1.955,0.805-4.233,0.241-6.046,1.249c-0.242,0.101-0.363,1.128,0.402,1.33
	c16.989,5.744,44.438,12.092,77.248,3.567c1.007-0.323,1.208-0.908,0.402-1.855c-1.814-2.015-4.293-4.15-6.993-3.365H289.525z
	 M328.763,171.438c-2.882,1.351-6.247-0.142-9.472,0.604c-0.807,0.202-0.202,1.411-1.008,1.532
	c-3.144,0.403-6.409-0.363-9.371,0.806c-2.318,0.887-5.099-0.141-7.659-0.101c-0.946,0.041-0.967,1.33-1.107,2.418
	c-0.142,0.848-1.451,1.411-1.874,1.27c-3.145-0.926-6.167-1.209-9.351-1.712c-8.021-1.209-15.962-3.749-23.499-1.492
	c-2.459,0.807-5.725,1.371-7.599,3.306c-0.725,0.746-1.491,2.217-2.458,2.559c-4.636,1.715-9.673,2.016-14.229,3.668
	c-1.411,0.484-4.031,2.419-3.022,2.701c0,0,14.168,4.111,29.624,4.111c29.827,0,52.5-7.336,69.126-16.385
	c-1.008-1.25-5.884-4.232-8.061-3.225L328.763,171.438z M361.472,138.85c-1.814,0.604-4.333-1.148-5.886,0
	c-2.316,1.713-5.037,1.411-7.456,1.169c-1.128-0.121-2.922-0.524-3.93,0.262c-0.645,0.524,0.303,1.35,0.907,1.915
	c-6.047,2.076-12.696,0.121-18.421,2.418c-0.403,0.201-0.686,2.297-1.733,2.519c-5.239,1.047-10.156-1.008-15.376-0.061
	c-1.311,0.242-0.725,3.023-2.096,3.104c-4.676,0.261-9.23-0.141-13.906-0.343c-5.521-0.242-10.641,1.774-15.881,3.386
	c-1.571,0.484-2.016,2.962-3.708,3.225c-4.515,0.685-9.108-0.121-13.241,1.935c-0.302,0.14-0.302,1.511,0,1.692
	c5.039,2.862,10.884,4.837,14.31,9.472c35.228-0.403,73.155-4.997,102.458-29.021c0.564-0.483-2.901-1.208-4.756-1.652
	c-1.813-0.402-3.305-0.402-5.521-1.149c-1.976-0.604-3.789,0.565-5.704,1.209L361.472,138.85z M398.029,105.698
	c-2.83-0.713-5.772-0.878-8.665-0.484c-0.604,0.162-1.008,1.209-1.572,1.29c-3.828,0.605-6.51,2.419-10.379,2.54
	c-0.806,0-2.539,0.604-3.587,1.088c-1.41,0.666-3.325-0.967-4.434,0.262c-0.706,0.807,0.523,2.701-0.745,3.305
	c-3.387,1.612-7.316-1.208-10.601,0.907c-0.968,0.604,1.007,2.721-0.202,3.104c-4.756,1.471-12.979-5.905-16.062,1.753
	c-0.484,1.209-1.976,0.645-2.902,0.403c-0.906-0.202-2.156-0.604-2.7-0.202c-2.943,2.378-4.636,3.325-8.727,2.177
	c-1.048-0.302-1.068,2.781-3.063,2.298c-2.277-0.564-4.494-2.217-6.591-1.291c-0.966,0.403-0.261,2.983-1.673,3.124
	c-5.703,0.564-11.587-0.262-16.848,2.096c-1.31,0.564-1.41,2.922-3.225,3.225c-4.03,0.645-8.021,0.201-11.77,1.41
	c-0.604,0.162-0.462,1.955,0.444,2.076c2.418,0.362,5.118,0,6.973,1.088c2.257,1.37,3.708,5.159,5.905,5.24
	c45.243,0.887,77.911-15.316,100.362-33.999c0.887-0.806,0.443-1.108,0-1.371L398.029,105.698z M386.925,79.156
	c-0.665,0.323-0.443,2.539-1.753,3.144c-2.218,1.007-4.776,1.007-7.154,1.713c-0.887,0.262-0.847,1.451-1.613,1.915
	c-1.209,0.806-2.941,0.141-3.868,0.806c-5.724,4.232-12.496,2.338-18.863,3.386c0.1,4.776-7.458,1.854-10.541,3.93
	c-3.366,2.277-2.922,1.652-7.961,1.693c-1.571,0-0.725,2.317-2.015,2.358c-3.991,0.04-9.169-1.209-12.152-0.343
	c-0.544,0.162-0.706,2.68-1.773,2.963c-2.217,0.604-4.515,0.806-6.59,1.491c-1.612,0.504,0.483,3.567-1.674,4.233
	c-3.688,1.208-7.738,0.342-11.426,2.417c-1.472,0.867-3.627,0.061-5.482,0.403c-1.612,0.323-2.217,2.016-0.906,2.741
	c1.209,0.666,3.184,0.484,4.353,1.068c2.761,1.35,4.998,3.285,7.941,3.466c47.762,2.942,109.592-31.036,119.306-72.148
	c0.363-1.673-0.403-1.37-0.745-0.443c-10.399,24.688-37.083,35.167-37.083,35.167L386.925,79.156z"/>
</svg>
