<?xml version="1.0" encoding="utf-8"?>
<!-- Generator: Adobe Illustrator 15.1.0, SVG Export Plug-In . SVG Version: 6.00 Build 0)  -->
<!DOCTYPE svg PUBLIC "-//W3C//DTD SVG 1.1//EN" "http://www.w3.org/Graphics/SVG/1.1/DTD/svg11.dtd">
<svg version="1.1" id="Layer_1" xmlns="http://www.w3.org/2000/svg" xmlns:xlink="http://www.w3.org/1999/xlink" x="0px" y="0px"
	 width="435.031px" height="352.309px" viewBox="0 0 435.031 352.309" enable-background="new 0 0 435.031 352.309"
	 xml:space="preserve">
<path fill="#FFFFFF" d="M90.787,141.336c0.006-6.711,5.32-12.214,12.026-12.456h17.824c6.711,0.066,12.097,5.561,12.03,12.271
	c0,0.062-0.002,0.124-0.003,0.185v131.429c0,12.885-8.232,11.669-12.026,7.086c-19.272-21.724-29.895-49.772-29.85-78.814V141.336z
	 M136.457,273.196v-55.979c2.474-0.04,4.469-2.036,4.509-4.511v-55.979c-0.009-2.5-2.011-4.534-4.509-4.583V129.31h24.052v22.835
	c-2.523,0.018-4.564,2.06-4.582,4.583v55.55c0.024,2.509,2.072,4.525,4.582,4.51v82.106c0,9.591-8.304,6.227-8.304,6.227
	c-8.98-5.242-17.336-11.486-24.911-18.611C130.587,286.509,136.457,284.79,136.457,273.196z M164.232,298.893v-82.106
	c2.484-0.016,4.494-2.026,4.509-4.509v-55.551c-0.009-2.5-2.012-4.534-4.509-4.583V129.31h24.052v22.835
	c-2.523,0.018-4.564,2.06-4.582,4.583v55.55c0.021,2.51,2.072,4.53,4.582,4.51c2.483-0.021,4.49-2.027,4.51-4.51v-19.472h11.239
	v118.544c0,11.238-11.239,9.521-11.239,9.521c-11.823-2.249-23.27-6.153-34.002-11.598
	C160.509,308.484,164.232,305.98,164.232,298.893z M203.603,129.31h46.458v37.366h-11.239v-7.875
	c0.016-3.419-2.742-6.204-6.163-6.219c-3.413-0.016-6.196,2.735-6.221,6.148c0,0.025,0,0.048,0,0.071v12.814h12.813v16.608h-12.813
	v22.408c0.02,3.418,2.81,6.175,6.229,6.153c3.392-0.019,6.136-2.763,6.155-6.153v-17.826h11.239v115.679
	c0,10.739-12.027,12.814-12.027,12.814c-6.588,0.991-13.236,1.54-19.899,1.647c-5.44,0-10.81-0.358-16.178-0.787
	c1.646-1.289,4.939-4.152,4.939-10.81v-94.133c2.499-0.009,4.533-2.012,4.582-4.511v-51.828c-0.004-4.585-3.72-8.3-8.305-8.304
	L203.603,129.31z M254.213,216.787c2.483-0.016,4.494-2.026,4.511-4.509v-55.551c-0.012-2.5-2.015-4.534-4.511-4.583V129.31h32.712
	c6.711,0.067,12.099,5.561,12.03,12.271c-0.001,0.062-0.001,0.123-0.004,0.184v30.279c0,4.583-4.938,6.659-4.938,6.659
	s4.938,2.077,4.938,6.588v27.414c0.049,2.499,2.084,4.502,4.583,4.511v63.065c0,12.024-2.936,14.46-2.936,14.46
	c-5.81,4.54-11.908,8.702-18.254,12.456c0.707-2.572,1.139-5.212,1.288-7.875V190.302c-0.031-2.755-2.255-4.98-5.012-5.01
	c-2.66,0.21-4.765,2.344-4.938,5.01v20.33c-0.051,3.586,2.816,6.535,6.404,6.586c0.084,0.001,0.169,0,0.253-0.001v80.89
	c0,10.378-5.439,12.813-5.439,12.813c-7.944,3.789-16.272,6.718-24.84,8.732c2.855-2.876,4.475-6.755,4.51-10.808L254.213,216.787z
	 M307.255,192.805h11.167v17.396c0.042,3.678,3.053,6.624,6.729,6.586c3.621-0.041,6.548-2.966,6.585-6.586v-7.444
	c-0.229-2.035-1.107-3.942-2.504-5.441l-19.042-17.396c-1.423-1.45-2.305-3.345-2.506-5.369v-33.215
	c-0.02-6.721,5.31-12.239,12.027-12.456h14.53c6.736,0.092,12.12,5.627,12.028,12.362c0,0.031-0.001,0.062-0.002,0.093v25.34
	h-14.532v-9.949c0.021-2.748-2.191-4.992-4.939-5.012c-2.746-0.02-4.991,2.192-5.011,4.94c0,0.023,0,0.047,0,0.072v11.167
	c0.201,2.022,1.084,3.916,2.507,5.369l19.041,17.468c1.396,1.47,2.273,3.354,2.506,5.368v4.938
	c-0.071,33.381-14.24,65.178-39.014,87.55L307.255,192.805z M218.492,328.386c85.024-0.063,153.897-69.041,153.834-154.065
	c-0.052-69.746-46.987-130.743-114.39-148.665c3.292,4.582,15.318,20.33,15.318,41.089c-0.258,30.224-24.969,54.517-55.193,54.259
	c-29.859-0.254-54.005-24.398-54.259-54.259c0-20.759,11.597-36.508,15.32-41.089C96.947,47.458,48.005,131.748,69.806,213.925
	C87.698,281.364,148.716,328.338,218.492,328.386z"/>
<path fill="#FFFFFF" d="M111.975,152.145c-3.367-0.073-6.155,2.598-6.228,5.966c-0.001,0.087-0.001,0.175,0,0.262v51.829
	c-0.099,3.537,2.688,6.486,6.227,6.586h0.001c3.419,0.028,6.213-2.722,6.241-6.141c0.001-0.146-0.002-0.298-0.012-0.445v-51.829
	C118.125,154.966,115.382,152.223,111.975,152.145z"/>
<path fill="#FFFFFF" d="M278.622,171.615c2.961-0.041,5.36-2.41,5.442-5.368v-8.304c-0.021-2.985-2.458-5.389-5.442-5.369
	c-2.956,0.02-5.347,2.412-5.367,5.369v8.304C273.326,169.182,275.688,171.545,278.622,171.615z"/>
<path fill="#FFFFFF" d="M208.542,5.326c-20.259,31.927-29.421,43.595-29.421,61.419c0,21.117,17.824,38.511,39.37,38.511
	c21.188,0,39.444-17.395,39.444-38.511c0-17.825-9.164-29.493-29.494-61.419c88.765,5.012,159.274,78.814,159.274,169.225
	c0,93.275-75.878,169.154-169.225,169.154c-93.377-0.104-169.048-75.775-169.152-169.154C48.91,84.141,119.85,10.767,208.542,5.326z
	 M218.492,8.692c11.239,28.203,28.634,38.941,28.634,58.841c0,13.673-11.167,26.987-28.634,26.987
	c-17.395,0-28.562-13.673-28.562-27.417C189.93,47.203,207.325,36.466,218.492,8.692z M218.492,352.01
	c97.997,0.052,177.477-79.351,177.528-177.347c0-0.037,0-0.074,0-0.112c0-97.855-79.672-177.457-177.528-177.457
	c-97.855,0-177.814,79.171-177.814,177.457C40.678,272.765,120.278,352.01,218.492,352.01L218.492,352.01z"/>
<path fill="#FF4C00" d="M247.125,67.104c0-19.9-17.395-30.638-28.634-58.842c-11.167,28.204-28.562,38.942-28.562,58.842
	c0,13.743,11.167,26.987,28.562,26.987C235.958,94.091,247.125,81.206,247.125,67.104z"/>
<path fill="#041E41" d="M218.492,328.386c-85.018-0.059-153.891-69.026-153.833-154.044
	c0.047-69.775,47.021-130.793,114.463-148.686c-3.294,4.582-15.32,20.33-15.32,41.089c0.258,30.224,24.969,54.517,55.192,54.259
	c29.862-0.254,54.005-24.398,54.261-54.259c0-20.759-11.599-36.508-15.318-41.089c82.168,21.847,131.066,106.168,109.221,188.34
	C349.235,281.398,288.24,328.334,218.492,328.386z M228.442,5.326c20.33,31.927,29.494,43.595,29.494,61.419
	c0,21.117-17.825,38.511-39.444,38.511c-21.117,0-39.37-17.395-39.37-38.511c0-17.825,9.162-29.493,29.421-61.419
	C119.42,10.767,48.91,84.141,48.91,174.551c0,93.275,75.878,169.154,169.224,169.154c93.377-0.104,169.049-75.775,169.153-169.154
	C387.716,84.141,317.207,10.767,228.442,5.326z"/>
<path fill="#041E41" d="M250.418,192.805h-11.167v17.826c-0.04,3.438-2.858,6.195-6.301,6.155c-3.382-0.038-6.116-2.772-6.155-6.155
	v-22.408h12.885v-16.608h-12.885v-12.814c0.006-3.439,2.797-6.223,6.235-6.219c3.434,0.004,6.217,2.786,6.221,6.219v7.875h11.167
	V129.31h-46.815v22.835c4.584,0.003,8.3,3.719,8.304,8.303v51.829c-0.023,2.509-2.072,4.525-4.582,4.51v94.133
	c0,6.656-3.292,9.95-4.939,10.81c5.369,0.43,10.738,0.858,16.106,0.858c6.673,0.071,13.338-0.505,19.902-1.718
	c0,0,12.024-2.435,12.024-12.813V192.805z"/>
<path fill="#041E41" d="M203.603,192.805h-11.167v19.472c-0.04,2.529-2.122,4.55-4.652,4.51c-2.475-0.038-4.471-2.035-4.51-4.51
	v-55.55c0.018-2.523,2.059-4.564,4.582-4.583V129.31h-24.053v22.835c2.523,0.018,4.564,2.06,4.582,4.583v55.55
	c-0.023,2.509-2.072,4.525-4.582,4.51v82.106c0,7.087-3.722,9.163-5.368,9.951c10.658,5.634,22.13,9.57,34.001,11.667
	c0,0,11.168,1.647,11.168-9.592V192.805z"/>
<path fill="#041E41" d="M160.509,298.893v-82.106c-2.509,0.016-4.558-2.001-4.582-4.509v-55.551
	c0.018-2.523,2.059-4.564,4.582-4.583V129.31h-24.052v22.835c2.498,0.049,4.5,2.083,4.509,4.583v55.55
	c-0.014,2.483-2.025,4.494-4.509,4.51v55.979c0,11.669-5.87,13.743-9.163,13.743c7.351,7.386,15.743,13.658,24.911,18.611
	C152.206,305.551,160.509,308.844,160.509,298.893z"/>
<path fill="#041E41" d="M345.84,166.676v-25.34c-0.041-6.625-5.401-11.986-12.026-12.026h-14.532
	c-6.635,0.015-12.011,5.39-12.026,12.026v33.573c0.199,2.046,1.081,3.962,2.506,5.442l19.042,17.395
	c1.421,1.452,2.307,3.345,2.505,5.369v7.517c-0.025,3.656-3.009,6.602-6.666,6.576c-3.622-0.026-6.552-2.954-6.576-6.576v-17.468
	h-11.239v95.778c23.623-22.333,39.014-53.042,39.014-87.475v-4.938c-0.229-2.036-1.108-3.943-2.506-5.441l-19.041-17.396
	c-1.423-1.451-2.306-3.345-2.507-5.368v-11.239c0.055-2.705,2.235-4.885,4.939-4.939c2.646-0.121,4.888,1.924,5.009,4.57
	c0.006,0.123,0.007,0.246,0.002,0.369v9.951L345.84,166.676z"/>
<path fill="#041E41" d="M118.204,210.632c-0.109,3.381-2.846,6.086-6.229,6.155c-3.527,0.11-6.491-2.63-6.657-6.155v-51.829
	c0-3.793,2.935-6.228,6.657-6.228c3.407,0.079,6.15,2.822,6.228,6.227L118.204,210.632z M133.093,273.196v-131.86
	c0.019-6.721-5.309-12.239-12.027-12.456h-17.824c-6.71,0.066-12.096,5.561-12.03,12.271c0.001,0.062,0.002,0.124,0.004,0.185
	v59.701c0.108,29.015,10.711,57.008,29.85,78.814C124.431,284.434,133.093,286.08,133.093,273.196z"/>
<path fill="#041E41" d="M284.421,165.818c-0.015,2.965-2.43,5.356-5.395,5.343c-2.946-0.014-5.33-2.397-5.344-5.343v-8.304
	c0.014-2.966,2.43-5.358,5.396-5.343c2.943,0.014,5.328,2.398,5.343,5.343V165.818z M298.952,212.278v-27.419
	c0-4.508-4.938-6.584-4.938-6.584s4.938-2.079,4.938-6.66v-30.279c-0.013-6.636-5.39-12.012-12.026-12.026h-32.712v22.835
	c2.496,0.048,4.499,2.083,4.511,4.583v55.55c-0.017,2.483-2.027,4.494-4.511,4.51v91.697c0.049,4.065-1.615,7.963-4.581,10.739
	c8.559-2.011,16.883-4.914,24.837-8.661c0,0,5.442-2.506,5.442-12.886v-80.89c-3.611,0.065-6.591-2.81-6.657-6.42l0,0
	c0-0.057,0-0.109,0-0.166V189.87c-0.021-2.746,2.191-4.989,4.939-5.011c2.748-0.019,4.99,2.193,5.011,4.939c0,0.024,0,0.05,0,0.071
	v109.023c0.02,2.675-0.392,5.333-1.219,7.874c6.438-3.584,12.546-7.728,18.256-12.384c0,0,2.861-2.505,2.861-14.532v-63.064
	C300.749,216.613,298.931,214.639,298.952,212.278L298.952,212.278z"/>
</svg>
