<?xml version="1.0" encoding="utf-8"?>
<!-- Generator: Adobe Illustrator 15.1.0, SVG Export Plug-In . SVG Version: 6.00 Build 0)  -->
<!DOCTYPE svg PUBLIC "-//W3C//DTD SVG 1.1//EN" "http://www.w3.org/Graphics/SVG/1.1/DTD/svg11.dtd">
<svg version="1.1" id="Layer_1" xmlns="http://www.w3.org/2000/svg" xmlns:xlink="http://www.w3.org/1999/xlink" x="0px" y="0px"
	 width="435.031px" height="352.309px" viewBox="0 0 435.031 352.309" enable-background="new 0 0 435.031 352.309"
	 xml:space="preserve">
<path fill="#FFFFFF" d="M369.97,103.131c0,17.751-2.551,64.309-25.937,115.013c-28.699,62.183-70.899,98.43-126.705,127.343
	c-56.337-29.231-98.324-65.586-126.811-127.343c-23.385-50.704-25.936-97.262-25.936-115.013V38.396
	C112.096,13.629,166.307,3.637,217.328,3.637c51.449,0,105.447,10.098,152.642,34.759V103.131z M371.989,34.464
	C327.664,11.397,274.197-0.827,217.328-0.827c-56.974,0-110.441,12.224-154.767,35.291l-2.445,1.169v67.498
	c0,17.964,2.658,65.372,26.362,116.819c26.68,57.72,65.159,96.517,128.725,129.469l2.125,1.063l2.021-1.063
	c63.565-32.952,102.045-71.749,128.725-129.469c23.811-51.447,26.361-98.854,26.361-116.819V35.633L371.989,34.464z"/>
<path d="M213.396,133.957c-0.642,0.024-1.282,0.095-1.914,0.212C212.114,134.052,212.754,133.981,213.396,133.957z M182.145,141.078
	l0.957,1.914L182.145,141.078z M210.42,134.276c-0.851,0.106-1.808,0.318-2.871,0.531
	C208.613,134.594,209.569,134.382,210.42,134.276L210.42,134.276z"/>
<path fill="#041E42" d="M361.68,103.131c0,17.114-2.445,62.291-25.087,111.504c-26.467,57.295-66.541,94.179-119.265,121.604
	c-52.51-27.317-92.796-64.097-119.264-121.604c-22.748-49.214-25.192-94.391-25.192-111.504V43.392
	c41.774-21.791,96.41-31.463,144.456-31.463c47.834,0,102.576,9.672,144.352,31.463V103.131z M64.581,38.396v64.734
	c0,17.751,2.551,64.309,25.936,115.013c28.487,61.757,70.474,98.111,126.811,127.343c55.806-28.913,98.006-65.16,126.705-127.343
	c23.386-50.704,25.937-97.262,25.937-115.013V38.396C322.775,13.736,268.777,3.637,217.328,3.637
	C166.307,3.637,112.096,13.629,64.581,38.396z M194.369,151.07c-4.158,2.154-9.049,2.388-13.394,0.638c0,0,0.851-1.488,1.701-2.87
	c1.639,1.569,4.013,2.101,6.166,1.382c1.659-0.824,2.867-2.343,3.295-4.146c2.559-0.531,5.151-0.887,7.76-1.063
	C198.961,147.703,196.963,149.893,194.369,151.07L194.369,151.07z M222.537,137.571c-1.063-0.425-2.232-0.85-3.296-1.275
	c-3.081-1.276-5.845-2.338-5.845-2.338c-0.642,0.024-1.282,0.095-1.914,0.212c-0.319,0-0.744,0.107-1.062,0.107
	c-0.851,0.105-1.808,0.318-2.871,0.53c-8.429,1.808-16.629,4.553-24.448,8.186l-0.957-1.914l-1.275-2.657l-12.863,17.645
	c4.315,0.763,8.693,1.12,13.075,1.063c5.525-0.002,11.039-0.5,16.476-1.488c4.215-3.563,8.192-7.398,11.905-11.48
	c0.958-1.063,1.808-2.02,2.445-2.764c0.851-0.956,1.381-1.595,1.594-1.807C216.478,138.74,218.817,138.314,222.537,137.571
	L222.537,137.571z M217.328,324.758c7.442-3.827,14.458-7.972,21.153-12.224C231.786,316.786,224.771,320.931,217.328,324.758z
	 M124.958,177.433c0.85,1.274,1.914,2.868,3.083,4.569c1.384,1.721,2.913,3.322,4.571,4.782l4.358,12.545
	c-2.711,2.975-5.165,6.176-7.334,9.565c-3.575-6.443-6.632-13.16-9.142-20.089L124.958,177.433z M142.815,182.215
	c1.169-0.851,2.657-2.126,3.72-2.87c0,0,6.059-0.851,12.649-1.275c3.253-0.256,6.518-0.327,9.778-0.214l4.252,4.998
	c-3.22,0.308-6.394,0.985-9.46,2.019c4.979,1.43,9.736,3.54,14.138,6.271l-0.319,2.233c-4.143-0.344-8.309-0.274-12.437,0.212
	c3.782,1.845,7.377,4.053,10.736,6.59c-0.319,0.851-0.638,1.7-0.957,2.445c-3.646-0.677-7.348-0.999-11.055-0.957
	c3.05,1.95,5.931,4.155,8.61,6.591c-1.062,2.018-1.807,3.188-1.807,3.188c-12.438-3.72-27.744-10.735-31.677-12.543l-0.212-12.224
	C139.966,185.057,141.32,183.56,142.815,182.215L142.815,182.215z M145.898,230.368c-4.73-3.907-8.267-9.063-10.205-14.884
	c0.072-3.568,1.181-7.038,3.189-9.99c13.818,9.779,35.184,18.494,35.184,18.494C164.431,224.828,154.955,226.976,145.898,230.368
	L145.898,230.368z M83.289,113.76c2.445,48.684,22.642,136.697,105.871,194.097c11.055-5.954,18.496-15.944,22.96-23.812
	c8.716,10.631,9.674,25.404,9.674,25.404c9.354-43.899-31.783-77.808-31.783-77.808s29.656,14.456,50.173,37.947
	c0.28-3.485,0.066-6.992-0.639-10.417c-0.834-4.36-2.08-8.632-3.72-12.755c0,0,21.364,17.325,32.952,43.156
	c0.211-0.214,0.531-0.425,0.742-0.639c29.338-30.4,30.188-75.895,30.188-75.895c-6.376-26.468-17.646-35.716-17.646-35.716
	c2.232,12.117,3.614,25.511,3.614,25.511c-4.774,10.01-11.538,18.944-19.876,26.255c-11.482,1.277-20.623,0.106-36.673-5.207
	c-8.512-2.986-16.616-7.021-24.13-12.013c-3.758-0.172-7.524-0.065-11.267,0.319c-5.208,0.53-11.374,1.913-11.374,1.913
	c6.909-12.118,10.948-24.554,11.692-30.082c-4.538-4.913-9.519-9.396-14.881-13.393c-11.479,0.531-20.515,1.169-20.515,1.169
	l3.826-15.52c0,0-2.55,2.126-5.526,5.103c-3.083,3.082-6.591,7.015-6.591,7.015c-5.309,1.936-10.791,3.359-16.37,4.252
	c-3.42-1.021-6.678-2.524-9.672-4.465c11.586-17.114,30.294-23.917,30.294-23.917c-3.402-4.039-3.189-7.228-3.189-7.228
	c4.783-3.189,9.141-5.74,13.074-7.866c-0.553,1.367-0.945,2.794-1.169,4.252c3.395-2.751,6.944-5.306,10.629-7.653
	c4.465-2.764,8.823-4.996,8.823-4.996c2.87-9.354,7.866-16.901,9.142-17.964c1.299-0.223,2.615-0.329,3.933-0.319
	c0.319,3.083,3.72,7.973,5.208,9.779c-4.806,1.743-9.348,4.14-13.5,7.122c0,0,15.838-4.251,29.976-4.677
	c19.027-0.638,30.825,3.614,30.825,3.614c-2.111,2.956-4.381,5.794-6.802,8.503c31.569-10.735,34.864-18.92,51.979-22.535
	c4.046,0.653,8.028,1.648,11.905,2.977c2.372,2.438,4.091,5.437,4.996,8.716c-2.339,18.177-9.673,38.693-9.673,38.693
	c-5.74,7.015-15.732,13.393-15.732,13.393c9.992-1.275,24.66-5.74,24.66-5.74c9.142,6.59,21.155,21.153,26.149,27.423
	c8.801-24.45,13.993-50.053,15.413-76.001c-4.146-2.125-55.912-27.424-133.934-27.424C139.201,86.336,87.435,111.635,83.289,113.76z
	 M279.512,164.57c6.804-3.827,16.052-12.437,16.052-12.437c4.889-14.457,9.034-33.909,9.034-33.909c0-1.914-2.232-4.996-2.232-4.996
	c-2.506-0.949-5.108-1.627-7.759-2.02c-7.867,1.276-18.178,9.035-26.361,15.52c3.925-0.193,7.83-0.655,11.692-1.382
	c-1.489,3.826-6.804,13.818-6.804,13.818c3.365-0.085,6.713-0.512,9.992-1.276c-2.105,5.999-4.59,11.857-7.441,17.54L279.512,164.57
	z"/>
<path fill="#B99758" d="M209.462,144.161c-3.713,4.082-7.69,7.917-11.905,11.48c-5.436,0.988-10.95,1.486-16.476,1.488
	c5.525-0.002,11.04-0.5,16.476-1.488C201.772,152.078,205.75,148.243,209.462,144.161z"/>
<path fill="#B99758" d="M351.58,49.557v53.361c-40.286-18.389-90.139-26.68-134.252-26.68c-44.325,0-94.072,8.292-134.357,26.68
	V49.557c0,0,52.935-27.53,134.357-27.53C298.752,22.027,351.58,49.557,351.58,49.557z M229.978,152.771
	c0.639-2.658,0.214-10.842,0.214-10.842s4.676,1.594,11.905,7.335c0,0-0.957,5.314-2.341,10.735l-25.191,11.48
	C220.028,165.518,225.173,159.274,229.978,152.771z M213.501,139.59c0.065,1.133,0.065,2.269,0,3.402
	c-3.294,5.527-9.354,12.118-13.18,15.838c-7.502,1.622-15.194,2.194-22.854,1.7l-9.46-4.464l12.863-17.645
	c0,0,17.644-7.016,32.526-4.358c0,0,2.764,0.956,5.845,2.233c1.063,0.425,2.232,0.85,3.296,1.275
	C218.817,138.314,216.478,138.74,213.501,139.59c-0.212,0.212-0.743,0.851-1.594,1.807
	C212.758,140.441,213.289,139.802,213.501,139.59L213.501,139.59z M273.134,139.165c0,0,5.314-9.992,6.804-13.818
	c-3.862,0.727-7.768,1.188-11.692,1.382c8.184-6.484,18.494-14.244,26.361-15.52c2.65,0.393,5.253,1.07,7.759,2.02
	c0,0,2.232,3.083,2.232,4.996c0,0-4.146,19.452-9.034,33.909c0,0-9.248,8.61-16.052,12.437l-3.827-9.248
	c2.861-5.642,5.346-11.465,7.441-17.433C279.847,138.653,276.499,139.08,273.134,139.165L273.134,139.165z M335.849,189.762
	c-4.994-6.271-17.008-20.834-26.149-27.424c0,0-14.668,4.465-24.66,5.74c0,0,9.992-6.377,15.732-13.393
	c0,0,7.334-20.516,9.673-38.798c-0.921-3.242-2.638-6.203-4.996-8.61c-3.877-1.329-7.859-2.324-11.905-2.977
	c-17.114,3.614-20.409,11.799-51.979,22.534c2.421-2.708,4.69-5.547,6.802-8.503c0,0-11.798-4.358-30.825-3.721
	c-14.138,0.532-29.976,4.783-29.976,4.783c4.151-2.982,8.694-5.379,13.5-7.122c-1.488-1.807-4.889-6.697-5.208-9.779
	c-1.317-0.011-2.634,0.096-3.933,0.318c-1.276,1.063-6.271,8.61-9.142,17.964c0,0-4.358,2.232-8.823,4.996
	c-3.685,2.347-7.234,4.902-10.629,7.653c0.213-1.449,0.57-2.873,1.063-4.252c-3.827,2.126-8.185,4.677-12.968,7.866
	c0,0-0.212,3.189,3.189,7.229c0,0-18.708,6.802-30.294,23.916c2.995,1.942,6.252,3.444,9.672,4.465
	c5.58-0.894,11.062-2.317,16.37-4.252c0,0,3.508-3.932,6.591-7.015c2.976-2.977,5.526-5.208,5.526-5.208l-3.826,15.625
	c0,0,9.036-0.638,20.409-1.169c5.419,3.967,10.438,8.453,14.987,13.393c-0.744,5.528-4.89,17.964-11.692,30.082
	c0,0,6.165-1.382,11.374-1.913c3.743-0.385,7.508-0.491,11.267-0.319c7.514,4.991,15.621,9.026,24.13,12.013
	c16.051,5.313,25.19,6.484,36.673,5.207c8.357-7.336,15.121-16.308,19.877-26.36c0,0-1.383-13.288-3.615-25.405
	c0,0,11.27,9.248,17.646,35.716c0,0-0.851,45.494-30.188,75.895c-0.211,0.214-0.531,0.425-0.742,0.639
	c-9.512,8.399-19.638,16.074-30.296,22.96c-6.695,4.252-13.711,8.396-21.153,12.224c0,0,3.827-8.078,4.466-15.308
	c0,0-0.958-14.773-9.674-25.404c-4.464,7.867-11.904,17.859-22.96,23.812C105.931,250.351,85.734,162.444,83.289,113.76
	c4.146-2.126,56.019-27.424,134.039-27.424c78.021,0,129.788,25.298,133.934,27.424
	C349.842,139.708,344.649,165.311,335.849,189.762L335.849,189.762z M72.873,43.392v59.738c0,17.114,2.444,62.291,25.192,111.504
	c26.468,57.507,66.754,94.286,119.264,121.604c52.724-27.425,92.798-64.309,119.265-121.604
	c22.642-49.214,25.087-94.391,25.087-111.504V43.392c-41.775-21.791-96.518-31.463-144.352-31.463
	C169.283,11.929,114.647,21.601,72.873,43.392z"/>
<path fill="#C8102E" d="M186.609,40.097c-2.657,0.213-5.208,0.532-7.759,0.851v20.728c2.552-0.319,5.103-0.532,7.759-0.744V40.097z
	 M325.325,56.361c-2.55-0.851-4.995-1.595-7.548-2.445v6.909c2.553,0.744,4.998,1.595,7.548,2.445V56.361z M102.423,51.683
	c5.953-2.126,12.012-4.039,18.07-5.847v7.016c-3.72,1.063-7.44,2.232-11.161,3.508v6.909c2.658-0.957,5.315-1.807,7.972-2.551v7.015
	c-2.657,0.744-5.314,1.701-7.972,2.551V84.21c-2.338,0.744-4.57,1.488-6.909,2.338V51.683z M136.756,41.372
	c2.339-0.531,4.677-1.062,7.016-1.594v27.743c3.827-0.85,7.547-1.594,11.374-2.338v7.122c-6.165,1.063-12.224,2.445-18.389,3.933
	V41.372z M171.728,40.735c1.063-2.126,2.232-4.252,3.295-6.378c5.103-0.637,10.204-1.169,15.413-1.594
	c1.062,1.913,2.125,3.827,3.295,5.74v22.853c-1.169,2.02-2.232,4.146-3.295,6.271c-5.209,0.425-10.311,0.851-15.413,1.595
	c-1.063-1.914-2.232-3.827-3.295-5.634V40.735z M210.42,31.806c6.271-0.212,12.437-0.106,18.708,0.106
	c1.169,2.02,2.231,4.039,3.295,6.165V46.9c-1.063,2.02-2.126,3.933-3.295,5.952c-0.776-0.091-1.557-0.125-2.34-0.105
	c1.913,4.677,3.828,9.354,5.635,14.137c-2.445-0.106-4.995-0.212-7.548-0.319c-1.913-4.677-3.72-9.248-5.634-13.925h-1.7v13.925
	h-7.121V31.806z M249.112,33.188c2.443,0.212,4.784,0.425,7.12,0.744v34.865c-2.336-0.318-4.677-0.531-7.12-0.744V33.188z
	 M272.815,36.271c6.165,1.062,12.331,2.232,18.495,3.614c1.062,2.232,2.232,4.464,3.296,6.696v22.854
	c-1.063,1.701-2.233,3.508-3.296,5.315c-6.164-1.382-12.33-2.657-18.495-3.614V36.271z M310.87,50.833
	c1.062-1.701,2.126-3.295,3.188-4.996c4.997,1.488,9.992,3.083,14.882,4.784c1.062,2.339,2.126,4.784,3.189,7.123v28.806
	c-2.232-0.85-4.57-1.594-6.804-2.338V70.285c-2.55-0.851-4.995-1.701-7.548-2.445v13.925c-2.231-0.745-4.57-1.382-6.907-2.02V50.833
	z M82.97,102.918c40.286-18.39,90.033-26.68,134.358-26.68c44.113,0,93.966,8.291,134.252,26.68V49.557
	c0,0-52.828-27.53-134.252-27.53c-81.422,0-134.358,27.53-134.358,27.53V102.918z M279.938,65.289l7.653,1.595V46.049
	c-2.552-0.531-5.103-1.062-7.653-1.487V65.289z M225.301,38.822c-2.551-0.106-5.209-0.106-7.759-0.106v6.909
	c2.55,0,5.208,0,7.759,0.107V38.822z M188.842,150.22c-2.153,0.718-4.526,0.187-6.166-1.382c-0.85,1.382-1.701,2.87-1.701,2.87
	c4.344,1.75,9.236,1.516,13.394-0.638c2.595-1.177,4.592-3.367,5.528-6.059c-2.608,0.176-5.201,0.532-7.76,1.063
	C191.709,147.877,190.501,149.396,188.842,150.22z"/>
<path fill="#FFFFFF" d="M170.665,211.448c0,0,0.744-1.276,1.701-3.189c-2.631-2.448-5.477-4.654-8.504-6.591
	c3.707-0.04,7.41,0.28,11.055,0.957c0.318-0.745,0.637-1.595,0.957-2.445c-3.358-2.537-6.953-4.745-10.736-6.59
	c4.124-0.541,8.296-0.611,12.437-0.212l0.319-2.233c-4.402-2.731-9.159-4.842-14.138-6.271c3.066-1.033,6.24-1.711,9.46-2.019
	l-4.25-4.998c-3.262-0.113-6.527-0.042-9.78,0.214c-6.591,0.425-12.649,1.275-12.649,1.275c-1.062,0.744-2.551,2.02-3.72,2.87
	c-1.496,1.345-2.849,2.842-4.04,4.465l0.212,12.224C142.921,200.711,158.228,207.727,170.665,211.448z M197.558,155.641
	c-5.436,0.988-10.95,1.486-16.476,1.488c-4.382,0.056-8.76-0.301-13.075-1.063l9.461,4.464c7.665,0.508,15.364-0.1,22.854-1.807
	c5.005-4.698,9.431-9.98,13.18-15.731c0.065-1.133,0.065-2.269,0-3.402c-0.212,0.212-0.743,0.851-1.594,1.807
	c-0.638,0.744-1.487,1.701-2.445,2.657C205.781,148.201,201.802,152.073,197.558,155.641L197.558,155.641z M135.693,215.485
	c1.938,5.82,5.475,10.977,10.205,14.884c9.057-3.393,18.533-5.54,28.168-6.38c0,0-21.366-8.715-35.184-18.494
	C136.874,208.447,135.766,211.916,135.693,215.485z M129.74,208.895c2.12-3.397,4.539-6.6,7.229-9.565l-4.358-12.545
	c-1.651-1.434-3.147-3.036-4.464-4.782c-1.275-1.701-2.339-3.295-3.189-4.569l-4.465,11.373
	C123.012,195.747,126.105,202.469,129.74,208.895z M287.591,66.884l-7.653-1.595V44.562c2.551,0.425,5.102,0.957,7.653,1.487V66.884
	z M294.606,69.435V46.581c-1.063-2.232-2.233-4.464-3.296-6.696c-6.164-1.381-12.33-2.551-18.495-3.614v34.865
	c6.165,0.957,12.331,2.232,18.495,3.614C292.373,72.943,293.543,71.136,294.606,69.435L294.606,69.435z M256.232,33.932
	c-2.336-0.319-4.677-0.532-7.12-0.744v34.865c2.443,0.213,4.784,0.425,7.12,0.745V33.932z M178.85,40.948
	c2.552-0.319,5.102-0.637,7.759-0.851v20.834c-2.657,0.212-5.208,0.425-7.759,0.744V40.948z M190.436,67.628
	c1.062-2.125,2.125-4.251,3.295-6.271V38.503c-1.169-1.914-2.232-3.827-3.295-5.74c-5.209,0.425-10.311,0.957-15.413,1.594
	c-1.063,2.126-2.232,4.252-3.295,6.378v22.854c1.062,1.807,2.232,3.72,3.295,5.527C180.125,68.478,185.228,67.947,190.436,67.628
	L190.436,67.628z M317.777,53.916c2.553,0.85,4.998,1.594,7.548,2.445v6.909c-2.55-0.85-4.995-1.701-7.548-2.445V53.916z
	 M317.777,67.84c2.553,0.851,4.998,1.595,7.548,2.445V84.21c2.233,0.744,4.571,1.488,6.804,2.338V57.743
	c-1.063-2.339-2.127-4.784-3.189-7.123c-4.89-1.701-9.885-3.295-14.882-4.784c-1.062,1.701-2.124,3.295-3.188,4.996v28.913
	c2.337,0.637,4.57,1.275,6.907,2.02V67.84z M109.332,70.285c2.658-0.851,5.315-1.807,7.972-2.551v-7.015
	c-2.657,0.744-5.314,1.594-7.972,2.551v-6.909c3.721-1.276,7.441-2.445,11.161-3.508v-7.016c-6.058,1.808-12.117,3.72-18.07,5.847
	v34.865c2.338-0.85,4.57-1.594,6.909-2.338V70.285z M217.542,38.716c2.55,0,5.208,0,7.759,0.106v6.91
	c-2.551-0.107-5.209-0.107-7.759-0.107V38.716z M217.542,52.64h1.7c1.914,4.677,3.721,9.248,5.634,13.925
	c2.553,0.107,5.103,0.213,7.548,0.319c-1.807-4.784-3.722-9.46-5.635-14.137c0.783-0.02,1.563,0.015,2.34,0.105
	c1.169-2.02,2.231-3.933,3.295-5.952v-8.823c-1.063-2.126-2.126-4.146-3.295-6.165c-6.271-0.212-12.436-0.319-18.708-0.212v34.865
	h7.121V52.64z M155.146,65.183c-3.827,0.744-7.547,1.488-11.374,2.338V39.779l-7.016,1.594v34.866
	c6.165-1.488,12.224-2.87,18.389-3.933V65.183z"/>
<path fill="#041E42" d="M242.097,149.264c-7.229-5.741-11.905-7.335-11.905-7.335s0.425,8.185-0.214,10.842
	c-4.805,6.502-9.949,12.747-15.413,18.708l25.191-11.479C241.14,154.578,242.097,149.264,242.097,149.264z"/>
<path fill="#FFFFFF" d="M183.102,142.992c7.818-3.632,16.019-6.377,24.448-8.186c1.063-0.212,2.02-0.425,2.871-0.531
	c0.318,0,0.743-0.106,1.062-0.106c0.632-0.118,1.271-0.188,1.914-0.212c-14.882-2.551-32.526,4.464-32.526,4.464l1.275,2.657
	L183.102,142.992z M235.825,246.418c1.64,4.123,2.886,8.395,3.72,12.755c0.705,3.425,0.919,6.932,0.639,10.417
	c-20.517-23.491-50.173-37.947-50.173-37.947s41.137,33.908,31.783,77.808c-0.639,7.229-4.466,15.308-4.466,15.308
	c7.442-3.827,14.458-7.972,21.153-12.224c10.683-6.852,20.811-14.527,30.296-22.96C257.189,263.743,235.825,246.418,235.825,246.418
	L235.825,246.418z"/>
</svg>
