<svg xmlns="http://www.w3.org/2000/svg" viewBox="0 0 24 16"><g fill="#FFF"><path d="M5.5 11.08l6.5 4.7 6.5-4.7V.22h-13v10.86zM16.4 13.43a.133.133 0 0 0-.132-.133h-.188v.445h.084v-.182h.06l.084.182h.092l-.088-.188a.134.134 0 0 0 .088-.125zm-.13.048h-.105v-.098h.104a.05.05 0 0 1 .047.05c0 .026-.022.048-.048.048z"/><path d="M16.24 13.13a.39.39 0 1 0 0 .78.39.39 0 0 0 0-.78zm0 .694a.306.306 0 1 1 0-.612.306.306 0 0 1 0 .612z"/></g><g fill="#ACAEA9"><path d="M5.928 10.862L12 15.25l6.07-4.388V8.19H5.93v2.672zM5.928 7.814h12.144V.648H5.928v7.166z"/></g><g fill="#111"><path d="M6.31 10.667l5.69 4.11 5.688-4.11V8.855H6.31v1.812zM6.31 7.25h11.38V1.03H6.31v6.22z"/></g><g fill="#ACAEA9"><path d="M7.705 5.49V4.14c0-1.565.364-2.125.364-2.125H6.65s.364.56.364 2.126c0 1.566-.364 2.126-.364 2.126h4.628s.386-.525.386-1.325c0 0-.527.55-1.768.55H7.705zM12.072 2.016s.365.56.365 2.126c0 1.565-.365 2.125-.365 2.125h1.053V4.683h3.17v1.584h1.053s-.365-.56-.365-2.125c0-1.566.365-2.126.365-2.126h-5.276z"/></g><g fill="#FFF"><path d="M12.23 2.113c.11.26.306.878.306 2.028s-.194 1.768-.306 2.027h.796V4.585h3.368v1.583h.795c-.112-.26-.306-.877-.306-2.026 0-1.15.193-1.768.305-2.028h-4.96zM7.606 5.59V4.142c0-1.15.193-1.768.305-2.028h-1.1c.112.26.306.878.306 2.028S6.923 5.91 6.81 6.168h4.418a2.38 2.38 0 0 0 .328-1.017c-.252.174-.78.44-1.658.44H7.606z"/></g><path fill="#ACAEA9" d="M13.026 4.006h3.368V2.692h-3.368v1.314z"/><path d="M13.125 2.79h3.17v1.117h-3.17z"/><path fill="#FFF" d="M13.71 12.807l.423-2.42-.09-.037-.407.546a1.72 1.72 0 0 0-.774-.508l.16-.393-.29.117.02-.035-.36.02c-.026-.044-.196-.346-.22-.386l.092-.16.09-.076-.103-.197-.22.016-.003.122-.027.04-.025-.04-.005-.123-.22-.016-.104.197.09.077.093.16c-.024.04-.194.342-.22.385l-.36-.02.02.036c-.09-.034-.292-.116-.292-.116l.16.393c-.363.12-.633.335-.774.508l-.408-.546-.087.037.42 2.42s.6.153 1.71.153c1.11 0 1.71-.153 1.71-.153z"/><path fill="#111" d="M11.65 12.85s-.55-.05-.877-.177c.223.032.584.076.914.076 0 0-.446-.047-.742-.158.224.03.542.063.835.063 0 0-.436-.045-.73-.154a4.545 4.545 0 0 1 1.9 0c-.296.11-.73.155-.73.155.292 0 .61-.034.834-.063-.296.11-.742.157-.742.157.33 0 .69-.045.914-.077-.326.126-.876.177-.876.177.81-.02 1.29-.142 1.29-.142l.37-2.158-.376.503c-.165-.27-.486-.486-.897-.606l.113-.276-.58.262v-.144L12 9.825l-.27.462v.144l-.582-.26.114.276c-.41.12-.73.337-.897.606l-.376-.502.37 2.158s.48.12 1.29.142z"/><g fill="#ACAEA9"><path d="M11.73 10.483l-.49-.22.49 1.194v-.974zM12.27 10.483v.975l.49-1.195-.49.22zM12.22 10.463l-.22-.286-.22.286.22.26.22-.26z"/><path d="M13.72 11.953a.21.21 0 0 1-.172-.21c0-.118.09-.214.2-.214.016 0 .03 0 .043.004l.138-.795-.595.794c.013.38-.08.534-.08.534s-.2-.08-.422-.125l-.076-.385a.168.168 0 0 1-.09-.028h-.004l-.196.354s-.246-.023-.37-.023l.11-.34-.204-.53-.205.53.11.34c-.124 0-.37.024-.37.024l-.18-.33a.163.163 0 0 1-.105-.013l-.083.4c-.222.047-.422.127-.422.127s-.092-.153-.08-.534l-.595-.795.138.795a.147.147 0 0 1 .042-.005c.11 0 .2.096.2.213a.21.21 0 0 1-.17.212l.118.688c.188-.072.817-.29 1.602-.29.783 0 1.414.218 1.6.29l.12-.687z"/></g><g fill="#111"><path d="M12.092 10.454A.093.093 0 0 0 12 10.36c-.052 0-.092.043-.092.094s.04.092.092.092c.05 0 .092-.04.092-.092zM12.496 10.55a.094.094 0 0 0-.072-.037c-.05 0-.092.04-.092.093 0 .042.03.08.07.09.014.008.03.014.048.014a.086.086 0 0 0 .087-.086.087.087 0 0 0-.04-.075zM11.608 10.55a.092.092 0 0 0-.165.057c0 .04.03.078.07.088a.09.09 0 0 0 .05.015.086.086 0 0 0 .086-.086.087.087 0 0 0-.042-.075z"/></g><g fill="#FFF"><path d="M10.433 11.143l.103.136a1.03 1.03 0 0 1 .748-.543c-.428.16-.606.41-.664.655l.096.127s-.012.344.057.488a.627.627 0 0 1 .074-.026c-.223-.917.5-1.086.5-1.086-.51.264-.463.733-.36 1.043.044-.013.09-.024.142-.036l.076-.38a.177.177 0 1 1 .204-.273.168.168 0 0 1-.008.29l.162.293a3.73 3.73 0 0 1 .264-.018l-.523-1.275c-.41.118-.727.337-.872.6zM12.615 11.51a.176.176 0 0 1 .09-.328c.058 0 .107.027.14.068a.166.166 0 0 1-.043.303l.07.35c.052.013.098.024.14.036.105-.31.152-.78-.358-1.044 0 0 .723.17.5 1.086l.075.026c.066-.145.055-.49.055-.49l.097-.126c-.06-.246-.236-.496-.665-.655 0 0 .5.055.748.542l.103-.137c-.145-.264-.463-.482-.87-.602l-.522 1.276c.09.003.178.01.264.018l.175-.324z"/><path d="M11.268 11.207c-.083 0-.15.068-.15.15s.067.152.15.152.15-.07.15-.152-.067-.15-.15-.15zM12.856 11.358c0-.083-.068-.15-.15-.15a.15.15 0 0 0 0 .3c.082 0 .15-.067.15-.15zM10.312 11.742a.063.063 0 0 0-.062-.065c-.006 0-.012 0-.017.002l.02.128a.065.065 0 0 0 .06-.066z"/><path d="M10.25 11.553a.165.165 0 0 0-.038.005l.004.024a.1.1 0 0 1 .034-.005c.085 0 .152.074.152.165 0 .083-.057.15-.13.163l.004.024a.187.187 0 0 0 .15-.19.182.182 0 0 0-.176-.187zM13.688 11.742c0 .035.024.062.057.065l.022-.13h-.018c-.035 0-.062.03-.062.065z"/><path d="M13.724 11.93l.004-.024a.162.162 0 0 1-.13-.163c0-.09.067-.165.15-.165a.1.1 0 0 1 .035.005l.005-.024a.18.18 0 0 0-.04-.006c-.097 0-.176.085-.176.19 0 .094.066.172.152.186zM12.078 10.454a.08.08 0 0 0-.078-.08.08.08 0 0 0-.08.08c0 .044.036.078.08.078a.077.077 0 0 0 .078-.078zM12.424 10.684a.077.077 0 0 0 .078-.078.078.078 0 0 0-.078-.08.08.08 0 0 0-.08.08.08.08 0 0 0 .08.078zM11.535 10.684a.078.078 0 0 0 0-.157.078.078 0 0 0 0 .157z"/></g><g fill="#111"><circle cx="11.268" cy="11.358" r=".134"/><circle cx="12.705" cy="11.358" r=".134"/><path d="M11.995 11.58c.01.006.02.01.034.01a.08.08 0 0 0 .08-.08c0-.032-.02-.06-.046-.072.012.015.02.033.02.054 0 .05-.04.09-.09.09z"/><circle cx="11.995" cy="11.492" r=".072"/><circle cx="12" cy="10.454" r=".07"/><circle cx="12.424" cy="10.605" r=".07"/><circle cx="11.535" cy="10.605" r=".07"/><path d="M11.582 12.194h-.002c.01.005.023.01.036.01a.08.08 0 0 0 .08-.082.08.08 0 0 0-.045-.07.09.09 0 0 1 .02.054c0 .05-.04.088-.088.088zM10.897 12.315h-.002a.06.06 0 0 0 .035.01.08.08 0 0 0 .08-.08.078.078 0 0 0-.045-.072c.013.016.02.033.02.055 0 .048-.04.087-.088.087zM12.368 12.194c.01.005.02.01.034.01a.08.08 0 0 0 .035-.153.09.09 0 0 1 .02.056c0 .05-.04.088-.09.088zM13.054 12.315c.01.007.02.01.034.01a.08.08 0 0 0 .08-.08.08.08 0 0 0-.045-.072c.013.016.02.033.02.055 0 .048-.04.087-.09.087z"/><circle cx="11.582" cy="12.106" r=".072"/><circle cx="10.897" cy="12.227" r=".072"/><circle cx="12.368" cy="12.106" r=".072"/><circle cx="13.054" cy="12.227" r=".072"/><path d="M10.218 11.502l.086.004-.037-.11zM10.417 11.566l.025-.115-.096.07zM10.563 11.59l-.117.01.037.077zM10.483 11.806l.114-.034-.106-.052zM10.473 11.837l-.047.072.115.023zM10.305 11.978l.083.084-.004-.12zM13.733 11.395l-.04.11.088-.003zM13.653 11.52l-.095-.07.024.116zM13.554 11.6l-.118-.01.08.087zM13.51 11.72l-.108.052.114.034zM13.458 11.933l.115-.024-.047-.073zM13.615 11.943l-.004.12.084-.085zM11.71 10.27l.29-.498.29.5h.23l.028-.056h-.23l-.288-.497.142-.244.034-.035-.023-.035-.053.005-.008.044-.122.21-.122-.21-.01-.044-.052-.005-.023.036.034.036.142.243-.29.496h-.23l.03.055z"/></g></svg>