<?xml version="1.0" encoding="utf-8"?>
<!-- Generator: Adobe Illustrator 15.1.0, SVG Export Plug-In . SVG Version: 6.00 Build 0)  -->
<!DOCTYPE svg PUBLIC "-//W3C//DTD SVG 1.1//EN" "http://www.w3.org/Graphics/SVG/1.1/DTD/svg11.dtd">
<svg version="1.1" id="Layer_1" xmlns="http://www.w3.org/2000/svg" xmlns:xlink="http://www.w3.org/1999/xlink" x="0px" y="0px"
	 width="435.031px" height="352.309px" viewBox="0 0 435.031 352.309" enable-background="new 0 0 435.031 352.309"
	 xml:space="preserve">
<g>
	<path fill="#FFFFFF" d="M57.765,250.69l155.25,112.258l155.25-112.258V-8.701h-310.5V250.69z M318.107,306.819
		c0-1.745-1.407-3.164-3.152-3.178h-4.49v10.629h2.006v-4.347h1.434l2.006,4.347h2.197l-2.102-4.489
		c1.256-0.459,2.094-1.649,2.102-2.986V306.819z M315.002,307.965h-2.509v-2.34h2.485c0.63,0.037,1.123,0.561,1.121,1.194
		c0,0.62-0.524,1.146-1.146,1.146H315.002z"/>
	<path fill="#FFFFFF" d="M314.286,299.654c-5.144-0.006-9.317,4.162-9.321,9.308c-0.005,5.145,4.162,9.317,9.308,9.32
		c0.005,0,0.009,0,0.014,0c5.145-0.003,9.312-4.176,9.309-9.32C323.59,303.821,319.425,299.658,314.286,299.654z M314.286,316.228
		c-4.036,0-7.308-3.271-7.308-7.308s3.271-7.31,7.308-7.31c4.037,0.006,7.305,3.282,7.3,7.318
		C321.581,312.959,318.316,316.224,314.286,316.228L314.286,316.228z"/>
</g>
<g>
	<path fill="#ACAEA9" d="M67.988,245.483l145.027,104.805l144.979-104.805v-63.82H68.035v63.82H67.988z M67.988,172.679h290.055
		V1.522H67.988V172.679z"/>
</g>
<g>
	<path fill="#111111" d="M77.111,240.826l135.904,98.166l135.855-98.166v-43.279H77.111V240.826z M77.111,159.208h271.806V10.646
		H77.111V159.208z"/>
</g>
<g>
	<path fill="#ACAEA9" d="M110.431,117.171V84.927c0-37.379,8.694-50.755,8.694-50.755H85.233c0,0,8.693,13.375,8.693,50.779
		s-8.693,50.779-8.693,50.779h110.538c0,0,9.219-12.54,9.219-31.647c0,0-12.587,13.137-42.228,13.137h-52.332V117.171z
		 M214.734,34.196c0,0,8.718,13.375,8.718,50.779c0,37.379-8.718,50.755-8.718,50.755h25.151V97.896h75.714v37.833h25.151
		c0,0-8.719-13.375-8.719-50.755c0-37.403,8.719-50.779,8.719-50.779H214.734z"/>
</g>
<g>
	<path fill="#FFFFFF" d="M218.508,36.512c2.628,6.211,7.309,20.971,7.309,48.438s-4.634,42.228-7.309,48.414h19.012v-37.81h80.444
		v37.81h18.987c-2.674-6.21-7.308-20.947-7.308-48.39c0-27.468,4.609-42.229,7.284-48.438H218.461L218.508,36.512z M108.066,119.559
		V84.975c0-27.468,4.61-42.229,7.284-48.438H89.078c2.675,6.209,7.308,20.97,7.308,48.438c0,27.467-4.633,42.228-7.333,48.39
		h105.522c4.419-7.398,7.097-15.705,7.834-24.291c-6.019,4.156-18.629,10.509-39.601,10.509h-54.743V119.559z"/>
</g>
<path fill="#ACAEA9" d="M237.52,81.726h80.444V50.342H237.52V81.726L237.52,81.726z"/>
<path d="M239.885,52.683h75.714v26.679h-75.714V52.683z"/>
<path fill="#FFFFFF" d="M253.858,291.938l10.104-57.801l-2.149-0.883l-9.722,13.04c-4.938-5.658-11.331-9.854-18.486-12.133
	l3.821-9.389l-6.927,2.798l0.478-0.837l-8.598,0.477c-0.622-1.05-4.682-8.264-5.256-9.22l2.199-3.82l2.148-1.816l-2.46-4.705
	l-5.255,0.382l-0.071,2.915l-0.645,0.954l-0.598-0.954l-0.119-2.938l-5.254-0.382l-2.484,4.705l2.149,1.839l2.221,3.82
	c-0.573,0.956-4.634,8.17-5.254,9.197l-8.599-0.479l0.478,0.862c-2.15-0.814-6.975-2.771-6.975-2.771l3.821,9.387
	c-8.669,2.864-15.119,8.001-18.486,12.133l-9.745-13.042l-2.078,0.885l10.031,57.801c0,0,14.331,3.653,40.842,3.653
	s40.843-3.653,40.843-3.653L253.858,291.938z"/>
<path fill="#111111" d="M204.656,292.966c0,0-13.137-1.194-20.947-4.228c5.326,0.765,13.949,1.814,21.831,1.814
	c0,0-10.653-1.123-17.722-3.773c5.35,0.716,12.945,1.506,19.943,1.506c0,0-10.414-1.076-17.436-3.679
	c14.958-3.198,30.423-3.198,45.38,0c-7.069,2.627-17.435,3.701-17.435,3.701c6.974,0,14.569-0.812,19.92-1.504
	c-7.07,2.626-17.723,3.749-17.723,3.749c7.882,0,16.48-1.074,21.83-1.839c-7.786,3.009-20.923,4.228-20.923,4.228
	c19.347-0.479,30.812-3.392,30.812-3.392l8.836-51.543l-8.98,12.015c-3.941-6.449-11.607-11.609-21.425-14.474l2.699-6.594
	l-13.853,6.258v-3.438l-6.449-11.06l-6.449,11.035v3.44l-13.901-6.211l2.723,6.592c-9.792,2.868-17.436,8.049-21.424,14.476
	l-8.98-11.99l8.837,51.541c0,0,11.465,2.866,30.811,3.394L204.656,292.966z"/>
<g>
	<path fill="#ACAEA9" d="M206.566,236.43l-11.704-5.255l11.704,28.519V236.43z M219.464,236.43v23.286l11.703-28.541L219.464,236.43
		L219.464,236.43z M218.27,235.952l-5.255-6.829l-5.254,6.829l5.254,6.211L218.27,235.952z"/>
	<path fill="#ACAEA9" d="M254.097,271.54c-2.411-0.442-4.148-2.564-4.108-5.015c0-2.819,2.149-5.111,4.776-5.111
		c0.383,0,0.717,0,1.027,0.096l3.296-18.988l-14.212,18.965c0.312,9.075-1.91,12.754-1.91,12.754s-4.776-1.91-10.079-2.986
		l-1.814-9.195c-0.766-0.014-1.512-0.246-2.15-0.669h-0.096l-4.682,8.456c0,0-5.875-0.549-8.837-0.549l2.627-8.121l-4.872-12.659
		l-4.896,12.659l2.627,8.121c-2.962,0-8.837,0.573-8.837,0.573l-4.299-7.883c-0.847,0.178-1.729,0.069-2.508-0.312l-1.982,9.556
		c-5.302,1.123-10.08,3.033-10.08,3.033s-2.197-3.656-1.911-12.755l-14.211-18.988l3.296,18.988c0.327-0.089,0.665-0.128,1.003-0.12
		c2.627,0,4.777,2.294,4.777,5.087c0.068,2.454-1.65,4.599-4.061,5.063l2.819,16.434c4.491-1.719,19.514-6.927,38.263-6.927
		c18.701,0,33.773,5.208,38.216,6.927l2.866-16.409L254.097,271.54z"/>
</g>
<g>
	<path fill="#111111" d="M215.212,235.738c0.013-1.228-0.971-2.232-2.197-2.245l0,0c-1.242,0-2.198,1.027-2.198,2.245
		c0,1.219,0.956,2.197,2.198,2.197C214.209,237.935,215.212,236.979,215.212,235.738L215.212,235.738z M224.862,238.031
		c-0.41-0.54-1.042-0.864-1.719-0.885c-1.195,0-2.198,0.956-2.198,2.222c0,1.005,0.717,1.912,1.672,2.15
		c0.335,0.19,0.717,0.335,1.146,0.335c1.137,0.012,2.066-0.897,2.079-2.032c0-0.007,0-0.015,0-0.022
		c0.014-0.724-0.347-1.402-0.955-1.792L224.862,238.031z M203.652,238.031c-0.739-0.964-2.118-1.146-3.081-0.406
		c-0.549,0.42-0.869,1.075-0.86,1.768c0,0.954,0.716,1.863,1.672,2.102c0.354,0.236,0.769,0.359,1.194,0.359
		c1.135,0,2.054-0.92,2.054-2.055l0,0c0.005-0.732-0.376-1.413-1.003-1.792L203.652,238.031z"/>
</g>
<g>
	<path fill="#FFFFFF" d="M175.588,252.194l2.46,3.249c3.573-6.902,10.196-11.711,17.866-12.971
		c-10.222,3.822-14.474,9.793-15.859,15.646l2.293,3.033c0,0-0.287,8.217,1.361,11.656c0.576-0.245,1.166-0.452,1.768-0.622
		c-5.326-21.901,11.942-25.938,11.942-25.938c-12.181,6.305-11.059,17.507-8.598,24.912c1.05-0.312,2.149-0.574,3.392-0.86
		l1.815-9.077c-2.179-0.838-3.264-3.286-2.425-5.465c0.84-2.179,3.286-3.264,5.465-2.424c0.725,0.277,1.359,0.752,1.833,1.368
		c1.882,1.17,2.458,3.645,1.289,5.526c-0.365,0.585-0.874,1.069-1.479,1.4l3.869,6.998c2.096-0.217,4.199-0.361,6.305-0.429
		l-12.492-30.454c-9.792,2.818-17.364,8.05-20.827,14.33L175.588,252.194z M227.704,260.96c-2.005-1.17-2.682-3.743-1.512-5.749
		c0.76-1.3,2.156-2.097,3.662-2.085c1.385,0,2.556,0.645,3.344,1.623c1.879,1.125,2.491,3.561,1.366,5.438
		c-0.53,0.891-1.391,1.535-2.393,1.8l1.671,8.359c1.242,0.311,2.342,0.573,3.344,0.86c2.508-7.405,3.63-18.631-8.551-24.937
		c0,0,17.269,4.061,11.942,25.939l1.792,0.62c1.576-3.462,1.313-11.703,1.313-11.703l2.317-3.009
		c-1.434-5.875-5.638-11.848-15.884-15.646c0,0,11.942,1.315,17.865,12.946l2.461-3.271c-3.464-6.307-11.059-11.513-20.78-14.381
		l-12.467,30.479c2.149,0.073,4.251,0.237,6.304,0.429l4.181-7.738L227.704,260.96z"/>
	<path fill="#FFFFFF" d="M195.531,253.723c-1.982,0-3.583,1.624-3.583,3.583c0,1.957,1.6,3.629,3.583,3.629
		c1.983,0,3.583-1.672,3.583-3.629C199.115,255.347,197.514,253.723,195.531,253.723z M233.46,257.329
		c0-1.981-1.625-3.583-3.583-3.583c-1.979,0-3.582,1.605-3.582,3.583c0,1.979,1.604,3.584,3.582,3.584
		C231.835,260.913,233.46,259.312,233.46,257.329L233.46,257.329z M172.698,266.501c0.027-0.83-0.625-1.525-1.456-1.552
		c-0.008,0-0.017,0-0.024,0c-0.144,0-0.287,0-0.406,0.047l0.478,3.058c0.82-0.063,1.448-0.754,1.433-1.577L172.698,266.501z"/>
	<path fill="#FFFFFF" d="M171.217,261.987c-0.306,0.004-0.611,0.045-0.908,0.118l0.095,0.573c0.262-0.084,0.537-0.125,0.812-0.118
		c2.03,0,3.63,1.769,3.63,3.94c0,1.981-1.362,3.583-3.105,3.895l0.096,0.573c2.144-0.434,3.661-2.353,3.583-4.538
		c0.067-2.393-1.812-4.389-4.204-4.468V261.987z M253.332,266.501c0,0.837,0.574,1.481,1.361,1.553l0.526-3.104h-0.43
		c-0.836,0-1.481,0.716-1.481,1.552H253.332z"/>
	<path fill="#FFFFFF" d="M254.193,270.991l0.096-0.573c-1.844-0.37-3.154-2.014-3.105-3.893c0-2.149,1.6-3.94,3.582-3.94
		c0.284-0.011,0.567,0.03,0.836,0.118l0.119-0.571c-0.312-0.085-0.632-0.134-0.955-0.145c-2.316,0-4.204,2.03-4.204,4.538
		c0,2.246,1.577,4.107,3.632,4.443V270.991z M214.878,235.738c0-1.038-0.827-1.886-1.863-1.912c-1.056,0-1.911,0.857-1.911,1.912
		c0,1.05,0.86,1.863,1.911,1.863c1.015,0.014,1.849-0.8,1.863-1.816C214.878,235.77,214.878,235.754,214.878,235.738z
		 M223.142,241.231c1.016,0.013,1.85-0.799,1.863-1.814c0-0.018,0-0.032,0-0.049c0.026-1.029-0.786-1.884-1.814-1.908
		c-0.017-0.002-0.033-0.002-0.049-0.002c-1.055,0-1.91,0.854-1.91,1.91C221.258,240.404,222.105,241.231,223.142,241.231z
		 M201.909,241.231c1.036,0,1.875-0.84,1.875-1.875c0-1.034-0.839-1.874-1.875-1.874c-1.035,0-1.875,0.84-1.875,1.874
		C200.034,240.391,200.874,241.231,201.909,241.231z"/>
</g>
<g>
	<circle fill="#111111" cx="195.531" cy="257.329" r="3.201"/>
	<circle fill="#111111" cx="229.854" cy="257.329" r="3.201"/>
	<path fill="#111111" d="M212.895,262.632c0.24,0.145,0.478,0.238,0.813,0.238c1.055,0,1.911-0.854,1.911-1.91
		c0-0.763-0.478-1.434-1.099-1.719c0.286,0.357,0.476,0.787,0.476,1.289c0,1.194-0.954,2.148-2.148,2.148L212.895,262.632z"/>
	<circle fill="#111111" cx="212.895" cy="260.53" r="1.72"/>
	<circle fill="#111111" cx="213.015" cy="235.739" r="1.672"/>
	<circle fill="#111111" cx="223.142" cy="239.345" r="1.672"/>
	<circle fill="#111111" cx="201.909" cy="239.345" r="1.672"/>
	<path fill="#111111" d="M203.031,277.298h-0.048c0.239,0.118,0.549,0.237,0.86,0.237c1.055,0,1.911-0.854,1.912-1.908
		c0-0.017,0-0.033,0-0.049c-0.018-0.714-0.432-1.36-1.075-1.672c0.295,0.365,0.463,0.817,0.478,1.29
		c0,1.194-0.956,2.102-2.102,2.102H203.031z M186.67,280.186h-0.048c0.248,0.165,0.54,0.249,0.835,0.239
		c1.056,0,1.912-0.854,1.912-1.912c0.012-0.732-0.409-1.407-1.075-1.719c0.311,0.383,0.478,0.789,0.478,1.314
		C188.772,279.257,187.817,280.186,186.67,280.186z M221.804,277.298c0.239,0.118,0.478,0.237,0.812,0.237
		c1.055,0.032,1.936-0.798,1.966-1.854c0.022-0.772-0.424-1.484-1.13-1.8c0.307,0.379,0.475,0.85,0.478,1.337
		c0,1.195-0.955,2.104-2.149,2.104L221.804,277.298z M238.19,280.186c0.237,0.169,0.477,0.239,0.812,0.239
		c1.057,0,1.911-0.854,1.911-1.912c0-0.73-0.417-1.398-1.075-1.719c0.311,0.383,0.479,0.789,0.479,1.314
		c0,1.147-0.955,2.077-2.15,2.077H238.19z"/>
	<circle fill="#111111" cx="203.031" cy="275.195" r="1.72"/>
	<circle fill="#111111" cx="186.67" cy="278.085" r="1.719"/>
	<circle fill="#111111" cx="221.804" cy="275.195" r="1.72"/>
	<circle fill="#111111" cx="238.19" cy="278.085" r="1.719"/>
	<path fill="#111111" d="M170.453,260.768l2.054,0.096l-0.884-2.628L170.453,260.768z M175.206,262.297l0.597-2.745l-2.293,1.671
		L175.206,262.297z M178.693,262.87l-2.794,0.24l0.884,1.839L178.693,262.87z M176.782,268.029l2.723-0.812l-2.532-1.241
		L176.782,268.029z M176.543,268.771l-1.122,1.719l2.747,0.55L176.543,268.771z M172.53,272.138l1.983,2.006l-0.095-2.866
		L172.53,272.138z M254.407,258.214l-0.955,2.628l2.102-0.073L254.407,258.214z M252.496,261.198l-2.269-1.672l0.573,2.771
		L252.496,261.198z M250.132,263.11l-2.818-0.24l1.911,2.079L250.132,263.11z M249.081,265.976l-2.579,1.241l2.724,0.812
		L249.081,265.976z M247.838,271.062l2.747-0.572l-1.123-1.743L247.838,271.062z M251.588,271.302l-0.096,2.866l2.007-2.03
		L251.588,271.302z M206.088,231.343l6.927-11.895l6.926,11.943h5.494l0.669-1.339h-5.493l-6.879-11.87l3.391-5.828l0.812-0.836
		l-0.549-0.836l-1.265,0.119l-0.191,1.052l-2.914,5.015l-2.914-5.015l-0.24-1.052l-1.241-0.119l-0.549,0.86l0.812,0.86l3.392,5.804
		l-6.927,11.846h-5.493l0.717,1.314L206.088,231.343z"/>
</g>
</svg>
