<?xml version="1.0" encoding="utf-8"?>
<!-- Generator: Adobe Illustrator 15.1.0, SVG Export Plug-In . SVG Version: 6.00 Build 0)  -->
<!DOCTYPE svg PUBLIC "-//W3C//DTD SVG 1.1//EN" "http://www.w3.org/Graphics/SVG/1.1/DTD/svg11.dtd">
<svg version="1.1" id="Layer_1" xmlns="http://www.w3.org/2000/svg" xmlns:xlink="http://www.w3.org/1999/xlink" x="0px" y="0px"
	 width="435.031px" height="352.309px" viewBox="0 0 435.031 352.309" enable-background="new 0 0 435.031 352.309"
	 xml:space="preserve">
<g>
	<path fill="#FFFFFF" d="M272.708,269.074c-3.892,0.35-6.763,3.788-6.413,7.68s3.788,6.763,7.68,6.413
		c3.891-0.351,6.763-3.788,6.413-7.68C280.038,271.596,276.599,268.724,272.708,269.074L272.708,269.074z M273.81,281.655
		c-3.035,0.246-5.695-2.017-5.94-5.052c-0.245-3.036,2.017-5.695,5.052-5.941c3.003-0.242,5.646,1.969,5.934,4.969
		c0.272,3.056-1.985,5.753-5.042,6.024C273.812,281.655,273.811,281.655,273.81,281.655z"/>
	<path fill="#FFFFFF" d="M276.057,274.22c-0.119-1.305-1.268-2.271-2.574-2.165l-3.389,0.307l0.714,8.027l1.491-0.123l-0.286-3.268
		l1.083-0.082l1.837,3.125l1.635-0.123l-1.879-3.269c0.909-0.445,1.459-1.397,1.388-2.409L276.057,274.22z M273.77,275.324
		l-1.9,0.163l-0.163-1.776l1.899-0.144c0.49-0.035,0.917,0.328,0.96,0.816c0.035,0.49-0.328,0.917-0.816,0.961L273.77,275.324z"/>
</g>
<path fill="#E2D6B5" d="M406.977,60.46c0.163,0,15.013-11.703,15.013-11.703s-59.497-16.135-130.513-11.928
	c0,0-10.068-33.802-57.76-34.149c-35.477-0.225-55.901,21.895-62.294,39.153C104.37,56.334,53.208,90.238,53.208,90.238L65.4,99.634
	c-31.576,16.462-64.152,42.932-64.152,42.932s3.063,15.992,22.263,41.542c0,0,12.867,10.008,46.874,23.121
	c0,0,6.536-1.593,9.804-3.207c4.657,1.573,9.477,2.92,14.215,3.819c-0.205,4.29-1.512,10.457,6.372,17.77l-5.78,3.063
	c0,0,6.985,17.666,46.159,27.205c15.032-3.533,83.27-15.931,106.493,27.104l119.359-115.806l-25.243-0.144l93.951-98.649
	c0,0-15.441-5.27-28.758-7.965L406.977,60.46z"/>
<path fill="#024930" d="M413.024,73.225c-14.4-5.576-33.62-9.722-33.62-9.722l12.051-9.191
	c-64.705-13.439-109.147-9.64-109.147-9.64s-8.641-33.762-51.796-34.048c-41.727-0.286-54.493,36.907-54.493,36.907
	c-57.229,10.825-111.21,43.3-111.21,43.3l13.031,10.008C44.037,117.178,8.927,145.16,8.927,145.16
	c4.861,15.44,19.199,34.211,19.199,34.211c13.317,9.395,42.687,21.077,42.687,21.077c4.228-0.939,8.844-3.472,8.844-3.472
	s14.583,5.922,30.228,6.025c5.678,0,12.05-0.613,12.091-2.859c0-3.841-11.683-5.107-11.642-9.396c0-3.165,7.067-7.516,33.802-7.353
	c15.992,0.123,34.108,1.369,34.108,1.369c-13.153-0.082-39.071,3.063-39.112,9.191c0,4.778,17.565,5.146,17.524,11.56
	c-0.082,9.272-13.848,12.356-29.88,12.255c-14.359-0.103-21.16-4.229-24.407-4.29c-1.267,0-2.042,0.613-2.042,1.431
	c0,3.349,6.332,10.109,11.438,12.05l-6.944,3.942c7.7,10.354,36.56,18.259,36.56,18.259
	c82.657-17.422,107.759,23.896,107.759,23.896l97.424-99.426l-22.753-0.163l89.255-100.284L413.024,73.225z"/>
<g>
	<path fill="#AF1E24" d="M268.806,55.926c1.166,4.687,1.423,9.554,0.756,14.338c17.509,1.867,34.773,5.563,51.51,11.029
		c-18.892,0.491-38.192,2.145-56.779,4.392c-11.353,19.076-36.021,25.336-55.097,13.983c-2.12-1.261-4.119-2.715-5.972-4.343
		c-38.806,7.476-66.113,15.052-66.113,15.052c19.199,1.022,30.023,5.515,30.023,5.515c-49.672,9.681-95.933,28.492-110.965,34.925
		c3.533,5.719,8.17,12.397,8.17,12.397l-7.476,9.129c13.215,2.514,29.616,1.226,29.616,1.226l24.713-14.91l19.28,5.924l5.883-7.904
		l-6.332-0.042l12.867-20.424l10.519,20.567h-4.799l3.206,7.067l13.358-2.247l5.719-7.189l-5.065-0.041l7.679-11.642h-5.719
		l12.153-20.22l10.11,21.037l-4.555-0.041l6.781,12.295l-5.412-0.062l10.968,20.302l11.193-15.481l-7.619-0.082l11.601-17.156
		l-7.352-0.062l16.747-28.267l14.134,28.799h-5.964l9.661,16.952l-6.903-0.04l9.333,21.037l16.237-26.144l-8.863-0.062
		l13.275-21.241l-8.088-0.102l17.81-35.539l18.179,37.479l-6.496-0.041l11.765,19.73l-8.128-0.082l8.945,19.526l15.032-22.468
		l-7.965-0.081l17.36-24.713l-9.253-0.062l27.88-37.908l14.338,26.287L385.9,78.474c-35.539-13.562-76.143-20.976-117.094-22.589
		V55.926z M189.601,64.891c0-1.634,0.143-3.268,0.347-4.901c-37.335,5.433-72.2,15.87-100.569,30.984
		c0,0,43.708-14.951,100.569-20.629C189.718,68.536,189.603,66.715,189.601,64.891z"/>
</g>
<g>
	<path fill="#EDAA00" d="M268.806,55.926c-26.347-1.054-52.736,0.299-78.837,4.044c-0.205,1.634-0.327,3.268-0.347,4.902
		c0,1.879,0.122,3.676,0.347,5.473c24.856-2.491,52.246-3.165,79.593-0.102c0.621-4.772,0.364-9.617-0.756-14.297V55.926z
		 M229.49,105.311c14.258,0.1,27.501-7.361,34.803-19.607c-21.813,2.614-42.687,6.087-61.028,9.6
		c6.985,6.168,16.136,9.926,26.205,10.008H229.49z"/>
	<path fill="#EDAA00" d="M230.021,25.044c-20.246-0.129-37.414,14.849-40.032,34.925c0,0,20.18-8.925,74.957-14.052
		C257.958,33.133,244.59,25.143,230.021,25.044z"/>
</g>
<path fill="#FFFFFF" d="M234.268,79.699c-52.388,1.348-99.588,14.093-99.588,14.093l-1.062-6.944l-4.84,8.026
	c-0.041,0-23.774,8.518-39.46,16.626c20.097-6.802,36.396-10.927,36.396-10.927c-1.634,3.472-3.268,6.801-4.942,10.273
	c3.063-2.655,5.923-5.229,8.946-7.904c2.165,1.185,4.228,2.349,6.373,3.472l-0.817-7.618c0,0,52.899-14.338,98.977-19.097H234.268z"
	/>
</svg>
