<?xml version="1.0" encoding="utf-8"?>
<!-- Generator: Adobe Illustrator 15.1.0, SVG Export Plug-In . SVG Version: 6.00 Build 0)  -->
<!DOCTYPE svg PUBLIC "-//W3C//DTD SVG 1.1//EN" "http://www.w3.org/Graphics/SVG/1.1/DTD/svg11.dtd">
<svg version="1.1" id="Layer_1" xmlns="http://www.w3.org/2000/svg" xmlns:xlink="http://www.w3.org/1999/xlink" x="0px" y="0px"
	 width="435.031px" height="352.309px" viewBox="0 0 435.031 352.309" enable-background="new 0 0 435.031 352.309"
	 xml:space="preserve">
<g>
	<path fill="#FFFFFF" d="M394.448,147.982l31.981-33.606l-18.181-83.77l-80.85-24.021l-7.3,6.759
		C293.11,5.289,244.455-3.047,211.981-3C91.706-2.765-2.803,64.119-3.203,149.302c0,72.889,62.88,153.856,216.203,153.856
		c121.535,0,230.811-80.896,230.811-80.896l-49.362-74.255V147.982z M414.207,252.076c-5.007,0-9.067,4.06-9.067,9.067
		c0,5.007,4.061,9.066,9.067,9.066c5.008,0,9.066-4.06,9.066-9.066C423.273,256.135,419.214,252.076,414.207,252.076
		L414.207,252.076z M414.207,268.232c-3.928,0.012-7.122-3.16-7.136-7.089c-0.013-3.928,3.161-7.123,7.089-7.137
		c3.928-0.019,7.128,3.149,7.147,7.077s-3.149,7.128-7.077,7.148H414.207z"/>
	<path fill="#FFFFFF" d="M417.905,259.024c0-1.692-1.371-3.062-3.062-3.062h-4.38v10.314h1.955v-4.239h1.412l1.956,4.239h2.119
		l-2.05-4.381c1.24-0.423,2.072-1.587,2.073-2.896L417.905,259.024z M414.842,260.154h-2.425v-2.261h2.425
		c0.636,0,1.131,0.471,1.131,1.106s-0.471,1.132-1.131,1.132V260.154z"/>
	<path fill="#292C74" d="M383.755,147.064l33.56-35.255l-16.202-74.608l-71.499-21.196l-7.302,6.783
		c-24.116-7.96-75.737-17.476-110.283-17.428C94.744,5.595,5.534,69.936,5.204,149.302C4.828,232.552,85.583,294.75,213.046,294.75
		c89.271,0,180.648-47.572,219.271-74.655l-48.514-73.007L383.755,147.064z"/>
	<path fill="#FFFFFF" d="M371.18,154.812c0,0-50.634,34.572-106.449,44.982v-98.089c60.596,7.631,96.51,47.243,96.51,47.243
		l40.413-41.756L388.702,48.67l-55.227-16.155l-6.994,7.606c-22.373-8.761-68.626-20.112-119.849-20.112
		c-102.539,0-186.285,58.1-186.449,129.764c-0.142,69.852,70.934,130.306,185.672,130.306c106,0,182.541-50.517,206.491-64.058
		l-41.166-61.232V154.812z M196.247,136.325V96.124c13.989-0.659,29.578,0.048,40.6,1.366v38.859h-40.576L196.247,136.325z
		 M236.825,162.937v40.437c-13.488,1.392-27.091,1.676-40.625,0.849v-41.31h40.625V162.937z M167.115,98.479v102.963
		c-16.91,0-70.84-19.829-70.84-51.057c0-38.623,55.108-49.292,70.84-51.882V98.479z"/>
	<g>
		<path fill="#FFFFFF" d="M152.301,183.497v-67.049c-19.311,5.652-41.048,16.58-41.048,33.913
			C111.253,162.255,129.575,176.596,152.301,183.497z M344.803,153.353c-18.659-16.444-41.002-28.157-65.142-34.149v61.938
			C302.425,174.56,324.3,165.228,344.803,153.353L344.803,153.353z M207.15,124.55h18.982v-15.708l-18.982-0.753V124.55z
			 M206.727,175.302h19.523v16.484h-19.523V175.302z"/>
	</g>
	<path fill="#DD3626" d="M368.212,169.367c-66.225,38.858-110.357,46.442-164.17,45.923
		c-75.598-0.706-118.648-30.945-118.648-66.978c0-32.5,39.494-63.445,120.202-63.445c54.33,0,119.778,14.554,154.751,49.032
		l29.084-29.674l-9.891-47.101l-42.909-12.529l-7.772,8.808c-23.55-9.42-63.351-22.467-124.511-22.467
		c-92.318,0-173.237,53.318-173.237,117.847c0,67.401,70.486,120.25,170.506,120.25c101.479,0,161.015-38.224,195.399-56.286
		l-28.731-43.403L368.212,169.367z"/>
</g>
</svg>
