<?xml version="1.0" encoding="utf-8"?>
<!-- Generator: Adobe Illustrator 15.1.0, SVG Export Plug-In . SVG Version: 6.00 Build 0)  -->
<!DOCTYPE svg PUBLIC "-//W3C//DTD SVG 1.1//EN" "http://www.w3.org/Graphics/SVG/1.1/DTD/svg11.dtd">
<svg version="1.1" id="Layer_1" xmlns="http://www.w3.org/2000/svg" xmlns:xlink="http://www.w3.org/1999/xlink" x="0px" y="0px"
	 width="435.031px" height="352.309px" viewBox="0 0 435.031 352.309" enable-background="new 0 0 435.031 352.309"
	 xml:space="preserve">
<path fill="#FCB514" d="M423.507,104.288c-0.497-1.221-1.424-2.218-2.604-2.804L397.99,90.468l-7.07-5.448l-10.274-12.738
	L377.24,57.06c-0.327-1.47-1.258-2.734-2.563-3.485l-16.104-9.153l-10.114-10.135c-0.48-0.478-1.044-0.865-1.663-1.142
	l-63.01-27.399c-1.011-0.432-2.125-0.557-3.205-0.36L194.775,22.53c-23.373-1.803-43.863,1.121-44.724,1.241
	c-5.248,0.882-5.288,6.57-3.445,8.413L18.12,57.821c-1.278,0.252-2.418,0.964-3.204,2.003L1.295,77.71
	c-2.403,3.205-0.6,8.012,3.605,8.572c0.922,0.14,93.856,12.878,93.856,69.24c0,20.752-14.221,41.183-14.421,41.363
	c-2.043,2.924-0.801,7.61,3.445,8.412l52.476,9.453c4.006,3.205,17.366,12.579,36.793,12.579c23.033,0,29.522-8.713,31.005-15.824
	c11.417-4.866,25.757-16.383,25.757-25.637c0-5.808-5.207-9.674-10.074-9.674c-0.561,0-1.062,0.2-1.603,0.261
	c0,0-2.403-4.526-8.352-4.526c-2.544,0-5.288,1.241-7.411,2.163c5.208-6.052,13.921-13.222,27.841-17.869
	c21.431-7.089,49.411-13.119,63.431-15.943c-21.29,61.892-94.215,94.34-94.977,94.7c-4.346,1.902-3.545,7.41-1.803,8.531
	l-7.931,3.605c-5.689,2.483-3.285,10.756,2.604,10.255c76.952-6.529,133.553-33.488,172.97-82.199h15.862
	c0.901,0,1.803-0.24,2.604-0.66c15.503-8.675,25.918-8.314,26.037-8.314c2.131,0.092,4.117-1.066,5.088-2.965
	c7.691-15.623,15.963-23.914,16.023-23.975c1.572-1.511,2.064-3.828,1.241-5.848L423.507,104.288z"/>
<path fill="#002654" d="M395.167,95.075l-8.013-6.169l-11.456-14.221l-3.666-16.424l-16.723-9.514l-10.616-10.675l-63.012-27.4
	l-86.524,17.285c-23.394-1.963-44.345,1.102-44.345,1.102l7.291,6.269L19.162,63.069L5.542,80.954c0,0,98.582,12.718,98.582,74.508
	c0,22.835-15.382,44.506-15.382,44.506l53.878,9.714c0,0,13.379,12.218,34.45,12.218c24.436,0,26.037-10.275,26.037-14.26
	c10.756-3.466,25.357-15.303,25.357-21.832c0-2.604-2.744-4.306-4.687-4.306c-1.643,0-3.845,1.281-5.647,2.082
	c1.04-2.304-0.402-6.328-4.327-6.328c-3.265,0-8.772,4.606-19.488,5.607c0,0,8.152-21.833,38.195-31.748
	c30.345-10.095,72.986-17.927,72.986-17.927c-18.027,70.805-100.686,106.657-100.686,106.657l30.503-6.871
	c-14.14,7.472-40.217,18.948-40.217,18.948c76.851-6.529,132.792-32.988,172.048-83.663l2.685,1.443h14.561
	c17.325-9.674,28.882-8.954,28.882-8.954c8.252-16.764,17.105-25.437,17.105-25.437l-11.857-29.042l-23.435-11.217L395.167,95.075z"
	/>
<path fill="#FFFFFF" d="M78.207,94.314c2.965,1.803,5.808,3.685,8.573,5.688c2.463,1.802,4.807,3.605,7.07,5.568
	c0.48-2.924,1.082-5.729,1.803-8.412c5.207-19.829,15.823-33.048,15.823-33.048c-14.521,5.473-26.41,16.273-33.248,30.204H78.207z"
	/>
<g>
	<path fill="none" d="M290.354,29.24l-10.334-5.067l-33.248,7.37c0,0,6.889,7.852,6.889,21.271c0,4.326-1.001,8.512-2.743,12.558
		l15.222,1.202c0-0.541-0.2-0.921-0.2-1.463c0-26.478,24.436-35.852,24.436-35.852L290.354,29.24z M266.119,66.553l-15.222-1.162"/>
</g>
<path fill="none" d="M267.361,75.406c-0.749-2.88-1.166-5.837-1.242-8.813c0-0.541-0.2-0.921-0.2-1.462
	c0-26.478,24.436-35.852,24.436-35.852l-10.334-5.107l-33.248,7.37c0,0,6.889,7.852,6.889,21.271c0,4.326-1.001,8.512-2.743,12.558
	c-1.402,3.265-3.205,6.409-5.469,9.454c-11.355,15.021-32.907,26.839-53.938,32.347c-4.326,1.122-7.331,2.844-9.414,5.288
	c-0.867,1.034-1.569,2.196-2.083,3.445l-8.752,20.43c-26.318,11.216-30.564,34.71-28.501,48.032
	c0.701-19.19,20.469-46.51,53.137-40.662c0,0,4.607-9.253,14.921-16.924c-2.483-5.608-2.904-12.218-1.281-19.228
	c0.14,6.87,1.862,12.618,4.706,16.964c2.945-1.802,6.009-3.345,9.254-4.566c-0.941-7.011,0.921-14.361,5.468-21.291
	c-2.604,7.471-2.764,14.321-1.082,19.889c3.272-0.916,6.627-1.506,10.015-1.763c1.002-8.352,5.688-15.883,13.5-21.771
	c-5.888,7.311-8.532,14.922-8.212,21.631c4.887,0.1,9.614,0.841,14.101,2.203l12.057-13.219l10.216-11.216
	c-0.041,0-8.673-6.709-12.138-19.028L267.361,75.406z"/>
<path fill="#FFFFFF" d="M384.11,116.005l12.018-4.206c0,0,14.221,9.013,20.59-2.563l-21.731-10.215
	c-5.407,3.156-11.37,5.243-17.566,6.149c-16.283,2.343-28.721-4.507-28.721-4.507c-13.52,0-22.752,2.143-30.645,6.108
	c-6.47,3.205-12.077,7.611-18.428,13.019l19.029-20.89l2.924-17.365c0,0,5.968,14.501,22.393,14.501
	c7.951,0,14.02-4.407,14.02-4.407c17.825,13.46,34.17,6.009,34.17,6.009l-6.089-5.067l-5.809,3.104l3.605-5.448l-2.204-2.523
	l-7.911,4.066l4.927-7.491l-1.701-2.003l-6.65,2.944l3.807-6.489l-2.665-4.106l-2.523-13.179l-15.963-7.731L342.029,43.5
	L280.7,18.664l-60.387,13.419c14.221,3.405,25.997,10.856,25.997,10.856s4.547,10.415-1.341,21.992
	c-10.921,0.394-21.447,4.173-30.125,10.815c-13.819,10.416-19.668,24.556-19.668,24.556l-9.354,2.163l10.816-25.297l3.904-9.133
	c-24.234,3.565-35.13-17.024-35.13-17.024l-1.843-6.309L23.047,76.147c15.163,1.042,31.847,5.869,47.108,13.62
	c3.605-12.117,12.619-21.511,12.619-21.511l77.151-17.245c0,0,3.005,9.915,16.224,17.866l-0.26,2.403
	c-6.108,1.242-15.703,5.208-24.836,12.358c-16.134,12.302-25.476,31.528-25.176,51.815c0,12.478,4.146,22.713,4.146,22.713
	s-5.208-7.01-8.212-18.928c-1.302-5.007-2.203-10.815-2.203-17.425c0-12.258,3.525-23.915,7.511-33.168
	c5.148-11.978,11.056-19.929,11.056-19.929s-16.824,6.85-28.441,24.315c-3.605,5.408-6.67,11.877-8.612,19.468
	c8.372,8.853,14.581,18.987,17.385,30.044c1.062,4.205,1.643,8.572,1.643,13.078c0,21.373-8.933,34.852-8.933,34.852l29.944,6.069
	c0,0,11.316,16.464,35.611,16.464c7.691,0,17.786-0.861,17.786-5.769c0-3.705-9.073-8.731-9.073-19.428
	c0-17.428,21.872-35.494,45.346-43.225c27.438-9.012,69.3-19.568,90.39-19.568c59.768,0,57.804,39.457,57.804,39.457l2.885-0.14
	c8.766-5.004,18.48-8.122,28.521-9.153l1.002-0.06c0,0,5.908-11.017,12.758-18.988c-0.061,0-8.933-18.626-40.098-20.169
	L384.11,116.005z"/>
<path fill="#FFFFFF" d="M190.31,189.814c1.942,8.732,7.771,11.217,8.332,14.421c0,0,15.102-3.085,25.157-18.026
	c-19.589,9.814-33.509,3.605-33.509,3.605 M367.326,153.76c0-8.552-14.121-16.724-20.771-16.724
	c-27.38,0-27.038,58.186-123.579,107.477c82.239-11.816,144.35-67.777,144.35-90.732 M169.7,49.008c0,0,8.813,14.982,24.516,14.982
	l16.303-1.122l13.419-14.02l18.307-2.804c-6.946-4.089-14.43-7.19-22.231-9.213L204.69,58.221l9.733-22.732
	c-2.808-0.617-5.632-1.152-8.472-1.603l-13.159,18.426l8.151-19.067c-3.328-0.406-6.667-0.713-10.014-0.921l-10.054,14.06
	l6.109-14.281c-14.221-0.6-24.636,0.561-24.636,0.561l3.505,3.005l3.866,13.299L169.7,49.008z"/>
<g>
	<path fill="#FCB514" d="M127.178,88.666c-6.31,1.481-12.117,2.964-17.365,4.406c-3.605,5.408-6.69,11.877-8.612,19.468
		c8.352,8.853,14.561,18.988,17.365,30.044c0.841-0.921,1.963-2.083,3.285-3.345c-1.302-5.007-2.204-10.815-2.204-17.425
		c0-12.258,3.525-23.915,7.511-33.148 M93.83,105.57c0.481-2.924,1.082-5.729,1.803-8.412c-3.405,1.042-6.349,2.002-8.853,2.804
		c2.463,1.803,4.807,3.665,7.07,5.608 M396.127,111.779c0,0-8.212-3.745-18.728-6.609c-16.283,2.343-28.721-4.507-28.721-4.507
		c-13.521,0-22.754,2.143-30.645,6.108c87.187,7.672,98.143,27.04,92.334,48.471l1.041-0.081c0,0,5.888-11.015,12.738-18.967
		c0,0-8.873-18.627-40.058-20.169l12.018-4.247H396.127z M195.116,100.282l-9.333,2.203l10.815-25.296
		c-16.424,1.603-31.746,3.886-45.526,6.47c-16.134,12.298-25.464,31.531-25.136,51.815c0,12.478,4.146,22.713,4.146,22.713
		c-3.405-14.42,4.486-28.602,4.486-28.602s18.187-11.617,47.528-17.084c2.063-2.484,5.048-4.207,9.414-5.308
		c21.03-5.468,42.562-17.346,53.918-32.367c-10.515-0.04-20.771,0.28-30.645,0.881c-13.819,10.415-19.688,24.556-19.688,24.556
		 M321.559,81.555c-17.914-3.22-36.018-5.281-54.198-6.169c3.465,12.318,12.098,19.028,12.098,19.028l-10.215,11.216
		c18.428-0.32,37.654,0.441,37.654,0.441l-7.271,13.7l18.989-20.891l2.964-17.325H321.559z"/>
</g>
<g>
	<path fill="#002654" d="M290.354,29.24l-10.334-5.067l-33.248,7.37c0,0,6.869,7.852,6.869,21.271
		c0,7.771-3.064,15.222-8.212,22.032c-11.355,15.022-32.907,26.879-53.938,32.347c-4.327,1.122-7.331,2.844-9.414,5.287
		c-0.867,1.035-1.57,2.197-2.083,3.446l-8.753,20.429c-26.317,11.217-30.564,34.71-28.501,48.032
		c0.702-19.19,20.47-46.509,53.137-40.662c0,0,4.607-9.213,14.922-16.924c-2.463-5.607-2.905-12.217-1.262-19.228
		c0.12,6.87,1.862,12.618,4.687,16.964c2.944-1.802,6.008-3.344,9.254-4.566c-0.941-7.01,0.921-14.361,5.468-21.291
		c-2.604,7.471-2.765,14.32-1.082,19.888c3.245-0.881,6.609-1.502,10.015-1.762c1.002-8.352,5.688-15.883,13.5-21.771
		c-5.889,7.311-8.533,14.921-8.212,21.631c4.887,0.1,9.612,0.861,14.101,2.203l12.057-13.219l10.215-11.216
		c0,0-8.672-6.75-12.117-19.067c-0.943-3.343-1.417-6.802-1.403-10.275c-0.039-26.438,24.377-35.852,24.377-35.852 M357.011,80.013
		c-0.261-5.408,0.601-15.362-19.428-21.571l-23.975-7.371c0,0,18.525,16.564,18.525,20.31c-0.019,6.548,5.273,11.873,11.822,11.893
		c2.244,0.007,4.444-0.624,6.345-1.818l0.4,4.847c8.412,0.661,18.227-0.661,20.71-11.616c-3.445,7.911-11.056,6.81-14.421,5.327"/>
	<path fill="#002654" d="M362.098,78.451l3.005-11.517l-23.436-11.216c15.283,9.013,20.431,14.02,20.431,22.753"/>
</g>
<path fill="#FCB514" d="M345.654,79.572c2.484,0,4.347-1.201,4.347-1.201c-0.183-0.839-0.383-1.674-0.601-2.504
	c-0.739,0.489-1.599,0.766-2.484,0.801c-2.365,0.067-4.339-1.797-4.405-4.163c-0.001-0.068-0.002-0.136,0-0.203
	c0.022-1.976,1.355-3.694,3.264-4.207c-2.403-3.364-4.807-4.807-4.807-4.807s-4.146,2.323-4.146,7.471
	c0,5.147,4.307,8.812,8.813,8.812"/>
</svg>
