<?xml version="1.0" encoding="utf-8"?>
<!-- Generator: Adobe Illustrator 15.1.0, SVG Export Plug-In . SVG Version: 6.00 Build 0)  -->
<!DOCTYPE svg PUBLIC "-//W3C//DTD SVG 1.1//EN" "http://www.w3.org/Graphics/SVG/1.1/DTD/svg11.dtd">
<svg version="1.1" id="Layer_1" xmlns="http://www.w3.org/2000/svg" xmlns:xlink="http://www.w3.org/1999/xlink" x="0px" y="0px"
	 width="435.031px" height="352.309px" viewBox="0 0 435.031 352.309" enable-background="new 0 0 435.031 352.309"
	 xml:space="preserve">
<g>
	<path fill="#FFFFFF" d="M221.701-12.946c-107.755,0-195.126,84.289-195.126,188.25c0,103.959,87.372,188.248,195.126,188.248
		c107.771,0,195.143-84.289,195.143-188.248C416.843,71.343,329.471-12.946,221.701-12.946z M372.393,310.302
		c-5.342,0-9.672,4.329-9.672,9.671s4.33,9.672,9.672,9.672c5.354,0,9.694-4.341,9.694-9.695s-4.341-9.695-9.694-9.695l0,0V310.302z
		 M372.393,327.597c-4.205,0-7.612-3.409-7.612-7.612c0-4.205,3.407-7.613,7.612-7.613c4.203,0,7.612,3.408,7.612,7.613
		C380.005,324.188,376.596,327.597,372.393,327.597L372.393,327.597z"/>
	<path fill="#FFFFFF" d="M376.37,317.738c0-1.82-1.475-3.296-3.295-3.296h-4.659v11.061h2.118v-4.471h1.458l2.119,4.471h2.259
		l-2.188-4.659C375.495,320.376,376.372,319.132,376.37,317.738L376.37,317.738z M373.075,318.914h-2.541v-2.424h2.589
		c0.658,0,1.176,0.541,1.176,1.224s-0.518,1.224-1.176,1.224L373.075,318.914z"/>
</g>
<path fill="#F95602" d="M221.701,0.938c-100.083,0-181.219,78.03-181.219,174.367c0,96.336,81.136,174.365,181.219,174.365
	c100.1,0,181.235-78.055,181.235-174.365C402.936,78.991,321.8,0.938,221.701,0.938z"/>
<path fill="#003893" d="M391.241,164.998c-0.188-2.871-0.353-5.742-0.705-8.565h0.094c-5.177-42.663-27.39-80.242-60.005-106.408
	c-30.954-24.635-69.366-38.011-108.924-37.933c-22.524,0-43.985,4.236-63.704,11.884c-16.255,6.291-31.458,15.019-45.086,25.884
	C75.496,79.768,51.588,124.83,51.588,175.304c0,90.122,76.171,163.211,170.112,163.211c93.958,0,170.13-73.089,170.13-163.211
	c0-3.459-0.188-6.918-0.401-10.354"/>
<path fill="#FFFFFF" d="M205.012,267.546l23.182-5.507c2.07-0.471,3.765-1.883,4.705-3.836l14.401-30.684l12.755-27.18l8.941-19.131
	l4.471-9.411l9.107-19.39l48.098-102.408c-3.542-2.85-7.199-5.55-10.966-8.095l-30.12,61.181l-36.19-77.888
	c-0.416-0.928-1.337-1.526-2.354-1.53h-62.761c-1.43,0-2.588,1.159-2.588,2.589v51.016l-27.744-53.322
	c-16.254,6.291-31.457,15.019-45.085,25.885v94.972c0,1.459,1.176,2.588,2.588,2.588h35.674c1.412,0,2.589-1.177,2.589-2.588v-42.45
	l26.26,43.768c0.459,0.816,1.323,1.319,2.259,1.318h39.936c1.43,0,2.589-1.159,2.589-2.588V62.496l41.132,88.524l-4.941,9.977
	l-28.896,58.78l-4.94,10.048c-1.023,2.084-3.018,3.523-5.317,3.836l-78.105,10.753c-0.68,0.105-1.294,0.469-1.717,1.013
	c-0.41,0.57-0.579,1.281-0.471,1.976l4.707,31.227c0.223,1.464,1.591,2.471,3.056,2.248c0.064-0.01,0.128-0.021,0.191-0.037
	l7.766-1.834"/>
<g>
	<path fill="#F95602" d="M249.113,223.706l-15.131-7.718l-1.882,3.766l15.225,7.766L249.113,223.706z M255.114,210.953l-14.92-7.625
		l-1.882,3.86l15.014,7.623L255.114,210.953z M235.229,213.423l15.06,7.694l1.812-3.811l-15.013-7.648L235.229,213.423z
		 M180.657,273.357l-1.294-8.636c-0.079-0.459-0.42-0.827-0.871-0.941l-15.154-3.694c-0.616-0.151-1.24,0.214-1.412,0.823
		l-4.589,18.025l-8,31.203c-0.152,0.607,0.2,1.229,0.8,1.411l8.942,2.894c0.313,0.095,0.652,0.06,0.941-0.094
		c0.279-0.17,0.468-0.454,0.518-0.776l2.353-9.129l12.236,3.999l1.741,11.06c0.059,0.429,0.348,0.79,0.753,0.941l9.342,3.06
		c0.378,0.106,0.784,0.018,1.083-0.236c0.32-0.27,0.474-0.691,0.399-1.105l-7.718-48.875L180.657,273.357z"/>
	<path fill="#F95602" d="M261.042,160.997c-10.471-1.647-23.531,5.294-32.707,0.424c-10.499-0.33-22.806,0.376-32.124-4.565
		c-6.118-0.94-12.59-0.894-18.119-3.106c-2.965,5.554-6.354-1.812-9.883-0.706c-2.32,0.759-3.772,3.062-3.459,5.482
		c-1.177,5.742-8.119,2.4-11.718,4.8c-6.589,3.765-10.26-5.647-16.566-5.577c-4.33-1.177-9.412-0.635-11.836,3.765
		c-3.694,0.941-5.577-3.906-9.789-2.354c-2.918-1.812,1.317-3.059,0.235-5.248c-2.423-2.635-6.895-4.565-10.283-2.353
		c-0.612,4.471,4.235,8.377,1.647,13.13c-2.494,0.471-2.353-3.153-4.471-4c-2.4-1.177-2.518,1.765-3.812,2.918
		c-4.707-0.236-3.694-5.459-5.177-8.33c-5.482-0.848-9.883,2.494-14.354,4.471c-3.176,2.423-1.106,7.576-3.765,10.118
		c-2.118-1.647-1.953-4.659-4-6.542c-1.812-1.176-3.93-2-6.119-1.247c-2.024,0.471-2.588,2.188-3.012,3.954
		c0.046,1.059,1.106,1.882,2.259,1.576c1.317,0.33,2.353,1.883,1.741,3.248c-0.706,0.941-1.177,2.871-2.824,2.518
		c-1.765-1.694-4.306-4.094-6.824-3.06c-1.059,0.941,0,2.236,0,3.248c-1.177,3.881,1.647,6.116,3.765,8.846
		c0.706,3.059,1.012,7.459-1.294,9.648c-3.13,0.635-3.93,4.094-4.236,6.706c0.753,2.635,3.647,2.446,4.706,4.636
		c0.565,1.812-1.412,3.177-2.988,4.188c0.612,2.988,1.342,5.93,2.118,8.871c1.67-0.799,3.491-1.23,5.342-1.271
		c1.059,0.54,1.765,1.482,1.765,2.542c1.036,2.023,3.154,3.999,5.553,2.823c2.448-1.012,4.636-4.353,7.248-2.989v30.12l8.001,11.39
		c1.953,2.894,3.247,2.188,3.247-0.282v-42.074c4.188-0.094,8.942,0.353,12.801-1.177c7.647,0.518,16.778,2.635,23.414-1.719
		c5.883-1.058,11.295-3.058,17.648-3.011c4.283-0.377,8,1.529,12.048,1.247c6.283-7.106,15.202,1.317,22.637-3.2
		c5.765-2.941,10.683,2.211,16.872,1.271c3.882,0,9.765-4.354,13.13,0.823c2.824,1.411,6.825,0.87,9.248-0.941
		c1.479-5.413,7.745-3.295,11.839-4.566c2.707-0.563,8.048-3.34,11.672-3.104l0.706-1.53l14.872,7.53l1.788-3.766l-14.778-7.529
		l17.696-36.071L261.042,160.997z M286.268,164.621c4.235-5.577,15.014,1.083,16.401-7.53c1.647-4.471,6.754-2.823,9.883-5.012
		c0.942-1.647-0.705-2.824-1.034-4.306c4.117-4.472,9.647-7.601,14.118-12.237c3.153-3.106,8.095-2.4,12.166-2.47
		c1.883-1.177,4.636-2.824,5.06-5.036l-0.542-0.706c-5.879-0.668-11.833,0.008-17.413,1.977c-6,5.413-12.612,9.319-19.813,11.483
		c-4.941,6.259-15.154,9.177-22.449,11.695l-9.177,19.39c4.636-1.224,10.755-4.518,12.824-7.201L286.268,164.621z"/>
	<path fill="#F95602" d="M119.829,237.19l-16.236-14.637c-6.259-5.647-10.636-0.706-10.636,2.941v15.131
		c0,2.895,0.941,4.588,2.283,6.353l14.707,19.154c0.776,0.977,1.192,2.189,1.177,3.437v2.117c0,1.718-1.529,1.576-2.707,0.518
		l-3.176-2.706c-1.177-0.87-1.059-2.682-1.059-4.235v-1.953c0-1.035-1.106-2.895-2.212-3.766l-7.294-6.753
		c-1.176-1.059-1.647-0.165-1.647,2.684v8.753c0.341,3.82,2.104,7.373,4.941,9.953l16.802,15.154c4.094,3.647,7.6,0.095,7.6-8.33
		v-9.647c-0.157-4.677-1.778-9.188-4.635-12.896l-12.378-16.119c0,0-1.129-1.412-1.129-3.341v-1.648c0,0,0.47-2.446,2.399-0.705
		l3.153,2.824c0.892,0.861,1.387,2.054,1.365,3.294v2.283c0,1.341,0.353,2.353,1.576,3.458l5.93,5.319
		c2.447,2.259,3.671,0.635,3.671-1.343v-9.035c0.08-2.336-0.824-4.599-2.495-6.235V237.19z M147.29,299.783l-8.942-5.295v-44.402
		c0-0.472-0.235-0.989-0.659-1.271l-8.377-4.942c-0.471-0.234-1.012-0.234-1.459,0c-0.447,0.235-0.776,0.754-0.776,1.296v52.474
		c0,0.472,0.235,0.988,0.706,1.247l17.954,10.659c0.448,0.271,1.01,0.271,1.459,0c0.452-0.259,0.724-0.748,0.706-1.27v-7.295
		c-0.009-0.509-0.275-0.978-0.706-1.248L147.29,299.783z M262.76,265.004l-23.343,4.636c-0.671,0.142-1.158,0.726-1.176,1.412
		v52.474c0,0.4,0.234,0.801,0.518,1.084c0.282,0.281,0.753,0.399,1.176,0.328l22.825-4.07c11.248-2.001,11.248-8.754,11.248-10.213
		v-41.18C274.008,269.474,274.008,262.745,262.76,265.004L262.76,265.004z M302.928,249.332c-0.339-0.215-0.766-0.242-1.129-0.07
		l-21.037,10.282c-0.399,0.188-0.648,0.596-0.636,1.036v52.827c0,0.377,0.188,0.707,0.519,0.941
		c0.329,0.235,0.706,0.235,1.105,0.094l21.037-9.482c0.427-0.166,0.707-0.577,0.705-1.035v-7.459
		c0.009-0.409-0.197-0.792-0.54-1.013c-0.33-0.214-0.746-0.25-1.107-0.094l-8.848,4c-0.596,0.26-1.289-0.012-1.549-0.607
		c-0.062-0.143-0.096-0.296-0.098-0.451v-10.024c0-0.472,0.306-0.87,0.706-1.082l10.73-4.824c0.427-0.165,0.707-0.578,0.705-1.035
		v-7.53c-0.03-0.379-0.229-0.725-0.54-0.941c-0.337-0.224-0.768-0.251-1.131-0.07l-8.775,4.307
		c-0.377,0.164-0.777,0.141-1.131-0.071c-0.353-0.212-0.54-0.565-0.54-0.989v-10.658c0.007-0.461,0.282-0.876,0.705-1.06
		l10.824-5.295c0.386-0.211,0.622-0.619,0.612-1.059v-7.718c-0.003-0.388-0.209-0.744-0.541-0.942L302.928,249.332z M328.294,266.51
		c0,0,6.59-4.941,6.59-13.884v-13.789c0-7.366-4.707-8.047-10.071-4.353l-17.532,12.095c-0.302,0.217-0.478,0.569-0.47,0.941v52.238
		c-0.004,0.625,0.498,1.134,1.122,1.138c0.229,0.001,0.453-0.066,0.644-0.195l8.94-6.049c0.324-0.202,0.52-0.559,0.519-0.939
		v-20.144l1.835-1.294l9.789,12.824c0.385,0.477,1.07,0.579,1.576,0.235l6.519-4.4c0.235-0.188,0.471-0.471,0.471-0.776
		c0.066-0.318-0.02-0.649-0.235-0.895l-9.695-12.824V266.51z M352.862,206.129l-11.294,12.471
		c-2.918,3.296-3.531,6.754-3.531,10.754v5.318c0,3.719,0.706,7.06,5.53,8.095l6.165,1.412c2.001,0.47,3.106,0.988,3.106,2.423
		v1.412c0,2.165-0.47,2.684-1.412,3.601c-0.941,0.919-3.059,3.106-3.059,0.377v-2.354c0-1.953-0.801-1.953-2.048-0.706l-7.153,7.342
		c-0.847,0.753-1.224,1.647-1.224,3.177v4.707c0,8.4,4.377,10.071,8.801,4.235l10.707-14.166c3.175-4.328,4.731-9.633,4.4-14.989
		c0-4.001-3.436-5.647-5.883-6.118l-5.248-0.895c-1.883-0.353-2.353-1.647-2.353-3.436v-2.824c0-0.894,0-3.176,1.482-4.753
		l1.059-1.083c1.105-1.129,1.883-1.104,1.883,0.942v4.094c0,0.847,0.471,1.342,1.247,0.542l6.542-6.753
		c1.105-1.178,1.246-2.941,1.246-4.165v-6.825c0-7.153-4.87-6.494-9.013-1.883L352.862,206.129z M278.879,213.187
		c-13.248,0-23.954,3.601-23.954,8.072v13.271c0,4.471,10.706,8.07,23.931,8.07c13.178,0,23.884-3.6,23.884-8.07V221.26
		c0-4.472-10.753-8.072-23.931-8.072H278.879z M274.644,194.269c5.129,3.906,5.977-3.531,10.118-4.001
		c2.589-0.564,4.801,1.718,6.448,3.6c6.211,2.59,13.694,0.848,18.73-3.293c5.413-2.354,12.331-1.412,17.837-3.766
		c3.67-2.447,7.224-5.343,12.401-4.471c15.342-5.295,37.272-12.87,53.227-18.471c-0.188-2.824,0.354-4.635,0-7.459l-6.353,1.176
		c-2.188,8.071-11.484,2.706-15.39,8.472c-5.012,0.283-10.448,0.706-13.107,5.718c-1.6,0.471-3.906,0.471-4.518-1.412
		c1.083-4.612-6.447-6.235-2.988-11.153c-0.235-2.118-2.729-2.354-4.33-1.647c-3.342,1.177-3.577,4.777-4,7.695
		c-4.518,0.824-4.941-7.13-9.884-5.271c-4.894,4.887-11.893,7.029-18.684,5.718c-12.942-0.988-17.178,15.763-28.167,19.294
		c-4.705,0.753-11.836-1.977-16.989-3.812l-8.941,19.154l5.247-1.317c3.459-0.824,6.188-3.13,9.342-4.801V194.269z M230.593,270.227
		l-8.329-0.988c-0.423-0.047-0.797,0.07-1.125,0.354c-0.328,0.282-0.468,0.706-0.468,1.105v29.132l-15.377-31.908
		c-0.071-0.142-0.235-0.235-0.306-0.354c-0.235-0.254-0.551-0.421-0.895-0.47l-12.095-1.412c-0.799-0.104-1.531,0.46-1.635,1.258
		c-0.006,0.052-0.01,0.103-0.012,0.154v55.698c0,0.706,0.471,1.364,1.224,1.458l8.33,1.178c0.432,0.041,0.86-0.104,1.177-0.399
		c0.303-0.288,0.474-0.689,0.47-1.107v-33.79l18.181,35.46c0.262,0.508,0.79,0.82,1.358,0.801l9.312-0.47
		c0.797-0.026,1.426-0.687,1.412-1.483v-52.71c0.027-0.754-0.542-1.396-1.294-1.459L230.593,270.227z"/>
</g>
<path fill="#003893" d="M257.867,276.722l-8.354,1.647v35.297l8.872-1.601c4.353-0.776,4.353-5.741,4.353-5.741v-26.073
	c0,0,0-4.541-4.941-3.529H257.867z M322.176,247.544l-3.6,2.542c-0.312,0.207-0.492,0.564-0.47,0.939v9.297
	c0,0.47,0.234,0.822,0.588,1.035c0.377,0.188,0.825,0.161,1.176-0.071l2.541-1.742c1.507-1.244,2.399-3.081,2.448-5.035v-5.412
	c0-1.576-1.177-2.542-2.659-1.529L322.176,247.544z M173.198,297.264l-3.294-20.942l-4.659,18.354L173.198,297.264z M89.379,216.718
	v-11.365l-11.248-9.884v21.979c3.436-0.871,7.671,0.306,11.248-0.706V216.718z"/>
<ellipse fill="#FFFFFF" cx="278.856" cy="221.282" rx="23.932" ry="8.071"/>
</svg>
