<?xml version="1.0" encoding="utf-8"?>
<!-- Generator: Adobe Illustrator 15.1.0, SVG Export Plug-In . SVG Version: 6.00 Build 0)  -->
<!DOCTYPE svg PUBLIC "-//W3C//DTD SVG 1.1//EN" "http://www.w3.org/Graphics/SVG/1.1/DTD/svg11.dtd">
<svg version="1.1" id="Layer_1" xmlns="http://www.w3.org/2000/svg" xmlns:xlink="http://www.w3.org/1999/xlink" x="0px" y="0px"
	 width="435.031px" height="352.309px" viewBox="0 0 435.031 352.309" enable-background="new 0 0 435.031 352.309"
	 xml:space="preserve">
<g>
	<path fill="#FFFFFF" d="M420.112,44.923c0-50.668-57.026-50.668-64.735-50.668h-13.794c0,0,19.513,19.604,19.513,26.695
		c0,1.602-1.304,2.905-2.904,2.905h-49.708c-1.597-0.013-2.884-1.31-2.884-2.905c0-7.092,19.514-26.695,19.514-26.695
		c-18.94,0-46.094,4.231-64.965,17.613C172.945,3.009,95.071,66.518,86.211,153.721c-2.246,22.108,0.176,44.438,7.109,65.55
		c-11.735,14.365-31.11,43.691-31.11,81.161c0,32.345,16.012,59.817,16.012,59.817s28.434-41.633,92.187-41.633
		c4.895,0,6.177-4.302,6.359-5.124c79.348,37.211,173.834,3.053,211.046-76.294c21.721-46.319,19.778-100.265-5.218-144.901
		c17.545-5.399,37.516-19.375,37.516-47.353V44.923z"/>
	<path fill="#FFFFFF" d="M366.172,284.488c-4.042,0-7.319,3.277-7.319,7.32s3.277,7.319,7.319,7.319
		c4.043,0,7.321-3.276,7.321-7.319S370.215,284.488,366.172,284.488z M366.172,297.573c-3.157,0-5.719-2.562-5.719-5.72
		c0-3.204,2.517-5.765,5.719-5.765c3.203,0,5.719,2.516,5.719,5.719c0.026,3.158-2.514,5.738-5.672,5.766
		C366.204,297.573,366.189,297.573,366.172,297.573z"/>
	<path fill="#FFFFFF" d="M369.17,290.138c0-1.365-1.105-2.471-2.471-2.471h-3.524v8.326h1.558v-3.341h1.145l1.555,3.363h1.739
		l-1.646-3.501c0.971-0.371,1.622-1.293,1.646-2.333L369.17,290.138L369.17,290.138z M366.653,291.052h-1.944v-1.83h1.991
		c0.506,0,0.914,0.41,0.914,0.916l0,0c0,0.505-0.408,0.914-0.914,0.914l0,0H366.653z"/>
</g>
<path d="M413.57,44.923c0-31.453-28.868-45.224-57.919-44.149c0,0,11.984,11.599,11.984,20.177c0,4.574-3.432,9.447-12.97,9.447
	h-43.004c-9.653,0-15.418-3.316-15.418-8.921c0-9.104,14.318-19.764,14.318-19.764S281.514,3.473,262,18.731
	C178.574,8.815,102.906,68.407,92.99,151.833c-4.016,33.785,3.413,67.944,21.1,97.016c-2.371,1.34-5.053,2.034-7.777,2.012
	c-10.66,0-10.752-23.605-10.752-23.605s-26.855,31.338-26.855,73.199c0,25.757,10.889,47.924,10.889,47.924
	s30.126-36.303,90.813-36.303c0,0-28.822-11.553-28.822-25.507c0,0,0.16-1.464,1.144-3.315
	c62.608,56.021,158.776,50.682,214.797-11.927c45.526-50.88,51.578-125.854,14.799-183.375
	c14.642-2.333,41.176-12.354,41.176-43.006L413.57,44.923z"/>
<path fill="#CE1126" d="M368.575,7.523c0,0,5.604,5.262,5.604,13.428c0,8.167-6.357,16.013-19.512,16.013h-43.004
	c-16.699,0-21.96-8.578-21.96-15.463c0-6.862,3.888-10.568,3.888-10.568s-42.204,8.235-42.204,42.548
	c0,28.868,32.254,28.777,32.254,28.777h9.447l-26.307,69.608l-40.031-50.691c-2.47-3.134-12.215-15.417-26.718-15.417
	c-20.13,0-28.937,22.646-31.933,30.538l-42.502,112.379c0,0,15.738-5.719,36.6-5.719c17.568,0,32.345,3.522,32.345,3.522
	l19.672-52.082l25.048,45.378l-17.705,18.529c-11.666,12.169-35.958,5.421-59.383,5.421c-43.691,0-39.505,13.634-55.815,13.634
	c-11.598,0-14.594-14.046-14.594-14.046s-16.516,27.269-16.516,57.074c0,19.352,6.817,36.37,6.817,36.37
	s34.038-29.051,68.396-29.051c0,0-15.326-7.319-15.326-21.229c0-3.958,5.215-16.631,22.12-16.631
	c26.146,0,37.058,15.556,68.625,15.556c44.241,0,68.785-27.403,77.432-50.232l57.876-152.983c0,0,45.84,0.092,45.84-37.286
	C407.05,10.565,368.575,7.523,368.575,7.523z"/>
<g>
	<path fill="#FFFFFF" d="M200.032,79.236c8.098,0,20.176,3.111,31.864,17.889l32.849,41.633l18.94-50.005
		c0,0-38.75-0.32-38.75-35.295c0-7.618,1.67-14.138,4.482-19.673c-1.736-0.069-3.479-0.138-5.261-0.138
		c-75.194,0.037-136.123,61.023-136.085,136.219c0.01,19.137,4.056,38.063,11.875,55.537l42.136-111.396
		c8.692-23.035,21.457-34.724,37.972-34.724L200.032,79.236z M309.419,237.526c-9.974,26.307-37.126,54.441-83.493,54.441
		c-31.567,0-43.852-14.479-66.269-15.463c58.916,46.683,144.521,36.767,191.205-22.149c35.007-44.182,39.156-105.363,10.438-153.869
		l-51.881,137.017V237.526L309.419,237.526z"/>
	<path fill="#FFFFFF" d="M216.845,233.797l14.411-15.052l-15.875-28.823l-16.745,44.265c0,0-17.271-4.734-36.417-4.734
		c-14.869,0-28.365,3.339-37.194,6.177c1.098,1.989,2.242,3.934,3.431,5.854c6.863-2.4,17.019-4.301,33.763-4.301
		c24.088,0,45.888,5.719,54.671-3.431L216.845,233.797z"/>
</g>
</svg>
