<?xml version="1.0" encoding="utf-8"?>
<!-- Generator: Adobe Illustrator 15.1.0, SVG Export Plug-In . SVG Version: 6.00 Build 0)  -->
<!DOCTYPE svg PUBLIC "-//W3C//DTD SVG 1.1//EN" "http://www.w3.org/Graphics/SVG/1.1/DTD/svg11.dtd">
<svg version="1.1" id="Layer_1" xmlns="http://www.w3.org/2000/svg" xmlns:xlink="http://www.w3.org/1999/xlink" x="0px" y="0px"
	 width="435.031px" height="352.309px" viewBox="0 0 435.031 352.309" enable-background="new 0 0 435.031 352.309"
	 xml:space="preserve">
<path fill="#0038A8" d="M312.366,1.042l-13.208,12.819L286.019,1.042H157.393l-13.162,12.819L131.045,1.042H39.229l27.47,48.758
	v236.877c0,4.807,0,41.981,44.958,41.981h71.1c25.523,0,37.953,23.35,37.953,23.35h2.06c0,0,12.432-23.35,37.954-23.35h71.123
	c44.913,0,44.913-37.198,44.913-41.981V49.801l27.469-48.758H312.366L312.366,1.042z"/>
<g>
	<path fill="#FFFFFF" d="M374.492,49.182l25.867-45.874h-87.078l-14.123,13.735L285.08,3.308H158.354l-14.078,13.735L130.152,3.308
		H43.167l25.867,45.874v237.472c0,11.903,4.167,39.671,42.646,39.671h71.1c22.822,0,35.481,17.557,38.983,23.119
		c3.435-5.562,16.138-23.119,38.961-23.119h71.123c38.457,0,42.622-27.745,42.622-39.671V49.182H374.492z M377.216,320.327
		c-4.854,0.013-8.78,3.958-8.768,8.813c0.013,4.854,3.958,8.779,8.813,8.768c4.847-0.261,8.566-4.401,8.307-9.249
		c-0.242-4.501-3.85-8.092-8.353-8.309V320.327z M377.216,336.007c-3.812,0-6.902-3.089-6.902-6.899
		c0-3.812,3.091-6.902,6.902-6.902s6.902,3.09,6.902,6.902C384.119,332.918,381.028,336.007,377.216,336.007L377.216,336.007z"/>
	<path fill="#FFFFFF" d="M380.809,327.081c0.001-1.626-1.304-2.951-2.93-2.977h-4.257v10.026h1.876v-4.074h1.375l1.899,4.074h2.061
		l-1.946-4.259c1.188-0.411,1.979-1.535,1.969-2.791H380.809z M377.879,328.178h-2.381v-2.198h2.381
		c0.573,0,1.076,0.459,1.076,1.101c0,0.641-0.503,1.098-1.099,1.098H377.879z"/>
</g>
<path fill="#0038A8" d="M317.54,13.816l-18.382,17.855l-18.313-17.855H162.612l-18.381,17.855l-18.382-17.855H61.022l18.427,32.666
	v240.196c0,13.322,5.585,29.187,32.185,29.187h71.099c18.085,0,30.949,10.14,38.984,18.243c8.011-8.104,20.899-18.243,38.961-18.243
	h71.123c26.553,0,32.115-15.864,32.115-29.187V46.481l18.45-32.735H317.54V13.816z"/>
<path fill="#CE1126" d="M197.315,118.817l158.796,115.028V118.817H197.315z"/>
<g>
	<path fill="#FFFFFF" d="M87.346,102.633h268.741v6.478H87.346V102.633z M87.346,286.654c0,18.886,12.957,21.335,24.311,21.335
		h71.077c16.184,0,29.301,8.47,38.984,16.298c9.729-7.782,22.8-16.298,38.983-16.298h25.753L87.346,163.775V286.654L87.346,286.654z
		 M87.346,150.406L304.88,307.989h9.248L87.346,143.722V150.406z M169.639,118.817l186.472,135.058v-6.639L178.933,118.817H169.639z
		 M246.531,246.847l15.727,11.399l4.578-6.295l-9.294-6.73l7.44-10.232l9.271,6.753l4.577-6.341l-9.271-6.707l7.417-10.255
		l9.248,6.729l4.624-6.318l-15.75-11.399L246.531,246.847z M167.763,129.645l-14.536-10.531l-28.614,39.465l6.456,4.669
		l12.819-17.626l3.571,2.586l-6.043,22.525l6.41,4.669l6.134-22.799c4.126,1.71,8.887,0.354,11.492-3.273l4.464-6.18
		c3.117-4.299,2.16-10.311-2.139-13.428c-0.004-0.003-0.009-0.006-0.013-0.01V129.645z M295.038,281.984l6.135-22.845
		c4.132,1.723,8.905,0.365,11.514-3.273l4.464-6.181c3.11-4.313,2.148-10.33-2.152-13.46l-14.581-10.529l-28.567,39.418l6.409,4.669
		l12.818-17.626l3.549,2.564l-6.044,22.57l6.479,4.67L295.038,281.984z M213.133,162.539l-28.545,39.441l6.409,4.646l17.168-23.668
		l-6.798,31.199l6.478,4.647l28.569-39.464l-6.41-4.647l-17.168,23.692l6.799-31.178L213.133,162.539z M152.197,178.563l6.41,4.624
		l8.126-6.524l10.759,7.783l-3.663,9.752l6.41,4.646l17.764-47.271l-6.456-4.624l-39.373,31.589L152.197,178.563z M258.434,195.319
		l-5.357-3.892c-4.311-3.143-10.353-2.195-13.495,2.116c-0.004,0.004-0.006,0.009-0.01,0.012l-17.26,23.808
		c-3.137,4.284-2.205,10.301,2.08,13.437c0.031,0.023,0.062,0.047,0.096,0.069l5.401,3.892c1.374,1.007,2.93,1.603,4.509,1.786
		l-0.137,1.419l3.434,2.472l15.292-21.105l-12.591-9.042l-3.892,5.38l6.112,4.395l-4.807,6.707c-1.07,1.489-3.145,1.829-4.633,0.76
		c-0.013-0.01-0.025-0.018-0.037-0.026l-2.748-1.992c-1.484-1.076-1.815-3.15-0.74-4.636c0.002-0.004,0.006-0.008,0.009-0.011
		l15.497-21.472c1.092-1.474,3.17-1.782,4.643-0.689c0.002,0.001,0.003,0.001,0.004,0.002l2.747,1.968
		c1.487,1.077,1.831,3.16,0.731,4.647l-3.821,5.22l6.409,4.646l4.67-6.409c3.131-4.288,2.194-10.303-2.094-13.435
		c-0.013-0.009-0.023-0.018-0.035-0.025H258.434z M338.919,253.645c-5.874-4.261-14.09-2.954-18.352,2.92
		c-0.003,0.004-0.006,0.007-0.007,0.011c-7.737,10.689,7.188,23.646,3.136,29.254c-2.069,2.505-5.778,2.858-8.283,0.788
		c-2.274-1.879-2.805-5.153-1.239-7.654l1.831-2.564l-6.454-4.67l-1.741,2.449c-4.485,6.117-3.164,14.712,2.954,19.198
		c0.045,0.033,0.091,0.066,0.136,0.099c6.124,4.479,14.717,3.145,19.195-2.979c0.026-0.037,0.053-0.074,0.08-0.111
		c7.668-10.576-7.257-23.577-3.114-29.255c1.661-2.31,4.879-2.837,7.189-1.177c0.015,0.01,0.03,0.021,0.045,0.032
		c2.343,1.658,2.896,4.901,1.239,7.244c-0.009,0.012-0.017,0.022-0.026,0.035l-1.557,2.129l6.41,4.647l1.488-1.991
		c4.259-5.905,2.927-14.145-2.977-18.405H338.919z M148.42,86.724h-11.446V74.065h11.446v-7.783h-11.446V53.646h11.446v-7.852
		h-19.458v48.758h19.458V86.724z M293.206,72.737h4.418l8.31,21.792h7.943l-8.47-22.09c4.354-1.028,7.433-4.911,7.439-9.385v-7.6
		c0-5.335-4.325-9.66-9.66-9.66h-17.969v48.758h7.966V72.737H293.206z M97.807,65.298l12.819,29.232h7.92V45.794h-7.943v29.301
		L97.785,45.794h-7.92v48.758h7.943V65.298z M262.097,94.552h6.638c5.335,0.012,9.671-4.302,9.684-9.637c0-0.008,0-0.016,0-0.022
		V55.477c0-5.335-4.325-9.66-9.66-9.66h-6.639c-5.335-0.013-9.67,4.302-9.683,9.637c0,0.016,0,0.031,0,0.046v29.415
		c0,5.311,4.35,9.614,9.66,9.614V94.552z M330.632,74.362l3.571-5.723l11.399,25.867h7.967l-14.719-33.33l9.568-15.337h-7.943
		l-9.844,15.795V45.84h-7.966V94.53h7.966V74.362z M229.638,94.552h7.942v-20.19l10.53-28.545h-7.967l-6.523,17.764l-6.547-17.741
		h-7.92l10.484,28.568V94.552z M173.417,94.552l4.166-25.546l4.189,25.523h9.5l7.966-48.758h-7.966l-4.762,29.163l-4.738-29.14
		h-8.355l-4.738,29.163l-4.762-29.14h-7.942l7.942,48.758L173.417,94.552z"/>
</g>
<g>
	<path fill="#0038A8" d="M263.699,86.724h3.389c1.832,0,3.341-1.488,3.341-3.342V56.965c0-1.846-1.496-3.342-3.341-3.342h-3.389
		c-1.832,0-3.319,1.486-3.319,3.319c0,0.008,0,0.015,0,0.023v26.417c0,1.831,1.465,3.342,3.297,3.342H263.699z M179.896,177.944
		l6.409-16.939l-14.192,11.331L179.896,177.944z M161.879,135.024l-6.798-4.921l-6.638,9.156l6.775,4.922
		c1.501,1.07,3.583,0.732,4.67-0.756l2.701-3.731c1.074-1.495,0.749-3.576-0.732-4.67H161.879z M304.925,61.589v-4.624
		c0-1.846-1.496-3.342-3.341-3.342h-8.379v11.285h8.355c1.785,0,3.319-1.465,3.319-3.342L304.925,61.589z M307.101,250.029
		l2.679-3.755c1.081-1.476,0.775-3.547-0.688-4.646l-6.799-4.921l-6.639,9.155l6.776,4.899
		C303.926,251.836,306.007,251.509,307.101,250.029z"/>
</g>
</svg>
