<?xml version="1.0" encoding="utf-8"?>
<!-- Generator: Adobe Illustrator 15.1.0, SVG Export Plug-In . SVG Version: 6.00 Build 0)  -->
<!DOCTYPE svg PUBLIC "-//W3C//DTD SVG 1.1//EN" "http://www.w3.org/Graphics/SVG/1.1/DTD/svg11.dtd">
<svg version="1.1" id="Layer_1" xmlns="http://www.w3.org/2000/svg" xmlns:xlink="http://www.w3.org/1999/xlink" x="0px" y="0px"
	 width="435.031px" height="352.309px" viewBox="0 0 435.031 352.309" enable-background="new 0 0 435.031 352.309"
	 xml:space="preserve">
<path fill="#FFFFFF" d="M293.809,122.684l-35.798-48.909l-12.977,6.041c-3.292-1.043-6.64-1.909-10.023-2.595l2.907-2.953V49.074
	h-3.288c4.632-11.544-6.868-32.934,31.256-52.242H175.63c-63.094,19.801-45.083,134.981-45.083,134.981l6.802-2.573
	c0,0-2.595,8.167-0.962,15.885c0,0-6.578,15.773,0.985,31.211l-4.564,6.444l1.164,34.053c-11.858,10.382-33.785,2.46-38.103,21.121
	c-3.535,4.698-15.08,8.345-15.08,8.345c-20.852,54.659,100.682,61.036,123.391,91.42c0,0,21.703,12.395,52.354,12.395
	c64.438,0,116.792-52.354,116.792-116.791c0.116-50.172-31.944-94.767-79.539-110.638H293.809z"/>
<path d="M290.789,126.712l-34.3-46.917l-11.143,5.146c0,0-7.45-2.819-20.271-4.52l8.055-8.1V53.885h-5.683
	c9.911-16.109-5.728-32.778,22.866-52.22h-73.856c-55.823,18.793-41.929,123.547-41.929,123.547l10.695-4.028
	c0,0-6.667,13.961-3.849,24.478c0,0-7.339,15.93,1.566,31.145l-5.257,7.428l1.119,34.098c-7.428,12.977-35.574,5.929-38.192,20.494
	c-1.119,6.152-15.975,11.3-15.975,11.3c-15.617,46.537,103.277,55.263,122.832,83.901c55.664,26.951,122.638,3.676,149.588-51.988
	c26.952-55.663,3.676-122.637-51.987-149.588C300.446,130.213,295.674,128.295,290.789,126.712z"/>
<g>
	<path fill="#CE1126" d="M181.515,48.918l-5.505-35.485c-39.198,16.736-33.963,97.057-33.963,97.057l39.87-57.88h36.782
		c6.355-12.596-1.409-32.666,12.664-41.28h-48.551L181.515,48.918L181.515,48.918z M169.366,289.324
		c16.064,3.58,37.543,17.228,37.543,17.228c-1.566-5.705-6.13-11.187-6.13-11.187c-16.125-5.045-30.891-13.69-43.181-25.282
		l-41.168-22.644c0,0,24.544,0.135,22.374-18.011c-10.65,7.831-31.055,4.789-31.055,13.201c0,9.24,16.198,18.637,48.058,38.863
		l-49.289-22.597l2.953-3.224l-3.4-6.6c-0.358,2.529-12.865,2.573-12.865,11.009c0,29.757,105.224,40.832,124.533,68.956
		c2.282-14.61-26.491-28.527-48.327-39.691L169.366,289.324z M297.656,235.09c0,0,10.628,9.174,10.628,12.306
		c0,3.177-22.262,16.333-22.262,16.333c7.473-10.337,13.514-15.326,13.514-19.778c0-4.408-7.876-5.594-10-14.051
		c-8.056,12.977-8.458,21.322-8.458,21.322l3.96,27.161l-10.784-1.343c-22.598,22.599-20.093,47.366-20.093,47.366
		c14.209-41.101,62.267-41.682,62.267-80.5c-3.624-2.91-18.749-8.861-18.749-8.861L297.656,235.09z"/>
</g>
<g>
	<path fill="#FFFFFF" d="M253.782,236.455l6.756-3.268l-7.383-28.705l2.976-8.815l20.271-7.786l5.884,2.507l-0.828-9.218
		c0,0-5.816-5.594-12.529-5.594c-6.555,0-9.174,4.698-18.123,15.594c0,0-5.189-13.558-26.243-13.558
		c-17.81,0-39.155,8.277-39.155,8.277c-3.804,5.146-3.289,16.109,22.374,14.163l-3.625,16.848l14.23,2.014
		c0,0-18.123,40.005-8.167,49.625c9.397,9.105,19.129,18.883,22.486,18.883c13.244,0,21.591-3.445,23.224-5.102
		c0.739-0.737,1.253-2.371,1.253-4.474c0-7.384-7.383-8.212-13.155-8.212c-12.484,0-17.004,4.341-17.004,4.341l2.394-8.055
		c1.565-5.93,26.736-2.818,26.736-2.818l-0.582-7.831l-5.034,0.76l-10.582-1.633l-24.947,0.671l-1.23-0.939l29.757-5.257
		l6.488,1.341l5.594-1.408l-3.043-2.686l-3.245,1.253l-0.604-6.6l-17.742-2.954l13.983-4.854l8.727,3.468L253.782,236.455z"/>
	<path fill="#FFFFFF" d="M279.332,198.442l-5.638,1.074c-2.326,9.396-8.949,5.504-10.001,3.244l-2.685,9.688l4.475,14.588
		l3.691,8.009l-6.398,5.37l4.922,5.594l1.746,4.071l7.226-23.783l5.817-9.53c1.052-1.634-4.698-13.022-4.698-13.022l1.521-5.324
		L279.332,198.442z M224.427,302.726l15.886,10.852l4.162-14.432l-13.871-2.014L224.427,302.726z M348.177,318.276
		c-3.658,0-6.623,2.965-6.623,6.623c0,3.657,2.965,6.622,6.623,6.622c3.657-0.301,6.379-3.509,6.078-7.168
		C353.987,321.115,351.416,318.543,348.177,318.276z M348.177,330.089c-2.86,0.188-5.332-1.979-5.52-4.838
		c-0.189-2.862,1.978-5.333,4.839-5.521c0.227-0.015,0.454-0.015,0.681,0c2.86,0.188,5.027,2.659,4.84,5.521
		C352.845,327.849,350.775,329.919,348.177,330.089z"/>
	<path fill="#FFFFFF" d="M350.885,323.376c0.023-1.234-0.958-2.257-2.193-2.28c-0.014-0.001-0.029-0.001-0.045-0.001h-3.199v7.562
		h1.387v-3.043h1.03l1.454,3.065h1.566l-1.5-3.199c0.911-0.309,1.524-1.164,1.521-2.127L350.885,323.376z M348.646,324.183h-1.79
		v-1.656h1.79c0.447,0,0.805,0.381,0.805,0.827c0,0.448-0.334,0.807-0.827,0.807L348.646,324.183z"/>
</g>
<g>
	<path fill="#BF910C" d="M284.814,173.965l-32.218-18.436l-64.37,21.926c0,0,23.851-6.197,41.393-6.197
		c19.128,0,22.462,10.292,22.462,10.292s5.908-10.628,14.812-10.628c10.739,0,18.212,6.266,18.212,6.266l-0.29-3.2V173.965z
		 M215.836,81.069l5.369-5.728h-27.966L169.88,94.18l20.673-24.23h33.94v-9.912h-36.917l-32.979,44.747l1.566,7.675
		C156.165,112.46,174.355,81.069,215.836,81.069z"/>
	<path fill="#BF910C" d="M194.178,249.453c0-21.702,5.28-44.21,5.28-44.21s-32.218,2.237-26.513-24.969
		c0,0-7.025,5.728-13.424,3.244c0,0,12.126-3.244,12.126-16.445l3.133,9.621l83.722-33.426l32.957,28.638l-0.738-12.864
		c-3.691,1.342-11.635-4.117-11.635-4.117l1.231-0.984c0,0,5.369,2.752,10.135,0.783l-0.738-12.686L253.469,91.63l-8.233,3.088
		c0,0-17.743-7.496-34.948-7.496c-26.289,0-59.021,25.999-59.021,54.726l17.608,1.275l48.104-35.686l-48.328,47.275
		c0,0-4.251-8.345-10.426-8.345c-4.25,0-10.739,5.056-10.739,17.451c0,9.755,4.766,14.543,4.766,14.543l-5.639,7.607
		c4.14,61.08-2.774,67.345-15.326,63.855l24.521,11.857c0-42.801-1.565-55.801,2.596-55.801c6.892,0,6.175,42.511,7.987,62.535
		c0,0,17.676,20.516,52.847,23.872c0,0-25.058-15.952-25.058-42.913V249.453z M273.851,258.671l-4.117,10.964l6.354,1.028
		L273.851,258.671z M301.528,141.613v36.29c16.735,13.53,26.463,33.898,26.467,55.42c-0.031,30.143-18.956,57.031-47.319,67.233
		c-11.635,19.018-8.413,30.25-6.937,33.493c49.073-8.416,84.964-50.937,85.021-100.727c-0.024-38.983-22.212-74.561-57.21-91.732
		L301.528,141.613z"/>
</g>
<path d="M217.179,151.994l-2.461-1.521c-16.892,3.177-14.006-2.595-18.123-2.595c1.611-1.567,0.134-4.699,4.43-9.017l-0.38-0.515
	c-10.449,6.22-4.363,10.068-11.568,13.805l0.269,0.604c8.614-2.909,5.459,7.607,27.877-0.739L217.179,151.994z"/>
<path d="M228.365,141.21l-1.342-0.56c-12.194,5.705-12.149,0.157-14.588,0.895c1.253-2.08-2.394-4.631,5.817-12.529l-0.09-0.806
	c-14.318,9.509-7.472,13.201-11.969,17.743l0.403,0.559C211.473,143.38,211.831,152.218,228.365,141.21L228.365,141.21z
	 M195.252,159.669c0,0-1.477-1.388-3.222-2.081c-9.576,0.984-8.167-2.797-11.478-2.641c2.954-2.282-0.223-4.117,2.125-6.421
	l-0.402-0.492c-8.592,4.833-3.401,7.92-8.413,9.979l0.224,0.582c4.855-1.454,4.251,6.399,21.188,1.052L195.252,159.669z
	 M164.219,154.903c4.989,12.462-3.938,21.166-7.54,21.166s-5.817-4.52-5.817-4.52s2.685,8.86,8.188,8.86
	c5.504,0,15.885-13.111,5.146-25.506H164.219z"/>
<path d="M238.836,130.359l-0.895-0.291c-9.509,5.057-10.135,1.186-11.568,1.566c1.031-2.014-3.243-2.573,2.91-10.449l-0.269-1.431
	c-13.358,11.813-3.804,12.193-9.554,17.003l0.671,0.269c5.146-4.207,4.14,4.475,18.749-6.712L238.836,130.359z M186.974,98.006
	c-32.509,16.109-31.323,38.639-31.323,38.639l10.627,0.493l20.025-13.089c-14.252,3.938-37.208,2.193,0.67-26.021V98.006z
	 M261.166,132.529c-17.452,4.766-18.84-20.763-13.939-26.087c-19.242,12.305,4.363,41.481,13.939,26.065V132.529z M272.039,144.32
	l-0.963,0.537c10.136,10.963,10.181,3.356,13.738,6.488l0.447-0.806c-2.863-4.43,1.208-8.501-8.055-18.122l-0.067,0.962
	c5.214,6.802,2.864,10.449,4.408,13.268c-2.462-1.119-2.908,3.4-9.509-2.305V144.32z"/>
<path d="M275.351,141.21l0.447-0.537c-2.976-5.057,2.797-6.175-5.146-17.563l-0.336,1.454c3.58,7.518,0.516,9.106,1.343,10.829
	c-1.343-0.38-2.572,2.282-7.003-2.954l-0.761,0.269c7.048,11.366,8.614,4.318,11.456,8.458V141.21z M343.366,241.869
	c-1.23,6.176-6.265,0.402-9.106,14.9c2.192,0.448,4.117-4.474,6.936-3.938c2.864,0.56,2.819,5.817,4.99,6.266
	c2.797-14.499-4.027-11.053-2.841-17.229H343.366z"/>
<circle cx="343.366" cy="233.323" r="5.303"/>
<path d="M301.617,300.78c1.409,1.723,6.041-0.806,7.875,1.409c1.835,2.238-1.565,6.266-0.133,7.987
	c11.409-9.396,3.892-11.074,8.77-15.102c-4.923,4.027-5.102-3.67-16.512,5.728V300.78z M335.536,270.307
	c-3.244,5.437-6.041-1.701-13.537,11.03c1.902,1.118,5.37-2.819,7.831-1.343c2.462,1.478,0.717,6.376,2.618,7.518
	c7.495-12.753-0.134-11.746,3.065-17.184L335.536,270.307z"/>
<path d="M312.646,291.964c1.679,1.433,5.817-1.856,7.966,0c2.237,1.88-0.447,6.443,1.274,7.898
	c9.622-11.255,1.925-11.635,6.042-16.399C323.812,288.228,322.268,280.71,312.646,291.964z M333.835,208.533
	c3.089,14.453,8.01,8.591,9.353,14.766c-1.343-6.175,5.594-2.841,2.506-17.271c-2.17,0.446-2.013,5.727-4.855,6.309
	C338.042,212.963,336.006,208.085,333.835,208.533z M321.553,184.749c7.606,12.664,10.381,5.504,13.646,10.896
	c-3.288-5.369,4.342-4.475-3.266-17.138c-1.902,1.119-0.09,6.041-2.551,7.562s-5.951-2.461-7.83-1.298V184.749z"/>
<path d="M328.69,196.137c5.413,13.737,9.352,7.16,11.634,13.022c-2.306-5.885,5.078-3.714-0.358-17.452
	c-2.058,0.806-1.052,5.996-3.736,7.025c-2.641,1.052-5.438-3.424-7.518-2.617L328.69,196.137z M340.749,256.031
	c-2.237,5.93-6.265-0.604-11.411,13.201c2.059,0.783,4.789-3.714,7.495-2.686c2.685,1.008,1.79,6.176,3.85,6.937
	C345.827,259.68,338.534,261.961,340.749,256.031z M327.929,183.205c-4.117-4.788,3.58-5.146-6.042-16.377
	c-1.678,1.432,0.94,6.041-1.252,7.897c-2.237,1.88-6.31-1.432-7.988,0c9.621,11.187,11.188,3.692,15.26,8.502L327.929,183.205z
	 M316.249,169.714c3.514-4.609-13.692-10.516-13.692-10.516S312.714,174.323,316.249,169.714z M287.879,308.162
	c1.119,1.947,6.086,0.336,7.474,2.865c1.387,2.527-2.685,5.861-1.656,7.83c12.977-7.047,5.952-10.136,11.5-13.156
	c-5.548,2.998-4.25-4.586-17.295,2.461H287.879z"/>
<path d="M274.321,318.678c0,0,18.189,0.403,16.468-5.146C289.043,308.03,274.321,318.678,274.321,318.678z M187.197,191.484
	l28.281,3.96c0.94,4.743,8.278,9.218,13.424,2.014l7.741,2.237l-6.22,4.878l11.925,1.634l4.698-9.174l-26.96-10.963L187.197,191.484
	z"/>
</svg>
