<?xml version="1.0" encoding="utf-8"?>
<!-- Generator: Adobe Illustrator 15.1.0, SVG Export Plug-In . SVG Version: 6.00 Build 0)  -->
<!DOCTYPE svg PUBLIC "-//W3C//DTD SVG 1.1//EN" "http://www.w3.org/Graphics/SVG/1.1/DTD/svg11.dtd">
<svg version="1.1" id="Layer_1" xmlns="http://www.w3.org/2000/svg" xmlns:xlink="http://www.w3.org/1999/xlink" x="0px" y="0px"
	 width="435.031px" height="352.309px" viewBox="0 0 435.031 352.309" enable-background="new 0 0 435.031 352.309"
	 xml:space="preserve">
<path fill="#FFFFFF" d="M302.863-8.857H-0.02v9.579c0,26.596,12.736,50.089,32.001,63.896H-0.1v9.579
	c0,26.597,12.763,50.089,32.028,63.896H-0.1v9.579c0,26.595,12.763,50.035,32.028,63.869H-0.1v9.579
	c0,42.41,32.322,76.899,71.976,76.899h68.605l50.571-85.543c26.141,35.568,67.615,56.603,111.756,56.672
	c76.719-0.089,138.889-62.258,138.977-138.976C441.697,53.455,379.527-8.715,302.808-8.803L302.863-8.857z"/>
<path fill="#FFFFFF" d="M195.36,240.572c-5.542,0-10.034,4.492-10.034,10.034c0,5.541,4.492,10.034,10.034,10.034
	c5.541,0,10.034-4.493,10.034-10.034C205.394,245.064,200.901,240.572,195.36,240.572z M195.36,258.5
	c-4.359,0-7.894-3.535-7.894-7.894c0-4.359,3.534-7.894,7.894-7.894s7.893,3.534,7.893,7.894
	C203.253,254.965,199.719,258.5,195.36,258.5z"/>
<path fill="#FFFFFF" d="M199.507,248.278c-0.015-1.882-1.544-3.397-3.425-3.397h-4.816v11.425h2.14v-4.656h1.525l2.141,4.656h2.409
	l-2.302-4.815c1.364-0.479,2.276-1.768,2.274-3.212H199.507z M196.082,249.536h-2.676v-2.516h2.676c0.669,0,1.258,0.535,1.258,1.231
	c0,0.669-0.588,1.258-1.284,1.258L196.082,249.536z"/>
<path d="M302.863,0.722H12.288c0,37.139,27.989,67.293,62.452,67.293h109.489c1.7,0.225,2.896,1.785,2.671,3.484
	c-0.184,1.392-1.279,2.486-2.671,2.67H12.288c0,37.192,27.962,67.294,62.425,67.294h66.01c1.712,0,3.104,1.392,3.104,3.077
	s-1.392,3.104-3.104,3.104H12.288c0,37.139,27.962,67.267,62.425,67.267h22.556c1.699,0.004,3.074,1.384,3.071,3.083
	c-0.004,1.695-1.377,3.068-3.071,3.071H12.315c0,37.192,27.961,67.32,62.424,67.32h60.364L247.904,97.663
	c17.908-30.389,57.062-40.506,87.451-22.597c30.391,17.909,40.508,57.063,22.598,87.452c-17.908,30.39-57.062,40.507-87.453,22.598
	c-19.062-11.234-30.953-31.536-31.426-53.658l-42.724,72.138c40.558,58.87,121.166,73.713,180.037,33.147
	c58.873-40.563,73.713-121.172,33.15-180.044c-24.18-35.093-64.086-56.036-106.701-56.002L302.863,0.722z"/>
<circle fill="#F74902" cx="302.863" cy="130.119" r="36.737"/>
</svg>
