<?xml version="1.0" encoding="utf-8"?>
<!-- Generator: Adobe Illustrator 15.1.0, SVG Export Plug-In . SVG Version: 6.00 Build 0)  -->
<!DOCTYPE svg PUBLIC "-//W3C//DTD SVG 1.1//EN" "http://www.w3.org/Graphics/SVG/1.1/DTD/svg11.dtd">
<svg version="1.1" id="Layer_1" xmlns="http://www.w3.org/2000/svg" xmlns:xlink="http://www.w3.org/1999/xlink" x="0px" y="0px"
	 width="435.031px" height="352.309px" viewBox="0 0 435.031 352.309" enable-background="new 0 0 435.031 352.309"
	 xml:space="preserve">
<path fill="#FFFFFF" d="M403.072,49.178h-24.169c-1.095-3.011-2.826-5.75-5.075-8.031c-7.045-7.046-16.517-8.183-22.046-2.653
	c-1.143,1.165-2.022,2.56-2.579,4.092c-1.87-1.344-3.906-2.438-6.06-3.258c-3.409-7.121-8.182-17.198-19.017-17.198
	c-3.485,0.034-6.91,0.892-9.999,2.501c-8.031-6.289-25.231-18.108-42.807-18.108c-19.319,0-46.14,17.729-53.945,17.729
	c-5.756,0-18.561-28.335-38.487-28.335c-10.683,0-21.516,7.273-34.47,15.076c-12.275,7.425-15.532,16.289-19.093,25.759
	c-2.89,4.587-6.38,8.767-10.382,12.426H53.2l105.234,183.044H86.383l-22.956,41.291h105.689c3.954-0.141,7.82-1.208,11.288-3.109
	l47.729,83.036l46.443-80.837h38.715v-22.656h-2.652c0-7.877-5.984-16.438-8.939-20.227l-0.529-3.257l8.864-15.457l51.746-19.093
	c7.03-2.984,12.248-9.103,14.091-16.516c4.308-0.46,8.244-2.648,10.909-6.061c3.875,1.104,7.868,1.739,11.895,1.894
	c7.805,0,16.063-4.396,18.184-12.804c0,0,8.258-5.076,11.971-20.758l-64.398-21.29L403.072,49.178z"/>
<path d="M352.916,128.425l8.106,2.727l-0.075,5.153c-4.318-0.152-7.803-0.986-7.803,11.666c0,9.395,1.819,12.426,1.819,15.078
	c0,4.47-0.379,5.53-14.547,5.53c-2.848-2.605-6.236-4.548-9.926-5.682c0,0-0.152-0.681-0.455-1.969L389.887,56.83h-18.183
	c1.365-2.577,0.076-6.896-3.257-10.229c-3.863-3.864-8.863-5.076-11.212-2.727c-1.1,1.208-1.5,2.897-1.063,4.469l-7.424,7.804
	c0.152-1.136,0.531-7.349-11.138-10.683c-3.484-6.971-6.438-15.683-13.484-15.683c-3.925,0.29-7.659,1.799-10.682,4.319
	c0,0-21.366-19.926-42.124-19.926c-18.107,0-42.958,17.729-53.945,17.729c-11.667,0-22.046-28.335-38.412-28.335
	c-8.863,0-19.318,7.122-30.53,14.015c-11.216,6.744-13.336,15.153-16.063,21.972c-1.819,4.545-7.576,10.606-14.242,17.198H66.381
	L171.54,239.568c-0.775,0.146-1.56,0.246-2.348,0.303H90.854l-14.47,25.987h92.809c4.49-0.239,8.741-2.095,11.971-5.226l1.515-1.593
	l45.457,79.099l42.049-73.112h35.457v-7.424h-8.485l-1.516-4.699h1.288l6.136-2.878c0-7.048-8.558-17.048-8.558-17.048l-1.365-7.956
	l11.667-20.229l54.323-20.074c9.621-3.485,10.683-17.578,10.683-17.578s8.861,4.167,13.712-6.591
	c4.922,1.588,10.003,2.631,15.151,3.106c4.623,0,11.137-2.5,11.137-9.395c4.278-2.773,7.565-6.832,9.396-11.591l-63.943-21.214
	L352.916,128.425z"/>
<path fill="#FCB514" d="M193.665,203.128c-3.335-8.108-1.895-9.928-1.895-9.928s-10.758-8.861-7.577-19.848
	c0,0-27.731-40.229-27.731-64.095c0-12.35,5.912-11.137,5.912-21.29c0-8.257-5.608-14.47-9.7-14.47
	c-4.694,0-19.243,9.622-40.456,22.198l8.031-18.486l-19.396,19.849c0,0-3.789-19.394,6.666-29.85
	c1.667-1.667,3.409-3.409,5.152-5.076H75.625l101.066,175.769c1.75-0.764,3.342-1.841,4.699-3.182l15.987-16.062
	C195.195,213.754,193.935,208.489,193.665,203.128z M358.373,62.133l-1.44,1.667c3.464,3.84,4.772,9.159,3.484,14.167
	c0,5.456-2.879,5.38-2.879,5.38c0,12.652-6.666,10.379-6.666,10.379c0,16.666-18.334,9.924-18.334,9.924
	c-2.606-0.312-5.139-1.056-7.501-2.197l-12.425,13.865c6.29,12.263,11.462,25.068,15.455,38.258l52.579-91.444H358.373z
	 M268.746,256.691l2.195-3.788h-3.56L268.746,256.691z M315.337,80.012l-1.893-4.242c-9.774,1.667-18.561-3.334-21.064-4.622
	c-2.499-1.288,0.229-6.743,0.229-6.743c-0.569-0.9-1.317-1.673-2.195-2.273h-10.229c-1.867,1.297-2.328,3.861-1.029,5.727
	c0.061,0.089,0.126,0.174,0.195,0.258c10.154,10.636,19.054,22.406,26.518,35.078l11.365-11.895L315.337,80.012z M288.291,222.751
	l8.106-14.094l-9.015,4.396L288.291,222.751z M271.775,196.537c0-1.139-16.669-5.532-23.184-8.031
	c-5.983,2.347,1.741,3.485,1.741,11.288c-0.183,3.432-0.925,6.808-2.196,10.003l-3.333,0.906c0,0-6.666,12.275-10.909,10.455
	c-6.061,10.683-8.562,13.108-18.184,13.108c-2.92,0.021-5.786-0.791-8.257-2.348l-21.065,22.953l41.746,72.506l35.838-62.352h-25.76
	c0.178-4.36,1.623-8.575,4.168-12.123c0-10.605,6.591-12.801,11.44-13.257c10.227-0.909,14.47-0.078,14.47-5.076
	c0-3.561-0.304-7.805-0.304-7.805h3.788c0-13.79-3.864-17.199-3.864-24.244C267.911,199.794,271.775,198.657,271.775,196.537z"/>
<polygon fill="#FCB514" points="253.29,257.602 256.774,257.602 258.292,252.903 250.639,252.903 "/>
<path fill="#FFFFFF" d="M371.933,134.713l-2.576,3.864l18.335,6.138l-0.075-4.773L371.933,134.713z M399.284,143.805l-2.803,3.789
	l7.122,2.348l-0.986-4.999L399.284,143.805z M277.153,252.903l-2.727,4.699h11.137l1.365-4.699H277.153z"/>
<path fill="#FFFFFF" d="M402.843,156.155c0.304,1.287-1.287,2.804-3.56,3.333c-2.349,0.531-4.395-0.076-4.698-1.363
	c-0.303-1.211,1.288-2.726,3.561-3.257C400.42,154.337,402.542,154.867,402.843,156.155z"/>
<path fill="#FFFFFF" d="M253.442,243.129c0.755,1.062-0.077,3.033-1.896,4.471c-1.893,1.44-4.015,1.819-4.85,0.758
	c-0.831-0.981,0-3.029,1.896-4.47C250.409,242.449,252.607,242.07,253.442,243.129z"/>
<path fill="#FFFFFF" d="M331.021,40.692l-3.408-7.273c-0.304-0.682-2.651-0.606-2.651,0.834
	C324.886,35.237,327.384,40.692,331.021,40.692z M330.87,48.419l-10.758-14.622c-1.506-0.083-2.862,0.896-3.257,2.35l11.667,12.424
	C330.036,50.162,330.87,48.419,330.87,48.419z M327.46,53.875l-12.806-14.622c-1.664-1.895-4.619,1.742-4.619,1.742l14.395,14.167
	C325.792,56.45,328.143,54.556,327.46,53.875z M322.914,57.966c0-3.181-13.711-13.714-15.834-13.714
	c-2.197,0-3.183,2.653-3.183,2.653l17.504,12.424C321.928,59.708,322.914,58.344,322.914,57.966L322.914,57.966z M318.216,65.239
	c0.984,0.53,2.577-2.577,1.592-3.258c-5.934-4.174-12.221-7.825-18.789-10.91c-0.975,1.184-1.387,2.731-1.138,4.242L318.216,65.239z
	 M315.261,70.845c0.683,0.304,2.578-1.742,1.29-2.65c-5.653-3.351-11.525-6.313-17.577-8.866c-2.123,2.122-0.909,3.41-0.909,3.41
	L315.261,70.845z M311.247,72.891c-5.005-2.637-10.228-4.841-15.607-6.591l-0.453,1.439
	C295.186,67.739,298.974,73.497,311.247,72.891z M351.857,64.634l6.97,12.273c-0.388-4.904-2.294-9.564-5.456-13.334
	C353.371,63.572,351.857,63.344,351.857,64.634L351.857,64.634z M357.841,81.074c0-4.85-7.729-13.335-7.729-13.335l-1.819,3.713
	l7.428,11.213C355.721,82.665,357.841,83.726,357.841,81.074L357.841,81.074z M344.281,78.497c0,0,3.409,9.925,7.122,9.925
	c0.629-4.569-1.22-9.128-4.85-11.971C345.399,76.489,344.439,77.353,344.281,78.497L344.281,78.497z M338.901,83.119
	c0,0,2.12,13.411,8.106,13.411C347.615,94.484,345.188,83.119,338.901,83.119z M341.096,103.5
	c2.047-8.637-6.817-17.578-6.817-17.578c-6.212-0.455-6.364,1.742-6.364,1.742S332.31,103.5,341.096,103.5z M319.429,89.256
	c1.313-0.813,2.854-1.185,4.396-1.06c-1.744-5.456-4.851-4.167-4.851-4.167C317.763,85.846,319.429,89.256,319.429,89.256z
	 M351.478,60.542c4.474-0.332,8.404-3.097,10.227-7.197c0-1.213-1.212-2.046-3.484-2.046c-2.198,0-8.183,6.362-8.183,8.181
	C350.038,59.86,350.341,60.542,351.478,60.542L351.478,60.542z M330.416,79.559c0.328,1.21,1.479,2.01,2.725,1.894
	c4.548,0,13.792-9.773,13.792-17.805c0-1.591-2.427-1.667-2.427-1.667C336.098,67.436,330.416,79.559,330.416,79.559L330.416,79.559
	z M342.84,59.026c5.453-2.727-0.227-9.772-4.092-7.576c-9.346,5.866-15.762,15.421-17.651,26.29
	c1.258,1.542,3.308,2.195,5.227,1.667C326.324,79.407,334.884,62.889,342.84,59.026L342.84,59.026z M228.209,172.065
	c-0.887,3.906-0.406,8,1.365,11.591c0.985-0.531,1.669-0.228,1.669-6.591C231.244,170.701,228.209,172.065,228.209,172.065z
	 M219.5,167.595c-0.301,4.533-0.045,9.088,0.754,13.562c0,0,3.187,1.288,4.245-0.304c-0.228-1.743-0.228-5.606-0.228-7.955
	C224.271,167.064,219.5,167.595,219.5,167.595L219.5,167.595z M213.437,165.549c-1.741,3.789-0.532,9.319-0.532,13.185
	c0,4.015,2.654,3.863,3.941,3.178C215.332,178.885,219.423,168.427,213.437,165.549L213.437,165.549z M208.891,175.551
	c0-13.714-4.696-11.365-4.696-6.441C204.195,174.64,207.3,177.14,208.891,175.551L208.891,175.551z M202.83,180.018
	c0-1.134-1.667-1.062-1.667-9.619c0-6.82-7.649-4.243-7.649-0.607c0,3.56,6.211,8.031,6.211,10.682
	C199.725,180.474,202.83,181.687,202.83,180.018L202.83,180.018z M188.815,172.519c-5.834,8.107,3.713,16.517,3.713,16.517
	c1.966,0.165,3.917-0.43,5.454-1.669C197.981,187.367,195.026,176.307,188.815,172.519L188.815,172.519z M225.104,204.568
	c0.91,20.682-2.424,20.303-2.424,23.486c0,5.15,8.788-1.44,8.788-14.472C231.468,198.204,225.104,204.568,225.104,204.568
	L225.104,204.568z M205.481,196.992c4.925,20.15,10.986,31.971,13.488,32.652c0,0,1.741-2.954,1.741-20.382
	C220.71,209.262,216.39,190.932,205.481,196.992L205.481,196.992z M197.678,204.568c1.667,18.786,12.957,26.817,12.957,26.817
	l2.195-1.211c-4.805-9.881-8.783-20.146-11.892-30.685L197.678,204.568z M244.349,197.75l-0.456,4.392l2.955,0.455l0.833-2.499
	C246.848,199.643,246.093,197.295,244.349,197.75L244.349,197.75z M238.667,195.854c-3.336,0-2.123,7.349-2.123,9.775
	c0.068,1.274-0.247,2.541-0.909,3.633c0.683,1.289,0.605,4.699,2.806,4.699c1.285,0,3.105-1.896,3.105-6.667
	C241.546,200.097,241.698,195.854,238.667,195.854L238.667,195.854z M231.695,191.991c-1.968,0-3.029,2.349-3.029,6.287
	c0,1.288,1.592,2.273,2.578,2.273c0.604,0,2.119-1.44,2.119-5.911C233.363,193.279,232.833,191.991,231.695,191.991L231.695,191.991
	z M226.925,190.852c0-3.257-2.883-3.864-5.988-3.864c-2.252-0.246-4.322,1.265-4.771,3.488c0.188,3.126,2.123,5.881,4.998,7.122
	C224.246,196.679,226.5,194.04,226.925,190.852z M212,191.08c0,0,1.285-4.771-2.427-4.771c-7.577,0-14.85,6.287-14.85,9.545
	c0.023,1.07,0.252,2.126,0.682,3.106C195.405,198.961,205.33,189.487,212,191.08L212,191.08z M320.641,92.21l-87.05,91.521
	c-3.182,3.257,5.151,9.093,8.106,5.684l83.339-92.962c1.306-1.082,1.491-3.019,0.408-4.327c-1.082-1.309-3.019-1.492-4.326-0.41
	C320.942,91.865,320.783,92.03,320.641,92.21z M149.872,35.995c0-3.334,4.698-6.744,5.305-8.334
	c-1.696-2.329-4.777-3.177-7.425-2.046c-0.607,9.395-3.033,13.865-4.092,19.624c3.485,2.954,2.348-4.395,7.425-4.395
	c2.27,0.318,4.007,2.183,4.167,4.471c0.064,1.593-0.508,3.147-1.593,4.318l3.562-0.304c1.053-1.275,1.594-2.895,1.516-4.546
	c0.076-6.818-8.941-6.97-8.941-8.788H149.872z M107.444,71.528c-3.712,4.243-4.243,16.516-4.243,16.516l30.836-26.441
	l-12.348,22.653c0,0,20.834-9.47,22.729-14.167c-3.381-7.408-8.048-14.154-13.792-19.927
	C130.627,50.162,111.309,67.285,107.444,71.528z M253.971,180.853c18.183,7.804,35.077,11.971,43.866,11.971
	c8.184,0,19.319-2.273,19.319-19.926c0-11.592-6.29-27.956-16.364-44.397L253.971,180.853z M238.895,173.656l54.093-56.898
	c-19.775-27.427-48.639-52.2-74.701-52.2c-23.185,0-38.868,17.122-38.868,35.229C179.418,132.366,208.666,157.669,238.895,173.656z
	 M363.374,136.683l3.484,1.137l4.089-6.061l19.093,6.364l0.227,7.424l3.788,1.212l4.243-5.91l6.442,2.121l1.589,7.88l2.651,0.908
	c2.865-2,5.246-4.613,6.973-7.652l-59.173-19.546l-0.758,2.274l7.501,2.499l-0.074,7.349H363.374z M289.502,252.903l-2.044,7.198
	h-20.077l-2.651-7.198h-3.789l-2.351,7.198h-6.741l-4.092-7.198h-2.196c-2.339,2.77-3.95,6.075-4.696,9.624h62.273v-2.426h-7.875
	l-2.275-7.198H289.502z M81.913,262.677H94.49l10.91-19.548H92.747L81.913,262.677z M183.738,237.069
	c-4.013,3.623-9.146,5.762-14.546,6.06h-0.454l-8.866,19.548h9.245c3.611-0.222,7.022-1.728,9.62-4.244l25.837-28.105l-5.911-8.334
	L183.738,237.069z"/>
</svg>
