<?xml version="1.0" encoding="utf-8"?>
<!-- Generator: Adobe Illustrator 15.1.0, SVG Export Plug-In . SVG Version: 6.00 Build 0)  -->
<!DOCTYPE svg PUBLIC "-//W3C//DTD SVG 1.1//EN" "http://www.w3.org/Graphics/SVG/1.1/DTD/svg11.dtd">
<svg version="1.1" id="Layer_1" xmlns="http://www.w3.org/2000/svg" xmlns:xlink="http://www.w3.org/1999/xlink" x="0px" y="0px"
	 width="435.031px" height="352.309px" viewBox="0 0 435.031 352.309" enable-background="new 0 0 435.031 352.309"
	 xml:space="preserve">
<path fill="#FFFFFF" d="M406.089,132.043l-5.77,10.301l0.969,5.974c-11.864,22.956-24.531,45.506-37.98,67.571
	c-2.321-5.251-5.364-8.339-11.269-11.494c0,0,27.114-49.294,34.485-88.377c-20.557,10.188-42.059,20.241-42.059,20.241
	l36.785-59.505c0,0-70.73,15.462-126.674,21.052C194.217,8.908,139.377-6.779,139.377-6.779s38.002,62.209,45.035,105.71
	C137.447,94.487,90.81,87.078,44.779,76.753l66.942,108.394c-39.151,2.297-105.079,4.415-105.079,4.415
	c16.792,16.816,70.865,38.093,142.36,55.787l12.758,20.646c-42.037,31.691-67.394,75.35-67.394,75.35l4.237,7.777
	c0,0,20.872-1.262,46.477-2.164c0,0,6.987-22.54,35.613-50.376l32.344,52.291l40.572-65.59l4.372-0.45l2.411,1.443
	c-0.676,0.629-1.126,1.937-2.096,3.47c3.382,2.299,3.448,2.659,3.606,6.762c0,0,4.508,1.576,10.03-0.271l1.51-2.771l1.872,0.834
	c0.271,1.959,0.788,4.125,0.788,4.125c5.184,2.41,9.513-0.812,9.513-0.812c13.748,2.841,23.079,1.24,26.146,0.452
	c13.636,3.762,22.472,1.24,26.101-0.36c6.267,2.59,12.735,4.281,30.723,4.281c8.293,0,17.129-0.541,17.129-6.762
	c0-8.654-8.295-40.527-16.68-58.153c0,0,6.154,4.352,11.722,5.456l7.663-5.567c-3.471-4.127-2.817-5.297-2.322-8.496
	c-2.75-2.323-6.582-2.864-6.582-2.864c7.507-8.679,23.217-28.805,42.015-64.89c3.967-0.609,9.018-2.931,9.646-9.152
	c0.678-6.762,1.06-9.692,1.06-16.138c-11.879-5.41-26.191-1.511-26.191-1.511L406.089,132.043z"/>
<path d="M359.545,92.012l-33.923,54.253c3.675-1.736,7.596-3.516,11.496-5.296l36.244-58.649c0,0-61.624,13.479-117.771,19.159
	c1.353,2.096,2.638,4.192,3.966,6.311c38.497-4.057,78.664-11.495,99.965-15.777H359.545z"/>
<path d="M364.976,235.385c-4.688-19.497-5.41-23.034-15.822-28.288l-1.69-2.209c19.068-34.213,32.862-75.01,32.862-79.878
	c0-1.172-0.519-1.51-1.262-1.126c-30.36,15.372-63.695,29.076-71.09,34.26l-1.961,2.705c-11.391-10.167-23.324-19.708-35.749-28.581
	C236.321,65.618,184.253,18.826,150.715,2.034c0,6.987,33.178,58.085,38.272,101.045C128.919,98.977,52.735,82.343,52.735,82.343
	l65.591,106.182c-53.87,3.292-101.159,4.419-101.159,4.419c0,3.742,60.181,32.502,148.988,52.606
	c19.452,4.396,33.9,3.698,43.366,3.698c-1.756-1.909-3.529-3.802-5.319-5.68c12.848,7.843,24.636,15.664,35.207,22.719l-8.744,0.046
	c-21.368,0-37.506-1.129-47.717-1.894l-9.241-14.696c-3.245-0.581-6.476-1.236-9.692-1.96c-4.057-0.902-7.956-1.85-10.594-2.48
	l13.412,21.707c-12.577,9.015-44.764,36.354-68.07,74.47l2.029,3.767c0,0,22.54-1.354,41.563-1.917c0,0,8.52-24.345,39.084-52.587
	l31.555,51.032l38.251-61.918c2.478-0.293,5.003-0.563,7.55-0.901c2.638,1.668,5.184,3.246,7.664,4.642
	c-1.376,0.778-2.514,1.917-3.291,3.292c0,0,2.187,1.509,2.321,4.507c0,0,1.895,0.295,3.877-0.293c0,0,1.353-2.072,2.479-4.506
	c2.523,1.283,4.891,2.366,7.1,3.269c0,2.142,0.36,3.718,0.36,3.718s2.413,0.744,5.365-1.869c16.95,3.876,27.093,0.585,27.093,0.585
	c17.219,5.094,25.965-0.608,25.965-0.608c6.762,2.93,12.398,4.62,30.834,4.62c10.031,0,13.344-1.194,13.344-2.887
	c0.091-8.113-8.43-41.064-16.949-58.038H364.976z"/>
<path d="M369.935,229.368l0.632,2.253c0,0,5.499,3.786,9.512,4.915l3.156-2.323c0,0-1.804-2.345-1.219-5.792
	c-4.191-2.703-12.081,0.97-12.081,0.97V229.368z M408.613,135.356l-4.327,7.664l0.946,5.905
	c-19.383,38.158-40.954,72.666-40.954,72.666l2.66,6.468l3.154-2.184l2.165,0.179c0,0,20.646-19.766,46.974-70.794
	c0,0,7.662,0.225,8.227-5.928c0.608-6.244,1.036-10.594,1.036-13.074c-9.513-3.471-19.926-0.901-19.926-0.901H408.613z"/>
<g>
	<path fill="#FFFFFF" d="M267.155,263.11c-6.92,2.253-9.873,0.677-9.873,0.677c1.354-1.399,2.255-4.06,2.255-4.06
		c-6.13,1.714-8.047,0-8.047,0c1.014-0.562,2.028-2.93,2.028-2.93c-7.979,0-12.328,1.354-12.328,1.354
		c6.604,0.812,10.908,3.719,14.582,7.437c5.185-0.36,8.34-0.81,10.594-1.194l0.811-1.283H267.155z M292.782,286.28
		c4.688-2.771,8.115-5.409,8.115-5.409c-15.439,0.675-21.233-1.196-21.233-1.196c2.773-2.749,6.199-5.138,8.386-7.301
		c-1.646,0.269-3.381,0.45-5.026,0.562c-0.045,0.744-0.902,1.578-3.224,3.043c-4.62,0.723-9.15,1.399-13.613,2.028
		c1.262,1.354,2.614,2.64,4.124,3.901l3.336-1.061c0,0.901-0.226,2.028-0.608,3.111c1.803,1.284,3.9,2.41,6.221,3.38
		c0.214-1.595,0.75-3.129,1.579-4.507c0.81,0.225,1.239,2.479,1.667,3.109c1.128,1.668,2.637,1.938,2.93,3.314
		c6.47,1.486,14.651,1.893,25.47,0.518l3.021-2.411c-15.778,0.316-21.121-1.013-21.121-1.013L292.782,286.28z"/>
	<path fill="#FFFFFF" d="M253.72,259.075c0,0,3.382,0.225,7.259-1.173c0,0,0.225,2.592-1.578,4.959c0,0,3.313-0.046,10.054-1.577
		c0,0-0.564,1.352-1.398,2.839c1.024-0.217,2.065-0.336,3.11-0.36c2.188,0,2.435,0.452,4.327,0.452c3.607,0,4.059,0.767,4.555,4.958
		c0.743,1.06,1.577,1.804,2.163,2.413c2.661-0.228,5.725-0.498,8.79-0.948c0,0-3.381,4.779-8.564,8.295
		c0,0,14.335,1.354,21.772,0.452c0,0-3.2,3.875-7.663,6.129c0,0,9.917,0.631,20.602,0.451c0,0-2.096,2.321-4.192,4.012
		c0,0,13.162,2.932,22.54,0.723c-33.81-13.456-52.428-33.81-80.692-33.81c-0.451,1.216-1.06,2.207-1.06,2.207L253.72,259.075z
		 M117.355,319.977l-7.572,9.736c0,0,22.359-3.47,35.771-1.441l3.741-6.38c-7.325-3.832-31.916-1.915-31.916-1.915H117.355z"/>
	<path fill="#FFFFFF" d="M120.828,315.604l-2.345,2.93c0,0,23.103-1.735,31.488,2.164l5.477-8.227
		c-7.438-1.238-34.621,3.154-34.621,3.154V315.604z M124.794,310.735l-2.637,3.247c0,0,27.656-4.284,34.192-2.705l0.451-0.677
		c-6.83-2.256-32.006,0.113-32.006,0.113V310.735z M134.126,300.007l-8.024,9.196c0,0,22.382-2.345,31.601,0.271l9.287-10.751
		C157.566,297.144,134.126,300.007,134.126,300.007z M146.162,287.926l-10.639,10.548c0,0,19.609-2.659,32.547-0.969l5.071-5.634
		C168.296,287.768,146.162,287.926,146.162,287.926L146.162,287.926z"/>
	<path fill="#FFFFFF" d="M148.19,286.077l-0.563,0.495c0,0,19.159-0.314,26.46,4.282l1.127-1.171
		c-5.95-3.38-27.047-3.606-27.047-3.606H148.19z"/>
	<path fill="#FFFFFF" d="M158.762,276.926l-9.128,7.889c0,0,21.277,0.36,26.507,3.878l7.843-7.731
		c-6.897-3.967-25.244-4.057-25.244-4.057L158.762,276.926z M146.545,329.106l0.27,1.937l3.088-5.318l-0.339-1.871L146.545,329.106z
		 M150.625,322.141l0.293,1.847l5.117-7.504l-0.361-2.098L150.625,322.141z M156.801,312.855l0.315,2.253l0.519-0.677l-0.451-2.163
		L156.801,312.855z M158.243,310.871l0.451,2.253l8.723-9.827l-0.338-2.703L158.243,310.871z M168.206,299.353l0.36,2.703
		l5.296-5.633l-0.676-2.594L168.206,299.353z M174.224,292.705l0.676,2.592l1.036-1.061l-0.382-2.998L174.224,292.705z M176.726,290
		l0.361,3.042l6.942-6.762l-0.09-3.562L176.726,290z M243.263,334.267c0-4.108-3.331-7.438-7.438-7.438
		c-4.108,0-7.438,3.33-7.438,7.438c0,4.106,3.33,7.437,7.438,7.437l0,0C239.932,341.704,243.263,338.374,243.263,334.267z
		 M229.964,334.267c0-3.236,2.624-5.86,5.86-5.86c3.237,0,5.859,2.624,5.859,5.86c0,3.237-2.622,5.86-5.859,5.86
		C232.588,340.128,229.964,337.505,229.964,334.267L229.964,334.267z"/>
	<path fill="#FFFFFF" d="M238.844,338.525l-1.645-3.604c1.308-0.484,1.974-1.937,1.49-3.245c-0.361-0.975-1.284-1.628-2.323-1.646
		h-3.607v8.495h1.579v-3.47h1.17l1.579,3.45h1.803L238.844,338.525z M236.367,333.477h-2.028v-1.893h2.028
		c0.494,0,0.899,0.449,0.899,0.947c0,0.495-0.405,0.901-0.899,0.901V333.477z"/>
</g>
<g>
	<path fill="#EA7200" d="M266.883,289.819c2.616-3.516,4.373-5.771,4.824-7.168c-2.322,0.993-5.274,1.532-6.874,3.991
		c0,0,1.127,1.126,2.029,3.198L266.883,289.819z M280.317,292.254c0,0,1.735-0.226,3.291-1.758c0,0-1.644-2.48-2.592-4.846
		c-1.126,2.929-0.676,6.579-0.676,6.579L280.317,292.254z M272.271,230.495c1.396,11.089,4.058,15.776,4.058,15.776
		s4.192,3.312,12.171,6.537C280.431,237.933,272.271,230.495,272.271,230.495z M185.065,280.037l3.201-1.803
		c0,0,13.186,2.14,92.098-6.018c-1.895-1.354-2.818-1.083-2.818-4.216c0-1.014,0.157-1.194-1.532-1.194
		c-1.759,0-2.48-0.45-4.509-0.45c-2.547,0-6.311,2.522-44.966,2.522c-30.767,0-52.292-2.568-53.758-2.568
		c-1.397,0-4.192,2.615-12.396,9.24c0,0.046,16.184-0.157,24.658,4.509L185.065,280.037z M144.855,329.442
		c-11.856-2.253-36.334,1.85-36.334,1.85l-6.582,9.467l38.318-1.804l4.621-9.467L144.855,329.442z M408.525,147.572
		c-12.804,22.991-26.778,53.554-41.993,72.373l4.396-2.703l0.946-0.97l-0.789,2.569l1.85-0.901l-2.818,4.959l2.591-2.12
		c0,0,13.075-14.648,46.05-74.266c-7.324-1.126-10.256,1.037-10.256,1.037L408.525,147.572z M409.853,138.624l-2.659,4.238
		c0,0,6.424-1.217,15.034-0.495l3.109-4.351c-9.466-1.803-15.506,0.632-15.506,0.632L409.853,138.624z"/>
	<path fill="#EA7200" d="M369.169,220.419c0,0-1.217,0.991-3.112,1.511l1.579,3.38l1.015-0.742l-0.451-1.24l1.69-3.155l-0.743,0.225
		L369.169,220.419z M380.621,229.255c-2.706-1.397-7.935,0.677-7.935,0.677s5.297,1.24,8.294,2.592
		C380.98,232.523,380.484,231.306,380.621,229.255L380.621,229.255z M238.89,281.051c-14.602,1.357-29.247,2.186-43.907,2.48
		l-5.41,0.043c-0.225,0.16-0.338,0.317-0.541,0.452l-1.51,1.352l25.515,40.73l28.333-45.261c-0.834,0.046-1.646,0.136-2.479,0.227
		 M322.243,147.821c1.125-0.497,2.252-1.015,3.38-1.579l33.923-54.23c-21.256,4.283-61.466,11.721-99.987,15.777
		c0.36,0.677,0.722,1.285,1.128,1.916l2.546,4.328c27.697-3.216,55.268-7.441,82.654-12.667l-31.736,50.332l8.114-3.876
		 M173.705,249.721c-3.245-0.583-6.476-1.236-9.692-1.963l10.03,16.05l2.389,0.157l6.537,0.45l-9.241-14.694H173.705z"/>
</g>
<g>
	<path fill="#006D75" d="M232.263,281.616c-16.905,1.352-30.271,1.756-37.28,1.893c-3.471,0.065-5.41,0.065-5.41,0.065
		c-0.225,0.16-0.338,0.317-0.541,0.452l24.005,38.384l25.853-41.359C236.635,281.275,234.425,281.457,232.263,281.616z
		 M176.455,263.966l6.537,0.45l-9.309-14.65c-2.336-0.429-4.667-0.895-6.987-1.396l9.736,15.596H176.455z M345.908,101.366
		l-31.734,50.332c2.388-1.195,5.138-2.479,8.069-3.899l33.132-52.901c-20.961,4.103-58.422,10.909-94.666,14.809l2.547,4.328
		C290.955,110.842,318.524,106.616,345.908,101.366L345.908,101.366z M189.664,113.582c0-2.344-0.091-4.733-0.339-7.122
		c-20.623,2.186-32.953,7.055-37.641,9.286C158.896,113.719,171.745,113.11,189.664,113.582z M346.516,208.79
		c0,0-25.107-35.271-73.389-70.797c4.125,8.453,7.957,17.22,11.383,26.282c0.45,1.262,0.405,2.367-0.677,2.367
		c-10.594,0-47.896-20.512-84.568-16.86c19.046,18.144,38.001,43.612,19.61,34.282c0,0,19.158,11.855,41.697,35.612
		c16.771,0,20.128,2.817,21.119,5.184c1.896,4.509,4.667,12.555,15.666,25.47c5.049,0,5.974-0.315,7.821-4.823
		c0,0,1.352,5.771-1.172,10.008c22.9,18.101,67.348,36.288,74.155,36.288c2.704,0-2.93-24.884-15.776-54.771
		c-4.239-18.887-6.537-24.205-15.848-28.24H346.516z M137.867,187.219c0,0,6.537,3.899,17.31,11.991
		c-2.637-4.577-9.602-9.557-17.242-14.201l-16.68,1.263l1.217,1.984l15.395-1.016V187.219z M236.367,216.565
		c-1.585,8.533-1.531,17.294,0.156,25.809c-0.45-4.779,3.291-20.826,3.291-20.826l-3.427-4.961L236.367,216.565z M228.026,208.36
		c-2.66,16.453,1.06,29.527,1.06,29.527c-0.789-6.02,2.345-23.803,2.345-23.803l-3.381-5.725H228.026z M219.686,200.924
		c-2.705,17.58,1.51,31.554,1.51,31.554c-0.811-7.956,1.917-26.596,1.917-26.596L219.686,200.924L219.686,200.924z M200.753,171.964
		c0,0-32.277-26.735-72.353-33.453c-1.465,0-4.35,6.086-4.35,6.086s4.238-3.832,5.522-3.832
		C163.878,147.392,200.753,171.964,200.753,171.964z"/>
</g>
<path fill="#FFFFFF" d="M213.037,312.087l19.249-30.471c-16.95,1.352-30.293,1.756-37.303,1.893l18.032,28.624L213.037,312.087z"/>
</svg>
