<svg xmlns="http://www.w3.org/2000/svg" viewBox="0 0 24 16"><path fill="#002654" d="M20.53 1.183H6.433c.934 1.456 1.245 1.935.45 1.913l-1.17-1.913H3.47l5.094 8.32c-.07-.003-.138-.007-.205-.007-2.09 0-3.726 1.17-3.726 2.66s1.636 2.66 3.725 2.66c2.085 0 3.722-1.167 3.722-2.66 0-.376-.106-.74-.313-1.082L10.627 9.21s.92.185 1.608-.133l-.332-.43s1.4.13 2.69-.255l-.436-.464s1.964-.05 3.324-1.795h-.135s1.014-.49 1.44-1.57h-.13s.648-.484.87-1.48h-.193s1.035-.727 1.195-1.9z"/><g fill="#FFF"><path d="M20.18 1.43H6.89c1.09 1.65.768 1.915-.142 1.915L5.575 1.43H3.91l5.116 8.36a5.06 5.06 0 0 0-.667-.048c-1.952 0-3.48 1.06-3.48 2.415 0 1.354 1.527 2.414 3.48 2.414 1.95 0 3.476-1.06 3.476-2.413a1.81 1.81 0 0 0-.277-.954l-1.45-2.367s1.008.332 1.715.11l-.447-.574s1.664.138 2.777-.087l-.53-.562s2.48-.023 3.403-1.554h-.425s1.17-.164 1.76-1.426h-.432s1.007-.463 1.278-1.517h-.467c.002 0 1.046-.693 1.44-1.798zM11.21 14.255h.11v.336h.04v-.335h.12v-.04h-.27zM11.694 14.52l-.097-.305h-.065v.376h.04v-.32l.102.32h.04l.1-.32v.32h.04v-.375h-.064z"/></g><path fill="#FCB514" d="M19.902 1.6H7.2c.75 1.146.895 1.99-.55 1.91L5.48 1.6H4.218l5.157 8.424a4.768 4.768 0 0 0-1.015-.11c-1.823 0-3.306 1.006-3.306 2.243 0 1.235 1.483 2.24 3.306 2.24 1.822 0 3.305-1.005 3.305-2.24 0-.3-.085-.59-.25-.864L9.73 8.55s1.06.37 1.79.292c0 0-.332-.41-.48-.666 0 0 1.206.145 2.78.007l-.592-.625.155.002c2.553 0 3.32-1.308 3.32-1.308h-.694s1.724-.44 2.092-1.425h-.64s1.364-.667 1.498-1.425h-.778c0-.002 1.36-.77 1.72-1.8z"/><path fill="#002F87" d="M7.525 1.784c1 1.635 0 2.004-.983 1.904L5.376 1.784h-.833L9.77 10.32a4.467 4.467 0 0 0-1.41-.223c-1.726 0-3.125.922-3.125 2.06 0 1.137 1.398 2.06 3.124 2.06 1.722 0 3.12-.923 3.12-2.06 0-.272-.08-.53-.224-.77L9.318 8.225s1.25.435 1.83.435c0 0-.264-.337-.423-.698 0 0 1.5.16 2.7.068l-.654-.692s.196.038.614.038c2.113 0 2.924-.942 2.924-.942h-6.28l-.093-.15h5.21s2.125-.407 2.638-1.277h-8.63l-.09-.15h7.94s1.48-.712 1.69-1.275H8.282l-.09-.15h9.57s1.396-.726 1.85-1.648H7.525z"/></svg>