<?xml version="1.0" encoding="utf-8"?>
<!-- Generator: Adobe Illustrator 15.1.0, SVG Export Plug-In . SVG Version: 6.00 Build 0)  -->
<!DOCTYPE svg PUBLIC "-//W3C//DTD SVG 1.1//EN" "http://www.w3.org/Graphics/SVG/1.1/DTD/svg11.dtd">
<svg version="1.1" id="Layer_1" xmlns="http://www.w3.org/2000/svg" xmlns:xlink="http://www.w3.org/1999/xlink" x="0px" y="0px"
	 width="435.031px" height="352.309px" viewBox="0 0 435.031 352.309" enable-background="new 0 0 435.031 352.309"
	 xml:space="preserve">
<g>
	<path fill="#232475" d="M430.864,158.28c0-37.957-23.637-75.381-65.486-98.369l-16.036,12.745
		c28.619,18.005,45.465,44.909,45.465,75.474c0,71.279-88.103,135.838-186.123,135.838c-10.057,0-19.929-0.694-29.43-2.156
		l-33.137,24.518c22.123,7.315,45.291,10.971,68.591,10.822c116.374,0,216.156-78.556,216.156-158.85"/>
	<path fill="#232475" d="M282.837,184.813l-59.879,11.702L355.737,87.371l-61.824,8.296l120.173-95.31l-139.87,36.845
		c-1.854-0.054-3.706-0.085-5.561-0.093c-114.636,0-212.078,77.93-212.078,160.124c0,40.32,21.736,72.438,55.383,93.224
		l-51.675,59.137l222.551-164.758V184.813z M72.543,185.091c0-73.736,92.228-135.862,186.124-135.862h1.947l-90.815,101.566
		l52.185-8.249l-102.84,99.48l41.711-7.531l-29.151,33.322c-35.362-16.8-59.206-45.697-59.206-82.727"/>
</g>
</svg>
