<?xml version="1.0" encoding="utf-8"?>
<!-- Generator: Adobe Illustrator 15.1.0, SVG Export Plug-In . SVG Version: 6.00 Build 0)  -->
<!DOCTYPE svg PUBLIC "-//W3C//DTD SVG 1.1//EN" "http://www.w3.org/Graphics/SVG/1.1/DTD/svg11.dtd">
<svg version="1.1" id="Layer_1" xmlns="http://www.w3.org/2000/svg" xmlns:xlink="http://www.w3.org/1999/xlink" x="0px" y="0px"
	 width="435.031px" height="352.309px" viewBox="0 0 435.031 352.309" enable-background="new 0 0 435.031 352.309"
	 xml:space="preserve">
<path fill="#00205B" d="M310.047,190.583c-1.063-0.531-2.125-1.17-3.293-1.699c-0.319-0.202-0.688-0.312-1.063-0.319
	c-0.947-0.005-1.813,0.532-2.232,1.381l-7.866,15.093c-0.299,0.595-0.336,1.286-0.104,1.912c0.163,0.638,0.587,1.178,1.168,1.488
	c1.063,0.531,2.232,1.169,3.296,1.7c0.355,0.203,0.758,0.313,1.169,0.319c0.946,0.002,1.813-0.533,2.231-1.382l7.759-15.093
	c0.655-1.2,0.213-2.706-0.987-3.359C310.099,190.611,310.072,190.595,310.047,190.583z M198.35,231.713h5.313l-2.656-11.902
	L198.35,231.713z M222.155,257.432l-3.083,11.902h6.165L222.155,257.432z M221.625,191.115h3.824
	c1.365-0.066,2.438-1.187,2.445-2.551V171.56c-0.015-1.345-1.1-2.43-2.445-2.446h-3.824c-1.346,0.016-2.43,1.101-2.445,2.446v17.004
	c-0.03,1.377,1.062,2.52,2.44,2.551C221.621,191.115,221.622,191.115,221.625,191.115L221.625,191.115z M192.397,183.994
	c1.701-0.32,3.401-0.638,5.208-0.851c0.634-0.103,1.204-0.446,1.595-0.955c0.411-0.549,0.566-1.245,0.425-1.915l-1.169-7.013
	c-0.257-1.337-1.526-2.229-2.87-2.02c-1.701,0.212-3.401,0.531-5.101,0.85h-0.425l1.913,12.01L192.397,183.994z M229.914,219.171
	h-5.101v9.566h5.101c0.928,0.011,1.689-0.731,1.699-1.657c0-0.015,0-0.029,0-0.044v-6.058
	C231.635,220.014,230.877,219.21,229.914,219.171L229.914,219.171z"/>
<path fill="#00205B" d="M227.895,352.656c-0.508-0.015-0.995-0.202-1.382-0.531c-4.044-4.278-7.348-9.198-9.777-14.56
	c-1.312-2.87-2.343-5.86-3.082-8.929c-0.866-3.267-1.4-6.614-1.594-9.989c-8.472,3.992-17.207,7.4-26.144,10.203
	c-9.717,3.103-19.621,5.587-29.651,7.439h-0.319c-0.5-0.011-0.968-0.244-1.275-0.638c-0.225-0.424-0.299-0.91-0.212-1.382
	c1.792-6.065,4.402-11.856,7.758-17.218c-9.868,2.018-19.837,3.507-29.864,4.464h-0.212c-0.51,0.039-1-0.207-1.275-0.637
	c-0.333-0.422-0.415-0.99-0.213-1.488c1.607-4.539,3.488-8.975,5.633-13.284c-11.398,2.851-22.972,4.946-34.646,6.27h-0.213
	c-0.578-0.024-1.101-0.347-1.382-0.851c-0.235-0.515-0.195-1.115,0.107-1.594c8.997-13.105,19.722-24.939,31.883-35.179
	c-8.814-3.677-17.104-8.5-24.657-14.347c-0.438-0.317-0.679-0.841-0.637-1.382c-0.026-0.536,0.265-1.034,0.744-1.274
	c10.202-5.738,20.955-10.438,32.096-14.028c-8.426-1.527-16.611-4.174-24.338-7.865c-0.462-0.143-0.768-0.58-0.744-1.062
	c-0.113-0.453,0.007-0.931,0.319-1.274c2.663-3.377,5.732-6.412,9.14-9.035c-4.926-2.08-9.687-4.531-14.241-7.332
	c-4.624-2.887-8.996-6.159-13.073-9.778c-0.642-0.53-0.737-1.479-0.212-2.125c3.134-3.634,6.623-6.944,10.415-9.883
	c-5.333-3.48-10.478-7.239-15.41-11.267c-5.146-4.1-10.077-8.464-14.773-13.073c-0.266-0.332-0.416-0.743-0.425-1.168
	c0.029-0.391,0.176-0.761,0.425-1.063c2.364-2.29,4.965-4.32,7.758-6.057c-3.609-3.082-6.918-6.498-9.883-10.203
	c-3.35-4.174-6.404-8.578-9.14-13.179c-0.193-0.397-0.231-0.852-0.106-1.275c0.171-0.438,0.518-0.784,0.956-0.957
	c4.253-1.665,8.671-2.876,13.179-3.613c-3.585-7.89-6.122-16.214-7.546-24.763c-0.113-0.452,0.007-0.93,0.319-1.275
	c0.266-0.387,0.7-0.624,1.169-0.637c0.15-0.016,0.3,0.021,0.425,0.105c8.692,2.45,17.155,5.65,25.294,9.565
	c1.047-5.393,2.835-10.614,5.313-15.517c0.281-0.505,0.805-0.827,1.382-0.85c0.343,0.008,0.677,0.119,0.957,0.319
	c4.127,3.021,8.1,6.249,11.903,9.671c3.547,3.141,6.918,6.476,10.096,9.99c1.777-2.733,4.048-5.111,6.695-7.014
	c0.272-0.214,0.61-0.327,0.957-0.319c0.444,0.018,0.863,0.208,1.168,0.531c9.565,11.903,24.125,28.164,40.067,39.748
	c-4.08-12.009-9.126-23.667-15.091-34.859c-0.245-0.42-0.284-0.929-0.106-1.381c0.219-0.42,0.605-0.729,1.062-0.85
	c2.667-0.5,5.367-0.821,8.077-0.958c-7.018-11.057-12.456-23.04-16.154-35.603c-0.113-0.485,0.005-0.995,0.319-1.382
	c0.248-0.406,0.693-0.649,1.168-0.638h0.107c6.502,0.332,12.933,1.512,19.129,3.508c-0.745-5.101-0.994-10.261-0.744-15.411
	c0.248-5.564,0.887-11.104,1.914-16.579c0.107-0.737,0.742-1.282,1.488-1.275c0.184-0.028,0.372,0.01,0.532,0.106
	c4.554,1.774,8.96,3.907,13.178,6.377c-0.207-4.678-0.101-9.365,0.319-14.029c0.391-4.795,1.137-9.555,2.232-14.241
	c0.177-0.679,0.785-1.158,1.487-1.169c0.185-0.028,0.373,0.01,0.532,0.106c3.519,1.292,6.9,2.928,10.096,4.889
	c3.401-9.991,8.927-19.449,14.241-28.27c0.504-0.763,1.53-0.974,2.293-0.471c0.188,0.123,0.348,0.283,0.471,0.471
	c3.508,5.632,5.952,10.096,8.184,14.241c2.337,4.547,4.396,9.231,6.164,14.029c3.137-2,6.488-3.64,9.989-4.889
	c0.166-0.077,0.349-0.113,0.532-0.106c0.724-0.054,1.37,0.453,1.488,1.169c1.132,4.682,1.913,9.442,2.339,14.241
	c0.438,4.664,0.51,9.354,0.211,14.029c4.195-2.512,8.606-4.646,13.179-6.377c0.166-0.077,0.349-0.113,0.53-0.106
	c0.758,0.021,1.41,0.542,1.595,1.275c1.028,5.474,1.667,11.014,1.913,16.579c0.252,5.149,0.003,10.31-0.743,15.411
	c6.193-2.005,12.626-3.184,19.129-3.507l0,0c0.506-0.014,0.984,0.226,1.275,0.637c0.332,0.338,0.416,0.848,0.213,1.275
	c-3.657,12.579-9.098,24.568-16.154,35.603c2.72,0.104,5.423,0.46,8.077,1.063c0.474,0.09,0.87,0.408,1.062,0.85
	c0.214,0.436,0.214,0.946,0,1.381c-5.525,10.84-11.265,22.531-15.196,34.753c17.428-12.754,30.605-27.845,40.065-39.642
	c0.335-0.343,0.796-0.536,1.275-0.531c0.314-0.008,0.62,0.105,0.851,0.319c2.672,1.874,4.948,4.258,6.694,7.015
	c3.15-3.575,6.522-6.947,10.098-10.097c3.72-3.294,7.759-6.482,11.902-9.564c0.279-0.2,0.613-0.312,0.957-0.319
	c0.549,0.026,1.058,0.3,1.382,0.744c2.588,4.894,4.382,10.167,5.315,15.623c8.132-3.955,16.595-7.191,25.292-9.671h0.425
	c0.449-0.004,0.877,0.19,1.17,0.531c0.281,0.365,0.431,0.813,0.424,1.274c-1.487,8.546-4.06,16.868-7.65,24.763
	c4.509,0.724,8.93,1.936,13.178,3.614c0.848,0.318,1.275,1.263,0.955,2.11c-0.027,0.079-0.063,0.155-0.104,0.228
	c-2.663,4.621-5.685,9.027-9.035,13.179c-3,3.707-6.346,7.124-9.989,10.203c2.812,1.71,5.417,3.744,7.759,6.057
	c0.291,0.274,0.445,0.663,0.426,1.063c0.021,0.43-0.133,0.853-0.426,1.168c-4.656,4.612-9.553,8.974-14.666,13.073
	c-4.995,4.039-10.203,7.759-15.516,11.267c3.838,2.881,7.334,6.198,10.414,9.883c0.523,0.646,0.431,1.595-0.212,2.125
	c-4.04,3.618-8.378,6.888-12.967,9.778c-4.579,2.821-9.376,5.274-14.347,7.332c3.441,2.62,6.547,5.653,9.245,9.035
	c0.312,0.344,0.433,0.821,0.32,1.274c-0.061,0.487-0.39,0.897-0.852,1.062c-7.664,3.757-15.823,6.404-24.23,7.863
	c11.098,3.613,21.812,8.312,31.989,14.03c0.485,0.249,0.807,0.73,0.85,1.274c0.016,0.535-0.221,1.046-0.638,1.382
	c-9.14,6.695-16.791,11.266-24.763,14.454c12.212,10.146,22.944,21.952,31.885,35.071c0.401,0.483,0.444,1.171,0.104,1.7
	c-0.238,0.545-0.788,0.882-1.381,0.851c-0.081-0.009-0.157-0.046-0.213-0.106c-11.64-1.323-23.18-3.418-34.539-6.27
	c1.913,4.038,3.825,8.608,5.632,13.284c0.148,0.504,0.07,1.046-0.212,1.488c-0.308,0.393-0.776,0.627-1.276,0.637h-0.213
	c-10.032-0.904-20.004-2.396-29.864-4.464c3.258,5.399,5.828,11.182,7.652,17.218c0.204,0.498,0.121,1.066-0.212,1.487
	c-0.323,0.373-0.782,0.604-1.276,0.638c-0.116,0.014-0.233-0.024-0.317-0.105c-10.851-2.188-21.565-4.992-32.096-8.396
	c-10.311-3.296-19.875-6.803-26.357-9.671c-0.105-0.107-0.105-0.107-0.213-0.107c-0.275,0.007-0.524,0.172-0.639,0.425
	c-0.636,3.294,0.532,7.546,3.508,12.434c1.86,3.086,4.032,5.971,6.483,8.608v0.106c0.607,0.758,0.563,1.849-0.105,2.552
	l-10.84,9.884C228.758,352.448,228.339,352.637,227.895,352.656z"/>
<path fill="#FFFFFF" d="M222.794-0.397c-0.413-0.008-0.819,0.103-1.169,0.319c-0.427,0.229-0.791,0.557-1.064,0.956
	c-3.506,5.739-5.951,10.097-8.182,14.348c-2.189,4.194-4.106,8.526-5.741,12.966c-2.945-1.688-5.998-3.179-9.14-4.464
	c-0.31-0.088-0.634-0.124-0.956-0.105c-0.539,0.014-1.061,0.2-1.487,0.53c-0.505,0.349-0.85,0.885-0.957,1.488
	c-1.131,4.718-1.913,9.514-2.338,14.348c-0.368,4.099-0.474,8.216-0.319,12.328c-3.744-2.148-7.654-3.997-11.691-5.527
	c-0.264-0.133-0.554-0.205-0.85-0.212c-1.262-0.029-2.351,0.878-2.55,2.125h-0.106c-1.021,5.511-1.661,11.087-1.913,16.685
	c-0.212,4.683-0.034,9.375,0.531,14.029c-5.814-1.704-11.805-2.738-17.854-3.082h-0.107c-1.467,0.061-2.608,1.299-2.547,2.767
	c0.009,0.214,0.043,0.427,0.104,0.633c1.921,6.335,4.229,12.546,6.909,18.599c2.431,5.431,5.236,10.687,8.396,15.729
	c-2.183,0.151-4.35,0.471-6.483,0.957c-0.769,0.132-1.413,0.656-1.7,1.381c-0.425,0.683-0.425,1.549,0,2.232
	c5.4,10.221,10.088,20.803,14.028,31.67c-14.878-11.371-28.269-26.462-37.197-37.622c-0.526-0.565-1.248-0.908-2.019-0.957
	c-0.544-0.003-1.07,0.185-1.488,0.531h-0.106c-1.505,1.096-2.894,2.343-4.146,3.721c-0.756,0.781-1.432,1.635-2.019,2.55
	c-2.869-3.188-6.058-6.271-9.246-9.247c-3.827-3.294-7.865-6.589-12.116-9.564c-0.401-0.375-0.94-0.568-1.489-0.532
	c-0.939,0.024-1.809,0.499-2.337,1.276c-1.417,2.638-2.557,5.416-3.401,8.289c-0.701,2.051-1.269,4.146-1.7,6.27
	c-3.72-1.7-7.439-3.294-11.053-4.782c-4.888-1.807-9.352-3.295-13.284-4.357h-0.638c-0.758,0.009-1.483,0.314-2.019,0.85
	c-0.483,0.636-0.676,1.447-0.532,2.232c0.823,4.527,1.923,8.999,3.294,13.391c0.964,3.545,2.245,6.995,3.827,10.31
	c-4.081,0.843-8.094,1.979-12.01,3.4c-0.701,0.329-1.265,0.893-1.593,1.594c-0.254,0.741-0.176,1.554,0.212,2.232
	c2.711,4.65,5.766,9.09,9.14,13.284c2.736,3.405,5.759,6.569,9.033,9.459c-2.413,1.569-4.658,3.386-6.695,5.42
	c-0.529,0.452-0.839,1.111-0.851,1.807c0.011,0.726,0.318,1.418,0.851,1.913c4.695,4.643,9.626,9.042,14.772,13.178
	c4.57,3.72,9.353,7.228,14.241,10.521c-1.488,1.169-2.87,2.443-4.145,3.613c-1.914,1.807-3.614,3.614-5.208,5.422
	c-0.414,0.55-0.639,1.222-0.637,1.912c0.099,0.695,0.437,1.334,0.956,1.807c2.031,1.815,4.16,3.519,6.377,5.101
	c2.182,1.679,4.452,3.24,6.801,4.677c2.372,1.506,4.819,2.89,7.333,4.146c1.806,0.849,3.613,1.806,5.42,2.55
	c-2.892,2.489-5.559,5.227-7.971,8.183c-0.445,0.614-0.636,1.376-0.532,2.126c0.167,0.779,0.674,1.441,1.382,1.807
	c4.125,2.081,8.43,3.79,12.859,5.102c2.445,0.745,5.102,1.381,7.971,2.02c-4.039,1.381-7.971,2.976-11.903,4.677
	c-5.725,2.383-11.297,5.114-16.686,8.182h-0.106c-0.764,0.442-1.246,1.245-1.275,2.126c-0.105,0.887,0.309,1.755,1.063,2.232
	c3.907,3.002,7.987,5.77,12.222,8.289c3.54,2.15,7.234,4.033,11.053,5.632c-11.671,10.035-21.996,21.538-30.714,34.222
	c-0.542,0.824-0.622,1.868-0.212,2.765c0.484,0.836,1.371,1.36,2.338,1.382h0.425c7.015-0.957,13.179-1.808,18.811-2.871
	c5.102-0.85,9.565-1.806,13.71-2.869c-1.594,3.509-3.188,7.334-4.676,11.372c-0.326,0.779-0.204,1.675,0.319,2.34
	c0.453,0.736,1.26,1.182,2.125,1.168h0.319c6.271-0.745,11.796-1.381,16.686-2.127c4.039-0.636,7.652-1.274,10.947-1.912
	c-1.063,1.912-2.019,3.826-2.976,5.847c-1.275,2.976-2.445,6.056-3.613,9.562c-0.246,0.804-0.087,1.675,0.424,2.34
	c0.514,0.655,1.293,1.045,2.126,1.062h0.425c5.208-1.062,10.309-2.125,15.197-3.401c4.996-1.168,9.885-2.55,14.56-4.038
	c4.676-1.487,9.353-3.188,13.71-4.889c3.826-1.487,7.545-3.188,11.159-4.783c0.322,2.898,0.819,5.773,1.487,8.609
	c0.821,3.126,1.888,6.182,3.188,9.14c2.541,5.414,5.911,10.398,9.99,14.772c0.565,0.557,1.332,0.863,2.125,0.852
	c0.71,0.009,1.396-0.257,1.912-0.744l10.735-9.884c0.525-0.554,0.86-1.263,0.956-2.02c0.03-0.745-0.238-1.472-0.745-2.02
	c-9.14-10.415-10.2-16.579-9.775-19.555c8.476,3.596,17.131,6.753,25.931,9.458c5.526,1.807,10.946,3.401,16.261,4.782
	c5.737,1.49,11.159,2.764,15.94,3.72h0.531c0.834-0.016,1.615-0.406,2.127-1.062c0.464-0.686,0.616-1.534,0.426-2.34
	c-1.169-3.507-2.34-6.587-3.614-9.562c-0.955-2.021-1.914-3.935-2.976-5.847c3.188,0.744,6.802,1.276,10.84,1.912
	c4.995,0.746,10.415,1.382,16.792,2.127h0.318c0.833-0.018,1.613-0.407,2.127-1.063c0.467-0.725,0.583-1.621,0.317-2.444
	c-1.486-4.038-3.08-7.863-4.781-11.372c4.25,1.063,8.714,2.02,13.816,2.869c5.632,1.063,11.796,1.914,18.811,2.871h0.318
	c0.983,0.033,1.895-0.506,2.34-1.382c0.467-0.849,0.383-1.894-0.214-2.657c-8.69-12.739-19.016-24.281-30.714-34.329
	c3.854-1.599,7.583-3.481,11.158-5.632c4.218-2.505,8.299-5.238,12.224-8.183c0.719-0.555,1.118-1.432,1.062-2.339
	c-0.073-0.896-0.592-1.695-1.383-2.126c-5.411-3.023-10.981-5.756-16.686-8.182c-3.932-1.701-7.864-3.296-11.903-4.677
	c2.764-0.639,5.42-1.274,7.972-2.02c4.423-1.331,8.727-3.037,12.859-5.102c0.701-0.372,1.206-1.032,1.382-1.807
	c0.119-0.769-0.114-1.55-0.639-2.126c-2.411-2.956-5.078-5.693-7.969-8.183c1.912-0.744,3.718-1.701,5.524-2.55
	c2.444-1.276,4.996-2.658,7.334-4.146c2.35-1.437,4.621-2.998,6.802-4.677c2.217-1.582,4.346-3.285,6.378-5.101
	c0.528-0.453,0.836-1.11,0.849-1.807c0.09-0.684-0.103-1.374-0.531-1.912c-1.594-1.808-3.296-3.615-5.208-5.422
	c-1.349-1.283-2.77-2.488-4.252-3.613c4.956-3.265,9.745-6.776,14.349-10.521c5.147-4.136,10.078-8.536,14.772-13.178
	c0.541-0.434,0.821-1.117,0.743-1.806c0.029-0.714-0.239-1.408-0.743-1.914c-2.098-2.01-4.374-3.825-6.803-5.42
	c3.302-2.862,6.326-6.03,9.034-9.459c3.444-4.165,6.538-8.608,9.246-13.284c0.352-0.658,0.392-1.437,0.106-2.126
	c-0.188-0.752-0.749-1.355-1.488-1.594c-3.885-1.518-7.906-2.657-12.008-3.4c1.453-3.367,2.731-6.809,3.824-10.31
	c1.359-4.431,2.458-8.938,3.295-13.497c0.104-0.8-0.125-1.608-0.637-2.232c-0.512-0.572-1.254-0.884-2.021-0.85h-0.638
	c-3.933,1.062-8.395,2.55-13.178,4.357c-3.613,1.488-7.332,3.082-11.053,4.783c-0.531-2.02-1.062-4.145-1.7-6.271
	c-0.897-2.87-2.072-5.647-3.508-8.289c-0.485-0.771-1.321-1.249-2.231-1.276c-0.577-0.003-1.135,0.184-1.595,0.532
	c-4.183,2.994-8.19,6.224-12.009,9.671c-3.266,2.856-6.352,5.909-9.246,9.14c-0.623-0.918-1.335-1.772-2.127-2.55
	c-1.188-1.402-2.543-2.651-4.038-3.721c-0.474-0.318-1.023-0.5-1.594-0.531c-0.771,0.049-1.493,0.392-2.019,0.957
	c-5.674,7.201-11.741,14.084-18.175,20.618c-3.611,3.613-7.228,7.015-10.839,10.203c-2.764,2.338-5.421,4.57-8.185,6.695
	c3.897-10.851,8.586-21.401,14.029-31.564c0.32-0.709,0.32-1.522,0-2.232c-0.306-0.755-0.998-1.285-1.807-1.381
	c-2.131-0.493-4.3-0.813-6.482-0.957c3.222-5.006,6.028-10.267,8.396-15.729c2.789-6.008,5.099-12.227,6.907-18.599
	c0.282-0.785,0.162-1.656-0.317-2.337c-0.515-0.655-1.295-1.045-2.127-1.063h-0.105c-6.058,0.347-12.052,1.417-17.854,3.188
	c0.65-4.646,0.863-9.343,0.636-14.029c-0.33-5.597-1.004-11.17-2.019-16.685c-0.199-1.247-1.289-2.154-2.552-2.125
	c-0.287-0.024-0.576,0.011-0.849,0.105c-4.039,1.57-7.946,3.453-11.69,5.633c0.101-4.112-0.005-8.227-0.32-12.329
	c-0.425-4.869-1.207-9.7-2.337-14.454c-0.29-1.161-1.355-1.959-2.551-1.913c-0.252-0.017-0.507,0.02-0.745,0.106
	c-3.204,1.177-6.297,2.635-9.245,4.358c-1.654-4.397-3.571-8.691-5.739-12.859c-2.232-4.251-4.677-8.609-8.184-14.348
	c-0.233-0.393-0.562-0.723-0.956-0.956C223.764-0.243,223.285-0.39,222.794-0.397z M222.794,1.729c0.212,0,0.425,0,0.531,0.213
	c5.739,9.458,11.052,18.917,14.348,28.694c0.102,0.199,0.308,0.323,0.531,0.318c0.116,0.015,0.232-0.024,0.318-0.105
	c3.282-2.062,6.773-3.772,10.415-5.102h0.106c0.224-0.004,0.43,0.119,0.531,0.319c2.176,9.508,2.997,19.276,2.444,29.014
	c-0.018,0.277,0.193,0.514,0.471,0.532c0.021,0,0.041,0,0.061,0h0.32c4.37-2.745,8.996-5.058,13.815-6.908h0.104
	c0.214,0,0.532,0.106,0.532,0.425c2.021,10.734,2.764,22.212,1.062,32.521c-0.104,0.319,0.107,0.531,0.426,0.531h0.212
	c6.35-2.148,12.967-3.399,19.664-3.719h0.104c0.259,0.006,0.464,0.221,0.457,0.479c0,0.055-0.012,0.108-0.031,0.159
	c-3.698,12.751-9.249,24.889-16.473,36.027c-0.163,0.281-0.067,0.641,0.214,0.803c0.033,0.019,0.067,0.035,0.104,0.048
	c2.962,0.066,5.913,0.387,8.818,0.956c0.309,0.104,0.474,0.438,0.367,0.746c-0.013,0.036-0.027,0.071-0.047,0.104
	c-5.739,11.266-11.689,23.594-15.729,36.56c-0.059,0.289,0.127,0.569,0.415,0.627c0.038,0.008,0.077,0.011,0.116,0.011
	c0.105,0,0.105-0.107,0.213-0.107c17.43-12.541,30.927-27.525,41.661-40.81c0.084-0.151,0.252-0.235,0.424-0.212
	c0.117-0.015,0.235,0.025,0.319,0.106c2.738,1.928,5.023,4.431,6.695,7.333c0.146,0.133,0.334,0.208,0.532,0.212
	c0.105,0,0.212-0.106,0.425-0.212c6.701-7.441,14.184-14.14,22.317-19.98c0.101-0.052,0.208-0.088,0.319-0.106
	c0.213,0,0.319,0.106,0.426,0.319c2.869,4.995,4.251,10.733,5.419,15.835c-0.021,0.214,0.136,0.404,0.349,0.425
	c0.026,0.002,0.052,0.002,0.077,0h0.213c8.269-4.036,16.875-7.343,25.719-9.883h0.106c0.294-0.006,0.535,0.227,0.541,0.521
	c0.001,0.039-0.002,0.078-0.009,0.116c-1.431,8.723-4.079,17.201-7.866,25.188c-0.089,0.322,0.102,0.655,0.424,0.743
	c0,0,0.001,0,0.003,0c4.691,0.681,9.292,1.893,13.709,3.614c0.246,0.083,0.377,0.351,0.295,0.596
	c-0.018,0.054-0.047,0.104-0.082,0.148c-4.985,8.927-11.496,16.912-19.236,23.594c-0.236,0.143-0.31,0.448-0.166,0.684
	c0.041,0.067,0.098,0.125,0.166,0.167c2.964,1.761,5.712,3.865,8.184,6.27c0.215,0.243,0.215,0.607,0,0.85
	c-9.342,9.159-19.557,17.382-30.502,24.55c-0.26,0.171-0.333,0.519-0.163,0.777c0.016,0.026,0.035,0.05,0.056,0.073
	c3.902,3.005,7.497,6.388,10.735,10.097c0.211,0.213,0.211,0.636,0,0.744c-8.245,7.268-17.658,13.089-27.845,17.217
	c-0.426,0.105-0.426,0.637-0.106,0.955c3.552,2.76,6.795,5.896,9.671,9.353c0.19,0.244,0.146,0.593-0.099,0.78
	c-0.034,0.029-0.072,0.053-0.112,0.07c-7.546,3.933-16.794,6.483-26.357,8.185c-0.244,0.039-0.409,0.267-0.37,0.511
	c0.024,0.151,0.124,0.277,0.263,0.339c11.911,3.616,23.389,8.535,34.221,14.666c0.249,0.076,0.39,0.337,0.313,0.586
	c-0.034,0.11-0.107,0.204-0.206,0.265c-7.72,6.024-16.231,10.96-25.294,14.666c-0.247,0.071-0.39,0.331-0.318,0.577
	c0.033,0.115,0.109,0.212,0.212,0.271c12.366,10.275,23.242,22.222,32.309,35.498c0.164,0.26,0.085,0.604-0.176,0.768
	c-0.076,0.047-0.161,0.076-0.25,0.083h-0.105c-12-1.356-23.896-3.522-35.604-6.483c0.002-0.056-0.045-0.104-0.102-0.106
	c-0.001,0-0.003,0-0.004,0c-0.426,0-0.638,0.427-0.532,0.851c2.231,4.464,4.252,9.14,6.164,14.136
	c0.092,0.306-0.083,0.628-0.39,0.72c-0.045,0.014-0.095,0.022-0.141,0.023h-0.107c-10.383-1.006-20.708-2.567-30.928-4.677h-0.105
	c-0.281-0.021-0.527,0.188-0.552,0.47c-0.013,0.14,0.034,0.276,0.125,0.382c3.596,5.552,6.354,11.604,8.187,17.96
	c0.084,0.258-0.055,0.532-0.311,0.616c-0.072,0.025-0.146,0.032-0.222,0.021h-0.106c-19.967-4.07-39.476-10.123-58.239-18.066
	c-0.237-0.095-0.493-0.131-0.745-0.105c-0.744-0.007-1.381,0.536-1.487,1.276c-1.807,8.395,7.971,19.554,10.096,21.998
	c0.293,0.26,0.321,0.709,0.061,1.002c-0.02,0.021-0.039,0.043-0.061,0.061l-10.734,9.991c-0.165,0.099-0.343,0.169-0.53,0.212
	c-0.248-0.016-0.477-0.132-0.638-0.319c-8.589-9.017-13.646-20.826-14.242-33.265c-0.024-0.342-0.295-0.614-0.638-0.639
	c-0.117-0.014-0.233,0.025-0.318,0.107c-17.831,8.296-36.655,14.261-56.009,17.747h-0.106c-0.32-0.011-0.568-0.281-0.556-0.602
	c0.002-0.048,0.01-0.096,0.024-0.141c1.956-6.328,4.743-12.367,8.29-17.961c0.164-0.261,0.085-0.604-0.175-0.767
	c-0.076-0.048-0.161-0.077-0.25-0.084c-0.106,0-0.106,0-0.213,0.105c-10.216,2.116-20.54,3.678-30.926,4.677l0,0
	c-0.425,0-0.744-0.425-0.531-0.743c1.741-4.86,3.764-9.616,6.058-14.242c0.129-0.251,0.03-0.558-0.221-0.689
	c-0.063-0.032-0.133-0.051-0.204-0.055h-0.213c-11.705,2.998-23.6,5.202-35.603,6.59l0,0c-0.366-0.036-0.633-0.361-0.597-0.728
	c0.008-0.079,0.03-0.157,0.066-0.229c9.136-13.224,20.042-25.131,32.414-35.393c0.319-0.211,0.212-0.743-0.212-0.955
	c-9.026-3.673-17.502-8.572-25.188-14.56c-0.265-0.15-0.357-0.485-0.208-0.749c0.049-0.087,0.12-0.158,0.208-0.208
	c10.876-6.043,22.344-10.958,34.222-14.666c0.425-0.106,0.425-0.743,0-0.743c-9.565-1.808-18.811-4.252-26.463-8.185
	c-0.288-0.153-0.397-0.51-0.245-0.796c0.009-0.019,0.021-0.037,0.032-0.055c2.884-3.518,6.166-6.693,9.777-9.458
	c0.217-0.172,0.255-0.484,0.084-0.703c-0.051-0.063-0.116-0.113-0.19-0.146c-10.121-4.13-19.465-9.952-27.632-17.217
	c-0.226-0.111-0.318-0.385-0.207-0.61c0.025-0.052,0.059-0.095,0.101-0.134c3.211-3.736,6.809-7.121,10.734-10.098
	c0.264-0.196,0.318-0.571,0.119-0.836c-0.034-0.046-0.074-0.087-0.119-0.119c-11.002-7.134-21.257-15.359-30.608-24.55
	c-0.206-0.196-0.213-0.522-0.017-0.727c0.005-0.006,0.011-0.011,0.017-0.017c2.493-2.379,5.237-4.482,8.184-6.271
	c0.259-0.168,0.332-0.517,0.163-0.777c-0.017-0.026-0.036-0.05-0.056-0.072c-7.804-6.648-14.354-14.638-19.343-23.594
	c-0.146-0.228-0.079-0.53,0.147-0.676c0.053-0.033,0.111-0.056,0.171-0.068c4.381-1.72,8.946-2.933,13.604-3.613
	c0.338-0.09,0.54-0.438,0.45-0.776c-0.008-0.025-0.016-0.05-0.025-0.074c-3.754-7.962-6.4-16.401-7.864-25.082
	c-0.058-0.288,0.128-0.568,0.416-0.626c0.038-0.007,0.077-0.012,0.115-0.01h0.107c8.872,2.457,17.485,5.767,25.719,9.883h0.213
	c0.319,0,0.424-0.106,0.531-0.425c1.03-5.499,2.819-10.829,5.314-15.835c0.101-0.199,0.307-0.323,0.53-0.319
	c0.106,0,0.213,0.106,0.319,0.106c8.134,5.841,15.617,12.539,22.318,19.98c0.117,0.112,0.266,0.186,0.426,0.212
	c0.212,0,0.318-0.106,0.424-0.319c1.748-2.85,4.063-5.309,6.802-7.226c0.085-0.082,0.202-0.122,0.319-0.106
	c0.106,0,0.212,0,0.318,0.212c11.479,14.241,26.357,30.077,41.768,40.81c0.106,0.107,0.106,0.107,0.212,0.107
	c0.258-0.007,0.463-0.221,0.457-0.479c-0.002-0.055-0.013-0.107-0.032-0.159c-3.932-12.965-9.884-25.294-15.729-36.56
	c-0.09-0.35,0.091-0.713,0.425-0.85c2.873-0.563,5.789-0.884,8.715-0.956c0.315-0.044,0.535-0.334,0.492-0.65
	c-0.01-0.07-0.032-0.139-0.067-0.201c-7.225-11.138-12.775-23.277-16.473-36.027c-0.094-0.242,0.026-0.513,0.267-0.606
	c0.051-0.02,0.105-0.031,0.158-0.032h0.106c6.695,0.32,13.312,1.572,19.661,3.72h0.213c0.236,0.005,0.432-0.181,0.438-0.418
	c0-0.038-0.003-0.076-0.013-0.113c-1.807-10.309-0.956-21.893,1.062-32.521c0-0.319,0.213-0.425,0.532-0.425h0.106
	c4.797,1.855,9.42,4.132,13.816,6.802c0.084,0.082,0.202,0.12,0.319,0.106c0.277,0.017,0.514-0.194,0.532-0.471
	c0-0.02,0-0.041,0-0.061c-0.554-9.738,0.269-19.506,2.443-29.014c0.094-0.223,0.294-0.384,0.532-0.426
	c0.057,0,0.105,0.045,0.106,0.103c0,0.001,0,0.003,0,0.004c3.641,1.329,7.133,3.039,10.415,5.102c0.106,0,0.213,0.105,0.319,0.105
	c0.214,0.021,0.404-0.135,0.425-0.35c0.002-0.024,0.002-0.05,0-0.075c3.401-9.671,8.715-19.129,14.453-28.588
	C222.475,1.729,222.581,1.729,222.794,1.729z"/>
<path fill="#00205B" d="M321.845,161.888c0.849,0,1.699,0.106,2.55,0.106c6.145-0.101,12.194-1.514,17.748-4.144l0.107,0.106
	c-6.707,4.115-14.452,6.218-22.319,6.057c-0.253-0.005-0.492,0.114-0.638,0.319c-2.445,2.55-4.57,4.782-6.483,6.908
	c-0.104,0.106-0.104,0.106-0.212,0.106h-0.106l-2.126-1.062c-0.059-0.058-0.094-0.132-0.105-0.213
	c0.007-0.081,0.045-0.157,0.105-0.212c5.208-5.315,10.841-10.734,16.793-16.048c0.205-0.146,0.324-0.385,0.318-0.638
	c-0.609-5.818,0.078-11.698,2.02-17.216h0.212c-1.072,5.246-1.253,10.635-0.531,15.941h0.106
	c7.971-7.439,15.304-14.666,22.424-21.894l0.213,0.107c-6.058,7.121-12.754,14.348-19.768,21.361
	c-3.4,3.295-6.908,6.697-10.308,10.309h-0.107L321.845,161.888z M317.167,195.26l-9.46,18.174c-0.984,2.081-3.115,3.376-5.419,3.293
	c-1.006,0.02-1.998-0.238-2.869-0.743c-2.443-1.274-4.781-2.444-7.227-3.613c-3.011-1.617-4.226-5.308-2.765-8.396l9.46-18.175
	c1.643-3.042,5.385-4.259,8.502-2.762c2.34,1.167,4.783,2.443,7.122,3.72C317.587,188.376,318.774,192.178,317.167,195.26z
	 M264.348,302.919c-3.202-0.017-6.399-0.265-9.564-0.745h-0.107c2.976,2.871,8.716,5.739,12.011,7.015l1.595,0.638l-1.595-0.212
	c-3.933-0.638-11.903-4.465-16.262-8.289c-0.105-0.107-0.105-0.107-0.212-0.107c-7.12-1.595-13.284-3.827-19.448-3.827
	c-7.971,0-13.71,1.808-16.58,9.779c-0.196-1.608-0.051-3.236,0.425-4.783c0.001-0.058-0.044-0.104-0.101-0.105
	c-0.002,0-0.003,0-0.006,0c-1.487-1.063-7.438-4.678-13.284-4.678c-8.821,0-20.086,9.886-28.802,10.842
	c4.146-1.384,8.927-4.57,13.71-7.439V300.9c-8.077-1.594-18.173,0.106-28.907,2.869c10.309-4.039,20.724-6.165,31.671-4.463
	c0.106,0,0.106,0,0.213-0.107c4.038-2.337,8.183-4.144,11.902-4.144c5.234,0.22,10.308,1.875,14.667,4.782
	c0.106,0.106,0.106,0.106,0.106,0c2.764-4.039,8.502-5.634,14.56-5.634c9.459,0,24.124,7.015,35.816,7.015
	c12.751,0,16.473-1.169,20.192-2.02C282.841,300.687,277.102,302.919,264.348,302.919L264.348,302.919z M158.495,174.961
	c2.551-0.85,5.102-1.7,7.652-2.551c0.616-0.209,1.263-0.316,1.913-0.319c2.743,0.01,5.177,1.761,6.058,4.358l6.589,19.45
	c0.534,1.536,0.418,3.225-0.318,4.675c-0.74,1.473-2.043,2.585-3.614,3.083c-2.55,0.852-5.101,1.7-7.652,2.551
	c-0.666,0.304-1.394,0.447-2.125,0.426c-2.594-0.038-4.888-1.694-5.739-4.146l-6.589-19.448
	C153.595,179.756,155.276,176.208,158.495,174.961z M148.505,215.559l-12.541-24.443l-0.426,0.213
	c-2.125,1.168-4.25,2.337-6.376,3.4l-2.551-4.783c6.165-3.4,12.435-6.695,18.812-9.777l2.444,4.889
	c-2.125,1.062-4.251,2.124-6.483,3.188l-0.319,0.213l12.647,24.444C152.012,213.751,150.206,214.602,148.505,215.559
	L148.505,215.559z M121.511,160.507c-0.106-0.106-0.213-0.213-0.318-0.213h-0.851c-8.23,0.083-16.31-2.204-23.275-6.589V153.6
	c6.098,3.1,12.822,4.772,19.661,4.888c0.851,0,1.807-0.106,2.658-0.106c-1.488-1.594-2.976-3.083-4.357-4.358
	c-8.196-7.831-15.966-16.097-23.275-24.763l0.106-0.106c7.652,8.077,14.348,14.666,20.405,20.193h0.106
	c0.755-4.92,0.318-9.95-1.275-14.667l0.106-0.107c2.453,4.972,3.448,10.536,2.869,16.048c-0.004,0.224,0.12,0.43,0.319,0.531
	c5.419,4.889,10.627,9.672,15.304,14.454l0,0c0.067-6.547-1.86-12.959-5.526-18.385l0.106-0.106c4.912,5.673,7.66,12.9,7.758,20.404
	c0,0.213,0,0.426,0.213,0.532c0.744,0.85,1.488,1.594,2.232,2.338v0.212c0,0.106,0,0.106-0.106,0.213l-1.913,0.956h-0.106
	c-0.106,0-0.212,0-0.212-0.106C128.101,167.202,124.593,163.589,121.511,160.507z M177.2,242.552v-13.283l-5.102,11.478
	l-4.995-11.478v13.283h-5.633v-28.694h4.465l6.163,14.348l6.271-14.348h4.463v28.694H177.2z M178.263,274.754v5.421h-16.792V251.48
	h5.633v23.274H178.263z M196.755,165.502c0.273-0.094,0.562-0.131,0.85-0.106c3.138,0.023,5.794,2.318,6.271,5.42l1.7,10.414
	c0.439,2.765-1.047,5.474-3.613,6.592l-0.532,0.211l0.319,0.425c2.02,2.976,4.145,5.847,6.164,8.822
	c-1.807,0.213-3.72,0.425-5.633,0.743c-2.02-2.976-4.145-5.845-6.165-8.82l-0.212-0.213l-0.213,0.106
	c-0.85,0.106-1.594,0.212-2.444,0.317l-0.425,0.107l1.594,9.778c-1.913,0.317-3.826,0.638-5.633,1.061l-5.313-32.626
	C187.828,166.883,192.292,166.139,196.755,165.502z M231.613,234.156h-6.8v8.396h-5.634v-28.694h12.434
	c3.096-0.018,5.616,2.477,5.633,5.57c0,0.021,0,0.042,0,0.062v8.928C237.272,231.556,234.753,234.123,231.613,234.156
	L231.613,234.156z M213.228,190.477v-20.511c0.073-3.451,2.822-6.247,6.271-6.377h8.076c3.449,0.131,6.197,2.926,6.271,6.377v20.511
	c-0.015,3.42-2.8,6.179-6.22,6.165c-0.017-0.001-0.034-0.001-0.051-0.001c-4.464-0.106-7.438,0-8.183,0
	c-3.369,0.034-6.129-2.668-6.165-6.037C213.228,190.561,213.228,190.52,213.228,190.477L213.228,190.477z M218.33,251.48h7.758
	l7.652,28.695h-5.846l-1.273-5.421h-8.93l-1.381,5.421h-5.845L218.33,251.48z M197.075,237.132l-1.169,5.42h-5.739l7.015-28.694
	h7.651l7.015,28.694h-5.739l-1.168-5.42H197.075z M200.156,263.065v5.421h-8.821v6.269h12.327v5.421h-17.96V251.48h17.96v5.422
	h-12.327v6.163H200.156z M190.591,107.474c7.81,11.741,18.116,21.612,30.183,28.907h0.106v-0.106
	c-0.106-8.927,0-17.961,0.211-26.782c0.01-0.314-0.105-0.62-0.317-0.851c-6.886-5.16-12.517-11.808-16.474-19.448h0.106
	c4.394,6.821,10.016,12.767,16.579,17.536c0.105,0,0.213,0,0.213-0.106c0.105-3.294,0.212-5.951,0.319-8.502
	c0.531-7.439,0.851-15.197,1.168-22.956c0.009-0.283-0.108-0.554-0.319-0.744c-5.07-6.058-9.52-12.609-13.283-19.555l0.212-0.106
	c3.889,6.103,8.336,11.831,13.285,17.11h0.105c0.059,0.001,0.106-0.044,0.107-0.102c0-0.001,0-0.003,0-0.004
	c0.317-12.116,0.425-24.125,0.425-35.922h0.106c1.062,11.053,1.488,34.753,1.169,55.052v0.106c0.056,0.059,0.149,0.061,0.207,0.004
	c0.003-0.001,0.004-0.003,0.005-0.004c5.92-3.031,11.423-6.818,16.367-11.266l0.106,0.107c-4.79,5.204-10.344,9.647-16.474,13.178
	c-0.17,0.081-0.289,0.24-0.319,0.425c0,1.807,0,3.401-0.105,4.996c-0.531,11.478-0.531,24.975,0,41.448
	c0,0.106,0.105,0.106,0.213,0.106c13.391-9.565,23.486-19.874,29.864-30.607h0.213c-5.209,10.84-16.155,23.168-30.077,33.583
	c-0.107,0.106-0.107,0.212-0.107,0.426c0.107,2.55,0.213,5.101,0.319,7.757c0.001,0.058-0.045,0.106-0.102,0.107
	c-0.002,0-0.002,0-0.005,0c0,0.106-0.105,0.106-0.213,0.106h-2.868c-0.107,0-0.319-0.106-0.319-0.213
	c-0.107-3.719-0.213-7.439-0.318-11.478c0-0.212,0-0.318-0.106-0.318c-12.517-8.023-22.938-18.917-30.396-31.777L190.591,107.474z
	 M245.749,242.552v-28.694h5.634v23.274h10.415v5.42H245.749z M255.101,263.065v5.421h-8.819v11.689h-5.633V251.48h17.962v5.422
	h-12.329v6.163H255.101z M256.59,185.695l3.188-18.598c1.912,0.318,3.824,0.637,5.632,1.062l-5.526,32.521
	c-1.487-0.32-2.977-0.638-4.463-0.851c-2.126-6.27-4.252-12.648-6.377-18.811l-0.532-1.594l-3.188,18.598
	c-1.912-0.212-3.825-0.53-5.738-0.743l5.527-32.522c1.487,0.213,3.081,0.425,4.569,0.638c2.125,6.165,4.25,12.541,6.376,18.705
	L256.59,185.695z M266.047,271.78h5.74v1.169c-0.021,0.965,0.735,1.768,1.701,1.806h4.676c0.985-0.028,1.778-0.82,1.806-1.806v-1.7
	c-0.021-0.662-0.382-1.264-0.956-1.595c-0.107,0-10.203-4.569-10.203-4.569c-1.821-0.979-2.901-2.932-2.764-4.995v-2.976
	c-0.002-3.108,2.512-5.629,5.62-5.635c0.04,0,0.079,0,0.12,0.001h8.078c3.139-0.026,5.705,2.495,5.738,5.634v2.657h-5.634v-1.17
	c-0.027-0.985-0.82-1.777-1.806-1.808h-4.676c-0.966,0.038-1.723,0.843-1.701,1.808v0.638c0.009,0.639,0.38,1.217,0.955,1.488
	c0.108,0.105,10.099,4.57,10.099,4.57c1.827,1.023,2.903,3.01,2.763,5.101v4.039c0.014,3.155-2.536,5.726-5.691,5.738
	c-0.017,0-0.032,0-0.047,0h-8.078c-3.16-0.024-5.715-2.579-5.74-5.738V271.78z M269.023,213.858h16.58v5.313h-10.946v6.271h7.438
	v5.42h-7.438v6.27h10.946v5.42h-16.58V213.858z M279.333,177.723c-2.339-0.742-4.676-1.487-6.908-2.231l1.701-5.207
	c6.803,2.018,13.497,4.357,20.086,6.696l-1.807,5.208c-2.232-0.852-4.464-1.595-6.802-2.445l-0.426-0.107l-8.715,26.039
	c-1.807-0.637-3.721-1.168-5.525-1.807l8.819-26.038L279.333,177.723z"/>
<path fill="#00205B" d="M168.592,200.468c0.288,0.016,0.576-0.02,0.85-0.108c1.169-0.423,2.339-0.849,3.507-1.274
	c0.619-0.2,1.146-0.616,1.488-1.17c0.246-0.607,0.284-1.28,0.106-1.912l-5.526-16.154c-0.31-1.027-1.266-1.721-2.338-1.699
	c-0.213,0-0.532,0.104-0.744,0.104c-1.276,0.427-2.445,0.851-3.614,1.276c-1.259,0.434-1.928,1.806-1.495,3.064
	c0.001,0.006,0.004,0.012,0.007,0.017l5.419,16.155C166.563,199.793,167.519,200.49,168.592,200.468z"/>
<path fill="#FFFFFF" d="M311.11,193.984l-7.759,15.093c-0.418,0.849-1.285,1.384-2.231,1.382c-0.41-0.02-0.808-0.128-1.169-0.319
	c-1.063-0.531-2.232-1.171-3.296-1.7c-0.581-0.311-1.005-0.852-1.168-1.488c-0.231-0.626-0.194-1.317,0.104-1.912l7.866-15.093
	c0.419-0.849,1.285-1.386,2.232-1.381c0.376,0.007,0.744,0.117,1.063,0.317c1.168,0.531,2.229,1.17,3.293,1.701
	c1.223,0.612,1.717,2.103,1.104,3.325C311.138,193.935,311.124,193.958,311.11,193.984z M314.51,186.758
	c-2.337-1.276-4.78-2.553-7.12-3.72c-0.864-0.412-1.807-0.63-2.763-0.638c-2.403-0.049-4.628,1.269-5.739,3.399l-9.46,18.175
	c-0.736,1.45-0.851,3.14-0.318,4.676c0.463,1.591,1.586,2.906,3.083,3.612c2.445,1.276,4.783,2.446,7.227,3.721
	c0.871,0.505,1.863,0.763,2.869,0.743c2.292,0.039,4.4-1.243,5.419-3.293l9.46-18.175
	C318.774,192.178,317.587,188.376,314.51,186.758L314.51,186.758z M203.663,256.902v-5.422h-17.96v28.695h17.96v-5.421h-12.327
	v-6.269h8.821v-5.421h-8.821v-6.163H203.663z M276.463,205.675l8.715-26.039l0.426,0.106c2.232,0.852,4.569,1.595,6.802,2.446
	l1.807-5.21c-6.588-2.337-13.392-4.676-20.086-6.694l-1.701,5.207c2.231,0.744,4.569,1.487,6.908,2.231l0.319,0.107l-8.715,26.038
	C272.742,204.507,274.657,205.038,276.463,205.675L276.463,205.675z M261.798,237.132h-10.415v-23.274h-5.634v28.694h16.049V237.132
	z M285.604,237.132h-10.946v-6.27h7.438v-5.421h-7.438v-6.271h10.946v-5.313h-16.58v28.694h16.58V237.132z M271.787,280.175h8.078
	c3.155,0.014,5.725-2.535,5.738-5.691c0-0.015,0-0.031,0-0.047v-4.039c0.141-2.091-0.935-4.077-2.763-5.101
	c0,0-9.99-4.465-10.099-4.465c-0.563-0.338-0.921-0.937-0.955-1.594v-0.638c-0.014-0.927,0.729-1.688,1.656-1.699
	c0.015-0.002,0.031-0.002,0.045,0h4.676c0.965-0.022,1.768,0.734,1.806,1.699v1.168h5.634v-2.655c-0.033-3.139-2.6-5.66-5.738-5.634
	h-8.078c-3.139-0.026-5.707,2.495-5.74,5.634v2.976c-0.14,2.091,0.936,4.075,2.765,5.101c0,0,10.095,4.464,10.202,4.464
	c0.531,0.37,0.879,0.952,0.956,1.595v1.808c-0.038,0.963-0.841,1.72-1.806,1.698h-4.676c-0.928,0.013-1.689-0.729-1.701-1.656
	c0-0.015,0-0.028,0-0.042v-1.276h-5.74v2.657C266.072,277.595,268.627,280.151,271.787,280.175L271.787,280.175z M245.112,164.652
	l-5.527,32.521c1.913,0.32,3.826,0.639,5.738,0.851l3.188-18.705l0.532,1.701c2.125,6.162,4.251,12.541,6.377,18.705
	c1.487,0.318,2.976,0.636,4.57,0.956l5.419-32.521c-1.808-0.425-3.72-0.744-5.632-1.168l-3.188,18.704l-0.532-1.594
	c-2.126-6.271-4.25-12.541-6.376-18.812C248.193,165.077,246.705,164.864,245.112,164.652L245.112,164.652z M258.61,256.902v-5.422
	h-17.962v28.695h5.633v-11.689h8.819v-5.421h-8.819v-6.163H258.61z M198.35,231.713l2.657-11.902l2.656,11.902H198.35z
	 M206.107,242.552h5.739l-7.015-28.694h-7.651l-7.121,28.694h5.845l1.169-5.42h7.757L206.107,242.552z M190.378,172.091
	c1.807-0.319,3.508-0.638,5.208-0.85c1.343-0.209,2.613,0.683,2.87,2.02l1.169,7.013c0.088,0.669-0.062,1.347-0.425,1.915
	c-0.415,0.534-1.028,0.88-1.702,0.955c-1.7,0.213-3.4,0.53-5.101,0.851l-0.531,0.106l-1.913-12.01H190.378z M194.417,199.299
	l-1.594-9.778l0.425-0.107c0.744-0.105,1.595-0.211,2.338-0.317l0.319-0.106l0.106,0.213c2.125,2.976,4.145,5.845,6.271,8.82
	c1.913-0.318,3.72-0.53,5.633-0.851c-2.125-2.868-4.145-5.844-6.164-8.715l-0.319-0.425l0.425-0.211
	c2.622-1.066,4.164-3.797,3.72-6.592l-1.7-10.414c-0.508-3.084-3.146-5.364-6.271-5.42c-0.322-0.017-0.646,0.019-0.956,0.106
	c-4.358,0.637-8.821,1.381-13.285,2.231l5.314,32.522C190.591,199.937,192.504,199.616,194.417,199.299z M182.833,213.858h-4.463
	l-6.271,14.348l-6.163-14.348h-4.465v28.694h5.633v-13.283l4.995,11.478l5.102-11.478v13.283h5.632V213.858z M161.471,251.48v28.695
	h16.792v-5.421h-11.159V251.48H161.471z M231.613,227.036c0.013,0.928-0.729,1.688-1.654,1.701c-0.017,0-0.031,0-0.045,0h-5.101
	v-9.566h5.101c0.963,0.039,1.721,0.843,1.699,1.808V227.036L231.613,227.036z M237.246,228.418v-8.928
	c0.019-3.093-2.476-5.615-5.569-5.633c-0.021,0-0.041,0-0.063,0H219.18v28.694h5.634v-8.396h6.8
	C234.753,234.123,237.272,231.556,237.246,228.418z M222.155,257.431l3.082,11.903h-6.165L222.155,257.431z M217.691,274.754h8.93
	l1.273,5.421h5.846l-7.759-28.695h-7.651l-7.865,28.695h5.845L217.691,274.754z M219.18,171.56
	c-0.021-1.329,1.036-2.423,2.365-2.446c0.025,0,0.053,0,0.08,0h3.719c1.364,0.008,2.486,1.083,2.551,2.446v17.004
	c-0.02,1.4-1.149,2.531-2.551,2.551h-3.719c-1.379-0.027-2.474-1.169-2.445-2.548c0-0.001,0-0.002,0-0.003V171.56z M227.575,196.641
	c3.419,0.044,6.228-2.693,6.271-6.112c0-0.018,0-0.033,0-0.052v-20.511c-0.073-3.451-2.821-6.247-6.271-6.377h-8.076
	c-3.45,0.131-6.198,2.926-6.271,6.377v20.511c0.003,3.403,2.762,6.162,6.165,6.164C220.03,196.641,223.111,196.534,227.575,196.641
	L227.575,196.641z M162.322,179.531c1.168-0.426,2.338-0.85,3.506-1.276c0.319,0,0.532-0.104,0.851-0.104
	c1.072-0.021,2.028,0.672,2.338,1.699l5.526,16.154c0.194,0.639,0.118,1.331-0.212,1.912c-0.272,0.571-0.775,0.997-1.382,1.17
	c-1.168,0.426-2.338,0.852-3.507,1.274c-0.319,0-0.531,0.108-0.85,0.108c-1.059-0.022-1.991-0.701-2.338-1.701l-5.419-16.155
	c-0.444-1.254,0.213-2.631,1.469-3.075C162.309,179.535,162.315,179.531,162.322,179.531z M166.998,206.632
	c0.731,0.021,1.459-0.122,2.125-0.426c2.551-0.851,5.102-1.699,7.652-2.551c1.57-0.498,2.874-1.61,3.614-3.083
	c0.736-1.45,0.852-3.139,0.319-4.675l-6.483-19.449c-0.955-2.589-3.405-4.321-6.165-4.358c-0.65,0.002-1.297,0.109-1.913,0.318
	c-2.551,0.851-5.101,1.701-7.652,2.551c-3.254,1.209-4.952,4.792-3.826,8.078l6.589,19.448
	C162.11,204.938,164.404,206.594,166.998,206.632z M141.384,188.244c2.233-1.063,4.358-2.124,6.589-3.188l-2.55-4.889
	c-6.376,3.082-12.647,6.377-18.812,9.777l2.551,4.783c2.126-1.063,4.252-2.232,6.376-3.4l0.426-0.213l12.647,24.443
	c1.701-0.957,3.401-1.808,5.101-2.657l-12.646-24.444L141.384,188.244z M230.339,294.098c-6.058,0-11.797,1.7-14.561,5.739
	c0,0,0,0.106-0.105,0c-4.359-2.907-9.433-4.562-14.667-4.783c-3.72,0-7.865,1.808-11.903,4.145h-0.212
	c-10.947-1.595-21.362,0.531-31.671,4.57c10.734-2.763,20.831-4.463,28.907-2.869v0.106c-4.783,2.869-9.564,6.056-13.71,7.439
	c8.715-0.956,19.98-10.842,28.802-10.842c5.845,0,11.796,3.614,13.284,4.678c0.058-0.003,0.106,0.044,0.107,0.1
	c0,0.004,0,0.004,0,0.006c-0.476,1.547-0.621,3.175-0.426,4.783c2.871-7.972,8.61-9.779,16.581-9.779
	c6.164,0,12.328,2.232,19.448,3.827c0.106,0,0.106,0,0.212,0.107c4.358,3.72,12.329,7.545,16.262,8.183l1.593,0.318l-1.593-0.638
	c-3.188-1.275-9.035-4.144-12.011-7.015c-0.001-0.057,0.045-0.104,0.103-0.104c0,0,0.004,0,0.005,0
	c3.156,0.569,6.356,0.854,9.564,0.85c12.646,0,18.493-2.232,22-3.721c-3.827,0.745-7.441,1.912-20.192,1.912
	C254.463,301.218,239.798,294.098,230.339,294.098z M332.152,151.473c7.014-7.014,13.604-14.241,19.768-21.361l-0.213-0.107
	c-7.12,7.228-14.559,14.455-22.424,21.894h-0.106c-0.722-5.306-0.541-10.695,0.531-15.941h-0.213
	c-1.924,5.522-2.648,11.392-2.125,17.216c0.118,0.233,0.023,0.517-0.209,0.636c0,0.001-0.003,0.001-0.003,0.002
	c-6.059,5.42-11.691,10.84-16.793,16.154c-0.058-0.002-0.105,0.044-0.105,0.101c0,0.001,0,0.002,0,0.005
	c0.012,0.081,0.047,0.155,0.105,0.213l2.021,1.062h0.212c0.107,0,0.107,0,0.212-0.106c1.913-2.019,4.038-4.25,6.483-6.801
	c0.146-0.206,0.385-0.326,0.638-0.319c7.854,0.057,15.572-2.039,22.319-6.059l-0.107-0.212c-5.59,2.633-11.677,4.044-17.854,4.144
	c-0.816,0.016-1.634-0.02-2.443-0.106h-0.107v-0.106C325.244,158.275,328.752,154.768,332.152,151.473z M132.351,171.772h0.106
	l1.914-0.956l0.212-0.213c0-0.106,0-0.106-0.106-0.212l-2.232-2.232c-0.118-0.194-0.19-0.412-0.212-0.637
	c-0.06-7.492-2.771-14.722-7.652-20.405l-0.212,0.106c3.73,5.4,5.698,11.822,5.633,18.385h-0.106
	c-4.676-4.782-9.884-9.564-15.304-14.454c-0.199-0.102-0.323-0.308-0.319-0.531c0.579-5.513-0.417-11.077-2.869-16.048l-0.107,0.107
	c1.594,4.716,2.031,9.746,1.275,14.667h-0.106c-6.058-5.527-12.753-12.116-20.405-20.193l-0.106,0.106
	c7.333,8.678,15.102,16.979,23.275,24.87c1.38,1.274,2.763,2.657,4.357,4.251c-0.851,0-1.807,0.106-2.658,0.106
	c-6.839-0.115-13.564-1.788-19.661-4.888v0.212c6.986,4.336,15.052,6.62,23.275,6.589h0.851c0.116-0.015,0.234,0.024,0.318,0.106
	c3.083,3.082,6.589,6.695,10.628,11.159C132.196,171.724,132.27,171.761,132.351,171.772L132.351,171.772z M220.774,139.358
	c0.106,0,0.106,0.106,0.106,0.212c0.105,4.145,0.211,7.865,0.318,11.584c0,0.107,0.105,0.213,0.319,0.213h2.869
	c0.106,0,0.106,0,0.212-0.106c0.106,0,0.106-0.107,0.106-0.213c-0.106-2.551-0.212-5.208-0.318-7.758
	c-0.016-0.117,0.023-0.234,0.106-0.319c13.922-10.521,24.868-22.743,30.077-33.583l-0.213-0.107
	c-6.378,10.734-16.474,21.043-29.864,30.608c-0.106,0.106-0.213,0-0.213-0.106c-0.531-16.367-0.531-29.97,0-41.342
	c0-1.594,0.105-3.189,0.105-4.996c0-0.212,0.107-0.318,0.319-0.425c6.13-3.53,11.684-7.974,16.474-13.178l-0.106-0.107
	c-4.974,4.444-10.469,8.263-16.367,11.373c-0.106,0-0.212,0-0.212-0.106v-0.106c0.319-20.299-0.106-43.893-1.169-55.052h-0.106
	c0.106,11.797-0.105,23.913-0.425,35.922c0.001,0.058-0.045,0.104-0.103,0.106c-0.001,0-0.003,0-0.005,0h-0.105
	c-4.973-5.221-9.422-10.916-13.285-17.004h-0.212c3.712,6.977,8.166,13.533,13.283,19.555c0.211,0.19,0.328,0.461,0.319,0.744
	c-0.319,7.865-0.637,15.517-1.168,22.956c-0.107,2.551-0.214,5.314-0.319,8.502c0,0.106-0.107,0.213-0.213,0.106
	c-6.538-4.798-12.154-10.739-16.579-17.536l-0.106,0.107c3.985,7.621,9.612,14.263,16.474,19.448
	c0.228,0.176,0.35,0.458,0.317,0.744c-0.211,8.927-0.317,17.854-0.211,26.782v0.106h-0.106
	c-12.067-7.295-22.373-17.166-30.183-28.907l-0.213,0.106C197.867,120.419,208.281,131.307,220.774,139.358z"/>
</svg>
