<?xml version="1.0" encoding="utf-8"?>
<!-- Generator: Adobe Illustrator 15.1.0, SVG Export Plug-In . SVG Version: 6.00 Build 0)  -->
<!DOCTYPE svg PUBLIC "-//W3C//DTD SVG 1.1//EN" "http://www.w3.org/Graphics/SVG/1.1/DTD/svg11.dtd">
<svg version="1.1" id="Layer_1" xmlns="http://www.w3.org/2000/svg" xmlns:xlink="http://www.w3.org/1999/xlink" x="0px" y="0px"
	 width="435.031px" height="352.309px" viewBox="0 0 435.031 352.309" enable-background="new 0 0 435.031 352.309"
	 xml:space="preserve">
<path fill="#99999A" d="M222.514,216.614l76.852-38.372c52.737,14.774,68.333,34.781,68.333,34.781l30.166-34.063
	c1.643-1.745,6.566-7.902,6.566-19.188c0-12.005-12.619-21.342-21.444-27.702C368.006,92.67,284.9,81.179,278.744,67.533
	c-1.951-4.823-14.162-45.762-14.162-45.762c-7.181-21.238-28.523-21.238-36.524-21.238c-8.528,0.461-17.021,1.386-25.447,2.77
	c0,29.549-4.104,65.564-8.208,72.233c-10.586,5.362-21.481,10.09-32.627,14.159L119.81,61.273l10.979,38.272
	c-70.797,38.887-88.034,106.809-88.034,106.809s18.161,142.927,197.512,142.927c94.806,0,149.493-45.762,149.493-45.762
	l-30.577-68.23c-33.271,15.646-69.531,23.906-106.296,24.216c-54.893,0-76.337-25.653-84.237-40.528
	C215.128,220.307,222.514,216.614,222.514,216.614z"/>
<path fill="#001F5B" d="M389.247,166.955c0.487-1.522,0.626-3.135,0.41-4.719C389.821,163.822,389.681,165.423,389.247,166.955
	c0.898-1.706,1.358-3.612,1.334-5.541C390.605,163.343,390.145,165.249,389.247,166.955L389.247,166.955z M219.643,209.125
	l78.901-39.502c53.559,15.083,68.949,31.397,68.949,31.397l24.422-27.499c0,0,4.514-4.308,4.514-13.748
	c0-8.824-13.235-17.75-20.214-22.777c-14.57-39.606-95.421-46.788-104.35-65.461c-3.59-7.491-8.206-25.344-14.878-47.094
	c-5.435-15.8-21.134-15.8-28.931-15.8c-5.843,0.134-11.669,0.646-17.444,1.538c0,16.109-3.078,62.896-10.567,71.002
	c-1.847,2.463-15.596,8.003-30.576,13.748l4.412,2.975l-4.515,4.517l-8.619,8.721l-9.439,29.549l-12.416-6.361l4.515,10.978
	l-22.059,3.59l12.415,4.413l-35.808,27.499l9.644,0.717l-12.722,23.087c18.468-8.413,24.009-9.954,24.009-9.954l-5.335-5.438
	l37.245-15.083c0,0-2.873,7.491-2.873,21.958c0.072,2.897,0.416,5.784,1.026,8.62c4.617,22.469,26.574,68.846,103.937,68.846
	c34.024-0.098,67.712-6.749,99.217-19.597l20.111,44.836c0,0-52.534,36.424-131.948,36.424
	c-162.524,0-183.147-127.741-183.147-127.741c22.368-59.919,60.126-86.187,84.032-97.269l-7.491-0.715l-0.615-2.26
	c-63.408,34.884-82.184,99.628-82.184,99.628s19.289,134.411,189.303,134.411c87.006,0,139.539-40.322,139.539-40.322
	l-24.521-54.997c-32.352,13.835-67.112,21.157-102.296,21.548c-83.929,0-96.242-57.149-96.242-57.149
	S204.458,213.229,219.643,209.125z"/>
<path fill="#071C2C" d="M371.187,140.792c-13.543-38.681-87.622-41.452-104.348-65.769c-4.616-6.772-12.21-50.071-20.008-56.021
	c-8.411-6.568-30.165-3.59-30.165-3.59c0,6.054-1.436,59.2-12.518,70.179c-7.387,6.26-19.904,9.031-34.782,16.828l-8.619,8.721
	l-9.439,29.549l-12.312-6.361l4.412,10.978l-22.059,3.59l12.518,4.413l-35.911,27.499l9.747,0.717l-12.825,23.087
	c18.468-8.413,24.009-9.954,24.009-9.954l-5.335-5.438l37.245-15.083c0,0-2.771,7.594-2.771,21.958
	c0.021,2.902,0.364,5.792,1.026,8.62c1.437-1.54,33.551-33.45,67.206-40.325l-52.021,40.222c0,0,42.786,1.847,53.354-1.231
	c33.038-15.288,59.613-29.756,80.338-40.119c48.224,12.825,68.949,29.446,68.949,29.446l5.131-5.643
	c-2.463-1.847-20.216-14.056-55.099-25.548c10.362-4.103,22.983-8.927,26.265-8.927c7.697,0,23.498,10.056,40.632,21.034l3.797-4.31
	c0.72-0.651,1.281-1.457,1.643-2.359c0.898-1.706,1.358-3.612,1.334-5.541C390.581,153.308,380.114,148.076,371.187,140.792z"/>
<path fill="#99999A" d="M197.48,97.698l-33.551,18.776l8.721,20.93L197.48,97.698z M158.389,166.544l3.386-24.934l-46.376,31.398
	L158.389,166.544z M184.245,135.045l-20.008,11.184l40.016,5.439L184.245,135.045z"/>
<path fill="#001F5B" d="M171.932,130.531l18.366-24.933l-21.341,12.003L171.932,130.531z M197.173,148.384l-15.287-8.926
	l-10.877,5.746L197.173,148.384z M126.684,168.699l28.523-4.514l2.977-16.931L126.684,168.699z"/>
<path fill="#001F5B" d="M126.376,71.43l11.8,34.476l20.725,5.13l8.31-11.388L126.376,71.43z M252.886,280.126
	c-89.061,0-111.427-61.049-111.427-84.031c0-5.131,0.41-9.337,0.718-12.825l-20.418,6.669l2.566,5.848l-15.904,5.85l-13.852,9.028
	l28.011,5.131l-5.747,20.007l11.903-3.487l11.594,29.24l13.749-1.744l4.617,20.521c0,0,25.959,17.955,69.874,21.956
	c58.174,5.131,110.094-14.568,110.094-14.568s-61.975,24.213-118.302,18.263c-43.094-4.616-71.104-22.061-71.104-22.061
	l-0.411-18.571l-17.032,0.208l-7.901-28.422l-15.083,7.077l6.567-25.443l-28.935-3.592l5.849-17.753l6.976-13.849l-9.336,0.206
	l38.886-28.832l-16.929-6.671l27.6-5.335l-9.645-19.391l17.032,9.748l6.67-21.137c-20.316,7.081-64.333,29.653-89.676,95.934
	c3.078,15.184,29.652,120.559,176.273,120.559c63.307,0,109.478-23.906,123.739-32.318l-15.288-33.858
	C318.001,273.982,285.588,279.956,252.886,280.126z"/>
<path fill="#FFFFFF" d="M368.316,176.086c-1.213,0.787-2.378,1.644-3.488,2.565l8.925,5.541l3.285-3.694
	c-2.669-1.847-6.672-4.616-6.878-4.616C369.538,175.746,368.891,175.817,368.316,176.086z M366.569,174.752
	c0.136-0.319,0.054-0.689-0.204-0.923c-2.385-1.472-4.851-2.809-7.387-4.002c-0.69-0.032-1.384,0.037-2.053,0.206
	c-1.386,0.81-2.72,1.702-4.001,2.669l9.951,4.615C364.621,176.189,366.365,174.958,366.569,174.752L366.569,174.752z
	 M371.187,173.318c-0.203,0.511-0.306,0.718-0.102,0.818c0.205,0.309,4.412,3.079,7.286,4.925l3.18-3.179l-7.389-4.925
	C373.129,171.69,372.137,172.477,371.187,173.318L371.187,173.318z M367.904,172.496c0.573-0.003,1.136-0.143,1.643-0.411
	c1.042-0.685,2.035-1.438,2.976-2.258l-8.106-5.128c-1.468,0.857-2.875,1.817-4.206,2.872c0,0.104,0.101,0.309,0.513,0.925
	L367.904,172.496z M354.978,168.801c0.204-0.306,0.307-0.615,0.101-0.819c-2.464-1.611-5.075-2.985-7.798-4.105
	c-0.609-0.252-1.306-0.175-1.846,0.206c-0.616,0.307-4.001,2.154-5.231,2.873l10.463,4.821
	C352.167,170.88,353.605,169.886,354.978,168.801L354.978,168.801z M348.615,161.723c-0.102,0.204,0,0.409,0.41,0.718
	c0.513,0.41,7.284,3.898,7.797,4.001c0.516,0.018,1.031-0.018,1.54-0.103c0.31-0.103,2.771-1.641,4.311-2.667l-9.029-4.924
	C351.886,159.594,350.204,160.588,348.615,161.723L348.615,161.723z M335.685,157.207c3.491,1.334,8.312,3.286,8.723,3.387
	c0.646,0.103,1.304,0.103,1.951,0c0.408-0.102,3.282-1.642,5.435-2.667c-2.771-1.505-5.794-2.479-8.924-2.873
	C340.376,155.39,337.954,156.118,335.685,157.207z M324.708,161.311l13.033,4.619c1.842-0.679,3.599-1.573,5.231-2.669
	c0.203-0.306,0.203-0.615-0.411-1.128c-0.41-0.307-6.155-2.462-9.85-3.797L324.708,161.311z M371.187,140.792
	c-35.192-3.9-44.734-12.312-44.734-17.75c0-2.053,1.847-2.669,3.488-2.669c8.004,0,18.469,5.746,24.522,12.209
	c-3.591-9.234-24.624-20.109-38.375-20.109c-2.565,0-6.36,0.819-6.36,5.028c0,8.618,13.135,19.494,46.581,22.263
	c17.956,4.208,36.528,14.262,32.938,27.19c0.898-1.706,1.358-3.612,1.334-5.541C390.581,153.308,380.114,148.076,371.187,140.792
	L371.187,140.792z M242.419,144.176c-62.688,3.694-91.829,57.563-93.368,60.64c1.437-1.54,33.551-33.45,67.206-40.325
	L242.419,144.176z M241.292,73.895c-2.976-3.797-6.668-42.478-6.668-42.478s-0.617,39.398-2.873,42.888
	c-2.257,3.488-13.545,10.053-13.545,10.053s12.52-4.104,18.676-4.512c4.514-0.207,18.876,2.769,18.876,2.769
	s-11.388-4.821-14.466-8.721V73.895z"/>
<path fill="#FFFFFF" d="M297.929,163.26c48.224,12.825,68.949,29.446,68.949,29.446l5.027-5.643
	c-2.359-1.847-20.112-14.056-54.995-25.548c10.362-4.103,22.983-8.927,26.265-8.927c7.697,0,23.498,10.056,40.632,21.034
	l3.797-4.206c-14.878-10.363-32.319-22.47-44.838-22.47C332.506,146.947,317.835,153.308,297.929,163.26z"/>
</svg>
