<?xml version="1.0" encoding="utf-8"?>
<!-- Generator: Adobe Illustrator 15.1.0, SVG Export Plug-In . SVG Version: 6.00 Build 0)  -->
<!DOCTYPE svg PUBLIC "-//W3C//DTD SVG 1.1//EN" "http://www.w3.org/Graphics/SVG/1.1/DTD/svg11.dtd">
<svg version="1.1" id="Layer_1" xmlns="http://www.w3.org/2000/svg" xmlns:xlink="http://www.w3.org/1999/xlink" x="0px" y="0px"
	 width="435.031px" height="352.309px" viewBox="0 0 435.031 352.309" enable-background="new 0 0 435.031 352.309"
	 xml:space="preserve">
<path fill="#FFFFFF" d="M238.405,13.487c-3.611-3.366-20.849-19.617-20.849-19.617s-17.318,16.251-20.93,19.617H85.081V258.41
	c41.696,46.129,76.579,68.209,132.475,93.898c55.651-25.689,90.698-47.688,132.394-93.898V13.487H238.405z"/>
<path fill="#B4975A" d="M236.597,18.083c-0.162-0.164-19.042-17.894-19.042-17.894s-18.878,17.647-19.125,17.894H89.677v238.522
	c39.07,43.254,73.789,65.745,127.878,90.614c53.845-24.869,88.646-47.195,127.797-90.614V18.083H236.597z"/>
<path d="M336.079,27.276v225.8c-35.622,39.479-72.887,62.953-118.523,83.966c-45.636-21.013-82.981-44.486-118.604-83.966v-225.8
	h79.782c-31.438,18.303-52.121,50.15-52.121,93.16v121.477c21.423,22.242,50.397,44.568,77.894,57.536l-60.411-174.088
	l56.881,27.332l-6.895,6.813l20.438,65.991h6.075l20.356-65.991l-6.896-6.813l56.882-27.332l-60.328,174.088
	c27.249-12.886,56.223-35.129,77.81-57.536V120.354c0-42.927-20.601-74.774-52.037-93.078H336.079z"/>
<path fill="#333F42" d="M233.315,26.702c1.642-6.978,3.282-8.619,3.282-8.619S219.773,2.324,217.721,0.354l-0.165-0.165v174.089
	l12.64-40.71l67.388-32.421C291.592,66.263,268.856,39.67,233.315,26.702z"/>
<path fill="#333F42" d="M303.821,137.837l-50.149,145.197l8.699-11.245c0,0,22.819-17.564,36.853-33.652v-74.2L303.821,137.837z"/>
<polygon fill="#FFFFFF" points="199.334,160.819 200.977,152.693 194.081,159.506 214.519,225.497 217.556,219.669 "/>
<path fill="#333F42" d="M200.32,125.935l-53.762-20.356l58.358,27.989v-85.28L200.32,125.935z M131.208,137.837l41.779,120.82
	l-23.229-54.747l-13.954-39.973L131.208,137.837z"/>
<polygon fill="#FFFFFF" points="290.935,125.36 230.607,299.449 238.651,290.093 296.844,122.57 "/>
<path fill="#FFFFFF" d="M201.715,26.702c-0.422-1.841-0.971-3.652-1.642-5.418c-0.329-1.165-0.887-2.254-1.642-3.201
	c-42.271,15.431-71.819,50.889-71.819,102.353v121.477c1.478,1.559,3.037,3.119,4.596,4.678V120.354
	c0-43.092,20.767-77.811,65.91-96.689C198.744,24.528,200.283,25.546,201.715,26.702z"/>
</svg>
