<?xml version="1.0" encoding="utf-8"?>
<!-- Generator: Adobe Illustrator 15.1.0, SVG Export Plug-In . SVG Version: 6.00 Build 0)  -->
<!DOCTYPE svg PUBLIC "-//W3C//DTD SVG 1.1//EN" "http://www.w3.org/Graphics/SVG/1.1/DTD/svg11.dtd">
<svg version="1.1" id="Layer_1" xmlns="http://www.w3.org/2000/svg" xmlns:xlink="http://www.w3.org/1999/xlink" x="0px" y="0px"
	 width="435.031px" height="352.309px" viewBox="0 0 435.031 352.309" enable-background="new 0 0 435.031 352.309"
	 xml:space="preserve">
<path fill="#FFFFFF" d="M227.912,190.613c-5.352,12.804-4.586,29.427,0.859,38.216l31.148,49.875l24.172-34.968h39.46l21.595-26.563
	h-50.067l-15.095,18.538l-30.001-24.938c-0.671-0.574-1.434-3.918-0.193-6.88l13.664-33.058c0,0,2.867,14.044,21.115,14.044h108.538
	c5.162,0,20.831,0,26.851-14.521c5.541-13.378-2.676-20.637-2.676-20.637h8.599l9.938-23.792h-53.123
	c-6.238-0.08-12.383,1.539-17.772,4.681l25.033-60.479H362.63l-27.517,66.404c0,0-4.97-10.605-21.021-10.605H281.99L334.156,0
	h-27.325l-52.167,125.928h-66.881c-17.094-0.025-33.416,7.114-45.002,19.683c0,0-0.096-19.683-23.504-19.683H59.751
	c-23.886,0-48.346,14.236-55.894,32.39c-5.256,12.804,2.197,26.657,19.109,26.657h23.217c9.649,0,19.969-6.498,24.364-9.557
	c0,0,4.969,9.557,19.204,9.557h32.676l-11.179,26.848h27.422l11.083-26.848h80.45L227.912,190.613z"/>
<path fill="#CF0A2C" d="M247.593,114.271l-3.439-10.605h-4.396l-5.636,13.854h2.771l4.49-10.797l3.535,10.797h4.205l5.73-13.854
	h-2.771L247.593,114.271z M220.554,110.545c1.028-2.974,3.829-4.967,6.974-4.969c2.964,0,4.109,1.721,2.772,4.969
	c-0.987,3.018-3.8,5.061-6.975,5.064C220.363,115.61,219.216,113.889,220.554,110.545z M222.37,117.902
	c4.903,0.229,9.389-2.75,11.082-7.357c2.104-4.777,0.097-7.262-5.064-7.262c-4.866-0.201-9.322,2.719-11.083,7.262
	C215.299,115.418,217.305,117.902,222.37,117.902L222.37,117.902z M204.311,117.521h3.058l4.777-11.562h5.351l0.956-2.293H204.79
	l-0.957,2.293h5.256L204.311,117.521z M200.489,108.156c1.338-3.249-1.146-4.873-5.35-4.873c-4.914-0.114-9.408,2.757-11.37,7.262
	c-2.102,5.064,0.478,7.357,5.637,7.357c2.566-0.015,5.114-0.434,7.549-1.242l2.674-6.401h-7.452l-0.859,2.103h4.395l-1.051,2.675
	c-1.345,0.34-2.722,0.532-4.108,0.574c-4.3,0-4.586-2.484-3.536-5.064c1.26-3.146,4.352-5.17,7.739-5.063
	c1.528,0,3.249,0.764,2.484,2.675H200.489z M165.138,117.521l4.491-10.797h0.095l3.536,10.797h4.204l5.733-13.854h-2.866
	l-4.395,10.605l-3.44-10.605H168.1l-5.733,13.854H165.138z M158.163,117.521l5.733-13.854h-3.153l-5.733,13.854H158.163z
	 M140.201,117.521l2.388-5.924h7.548l-2.484,5.924h3.152l5.733-13.854h-3.058l-2.389,5.637h-7.547l2.293-5.637h-3.058l-5.733,13.854
	H140.201z M137.238,107.775c1.051-2.771-0.478-4.491-4.49-4.491c-3.249,0-6.688,1.338-8.026,4.491
	c-2.389,5.637,8.791,2.866,7.453,5.924c-0.382,1.05-1.815,2.102-4.395,2.102c-2.388,0-3.248-0.955-2.675-2.581h-3.153
	c-1.242,2.963,0.574,4.683,4.586,4.683c4.682,0,7.835-1.72,9.077-4.586c2.484-6.019-8.981-2.484-7.453-6.019
	c0.704-1.225,2.027-1.96,3.439-1.911c2.198,0,3.153,0.668,2.485,2.389H137.238z M114.212,112.17h-5.732l5.35-6.02L114.212,112.17z
	 M100.358,117.521h3.344l2.771-3.058h7.93l0.287,3.058h3.727l-1.338-13.854h-3.918L100.358,117.521z M92.428,106.437h0.095
	l-0.764,11.084h3.822l10.606-13.854h-3.058l-8.122,10.797l0.764-10.797h-3.917l-8.122,10.797l0.765-10.797h-3.344l-0.764,13.854
	h3.726L92.428,106.437z M238.516,91.723l9.46-6.88l9.459,6.88l-3.631-11.083l9.459-6.879h-11.656l-3.631-11.179l-3.631,11.179
	h-11.753l9.555,6.879L238.516,91.723z M177.082,91.723l9.458-6.88l9.554,6.88l-3.63-11.083l9.458-6.879h-11.752l-3.631-11.179
	l-3.535,11.179h-11.751l9.459,6.879L177.082,91.723z M115.741,91.723l9.459-6.88l9.459,6.88l-3.63-11.083l9.554-6.879h-11.752
	L125.2,62.581l-3.63,11.179h-11.658l9.459,6.879L115.741,91.723z"/>
<polygon fill="#CF0A2C" points="331.29,223.766 298.233,223.766 287.435,237.141 320.4,237.141 "/>
<path fill="#041E41" d="M204.598,166.439l14.044-33.919h-30.86c-22.167-0.082-42.166,13.3-50.544,33.824l-16.051,38.79h13.09
	l15.191-36.594c5.829-14.045,18.536-25.415,38.792-25.415h12.994l-8.217,19.875c-1.236,2.696-3.826,4.523-6.784,4.777h-30.192
	l-4.396,10.509h36.211C194.375,178.287,200.967,175.326,204.598,166.439z M361.96,143.126c-4.012,9.745,1.243,17.58,11.752,17.58
	h26.562c1.911,0,2.865,1.624,2.005,3.536c-0.864,2.014-2.781,3.378-4.968,3.536h-48.536l-4.396,10.509h48.727
	c9.079,0,17.294-2.007,20.831-10.509c4.012-9.65-1.242-17.581-11.752-17.581h-26.562c-1.911,0-2.866-1.625-2.101-3.534
	c0.909-1.98,2.801-3.326,4.969-3.537h42.992l4.396-10.605h-43.186C373.712,132.52,364.732,136.438,361.96,143.126z M219.695,178.287
	l12.134-29.332h-12.995l-12.229,29.332H219.695z M238.612,132.52h-12.994l-4.396,10.605h12.994L238.612,132.52z M337.979,178.287
	l42.136-101.565h-13.09l-42.04,101.565H337.979z M275.683,132.52l-4.395,10.605h41.276c7.834,0,5.445,5.829,5.445,5.829h-26.562
	c-10.51,0-18.25,4.776-20.734,10.797c-4.299,10.318,1.91,18.535,13.854,18.535h13.473c3.183-0.133,6.275-1.09,8.982-2.771
	l-1.146,2.771h12.992l10.796-25.797c4.49-10.988-2.388-19.97-15.573-19.97H275.683z M124.054,178.287l10.701-25.797
	c4.586-10.988-2.389-19.97-15.478-19.97H85.263l-4.396,10.605h36.881c7.834,0,5.445,5.829,5.445,5.829H96.632
	c-10.51,0-18.249,4.776-20.733,10.797c-4.3,10.318,1.911,18.535,13.854,18.535h13.472c3.183-0.135,6.277-1.09,8.981-2.771
	l-1.242,2.771H124.054z M55.835,143.126h17.389l4.299-10.605H59.751c-21.021,0-43.282,12.708-49.779,28.281
	c-3.918,9.46,1.815,17.485,12.994,17.485h23.217c10.128,0,22.358-9.649,22.358-9.649l-10.797-4.587
	c-3.022,2.186-6.598,3.476-10.319,3.728H25.26c-2.771,0-4.013-2.771-2.484-6.307C26.979,151.344,41.789,143.126,55.835,143.126z"/>
<path fill="#041E41" d="M234.026,193.096c-4.3,10.511-4.204,24.937,0.384,32.198l25.796,41.37l17.008-24.649l-31.435-26.179
	c-3.345-2.675-4.301-9.27-2.104-14.428L324.316,6.688h-13.09l-52.167,125.929h-15.478l-4.396,10.605h15.573L234.026,193.096z"/>
<path fill="#FFFFFF" d="M93.193,159.558c-2.528,0.182-4.759,1.718-5.829,4.015c-0.955,2.294,0.096,4.205,2.389,4.205h19.969
	c3.168-0.112,6.04-1.895,7.548-4.684l2.198-5.159c-2.522,1.02-5.21,1.571-7.93,1.623H93.193z M288.009,159.558
	c-2.526,0.182-4.759,1.718-5.828,4.015c-0.957,2.294,0.189,4.205,2.388,4.205h19.97c3.192-0.111,6.095-1.887,7.643-4.684
	l2.103-5.159c-2.521,1.02-5.211,1.571-7.931,1.623H288.009z"/>
</svg>
