<svg xmlns="http://www.w3.org/2000/svg" viewBox="0 0 24 16"><path fill="#8E9090" d="M20 8c0 4.42-3.58 8-8 8s-8-3.58-8-8a8 8 0 0 1 16 0"/><path fill="#041E41" d="M19.463 8A7.462 7.462 0 0 1 4.538 8a7.462 7.462 0 0 1 14.925 0"/><path fill="#FFF" d="M12.723 2.546L12 .726l-.765 1.82a5.513 5.513 0 0 0-4.77 5.462c0 3.045 2.49 5.514 5.536 5.514 3.045 0 5.493-2.47 5.493-5.514 0-2.793-2.078-5.1-4.77-5.462"/><path fill="none" d="M11.54 11.006l.056.127zM8.632 6.972l.004.54v.006-.005zM11.287 5.8l-.112 1.277-2.085.995 2.085-.995.113-1.277.074-.348zM15.37 6.957l-.446 1.115.445-1.112zM14.4 9.315l-1.39.093z"/><path fill="#7B303E" d="M12.573 5.09L12 5.345l-.56-.26-1.05-.688.424 2.504-1.118-1.116-.03.88-1.636-.617.595 1.654-.88.006.892.778v.952l.332-.165.618.042.6.523-.354.44.59.095m-.31.726v.833l1.317-.65.1-.25.47 2.28.476-2.3.107.27 1.316.65v-.834l-.49-.705.006.01.773-.124-.353-.44.6-.522.61-.04.33.164v-.946l.9-.786-.88-.005.596-1.653-1.637.617-.03-.88L13.21 6.9c.028-.174.422-2.504.422-2.504l-1.06.695M11.542 11.007l.056.127-.055-.127zm2.86-1.692"/><g fill="#AC162C"><path d="M11.068 9.412l-1.36-.09.575.5c-.01.026-.312.4-.312.4l.674.11.424-.61v-.31zM11.424 5.16l-.93-.61v.01l.742 1.81.05-.57.138-.64zM10.814 7.003L10.81 7 9.766 5.958l-.03.81-1.566-.588 1.527 1.6 1.284-.612zM11.662 11.283l.34 1.717-.002-.943zM7.94 7.78l.695.605v-.61zM13.523 4.556l-.934.616.103.482zM15.866 6.178l-1.562.59-.457.79.312.15z"/></g><path fill="#55565A" d="M15.37 6.957l-.446 1.115-2.084-.995-.113-1.277L12 2.48 11.29 5.8l-.113 1.277-2.085.995-.458-1.1.005.54v1.925l.33-.166 2.103.142v.31l-.955 1.374v.833l1.317-.65.11-.274.458 1.05.474-1.05.11.273 1.315.65v-.834l-.955-1.373v-.31l2.102-.142.33.167V7.513z"/><path fill="#8E9090" d="M11.43 5.82l-.118 1.352-.066.766-.137-.67-2.095 1-.234-.565v1.5l.158-.078 2.276.152v.49l-.955 1.374v.557l1.058-.522.164-.413-.09-.456.153.358.455 1.034V3.063z"/><g fill="#FFF"><path d="M18.147 14.56a.41.41 0 1 0 .003-.824.41.41 0 0 0-.003.823zm0-.735a.322.322 0 1 1 .004.644.322.322 0 0 1-.003-.645z"/><path d="M18.067 14.192h.063l.09.19h.098l-.094-.2a.14.14 0 0 0-.046-.27h-.2v.47h.09v-.19zm0-.19h.11a.05.05 0 0 1 .05.05.05.05 0 0 1-.05.052h-.11V14z"/></g></svg>