<?xml version="1.0" encoding="utf-8"?>
<!-- Generator: Adobe Illustrator 15.1.0, SVG Export Plug-In . SVG Version: 6.00 Build 0)  -->
<!DOCTYPE svg PUBLIC "-//W3C//DTD SVG 1.1//EN" "http://www.w3.org/Graphics/SVG/1.1/DTD/svg11.dtd">
<svg version="1.1" id="Layer_1" xmlns="http://www.w3.org/2000/svg" xmlns:xlink="http://www.w3.org/1999/xlink" x="0px" y="0px"
	 width="435.031px" height="352.309px" viewBox="0 0 435.031 352.309" enable-background="new 0 0 435.031 352.309"
	 xml:space="preserve">
<path fill="#8E9090" d="M385.939,174.618c0,96.2-75.231,174.119-168.108,174.119c-92.883,0-168.114-77.919-168.114-174.119
	C49.716,78.455,124.984,0.5,217.831,0.5C310.672,0.5,385.939,78.455,385.939,174.618"/>
<path fill="#041E41" d="M374.656,174.618c0,89.703-70.212,162.419-156.814,162.419c-86.608,0-156.819-72.717-156.819-162.419
	c0-89.702,70.211-162.42,156.819-162.42C304.444,12.198,374.656,84.916,374.656,174.618"/>
<path fill="#FFFFFF" d="M233.018,55.913l-15.188-39.611l-16.075,39.611c-57.416,8.088-100.231,58.866-100.239,118.88
	c0,66.273,52.325,120.01,116.335,120.01c63.983,0,115.425-53.758,115.425-120.01c0-60.79-43.667-111.001-100.237-118.88"/>
<path fill="none" d="M208.164,240.044l1.177,2.765L208.164,240.044z M147.055,152.244l0.084,11.753v0.13v-0.108L147.055,152.244z
	 M202.848,126.736l-2.354,27.794l-43.815,21.657l43.815-21.657l2.375-27.794l1.555-7.575L202.848,126.736z M288.643,151.917
	l-9.372,24.269l9.352-24.203L288.643,151.917z M268.259,203.239l-29.21,2.024L268.259,203.239z"/>
<path fill="#7B303E" d="M229.866,111.282l-12.035,5.551l-11.768-5.659l-22.065-14.975l8.91,54.499l-23.494-24.29l-0.631,19.153
	l-34.379-13.429l12.503,35.999l-18.493,0.13l18.745,16.933v20.721l6.977-3.592l12.987,0.914l12.608,11.384l-7.438,9.575
	l12.398,2.069 M178.177,242.067v18.131l27.676-14.147l2.102-5.441l9.876,49.624l9.998-50.061l2.247,5.878l27.655,14.147v-18.152
	l-10.296-15.344l0.124,0.217l16.245-2.699l-7.418-9.575l12.608-11.361l12.818-0.871l6.936,3.569v-20.589l18.913-17.108
	l-18.494-0.109l12.524-35.977l-34.398,13.429l-0.632-19.154l-23.409,24.204c0.589-3.787,8.868-54.5,8.868-54.5l-22.275,15.126
	 M208.206,240.065l1.177,2.764l-1.155-2.764H208.206z"/>
<g>
	<path fill="#AC162C" d="M198.246,205.349l-28.58-1.958l12.083,10.883c-0.21,0.565-6.557,8.707-6.557,8.707l14.164,2.392
		l8.91-13.274v-6.749H198.246z M205.727,112.806L186.183,99.53v0.218l15.593,39.394l1.051-12.406L205.727,112.806z M192.908,152.919
		l-0.084-0.065l-21.939-22.679l-0.63,17.63l-32.909-12.798l32.089,34.823l26.982-13.319L192.908,152.919z M210.728,246.073
		l7.146,37.369l-0.042-20.523L210.728,246.073z M132.513,169.829l14.605,13.167v-13.274L132.513,169.829z M249.83,99.661
		l-19.627,13.407l2.163,10.49L249.83,99.661z M299.066,134.963l-32.824,12.842l-9.603,17.194l6.557,3.265L299.066,134.963z"/>
</g>
<path fill="#55565A" d="M288.643,151.917l-9.372,24.269l-43.795-21.657l-2.374-27.794l-15.271-72.259l-14.92,72.259l-2.374,27.794
	l-43.815,21.657l-9.625-23.942l0.104,11.753v41.897l6.935-3.613l44.193,3.091v6.747l-20.069,29.905v18.13l27.676-14.146l2.312-5.964
	l9.625,22.853l9.956-22.853l2.311,5.941l27.634,14.147V241.98l-20.069-29.882v-6.749l44.173-3.091l6.936,3.636v-41.875
	L288.643,151.917z"/>
<path fill="#8E9090" d="M205.853,127.171l-2.479,29.425l-1.387,16.672l-2.879-14.582l-44.025,21.765l-4.917-12.298v32.648
	l3.32-1.699l47.828,3.309v10.665l-20.068,29.905v12.122l22.233-11.361l3.447-8.989l-1.892-9.923l3.215,7.79l9.561,22.505V67.166
	L205.853,127.171z"/>
<g>
	<path fill="#FFFFFF" d="M347,317.395c4.781,0.019,8.672-3.981,8.689-8.934c0.017-4.953-3.845-8.981-8.626-9.001l0,0
		c-4.776-0.018-8.662,3.978-8.679,8.925c-0.018,4.946,3.839,8.971,8.615,8.988V317.395z M347,301.397
		c3.736-0.022,6.786,3.096,6.811,6.966c0.022,3.871-2.989,7.028-6.726,7.053l0,0c-3.743,0.018-6.792-3.111-6.81-6.987
		c-0.017-3.876,3.004-7.034,6.746-7.053l0,0L347,301.397z"/>
	<path fill="#FFFFFF" d="M345.319,309.386h1.324l1.892,4.135h2.059l-1.976-4.353c1.511-0.621,2.249-2.393,1.648-3.956
		c-0.43-1.119-1.453-1.872-2.615-1.921h-4.203v10.229h1.893v-4.135H345.319z M345.319,305.251h2.312
		c0.581,0,1.051,0.488,1.051,1.088c0.022,0.601-0.427,1.107-1.008,1.132c-0.016,0-0.028,0-0.043,0h-2.312v-2.264V305.251z"/>
</g>
</svg>
